<?xml version="1.0" encoding="utf-8"?>
<!-- Generator: Adobe Illustrator 20.1.0, SVG Export Plug-In . SVG Version: 6.00 Build 0)  -->
<svg version="1.1" id="Layer_1" xmlns="http://www.w3.org/2000/svg" xmlns:xlink="http://www.w3.org/1999/xlink" x="0px" y="0px"
	 viewBox="0 0 1000 1000" style="enable-background:new 0 0 1000 1000;" xml:space="preserve">
<style type="text/css">
	.st0{fill:none;stroke:#5B5B5B;stroke-width:2;stroke-miterlimit:10;}
	.st1{fill:none;stroke:#231F20;stroke-miterlimit:10;}
	.st2{fill:none;stroke:#231F20;stroke-width:2;stroke-miterlimit:10;}
	.st3{fill:#231F20;}
</style>
<g>
	<path class="st0" d="M462.1,582.2c0,65.4-26.4,102.4-69.6,102.4c-53.2,0-97.8-61.9-97.8-121.6c0-59.6,26.3-110.9,78.2-108
		C421.7,457.8,462.1,522.6,462.1,582.2z"/>
	<path class="st1" d="M458.8,578.9c0,60.7-24.1,93.9-64.1,93.9c-40.1,0-88.2-54-88.2-109.4c0-55.3,32.5-100.2,72.5-100.2
		C424.5,463.2,458.8,523.6,458.8,578.9z"/>
	<path class="st2" d="M415.8,431.8c-25.6-1.4-45.8,8.2-60.5,24.8c5.8-1.3,12-1.9,18.7-1.5c48.5,2.7,88.6,67.5,88.6,127.1
		c0,53.8-17.8,88.4-47.9,99c7.7,2.2,15.7,3.5,23.8,3.5c49.7,0,80.2-40.8,80.2-112.8C518.6,506.1,472.1,434.8,415.8,431.8z"/>
	<path class="st3" d="M548.7,518.7c-6.4-5.1-17.9-1.3-17.5,7.7c0,0.2,0.1,0.3,0.1,0.4c0.2,5.1,2.5,11.5,3.9,13.5
		c3.6,5.2,17.2,14.4,22.1,6.3C562.2,538.4,555.4,524.1,548.7,518.7 M548.7,546.8c-3-0.6-5.7-2-8-3.9c-2.8-2.3-4.9-5.1-6.1-8.5
		c-0.4-1.2-1.7-6.1-1.1-9.3c0.4-1.1,1-2,1.6-2.8c0.1,0,0.1,0,0.2-0.1c0.1,0.1,0.1,0.1,0.2,0.1c7.3,2.8,11.9,13.2,14.5,20
		c0.3,0.8,1.8,0.8,1.6-0.2c-0.7-5.5-3.9-10.2-7.1-14.5c-1.7-2.3-4.1-6.3-7.2-6.7c0-0.2-0.1-0.4-0.3-0.5c3.3-2.5,7.8-2.6,11.6,1.4
		c4,4.2,7.1,10.7,7.6,16.4C556.7,543.3,554.8,548,548.7,546.8"/>
	<path class="st3" d="M524.7,657.9c-0.7-2.5-2.4-4.6-5.2-4.5c-1.7,0-3,0.7-4,1.8c-1.4,0.5-2.6,1.6-3.7,3c-1.6,2.2-2.8,4.6-4.2,6.9
		c-1,1.6-2.3,3.4-2.7,5.2c-1.8,7.9,10.2,7.1,14.5,5.1C525.1,672.6,526.2,663.4,524.7,657.9 M522.7,663c-0.1,3.5-0.6,8-4,10
		c-1.9,1.1-4.8,1.4-6.9,1.4c-1.1,0-1.9-0.3-2.5-0.8c0-0.1,0-0.2-0.1-0.4c-1.1-2.5,0.9-7,2-9.3c0.6-1.1,1.2-2.1,1.9-3
		c0.4,0.2,0.9,0.1,1.2-0.4c0.7-1.1,1.8-3,3-4.1c0.1,0,0.2,0,0.3,0c1.5,5.1,0.4,9.6-1.7,14.5c-0.3,0.8,0.7,1.9,1.4,1
		c3.5-4.3,3.8-10.4,2.2-15.6c0.3-0.1,0.4-0.4,0.5-0.7c0.7,0.2,1.5,0.9,2.2,2.1C523,659.3,522.7,661.6,522.7,663"/>
	<path class="st3" d="M407.7,669.1c-0.3,0-0.6,0-0.9,0.1c-0.1-0.1-0.2-0.1-0.3-0.2c-6-1.1-11.3-3.2-16.1-7.2c-0.7-0.6-1.7,0.4-1,1
		c3.4,3,7.4,5.4,11.8,6.7c-32.8-0.2-56.4-31.3-72.1-57.5c-15.7-26.3-23.4-56.8-15.5-86.2c2.3-7.4,5.4-14.6,9.3-21.7
		c0.1-0.1-0.1-0.2-0.2-0.1c-1.9,2.6-3.6,5.2-5.1,8c-0.3-0.2-0.8-0.2-1,0.3c-2.9,5.7-5,11.7-6.4,17.7c-16.8,57.5,17.2,139,79.8,142
		c5.8,1.1,11.8,1,18-0.6C409.2,671,409,668.9,407.7,669.1 M346.3,650.2c-14.2-12.4-24.1-29.9-30.3-47.5c-5.3-14.9-7.9-29.9-7.6-44.8
		c1.7,19.8,9.2,39.5,19.3,56.2c10,16.5,25.8,39.5,45.3,51.1C363.3,662,354.3,657.2,346.3,650.2"/>
	<path class="st3" d="M632.2,523.3c-22.1-42.6-57.9-78.7-101.4-99.3c-1-0.5-1.8,0.9-0.8,1.4c42.5,22.7,77.4,56.5,99.8,99.4
		C630.6,526.4,633.1,525,632.2,523.3"/>
	<path class="st3" d="M550.9,349c0-0.4-0.4-0.8-0.9-0.9c-0.9,0-1.6,0.1-2.3,0.4c0,0,0,0,0,0c-0.3,0-0.5,0.2-0.6,0.3
		c-2.4,1.5-3.3,5-3.5,7.9c-0.2,3,0.1,8,4,8.5c4.8,0.6,5.9-5.2,6.3-8.7C554.3,353.5,553.4,350.2,550.9,349 M551.4,357.6
		c-0.1,0.9-0.3,1.8-0.5,2.6c-0.2,1.4-1,1.9-2.4,1.5c-1.3,0.8-2.1,0.5-2.2-0.7c-0.7-1.2-0.4-3.8-0.3-5.2c0.2-2.1,0.8-4,2.3-5.1
		c0,0,0.1,0,0.1,0C552.2,350.2,551.8,355.4,551.4,357.6"/>
	<path class="st3" d="M598.9,346.7c-0.8-0.9-2.3-1.4-3.7-1.2c-0.7-0.8-1.9-0.6-2.9,0.1c-1.6,1.1-2.1,3-2.2,4.9
		c-0.1,3.6,2.8,7.9,6.9,6.3C600.5,355.3,601.1,349.2,598.9,346.7 M596.2,354.4c-2.8,1.1-4.2-2.8-3.6-5.4c0.5,0.6,1.5,0.6,1.8-0.4
		c0.4-1.6,2.5-1.4,3.2,0C598.2,350.1,597.8,353.8,596.2,354.4"/>
	<path class="st3" d="M604.3,342.9c-2.7-5.2-9.3-7.8-14.4-5.3c-16.3,4.6-4.8,40.4,10.6,29.5C607.3,362.4,607.9,349.8,604.3,342.9
		 M601.5,362c-5.6,9.4-14,2.3-16-5.1c-1.4-5.1-1.8-11.9,2-15.7c0.3,0.1,0.6,0.1,0.9,0c5.5-3.1,11.7-2.5,14.3,4.2
		C604.7,350.3,604.2,357.5,601.5,362"/>
	<path class="st3" d="M631.5,344.8c-0.9-0.8-2.2-1.3-3.5-1.3c0,0-0.1-0.1-0.1-0.1c-1.4-0.9-3.2-0.6-4.3,0.6c-1.4,1.6-1.3,4-1,6
		c0.6,3.9,3.9,7.5,7.9,4.9C633.9,352.6,634.4,347.6,631.5,344.8 M629.6,352.4c-1.9,1.7-3.7,0.4-4.4-1.7c-0.2-0.6-0.4-1.6-0.4-2.7
		c0.2,0,0.5-0.2,0.6-0.4c1-1.7,3-2.8,4.6-0.9C631.5,348.3,631.2,350.9,629.6,352.4"/>
	<path class="st3" d="M626.3,332.2c-0.1-0.4-0.4-0.8-1-0.6c-16.6,3.5-10.6,37,6.5,34.2C648.1,363,643.8,329.7,626.3,332.2
		 M629.9,363c-13,0.2-15.6-22-6.3-28.7c0.2,0.3,0.6,0.5,1.1,0.4c7.7-1.2,12.7,3.1,14,10.6C639.8,352.1,638.5,362.9,629.9,363"/>
	<path class="st3" d="M303.7,423.8c-2.3-5.8-8.1-8.9-14.1-8.8c-0.2-0.3-0.6-0.4-0.9-0.1c-4.3,3.3-5.2,10-3.2,14.8
		c2,4.9,8.6,10.6,14.3,8.3C304.9,435.9,305.4,428.3,303.7,423.8 M295.5,435.7c-3.8-0.5-7.3-4.5-8.3-8c-1.1-3.8,0-6.8,1.6-9.9
		c4,4.8,5.1,10,5.7,16.1c0.1,0.9,1.5,1.3,1.7,0.2c1.3-5.7-0.8-11.6-4.1-16.3c3.4,0.5,6.6,2.2,8.4,5.3
		C303.1,427.3,303,436.6,295.5,435.7"/>
	<path class="st3" d="M549.3,453.4c-0.6-0.5-1.4,0.6-0.8,1.1c29.3,22.7,48.5,54.2,55.7,90.6c0.2,1.2,2.1,0.7,1.9-0.5
		C600,508.5,578.8,474.8,549.3,453.4"/>
	<path class="st3" d="M536.9,554.5c-0.2-0.9-1.5-0.5-1.3,0.4c0.8,4.8,1.4,9.7,2.5,14.5c0.2,0.8,1.6,0.7,1.5-0.2
		C539.1,564.2,537.9,559.3,536.9,554.5"/>
	<path class="st3" d="M543,558.4c-0.2-0.9-1.4-0.5-1.3,0.4c0.4,2.6,0.7,5.3,1.3,7.9c0.2,0.8,1.5,0.6,1.4-0.2
		C544.1,563.7,543.5,561,543,558.4"/>
	<path class="st3" d="M548.1,568.3c-1.1-5.5-2.6-11-3.9-16.4c-0.2-0.9-1.5-0.5-1.3,0.4c1.2,5.5,2.3,11,3.8,16.5
		C546.9,569.6,548.3,569.2,548.1,568.3"/>
	<path class="st3" d="M552.1,555.1c-0.2-0.8-1.5-0.5-1.3,0.4c0.7,3.5,1.3,7,2.1,10.5c0.2,0.9,1.6,0.5,1.4-0.4
		C553.7,562.1,552.8,558.6,552.1,555.1"/>
	<path class="st3" d="M557.3,552.5c-0.1-0.8-1.5-0.6-1.4,0.2c0.5,3.8,0.8,7.6,1.5,11.3c0.2,0.8,1.6,0.7,1.5-0.2
		C558.7,560,557.9,556.2,557.3,552.5"/>
	<path class="st3" d="M567.2,559c-2.7-12.5-6.2-24.7-10.4-36.8c-0.3-0.8-1.6-0.5-1.3,0.4c4.2,12.1,7.6,24.3,10.4,36.8
		C566,560.3,567.4,560,567.2,559"/>
	<path class="st3" d="M557.9,507.7c-0.4-0.8-1.5-0.1-1.2,0.7c7.3,16.2,12.1,32.7,16.6,49.8c0.3,1,1.7,0.6,1.5-0.4
		C571.7,540.5,565.3,523.6,557.9,507.7"/>
	<path class="st3" d="M583.6,556.3c-5.7-26.7-15.6-52.1-29.4-75.6c-0.4-0.8-1.6-0.1-1.2,0.7c13.6,23.5,23.3,48.9,28.8,75.5
		C582,558,583.9,557.5,583.6,556.3"/>
	<path class="st3" d="M594.8,551.6c-6.2-24.4-16-47.7-29.4-69.1c-0.5-0.7-1.6-0.1-1.2,0.7c12.9,21.5,22.6,44.6,28.5,68.9
		C593.1,553.5,595.2,553,594.8,551.6"/>
	<path class="st3" d="M600.2,544.6c-2.9-11.4-7.5-22.4-12.7-32.9c-0.4-0.8-1.6-0.1-1.2,0.7c5.1,10.6,8.9,21.5,12.4,32.6
		C599,545.9,600.4,545.5,600.2,544.6"/>
	<path class="st3" d="M539.1,581.6c0-0.9-1.4-0.9-1.4,0c-0.2,12.1-1.7,23.6-4.5,35.3c-0.2,0.9,1.1,1.3,1.4,0.4
		C538.1,605.8,539.5,593.5,539.1,581.6"/>
	<path class="st3" d="M551.2,579.4c-0.1-0.8-1.6-0.7-1.5,0.2c1.1,12.2-0.1,23.5-3.3,35.3c-0.3,0.9,1.1,1.3,1.4,0.4
		C551.9,603.9,552.9,591.4,551.2,579.4"/>
	<path class="st3" d="M558.2,582.2c-0.3,10.3-0.8,20.6-0.8,30.9c0,1,1.5,1,1.5,0c0.5-10.3,0.5-20.6,0.7-30.9
		C559.6,581.3,558.2,581.3,558.2,582.2"/>
	<path class="st3" d="M496.9,571.8c-7,0.5-14,1.2-21,1.9c-1.1,0.1-1.1,1.9,0,1.7c7-0.7,14-1.3,21-2.1
		C497.9,573.1,497.9,571.7,496.9,571.8"/>
	<path class="st3" d="M481.8,515.2c-6.2,0.1-12.5,0.8-18.6,1.7c-0.9,0.1-0.7,1.7,0.2,1.6c6.1-0.8,12.3-1.2,18.4-1.7
		C482.8,516.6,482.8,515.2,481.8,515.2"/>
	<path class="st3" d="M347.8,483c-10.6,12.8-17.5,27.6-20.8,43.9c-0.2,0.8,1.1,1.2,1.3,0.4c3.2-16,10.2-30.6,20.5-43.2
		C349.4,483.3,348.4,482.4,347.8,483"/>
	<path class="st3" d="M321.1,517.6c-4.4,8.8-6.4,18.1-6.1,27.9c0,0.9,1.4,0.9,1.4,0c-0.3-9.5,1.7-18.6,5.9-27.2
		C322.7,517.5,321.5,516.8,321.1,517.6"/>
	<path class="st3" d="M363.9,645.6c-22.9-21.9-37.7-50.3-41.3-81.8c-0.1-0.8-1.4-0.8-1.3,0c3.5,31.5,18.1,61.5,41.6,82.8
		C363.6,647.3,364.6,646.3,363.9,645.6"/>
	<path class="st3" d="M384.1,652.5c-28.7-23.9-46.7-57.9-49.5-95.2c-0.1-0.9-1.5-0.9-1.4,0c2.4,37.2,20.6,73,49.9,96.2
		C383.8,654.1,384.8,653.1,384.1,652.5"/>
	<path class="st3" d="M392.7,646.2c-16.9-11.4-29.5-27.3-36.2-46.5c-0.3-0.8-1.6-0.5-1.3,0.4c6.7,19.4,19.5,36.2,36.8,47.4
		C392.7,648,393.4,646.8,392.7,646.2"/>
	<path class="st3" d="M376.6,612.1c-6.6-9.6-11.9-19.7-15.9-30.7c-0.3-0.8-1.6-0.5-1.3,0.4c3.9,11.1,9.2,21.5,16,31
		C376,613.5,377.2,612.9,376.6,612.1"/>
	<path class="st3" d="M404.9,627c-12-11.9-21.9-25.5-29.5-40.5c-0.4-0.8-1.6-0.1-1.2,0.7c7.6,15.2,17.6,28.9,29.7,40.8
		C404.6,628.6,405.6,627.6,404.9,627"/>
	<path class="st3" d="M419.6,649.2c-5.4-1.6-10.2-4.3-14.2-8.3c-0.6-0.6-1.6,0.4-1,1c4.2,4.1,9.2,7.1,14.8,8.7
		C420.1,650.8,420.5,649.4,419.6,649.2"/>
	<path class="st3" d="M409.2,607.5c-10.6-11.7-18.6-24.8-23.3-39.9c-0.3-0.9-1.7-0.5-1.4,0.4c4.6,15.2,12.4,29.3,23.6,40.6
		C408.9,609.2,409.9,608.2,409.2,607.5"/>
	<path class="st3" d="M431.4,610.9c-12.9-12.5-23.5-26.9-31.5-43c-0.4-0.8-1.6-0.1-1.2,0.7c8,16.2,18.6,30.7,31.7,43.3
		C431.1,612.6,432.1,611.6,431.4,610.9"/>
	<path class="st3" d="M440.1,596.3c-12.8-14-23.2-29-30.5-46.5c-0.3-0.8-1.7-0.5-1.3,0.4c7,17.5,17.2,34,30.8,47.2
		C439.8,598.1,440.8,597,440.1,596.3"/>
	<path class="st3" d="M444.9,587.6c-8.9-10.3-16.5-21-22.1-33.4c-0.4-0.8-1.6-0.1-1.2,0.7c5.4,12.4,12.7,24.2,22.2,33.8
		C444.5,589.5,445.6,588.4,444.9,587.6"/>
	<path class="st3" d="M415.5,660.8c-5.3-0.5-10.5-1.4-15.6-3.1c-0.9-0.3-1.2,1.1-0.4,1.4c5.1,1.8,10.5,3.1,16,3.2
		C416.5,662.3,416.4,660.9,415.5,660.8"/>
	<path class="st3" d="M605.1,500.5c-5.5-8.2-11.2-16.3-16.8-24.5c-0.5-0.7-1.7,0-1.2,0.7c5.6,8.2,11.1,16.4,16.7,24.5
		C604.4,502,605.6,501.3,605.1,500.5"/>
	<path class="st3" d="M625.2,500.2c-10.7-17.7-25.2-33.4-41.1-46.5c-0.7-0.6-1.7,0.4-1,1c16,13.5,29.1,29.1,40.9,46.3
		C624.5,501.7,625.7,501.1,625.2,500.2"/>
	<path class="st3" d="M639.7,488.8c-11.8-19.8-27.4-37.6-44.9-52.4c-0.7-0.6-1.7,0.4-1,1c17.3,15.5,31.8,32.9,44.7,52.1
		C639,490.4,640.2,489.6,639.7,488.8"/>
	<path class="st3" d="M308.6,408c-2.5-9.1-6.3-18-10.5-26.5c-0.4-0.8-1.5-0.1-1.2,0.7c4.1,8.5,7.3,17.2,10.3,26.2
		C307.5,409.3,308.8,408.9,308.6,408"/>
	<path class="st3" d="M317.4,417.3c-5.1-15.9-10.9-31.5-17.5-46.9c-0.3-0.8-1.5-0.1-1.1,0.7c6.5,15.2,12.3,30.8,17.3,46.6
		C316.3,418.5,317.6,418.2,317.4,417.3"/>
	<path class="st3" d="M332,433.5c-7-28.1-18.8-55.2-33.2-80.3c-0.4-0.7-1.6-0.1-1.1,0.7c14.4,25.4,24.7,52.1,32.7,80
		C330.7,434.9,332.3,434.5,332,433.5"/>
	<path class="st3" d="M329,397.5c-0.3-0.8-1.6-0.5-1.3,0.4c5.1,14,8.6,28.3,12.1,42.8c0.3,1.1,1.8,0.6,1.6-0.4
		C338.9,425.6,334.2,411.3,329,397.5"/>
	<path class="st3" d="M290.8,487.5c-0.8-10-1.4-20.3-5.1-29.7c-0.3-0.8-1.6-0.5-1.3,0.4c5.8,20.6,4.2,42.4,6.4,63.6
		c0.1,1,1.6,1.1,1.7,0C292.9,510.5,291.7,498.8,290.8,487.5"/>
	<path class="st3" d="M292.6,463.8c-0.1-0.8-1.6-0.6-1.5,0.2c1.8,15.4,1.7,30.5,2,45.9c0,1.1,1.5,1,1.6,0
		C296.4,494.8,295,478.9,292.6,463.8"/>
	<path class="st3" d="M295.7,465.7c-0.2-0.7-1.4-0.6-1.4,0.2c1.1,12.2,2.1,23.9,2,36.2c0,1,1.5,1,1.6,0
		C299.2,490.3,298.7,477.3,295.7,465.7"/>
	<path class="st3" d="M300.6,467.8c-0.2-1-1.6-0.5-1.4,0.4c1.3,9.4,1.7,18.5,1.9,28c0,1.1,1.5,1,1.6,0
		C303.7,486.8,302.7,476.9,300.6,467.8"/>
	<path class="st3" d="M304.9,472.5c-0.1-0.9-1.5-0.9-1.4,0c0.2,5.5,0.3,11.2,1.2,16.7c0.2,1,1.7,0.7,1.7-0.2
		C306.4,483.5,305.6,478,304.9,472.5"/>
	<path class="st3" d="M310.4,475.8c0.8,0,0.8-1.3,0-1.3c-0.2,0-0.4,0.1-0.5,0.2c0.1-1-1.3-1.5-1.6-0.4c-0.4,1.8-0.6,4.3,0.6,5.9
		c0.6,0.8,1.7,0.3,1.5-0.6c-0.1-0.8-0.4-1.5-0.6-2.3c-0.1-0.6-0.1-1.2-0.1-1.8C310,475.7,310.2,475.8,310.4,475.8"/>
	<path class="st3" d="M452.3,505c-5.3-9.4-11.4-18.3-17.9-26.8c-0.5-0.7-1.7,0-1.2,0.7c6.5,8.6,12.4,17.5,17.9,26.8
		C451.5,506.5,452.7,505.8,452.3,505"/>
	<path class="st3" d="M456.9,506.3c-7.2-15.4-17.2-29.4-29-41.6c-0.6-0.6-1.5,0.3-0.9,0.9c11.8,12.3,21.1,26.1,28.6,41.4
		C456.1,507.9,457.3,507.2,456.9,506.3"/>
	<path class="st3" d="M464,506.4c-7.5-14.4-16.4-27.9-26.8-40.4c-0.6-0.7-1.5,0.3-1,1c10.2,12.5,18.9,25.9,26.3,40.2
		C463.1,508.1,464.5,507.3,464,506.4"/>
	<path class="st3" d="M471.9,504.3c-0.1,0-0.3-0.1-0.4-0.1c-0.2,0-0.4,0-0.5,0.1c-0.4-1.5-1.3-3.8-1.4-4c-0.7-2-1.8-3.9-2.8-5.8
		c-2.1-4.1-4.5-8.2-7.1-12c-4.6-6.9-10-13.3-15.9-19.1c-0.6-0.6-1.5,0.3-0.9,0.9c7,7.1,13.2,14.9,18.3,23.5c2.2,3.7,4.2,7.5,6,11.4
		c1,2.1,1.4,6.2,3.9,7.2c0.5,0.2,1.1,0.1,1.3-0.5c0-0.2,0.1-0.4,0.1-0.5C472.6,504.9,472.4,504.4,471.9,504.3"/>
	<path class="st3" d="M480.7,505.8c-7.1-17-17.9-32.2-31.2-45c-0.7-0.6-1.6,0.4-1,1c13.1,12.9,23.1,27.9,30.6,44.6
		C479.6,507.3,481.1,506.7,480.7,505.8"/>
	<path class="st3" d="M497,516.8c-7.8-18.3-19.3-35.2-32-50.4c-0.6-0.7-1.6,0.3-1,1c12.6,15.6,22.4,32.5,31.7,50.2
		C496.1,518.4,497.3,517.7,497,516.8"/>
	<path class="st3" d="M652.3,535.4c-0.2-0.8-1.5-0.6-1.4,0.2c0.2,6.2,1.2,12.6,2.3,18.6c0.2,0.9,1.7,0.7,1.6-0.2
		C654.3,547.8,653.6,541.4,652.3,535.4"/>
	<path class="st3" d="M676.1,529.7c-0.1-0.9-1.5-0.9-1.4,0c0.4,9.6,1.1,19.3,2.2,28.9c0.1,1,1.7,1.1,1.7,0
		C678.1,548.9,677.2,539.3,676.1,529.7"/>
	<path class="st3" d="M644.1,537.6c-0.1-0.9-1.6-1-1.5,0c0.8,14.5,2.5,29.3,5.3,43.6c0.2,0.9,1.8,0.7,1.7-0.2
		C647.7,566.5,645.8,552,644.1,537.6"/>
	<path class="st3" d="M683.6,531.7c-0.1-1.1-1.7-1.1-1.6,0c0.3,6.5,1,13,2.5,19.3c0.2,1,1.6,0.6,1.5-0.4
		C684.9,544.3,683.9,538,683.6,531.7"/>
	<path class="st3" d="M690.5,525.8c-0.1-0.9-1.4-0.9-1.4,0c0.3,10.2,1.4,20.4,3.4,30.4c0.2,1,1.7,0.6,1.6-0.4
		C692.6,545.7,691.4,535.8,690.5,525.8"/>
	<path class="st3" d="M700.3,527.1c-0.1-1-1.6-1-1.6,0c0.7,9.8,1.3,19.7,2.3,29.5c0.1,1,1.6,1,1.5,0
		C702,546.8,701.1,536.9,700.3,527.1"/>
	<path class="st3" d="M477.2,592.7c0-0.9-1.4-0.9-1.4,0c0.3,7.5-0.6,14.9-2.5,22.2c-0.2,0.9,1.1,1.2,1.3,0.4
		C476.8,607.9,477.6,600.4,477.2,592.7"/>
	<path class="st3" d="M482.3,588.2c-1.8,18.9-6.3,37.1-12.9,54.9c-0.3,0.8,1,1.2,1.3,0.4c7-17.7,11.2-36.4,12.9-55.3
		C483.7,587.3,482.4,587.3,482.3,588.2"/>
	<path class="st3" d="M489.2,593.2c-3,20.3-8.9,39.5-16.9,58.4c-0.4,0.9,0.9,1.6,1.3,0.7c8.6-18.6,14-38.5,17-58.7
		C490.6,592.7,489.3,592.3,489.2,593.2"/>
	<path class="st3" d="M496.8,592.7c0.1,21.2-5.3,40.7-14.8,59.5c-0.4,0.8,0.8,1.6,1.3,0.7c10.5-18.2,15.1-39.4,14.9-60.2
		C498.2,591.8,496.8,591.8,496.8,592.7"/>
	<path class="st3" d="M510.6,571.1c0-0.9-1.4-0.9-1.3,0c1.1,27-4.8,53.3-16.7,77.5c-0.4,0.8,0.8,1.6,1.2,0.7
		C506.3,625.2,511.8,598.1,510.6,571.1"/>
	<path class="st3" d="M491.5,453.7c-6.4-5.9-13.1-11.4-19.7-17.1c-0.7-0.6-1.7,0.4-1,1c6.5,5.8,13,11.6,19.6,17.1
		C491.1,455.4,492.2,454.4,491.5,453.7"/>
	<path class="st3" d="M141.7,540.2c-18.4-20.7-29.3-45.9-31.1-73.6c-0.1-0.9-1.5-0.9-1.4,0c1,27.6,12.2,54.7,31.5,74.6
		C141.3,541.9,142.3,540.9,141.7,540.2"/>
	<path class="st3" d="M150.4,538.6c-13.5-16.3-23.8-34.1-30.1-54.3c-0.3-0.9-1.6-0.5-1.4,0.4c6,20.2,16.2,39.4,30.4,55
		C150,540.4,151,539.4,150.4,538.6"/>
	<path class="st3" d="M155,527.5c-9.6-10.4-17-21.5-21.5-34.9c-0.3-0.9-1.7-0.5-1.4,0.4c4.5,13.3,11.7,25.9,21.9,35.5
		C154.7,529.2,155.7,528.2,155,527.5"/>
	<path class="st3" d="M150.2,509c-3.7-6.3-7.5-12.4-10.6-19c-0.4-0.9-1.7-0.1-1.3,0.8c3,6.6,6.3,13.2,10.5,19.1
		C149.4,510.6,150.7,509.9,150.2,509"/>
	<path class="st3" d="M187.7,564.4c-14.1,1.8-27.5-1.8-37.5-12.3c-0.6-0.6-1.5,0.3-1,1c9.7,10.5,24.5,16.2,38.7,12.9
		C188.7,565.7,188.5,564.3,187.7,564.4"/>
	<path class="st3" d="M190.7,553.5c-12.2,1.8-23.9-1.1-33.5-9.1c-0.7-0.6-1.7,0.4-1,1c9.6,8.5,22.3,12.1,34.9,9.5
		C192,554.7,191.6,553.4,190.7,553.5"/>
	<path class="st3" d="M130.5,401.7c-10.7,12.6-17,28.8-17.6,45.3c0,1,1.5,1,1.6,0c1.4-16.5,7.1-31.2,17.1-44.5
		C132.1,401.9,131,401.1,130.5,401.7"/>
	<path class="st3" d="M192.3,421.5c-0.5-0.8-1.8-0.1-1.3,0.7c12.6,20.1,15.8,43.4,19.3,66.4c0.1,1,1.8,0.7,1.7-0.2
		C209.2,465.2,205.4,441.4,192.3,421.5"/>
	<path class="st3" d="M199.4,458.6c-0.2-0.9-1.5-0.5-1.3,0.4c2.6,11.2,3.2,22.4,2.5,33.9c-0.1,0.9,1.3,0.9,1.4,0
		C203.1,481.3,202.1,469.9,199.4,458.6"/>
	<path class="st3" d="M212,449.4c-0.3-0.8-1.6-0.5-1.3,0.4c5.7,16.1,7.7,32.7,7,49.7c0,0.9,1.4,0.9,1.4,0
		C220.6,482.4,218,465.4,212,449.4"/>
	<path class="st3" d="M354.3,504.3c-5.7,11.7-6.8,25.1-1.6,37.1c0.3,0.8,1.7,0.2,1.4-0.6c-4-12.1-3.9-24.1,1.5-35.8
		C356,504.2,354.7,503.4,354.3,504.3"/>
	<path class="st3" d="M363.6,504.7c-0.9,0-0.9,1.4,0,1.4C364.5,506.1,364.5,504.7,363.6,504.7"/>
	<path class="st3" d="M218.4,515.9c-0.1-0.9-1.5-0.9-1.4,0c0.8,9.8-2,18.5-7.5,26.6c-0.5,0.7,0.7,1.6,1.2,0.9
		C216.9,535.6,219.4,525.8,218.4,515.9"/>
	<path class="st3" d="M230.6,435.9c-0.4-0.8-1.7-0.1-1.3,0.7c5.2,10.5,8.1,21.3,9.9,32.9c0.1,0.8,1.6,0.7,1.5-0.2
		C239.6,457.6,235.9,446.4,230.6,435.9"/>
	<path class="st3" d="M231,418.3c-0.4-0.8-1.7-0.1-1.3,0.7c11.5,24.5,16.8,50.8,16.2,77.8c0,1.1,1.6,1.1,1.6,0
		C248.6,469.7,242.7,442.8,231,418.3"/>
	<path class="st3" d="M239.6,417.8c-0.3-0.8-1.6-0.4-1.3,0.4c9.9,24.2,14.3,49.3,14.3,75.4c0,1,1.6,1,1.6,0
		C254.9,467.7,249.5,441.7,239.6,417.8"/>
	<path class="st3" d="M251.5,425.7c-0.3-0.8-1.5-0.5-1.3,0.3c6.6,19.5,10,39.7,10.4,60.3c0,0.9,1.4,0.9,1.4,0
		C261.7,465.6,258.1,445.3,251.5,425.7"/>
	<path class="st3" d="M245.8,526.2c-2.6,11.7-6.9,22.5-12.3,33.3c-0.4,0.9,0.8,1.6,1.3,0.8c6.1-10.4,9.9-21.9,12.4-33.7
		C247.4,525.7,246,525.3,245.8,526.2"/>
	<path class="st3" d="M252.7,506.7c0-0.9-1.4-0.9-1.4,0c-0.2,19.3-4.4,37.2-11.6,55.1c-0.3,0.8,1,1.4,1.4,0.6
		C249.3,545.1,253,525.7,252.7,506.7"/>
	<path class="st3" d="M260,507.9c0-0.9-1.5-1-1.5,0c0.6,18.4-7.2,34.5-14.1,51.1c-0.3,0.8,1,1.4,1.4,0.6
		C253.9,543.6,260.9,526.1,260,507.9"/>
	<path class="st3" d="M265,507.4c-0.1-0.9-1.5-0.9-1.4,0c0.5,9.6,0.7,19.2-2.5,28.4c-2.6,7.5-6.4,14.2-7.4,22.2
		c-0.1,0.8,1.3,1,1.5,0.2c1.4-8.9,6.2-16.5,8.6-25.1C266.1,524.7,265.5,515.9,265,507.4"/>
	<path class="st3" d="M424.4,676.2C424.4,676.2,424.4,676.2,424.4,676.2C424.4,676.2,424.4,676.2,424.4,676.2"/>
	<path class="st3" d="M699.5,342.3c0.3-0.4,0.4-0.9-0.1-1.3c-4.9-4.7-11.3,9.5-4.5,11.9c3.2,1.1,6.1-2.3,6.7-5.1
		C702,346.1,701.1,343.4,699.5,342.3 M699.1,347.1c-0.2,1.4-1.6,3.6-3.2,3.2c-2.3-0.6-1.3-5.2,0.4-7.1c0,0.3,0.1,0.6,0.5,0.8
		C698.1,344.8,699.4,345.2,699.1,347.1"/>
	<path class="st3" d="M718.5,346.2c-1-1.8-3.8-3.8-6.1-3.5c-0.2-0.7-1.2-1.1-1.9-0.6c-2.4,2.1-3,5.7-1.8,8.6c1.3,3,4.6,4.8,7.6,2.9
		C719,352.1,720,348.9,718.5,346.2 M715.1,351.4c-2.1,1.3-3.8-0.7-4.3-2.7c-0.3-1.3,0-2.6,0.5-3.7c0,0,0,0,0,0
		c1.5,0.6,3,0.3,4.2,1.6C717,348,716.9,350.2,715.1,351.4"/>
	<path class="st3" d="M734.1,343.9c-1.4-0.9-3.7-0.6-5.1,0.4c-3.2,0.9-3.4,5.5-2.2,8.1c1.6,3.5,6.6,5.8,9.4,2.2
		C738.4,351.8,737.1,345.7,734.1,343.9 M734.1,353.1c-2.7,2.9-6.3-2.1-5.7-5.2c0.5,0.4,1.4,0.1,1.6-0.5c0.6-2,2.7-2,3.7-0.3
		C734.5,348.4,735.3,351.8,734.1,353.1"/>
	<path class="st3" d="M752,347.9c-0.9-0.6-2.1-0.6-3.3-0.3c-1.7-0.4-3.4,0.3-4.5,1.7c-1.4,1.8-1.3,4.5-0.6,6.6
		c1.3,4.1,5.7,6.5,8.9,2.6C754.9,355.7,755.5,350.1,752,347.9 M750.7,356.5c-3,3.9-5.9-2.4-4.7-5.4c0.1,0.4,0.3,0.8,0.6,1.2
		c0.6,0.7,1.6,0.1,1.7-0.7c0.2-2.4,2.8-1.9,3.3,0.1C752.1,353.3,751.7,355.3,750.7,356.5"/>
	<path class="st3" d="M771.3,355.2c-1-1.6-2.9-2.6-4.7-1.8c-0.1,0-0.1,0.1-0.2,0.1c-2.7,0.5-5.1,2.9-5.2,5.8
		c-0.1,3.8,3.8,7.9,7.7,6.5C772.6,364.6,773,358,771.3,355.2 M769.3,360.9c-0.2,1.2-0.4,2.4-2,2.4c-0.9,0-1.7-0.5-2.3-1.1
		c-1.9-1.8-1.6-3.9-0.2-5.4c0,0.1,0.1,0.3,0.1,0.4c0.4,1,1.8,0.4,1.9-0.5c0.9-1.4,1.6-1.5,2.2-0.4c0.3,0.5,0.5,1.1,0.5,1.7
		C769.6,359,769.5,360,769.3,360.9"/>
	<path class="st3" d="M784.5,360c-0.7-0.6-1.5,0.4-1.4,1.1c0.3,1.9,1.7,3.6,0.7,5.6c-0.6,1.2-2.4,2.2-3.6,1.5
		c-2.9-1.7-0.6-9.6,3-8.5c1.1,0.3,1.8-1.4,0.8-1.9c-6.1-2.9-9.8,8.8-5.4,12.1c2.1,1.6,5.3,0.8,6.8-1.2
		C787.3,366.4,787,361.9,784.5,360"/>
	<path class="st3" d="M797.9,364.2c0.3-0.6-0.3-1.6-1.2-1.4c-2.7,0.6-4.6,3.3-4.4,6c0.2,2.7,2.6,4.7,5.3,4.7c2.6,0,4.8-2,4.7-4.7
		C802.3,366.4,800.3,364,797.9,364.2 M797.2,370.8c-3.4-0.5-2.6-4.1-0.6-5.7c-0.1,0.6,0.1,1.2,0.8,1.3c1.3,0.2,2.4,0.9,2.5,2.4
		C799.9,370.3,798.5,371,797.2,370.8"/>
	<path class="st3" d="M686.1,344c-0.2-1.4-0.6-3.1-1.8-3.9c-0.5-0.3-1-0.4-1.4-0.3c-0.1,0-0.1-0.1-0.1-0.1c-0.5-0.4-1.1-0.4-1.5,0
		c-2.3,2-3.1,5.7-1.8,8.5c1.2,2.7,4.5,2.9,6.1,0.5C686.4,347.2,686.4,345.5,686.1,344 M682,347.6c-0.9-0.6-0.9-2.3-0.8-3.1
		c0.1-0.5,0.2-1,0.4-1.5c0.1,0,0.1,0.1,0.2,0.1c0.5,0.3,1.1,0,1.2-0.5c0.1,0,0.2,0,0.2-0.1c0.3,0.6,0.4,1.4,0.5,2.1
		C683.9,345.5,683.7,348.7,682,347.6"/>
	<path class="st3" d="M708.4,539.3c-0.1-0.8-1.4-0.5-1.3,0.3c0.5,3.3,0.9,6.6,1.4,9.8c0.1,0.8,1.4,0.5,1.3-0.4
		C709.4,545.9,708.9,542.6,708.4,539.3"/>
	<path class="st3" d="M712.5,523.8c-0.1-0.9-1.6-1-1.5,0c0.9,7.1,1.7,14.1,2.8,21.2c0.1,0.8,1.5,0.6,1.4-0.2
		C714.4,537.8,713.4,530.8,712.5,523.8"/>
	<path class="st3" d="M719,521.8c-0.1-1-1.7-1-1.6,0c0.8,8.5,1.5,17.1,2.6,25.6c0.1,1,1.6,1,1.5,0
		C720.9,538.9,719.9,530.3,719,521.8"/>
	<path class="st3" d="M725.4,523.1c-0.1-1-1.7-1-1.6,0c0.8,7.9,1.6,15.8,2.6,23.6c0.1,0.9,1.5,0.9,1.5,0
		C727.2,538.9,726.3,531,725.4,523.1"/>
	<path class="st3" d="M733.5,523.1c-0.1-1.1-1.8-1.1-1.7,0c0.8,7.5,1.5,15.1,2.5,22.6c0.1,0.9,1.6,0.7,1.5-0.2
		C735.3,538,734.3,530.6,733.5,523.1"/>
	<path class="st3" d="M758.2,513.9c-0.1-0.9-1.5-0.9-1.4,0c0.8,8,1.5,15.9,2.6,23.8c0.1,0.8,1.6,0.6,1.5-0.2
		C760.3,529.7,759.2,521.8,758.2,513.9"/>
	<path class="st3" d="M766.7,508.7c-0.1-1-1.7-1-1.6,0c0.7,7.7,1.1,15.5,2.3,23.2c0.1,0.9,1.5,0.7,1.5-0.2
		C768.6,524,767.5,516.3,766.7,508.7"/>
	<path class="st3" d="M774.1,502.1c0-1.1-1.7-1.1-1.7,0c0,6.9,0.4,13.7,1.5,20.5c0.1,0.8,1.6,0.7,1.5-0.2
		C774.8,515.7,774.2,508.9,774.1,502.1"/>
	<path class="st3" d="M781.2,494.9c-0.1-0.9-1.6-1-1.5,0c0.6,8.3,0.9,16.7,1.9,25c0.1,1,1.6,1,1.6,0
		C782.8,511.5,781.9,503.2,781.2,494.9"/>
	<path class="st3" d="M534.5,336.6c-0.1-1-1.5-1-1.5,0c-0.1,9.9,0.5,20.1,2.7,29.7c0.2,0.8,1.6,0.7,1.5-0.2
		C536.2,356.3,535.1,346.5,534.5,336.6"/>
	<path class="st3" d="M542.9,337.1c-1.1,0-1.1,1.8,0,1.8C544,338.8,544,337.1,542.9,337.1"/>
	<path class="st3" d="M560.7,342.6c0-0.9-1.5-1-1.5,0c0.3,7.9,0.7,15.8,1.8,23.7c0.1,0.9,1.5,0.9,1.4,0
		C561.6,358.3,560.9,350.5,560.7,342.6"/>
	<path class="st3" d="M565.9,341.9c-0.1-0.9-1.4-0.9-1.4,0c0.5,8.8,1,17.5,1.5,26.3c0,0.9,1.5,0.9,1.4,0
		C566.9,359.4,566.4,350.6,565.9,341.9"/>
	<path class="st3" d="M571.7,338c-0.1-1-1.6-1-1.5,0c0.6,8.3,1.1,16.7,2.2,24.9c0.1,0.9,1.5,1,1.5,0
		C573.5,354.6,572.5,346.3,571.7,338"/>
	<path class="st3" d="M579.3,335.7c-0.2-1-1.7-0.6-1.5,0.4c0.6,3.7,0.4,7.3,0.4,11c0,0.9,1.4,1.1,1.5,0.2
		C580.4,343.5,579.9,339.6,579.3,335.7"/>
	<path class="st3" d="M584.3,336c-0.2,0-0.3,0.1-0.4,0.1c-0.1-0.3-0.1-0.7-0.2-1c-0.2-1.1-1.9-0.6-1.6,0.5c0.2,1.1,0.3,2.4,0.8,3.5
		c0.4,0.8,1.5,0.3,1.5-0.4c0-0.5-0.1-0.9-0.2-1.4c0,0,0.1,0,0.1,0C585.1,337.3,585.1,336,584.3,336"/>
	<path class="st3" d="M797.9,536.5c0-0.2-0.1-0.3-0.1-0.5c-0.2-0.8-1.6-0.7-1.5,0.2c-0.3-3.2,0.2-7,0-10.3c-0.2-2.9-0.4-5.7-0.6-8.6
		c-0.4-6.2-0.8-12.3-1.3-18.5c-0.1-1.1-1.7-1.1-1.7,0c0.5,8.2,1,16.4,1.6,24.6c0.2,3.7-0.9,11.2,1.6,14.1c0.3,0.3,0.7,0.3,1.1,0.1
		c0.2-0.1,0.4-0.2,0.5-0.3C797.8,537.3,798,536.9,797.9,536.5"/>
	<path class="st3" d="M801.6,490.9c0-0.9-1.4-0.9-1.4,0c0.5,15.6,1.4,31.1,2.6,46.6c0.1,1.1,1.9,1.1,1.8,0
		C803.2,522,802.3,506.5,801.6,490.9"/>
	<path class="st3" d="M818.7,485.7c0-1.2-1.8-1.2-1.8,0c0.2,16,0.4,32,0.6,47.9c0,1.2,1.9,1.2,1.9,0
		C819.2,517.7,818.9,501.7,818.7,485.7"/>
	<path class="st3" d="M827.9,480.4c0-0.9-1.4-0.9-1.4,0c-0.3,16.1-0.9,32.5-0.1,48.6c0.1,1.1,1.6,1.1,1.6,0
		C828.8,512.9,828.2,496.6,827.9,480.4"/>
	<path class="st3" d="M834.3,493.6c0-1-1.5-1-1.5,0c0.3,10.1,0.3,20.2,0.8,30.2c0,1,1.5,1,1.5,0
		C835.1,513.7,834.6,503.6,834.3,493.6"/>
	<path class="st3" d="M842.2,475.2c0-1-1.5-1-1.5,0c0,16,0.3,32,0.6,47.9c0,1.2,1.9,1.2,1.9,0C842.9,507.1,842.6,491.2,842.2,475.2"
		/>
	<path class="st3" d="M850.7,470.6c0-1-1.5-1-1.5,0c0,15-0.4,30.3,0.6,45.3c0.1,1.1,1.6,1.1,1.7,0
		C852,500.9,851.2,485.6,850.7,470.6"/>
	<path class="st3" d="M858.1,475.2c0-1-1.6-1-1.6,0c0.4,11.8,0.6,23.7,1.4,35.5c0.1,1,1.6,1,1.6,0
		C859.4,498.8,858.6,487,858.1,475.2"/>
	<path class="st3" d="M866,466c0-0.9-1.4-0.9-1.4,0c-0.6,13.9-0.8,28.1-0.1,42c0.1,1,1.5,1,1.6,0C866.8,494.1,866.6,479.9,866,466"
		/>
	<path class="st3" d="M872.6,463.4c0-1-1.5-1-1.5,0c-0.1,13.8-0.4,27.6,0,41.4c0,0.9,1.4,0.9,1.5,0C873,491,872.8,477.1,872.6,463.4
		"/>
	<path class="st3" d="M885.1,464c0-1-1.6-1-1.6,0c0,10.9-0.2,21.9,0,32.8c0,1,1.5,1,1.5,0C885.3,485.9,885.1,475,885.1,464"/>
	<path class="st3" d="M892.3,445.6c0-0.9-1.4-0.9-1.4,0c-0.2,14.9-0.4,29.8,0,44.6c0,1,1.5,1,1.5,0
		C892.7,475.4,892.5,460.5,892.3,445.6"/>
	<path class="st3" d="M898.9,435.8c0-1-1.5-1-1.5,0c-0.2,16.4-0.6,32.9-0.1,49.2c0,1,1.5,1,1.6,0C899.4,468.6,899,452.2,898.9,435.8
		"/>
	<path class="st3" d="M902.9,432.5c-0.3,14.9-0.7,29.8-0.6,44.7c0,1,1.5,1,1.5,0c0.5-14.9,0.4-29.8,0.6-44.7
		C904.5,431.5,902.9,431.5,902.9,432.5"/>
	<path class="st1" d="M400.3,464.9c-29.9-14.1-65.2,6.8-78.8,34.3c-0.2,0.5,0.4,0.8,0.7,0.4c19-26,43.7-43.3,77-32.2
		C400.7,467.9,401.7,465.6,400.3,464.9"/>
	<path class="st3" d="M650.1,553.3c0-0.2-0.2-0.1-0.2,0.1c1.7,10.9,3,22,5.3,32.8c0.2,0.8,1.2,0.4,1.1-0.3
		C654.7,574.9,652.2,564.1,650.1,553.3"/>
	<path class="st3" d="M659.6,574.8c-0.8-4.2-1.4-8.5-1.8-12.8c0-0.3-0.4-0.3-0.4,0c0.3,7.1,0.3,16.1,3.4,22.7
		c0.2,0.4,0.8,0.2,0.8-0.2C661.3,581.2,660.2,578,659.6,574.8"/>
	<path class="st3" d="M666.5,558.4c0-0.3-0.6-0.2-0.6,0.1c0.9,8,1.8,16,2.9,24c0.1,0.6,1.1,0.5,1.1-0.1
		C668.9,574.3,667.6,566.3,666.5,558.4"/>
	<path class="st3" d="M675.2,561.3c0-0.3-0.5-0.3-0.5,0c0.2,6.3,0.7,12.7,1.8,18.9c0.1,0.6,0.9,0.3,0.9-0.2
		C676.4,573.8,675.6,567.6,675.2,561.3"/>
	<path class="st3" d="M681.2,543.9c0-0.1-0.1,0-0.1,0c2,11.5,2.7,23.1,2.3,34.7c0,0.7,1.1,0.7,1.2,0
		C684.8,566.9,683.7,555.4,681.2,543.9"/>
	<path class="st3" d="M692.6,566.3c-0.3-2-0.7-3.9-1.3-5.8c-0.1-0.2-0.4-0.1-0.4,0.1c0.5,2.2,0.8,4.3,0.9,6.5
		c0.1,1.7-0.2,3.5,0.2,5.1c0.1,0.3,0.5,0.3,0.6,0C693.3,570.4,692.8,568.2,692.6,566.3"/>
	<path class="st3" d="M909.3,448.2c0-10.4,0.2-20.7,0.1-31.1c-0.1-7.5-0.6-15.1-4.6-21.6c0.3-0.5,0.3-1,0-1.5
		c-10-13.4-25.5-19.2-40.7-24.6c-21.2-7.6-42.5-15.1-63.9-22.2c-21.4-7.1-42.9-13.6-64.8-19.1c-13.4-3.4-27.1-6.7-40.8-9.2
		c1.8-6.2-4.1-10.9-10-11.5c-5.1-0.5-10.8,0.9-15.8,1.9c-6.3,1.2-12.8,2.7-18.7,5.3c-2.8,1.3-4.3,3.2-4.9,5.5
		c-1.1-2.1-3.3-3-6.1-3.4c-9.2-1.2-19.2-0.4-28.5-0.3c-9.4,0.1-18.7,0.5-28.1,1.1c-8.9,0.5-18.2,0.7-26.9,2.7
		c-0.1,0-0.2,0.1-0.3,0.1c-0.9-3.4-2.9-6.2-7.1-6.8c-4.4-0.6-8.6,2.2-9.4,6.6c0,0.1,0.1,3.7,0,3.8c-1.1,1.4-4.9,1.4-6.5,1.8
		c-3.2,0.8-9,1.7-11.5,4.1c-1,1-1.7,2.9-1,3.9c-0.1,0.1-0.1,0.3-0.1,0.5c0,0,0,0,0,0.1c-33.6,3.3-67.1,7.2-100.5,12
		c-17,2.4-33.9,5-50.9,7.8c-17.6,2.9-35.1,6.8-52.9,8.5c-3.6-5-7.4-9.9-11.6-14.4c-1.3-1.4-3.7-4-6.5-6.3c-2.8-3-6-6.3-9.9-6.4
		c-2.9-0.1-6,1.7-8.7,2.6c-4.9,1.7-9.8,3.4-14.6,5.3c-0.2,0.1-0.3,0.1-0.4,0.2c-2.4-0.4-4.6,0.4-6.7,2.6c-0.4,0.5-0.3,1,0,1.3
		c-1.4-0.6-2.9-1-4.5-1.1c-4-0.3-7.9,1.5-9.3,4.8c-6.5,0.5-13,1.2-19.4,2.5c-0.8-2.7-2.6-5.1-5.5-5.8c-3.1-0.8-6,0.5-7.7,2.9
		c-1.4-1.8-3.2-3.3-5.6-3.3c-1.2,0-2.3,0.4-3.1,1.1c-1-2.1-2.2-4.1-3.5-5.9c-0.5-0.8-1.8-0.5-1.8,0.5c-0.2,3.6-0.3,7.2-0.3,10.8
		c-12.6-0.9-25.8-1.2-37.7,3.9c-7.2,3-17.6,9.6-18.8,18.1c0,0.2,0,0.3,0.1,0.5c-9.6,2.7-19.9,7.1-25,15.6c-0.6,1,0.8,2.1,1.6,1.2
		c14.8-17.2,39.9-18.4,61.4-17.5c23.4,9.7,47.6,14.9,65.1,34.9c8.5,9.7,14.4,21.2,18.8,33.2c4.1,11,6,22.7,9.3,33.9
		c0.8,7.6,1.3,15.2,1.3,22.8c0.2,20.9-2.3,42.8-13.5,60.9c-4.6,7.5-10.9,14.1-18.3,19.1c-3.9,1.7-8.4,2.9-11.8,2.1
		c-1.5-2-3.1-4.1-4.6-6.1c-0.2-3.7,0.6-8.1,1.9-12.8c8-15.4,14-31.4,15.2-48.9c1.3-18.7-2.4-37.4-8.3-55.1
		c-2.9-8.7-6.4-17.2-10.2-25.5c-3.7-8.1-7.1-16.8-13.8-22.9c-0.9-0.8-2.1,0.4-1.3,1.3c5.7,6.3,9.1,14.1,12.5,21.8
		c3.7,8.2,7,16.5,9.9,24.9c5.2,15.7,8.9,32.1,8.8,48.7c0,3.9-0.3,7.7-0.8,11.4c-2.8,13.3-7.8,25.9-12.4,38.9
		c-5.6,11.3-11.6,24-22.1,30.6c-0.7,0-1.2,0.4-1.5,0.9c-3.1,1.8-6.6,3-10.6,3.5c16.8-6.1,28.5-24.9,35-40.5c2.1-5,3.7-10.1,5-15.3
		c0.4-1.1,0.8-2.1,1.1-3.2c0.1-0.3,0-0.6-0.1-0.8c0.9-2.5,1.8-4.9,2.5-7.3c0.2-0.7-0.5-1.3-1.2-1.2c3.2-24-1-49.1-9.9-71.7
		c-1.5-4.1-3.3-8.1-5.3-11.9c-1.6-3.3-3.3-6.5-5.1-9.7c-8.8-15.5-21.1-29.3-36.7-37.9c-8.9-6.3-19.3-10.8-29.8-12.7
		c-0.2-0.4-0.5-0.7-1.1-0.6c-7.7,1.2-14.5,3.8-20.5,7.3c-5.2,2-9.8,5.2-13,9.9c-0.2,0.2-0.2,0.5-0.2,0.7
		c-16.4,17.3-23.5,44-22.2,68.2c1.2,22.7,7.7,45.8,18.3,66.7c13.3,31,41.4,73.8,76.3,62c0.9,0.2,1.9,0.1,2.9,0.1c0.5,0,1,0,1.5,0
		c0.4,0,0.8-0.1,1.3-0.2c0.2,0.2,0.4,0.4,0.8,0.4c4.9,0,9.2-1.2,12.8-3.2c12.8,2.1,25.4-1.1,36.1-7.7c2.7-0.8,5.3-2,7.2-3.3
		c7-5,13.2-12.5,17.6-20.8c0.1-0.1,0.2-0.1,0.2-0.2c8.8,1.6,18.8,3.3,27.7,2.7c-0.1,16.8,2.2,33.7,8.2,49.3
		c6.6,17.1,17.7,31.9,29.9,45.4c12.8,14.1,30.7,26.7,50.7,26c1.2,0,1.5-1.9,0.3-2.1c-11.2-2.3-21.5-4.6-31.3-10.9
		c-9.7-6.2-17.5-15.1-24.7-23.9c-14.6-17.8-25-37-28.5-60c-3.3-21.4-1.8-43.9,2.7-65c4.2-19.6,12.1-38.8,28.2-51.6c0,0,0,0,0.1-0.1
		c1-0.4,1.9-1,2.4-1.9c0.2,0,0.3,0,0.5,0c0.7-0.1,1-0.8,0.8-1.5c1.5-0.8,3-1.5,4.6-2.2c3.8-1.4,7.7-3.1,11.4-4.8
		c3.1-1.2,6.3-2.4,9.5-3.6c1.4-0.5,0.9-2.6-0.6-2.2c-1.1,0.3-2.3,0.7-3.4,1.1c0,0,0,0,0-0.1c-0.8-14-2.9-28-7.7-41.3
		c31.1-5.5,62.1-11.3,93.3-16.6c15.3-2.6,30.6-5,45.9-7.4c8.1-1.3,16.2-2.5,24.3-3.7c3.3-0.5,9.1-0.3,13.1-1.6
		c0.3,0.2,0.6,0.2,1,0.1c0.4-0.1,0.8-0.3,1.1-0.5c0.2,0.3,0.4,0.6,0.8,0.7c20,3.3,40.3-1.2,60.1-4.2c20.8-3.2,41.8-5.7,62.5-9.6
		c0.7,0.3,1.4,0.5,2.2,0.6c0.2,0,0.4,0,0.5-0.1c0.7,0.2,1.5-0.1,1.9-0.9c0,0,0,0,0,0c5.5,11,16.7,2.3,25.1,0.2
		c0.2,0.1,0.4,0.2,0.7,0.2c1.2,0.1,2.2-0.4,2.8-1c0.1-0.1,0.2-0.2,0.2-0.3c0.1-0.2,0.2-0.4,0.3-0.5c20.4-2.7,39.6,1.5,59.3,6.8
		c17.4,4.7,34.8,9.5,52,15.2c17.7,5.9,35.1,12.7,51.6,21.2c15.4,8,30.9,16.8,40.7,31.4c-2.3,2.2-4.9,4.2-7.9,6.1
		c-12.4,7.6-26.5,12.9-40.6,17.8c-0.2-0.2-0.5-0.2-0.8-0.1c-3.6,1.3-7.2,2.7-10.8,4.1c-2.4,0.8-4.7,1.7-7.1,2.5
		c-42.8,15.5-86.3,29-130.4,40.4c-10.1,2.6-20.2,5.1-30.3,7.4c-3.6-34.7-27.3-63.1-53.4-84.5c-14.7-12.1-30.5-19.1-48.8-24
		c-20-5.3-40.5-9.7-61.3-9.6c-13.2,0.1-40.4,0.7-45.6,16.4c-5.7,0.9-11.2,2.3-16.5,4.4c-0.2,0.1-0.3,0.2-0.3,0.4c-0.2,0-0.5,0-0.7,0
		c-0.2,0-0.4,0-0.5,0.1c-0.1,0-0.2,0-0.3,0c-0.5,0-0.5,0.5-0.2,0.8c-0.1,0.5,0.2,1.1,0.8,1.3c0.6,0.2,1.2,0.4,1.8,0.7
		c0.7,1.4,1.4,2.9,2.2,4.3c-0.1,0.1-0.2,0.1-0.3,0.2c-1.1,0.5-0.3,2.4,0.8,1.9c0.1,0,0.3-0.1,0.4-0.2c0.1,0.1,0.2,0.2,0.4,0.2
		c19.3,2.7,35,15,47.6,29.2c13.2,14.9,23.4,32.4,30.1,51.1c3.1,8.8,5.5,17.9,7,27c1.5,8.9,1.1,17.9,2.3,26.7c0.7,5,2.8,7.9,5.6,9.3
		c-0.1,0.2,0,0.3,0.2,0.4c0.9,0.4,1.8,0.7,2.8,1c-0.1,0-0.2,0-0.2,0.1c-0.9,0-1.8,0.1-2.7,0c-0.2,0-0.3,0.1-0.3,0.2
		c0-0.2,0-0.4,0-0.5c0-1-1.5-1-1.5,0c-0.3,11.2-2.2,22-5.9,32.6c-0.3,0.9,1.1,1.2,1.4,0.4c3.8-10.4,5.9-21.2,6-32.3
		c0,0.1,0.1,0.2,0.2,0.2c0.9,0.2,1.9,0.4,2.8,0.5c0.5,6-0.2,11.8-2.3,17.5c-0.3,0.9,1.1,1.2,1.4,0.4c2.2-5.7,2.9-11.6,2.3-17.7
		c3.9,0.4,7.8,0.1,11.8-0.7c-0.1,12.2-2.1,23.8-5.6,35.5c-0.3,0.9,1.1,1.3,1.4,0.4c4.2-11.5,5.9-24,5.6-36.2
		c6.3-1.4,12.6-3.9,18.7-6.7c0,2.1-0.1,4.1-0.2,6.1c-5.7,9.5-4.6,24.4,3.5,31.4c-0.1,1.4-0.2,2.7-0.3,4.1
		c-10.7,2.9-21.3,6.7-31.7,10.5c-6.9,2.6-15.6,5.1-22.4,9.5c10.9-24.4,11.1-54.7,6.6-80c-2.9-16.7-8-33.2-14.2-48.9
		c-3-7.7-7-16.4-12.9-22.8c-1.4-1.8-2.9-3.4-4.4-5.1c-0.2-0.2-0.4-0.4-0.6-0.6c-3.6-3.8-7.4-7.3-11.1-10.6
		c-6.2-5.5-12.5-10.7-18.9-15.9c-4.3-3.5-10.9-10.7-16.5-11.6c-0.3,0-0.7,0-1,0.2c-0.3-0.5-0.8-0.7-1.4-0.3
		c-3.6,2.7-7.3,4.7-11.6,6.1c-1.5,0.5-0.9,2.6,0.6,2.3c17-3.3,33.6,14,44.7,24.7c10,9.6,18.1,20.4,26.2,31.4c2,5.5,3.8,11,5.5,15.9
		c6.5,18.6,11,38.2,11.1,58c0.2,30.4-10.7,63.9-31.4,87.1c-6.6,4.9-14.3,8-22.3,11c-5.1,1.9-10.4,3.8-15.7,4.9
		c-1.9,0.5-3.9,0.9-5.9,1c-1.9,0.9-3.4,1-4.4,0.1c11-6.8,17.5-19.4,22.5-31.2c7.9-18.6,12.4-38.7,13-58.9c0-0.9-1.3-0.9-1.4,0
		c-1,17.8-4.3,35.3-10.9,51.9c-5.1,13-11.9,28.9-24.4,36.4c-0.2-0.4-0.3-0.9-0.4-1.5c-3-4.1-2.8-2.9-0.5-6.1c0.8-1.1-1-2-1.7-1
		c-0.1,0.1-0.1,0.2-0.2,0.3c-0.3-0.1-0.7-0.1-1,0.2c-0.6,0.6-1.5,1.8-2.4,3.1c-0.2-0.7-1.2-1.1-1.7-0.3c-0.4,0.7-0.8,1.3-1.2,2
		c-0.1-0.9-1.4-1.2-1.7-0.2c0,0,0,0.2-0.1,0.4c-0.5-0.1-1.1,0.2-1.1,0.9c0,0.8,0,1.5,0,2.3c0,0,0,0-0.1,0.1
		c-0.1-0.2-0.2-0.3-0.3-0.5c-0.3-0.5-1-0.6-1.5-0.4c-1.1,0-2.1,1.5-1,2.3c0.4,0.3,0.9,0.7,1.3,1c0.3,0.4,0.8,0.6,2,1.2
		c0.7,0.3,1.6,0,1.6-0.9c0,0,0,0,0,0c0.1,0,0.1-0.1,0.2-0.1c0.4-0.4,1.1-1,1.9-1.7c0,0,0,0.1,0,0.1c0.2,0.8,0.7,1.4,1.2,2l0,0
		c-1.4,0.4-0.8,2.7,0.6,2.2c0.7-0.2,1.4-0.5,2.1-0.8c3.4,1,7.9,0.4,10.1,0.2c11.3-1.2,23-6.1,33.3-10.7c0.6-0.3,1.2-0.6,1.8-0.8
		c-0.9,0.8-1.7,1.6-2.6,2.3c-0.5,0.3-0.9,0.7-1.3,1.1c-0.5,0.4-1,0.9-1.6,1.3c-0.2,0.1-0.3,0.3-0.3,0.4c-0.5,0.4-1,0.9-1.6,1.2
		c-1.6,1.1-3.4,1.9-5.2,2.8c-0.3-0.1-0.7-0.3-1-0.4c-0.6-0.2-1,0.5-0.8,1c0.5,1.1,1.2,2,2.1,2.7c-4,0.7-8.1,1.3-12.1,2.3
		c-1.2,0.3-1,2.3,0.3,2.2c0.4,0,0.7-0.1,1.1-0.2c7.8,4.7,17.2,4,25.3,0.4c0.2,0.2,0.4,0.2,0.7,0.2c32.5-6.9,63.8-19.8,89-40.6
		c0.2,0.2,0.4,0.4,0.8,0.3c18.3-2.1,34.7-12,48.3-24c8.1-7.1,15.2-15.8,19.5-25.6c0.2,0.3,0.6,0.4,1,0.3c24.2-7.1,48.1-15.8,72-23.9
		c23.8-8,47.7-16,71.5-24.2c21.9-7.5,43.4-15.6,63.8-26.4c20.6-11,40.6-23.5,59.8-36.9c0.3-0.2,0.5-0.5,0.5-0.8
		c2.6-2.2,3.3-6.1,3.5-9.7C909.8,468.6,909.3,458.3,909.3,448.2 M191.1,409.8c8.9,8,16.7,17.3,22.7,27.8
		c6.3,11.1,9.1,23.6,14.5,35.1c5.2,20.4,6.3,41.9,1.6,62.1c-1.3,3.1-2.7,6.2-4.2,9.2c-4.3,7.7-9.1,15.7-14.9,22.4
		c-3.9,3.9-8.4,7.2-13.9,9.7c-13.8,6.2-27.2,2.3-38.7-5.4c-5-3.8-9.6-8.1-13.7-11.8c-1-0.9-1.9-1.7-2.8-2.6c-0.5-0.5-1-1-1.4-1.6
		c-27.4-30.5-40.8-74-34.1-114.6c3.5-21.4,14.8-42.2,35.4-49.4c3-0.2,5.9-0.3,8.7-0.2C166.7,390.6,179.2,399.1,191.1,409.8
		 M146.9,382.1c5.5,1.1,10.4,2.9,15.1,5.2c-7.8-2.1-17.1-3.2-25.8-2.2C139.6,383.9,143.2,382.8,146.9,382.1 M125.3,390.9
		c5.4-2.5,11.7-3.4,18.2-3.4c-1,0.2-2.1,0.6-3.1,0.9c-5.2,0.6-11.6,1.7-17.2,4C123.9,391.9,124.6,391.4,125.3,390.9 M95,481.2
		c-2-11.8-2.6-24.2-1.1-36.3c0,0.1,0,0.2,0,0.3c-0.8,12.1-0.4,24.2,1.2,36.3C95,481.5,95,481.3,95,481.2 M127.8,562.5
		c4,5.1,8.3,9.9,12.9,14.3c6.5,6.3,14.3,11.9,22.8,15.3C149.4,588,137.4,576.5,127.8,562.5 M144.4,576.2c-14-13-25.4-29.2-34-46.7
		c-2.2-5.3-4-10.5-5.4-15.2c-6.2-19.9-9.2-40.7-8.9-61.5c0.4-24.6,7.3-43.3,27.2-58.3c3.1-1.2,6.4-2.2,9.7-2.8
		c-2.2,1.3-4.3,2.7-6.3,4.4c-8.6,6.9-15,16.7-18.8,27.1c-3.3,8.1-5.4,16.5-6.4,24.3c-3.8,29.7,3.7,63.9,19.4,89.3
		c7.9,12.8,18.8,23.3,30.5,32.6c9.1,7.2,18.6,14.8,30.7,14.8c16.6,0,29.3-10.4,38.3-23.7c-5.4,10.3-12.7,19.8-21.9,26
		C180.5,598.8,158.8,589.5,144.4,576.2 M645.3,359.2c-0.8-4.3-1.1-9.3-1.3-13.1C644.3,350.5,644.7,354.9,645.3,359.2 M643.1,329.6
		c0,2.7,0.2,5.4,0.4,8.2c0,0.5,0,1.1,0.1,1.6C643.3,336.5,642.5,332.1,643.1,329.6 M553.4,321.5c-1.1-1.4-2.5-2.5-4.4-2.8
		c-0.6-0.1-1.1-0.1-1.6,0C551,317.5,553,318.4,553.4,321.5 M531.9,328.1c3-0.8,6.1-1.4,9.1-1.8c0.6-0.1,1.1-0.9,0.8-1.5
		c-0.2-1-0.5-2-0.7-3.1c1.1-0.7,2.2-1.3,3.2-1.8c-0.9,0.8-1.6,1.9-1.8,3.3c-0.1,0.7,0.2,1.2,0.8,1.5c2,0.8,3.4,1.1,5.5,1.1
		c0.8,0,1.1-0.6,1.1-1.2c2.3,0.2,3.6,1.3,3.7,3.3c0.4,1.3,2.3,1,2.4-0.3c0.1-2,0.1-4.1-0.3-6.1c0.1,0,0.1,0,0.2,0
		c14.3,0.3,28.9-2.1,43.3-2.5c6.8-0.2,13.6-0.3,20.4-0.3c3.5,0,19.7-1.5,23,2.5c-39.6,8.1-79.6,11.5-120,11.9c0-0.2-0.1-0.3-0.4-0.4
		c0,0,0-0.1-0.1-0.1c0,0,0-0.1,0-0.1C522.5,331.6,531.3,328.3,531.9,328.1 M258.7,347.5c3-2.4,7.6-1.3,10.2,1
		c1.3,1.1,2.4,2.7,3.5,4.1c2,2.7,4,5.5,5.8,8.3c3.5,5.3,6.8,10.8,9.7,16.4c5.5,10.5,9.5,21.4,13.2,32.6c-0.6,0.5-1.6,0.8-2.7,1
		c0-0.2,0-0.4-0.1-0.6c-7.3-18.2-16.3-37.1-28.5-52.4c-3-3.8-7.1-8-11.8-10.2C258.3,347.7,258.5,347.6,258.7,347.5 M249.3,348.9
		c1.7,0.1,3.5,0.1,5.2,0.2c1.8,0.4,3.6,1.5,5.1,2.4c2.7,1.7,5,4.1,7.1,6.5c4.3,5.1,7.8,11.1,11.2,16.8c6.9,11.6,12.8,23.7,17.8,36.2
		c0,0,0,0,0,0c-0.9,0-1.9,0-2.8-0.1c-3.8-11.5-10-21.5-17.6-30.9c-1.4-2.1-2.8-4.1-4.3-6.1c-6.2-8.2-14.3-20.1-25.9-19.6
		C246.5,352.6,247.9,350.8,249.3,348.9 M241,354c0.9,2.1,2.3,2.7,4.9,4c7.5,3.7,12,6.9,17.5,13.3c4.9,5.5,9.7,11.1,13.9,17.1
		c4.2,7.2,7.6,14.7,10.9,22.5c0,0-0.1,0-0.1,0c-1.8,0-3.7,0-5.5,0c-5.7-14.7-16.3-26.4-28.5-36.2c-8.8-7.1-18.6-14.3-29.6-17.8
		c0-0.4,0-0.7,0-1.1C230,355.1,235.5,354.5,241,354 M212.3,353.4c2-5.7,7.2-3.1,8.8,0.8c-0.1,0-0.1,0-0.2,0c-0.5,0.1-0.7,0.6-0.6,1
		c-2.9-0.4-5.9-0.9-8.8-1.1C211.8,354.1,212.1,353.8,212.3,353.4 M209.9,353.7c0.2,0.2,0.4,0.4,0.6,0.5c-1.1,0-2.1,0-3.1,0.1
		c-1.1,0.1-2.2,0.4-3,0.9c-0.3-1.6-0.8-3.2-1.4-4.8C205,347.9,208.7,351.9,209.9,353.7 M198.7,346.2c0.8,1.4,1.6,2.8,2.2,4.3
		c0,0.1-0.1,0.3-0.1,0.4c-0.1,0.6,0.3,1,0.7,1.1c0.2,0.5,0.4,1.1,0.5,1.6c0.3,1,0.4,2.1,0.5,3.2c-0.1,0.1-0.1,0.3-0.1,0.5
		c-1.1,2.2-2.1,4.4-3.2,6.6c-0.2,0.1-0.3,0.2-0.5,0.3c-0.1,0-0.3,0-0.4,0.1C198.3,358.1,198.4,352.1,198.7,346.2 M145.3,374.9
		c-1.1,0.3-2.2,0.6-3.4,0.9c9.9-19.7,35.6-20.4,54.6-19.1c0,0.6,0,1.2,0,1.8c-10.5-0.8-22.4,0.3-32.6,3.1c-7.4,2-14.2,6-17.6,13.1
		C146.1,374.8,145.7,374.8,145.3,374.9 M267.8,555.9c8.6-17.1,10.3-38.4,9.7-57.1c-0.7-21-3.9-42.8-11.9-62.3
		c-1.9-4.5-4-8.9-6.4-13.1c-5.5-10.4-12.5-19.9-21.2-28c-15.3-14.1-36.3-24.4-57.5-22.9c-10.2-1.5-21.2-0.6-31.3,1.5
		c4.6-6.9,12.1-9.8,20.2-11.2c8.9-1.6,18.2-2.6,27.2-1.9c0,1.3,0.1,2.5,0.1,3.8c-0.5,0.3-0.6,1-0.1,1.5c0.2,0.3,0.5,0.5,0.7,0.7
		c0,0.1,0.1,0.2,0.1,0.3c-0.1,0.6,0.5,1.3,1.2,1.1c1.4-0.3,2.6-0.7,3.6-1.4c0.7-0.2,1.7-1.1,2.4-2.4c0.8-1.3,1.2-2.8,1.1-4.4
		c1.4-1.6,3.1-2.5,6.9-2.6c0.4,0.1,0.7,0.1,0.9,0.1c1.6,0.1,3.2,0.3,4.7,0.4c4.3,1,7.9,3.1,11.9,5.8c9.4,6.2,18.8,11.2,26.8,19.4
		c8.1,8.2,14.6,17.7,20.4,27.6c-0.6,0-1.3,0-1.9,0c-0.4,0-0.7,0.2-0.9,0.5c-0.8-0.3-1.4-0.3-2.1,0.1c-0.1-0.3-0.4-0.5-0.7-0.5
		c-6.1-10.5-15.5-20-24.5-27.8c-10-8.6-21.1-15.9-33.1-21.2c-0.8-0.4-1.6,0.8-0.7,1.2c11.9,6.1,23.1,13.2,33.1,22.2
		c9.1,8.2,16,17.6,23.5,27.1c0,0.1-0.1,0.2-0.1,0.3c0,0.4-0.1,0.9-0.1,1.3c-0.6,1.7-1,3.6-1.2,5.5c-1.5-2.6-3.2-5.1-5-7.6
		c-4.4-11.3-14.4-19.5-24.5-26c-7.2-4.6-14.6-8.8-22-13.2c-4.7-2.8-9.8-7-15.2-4c-0.8,0.4-0.2,1.6,0.6,1.4
		c7.2-1.9,16.6,6.4,22.3,9.8c4.7,2.8,9.5,5.6,14,8.6c1.8,1.2,3.5,2.4,5.2,3.7c6.3,6.9,12.3,13.9,17.3,21.8c1.3,2,2.5,4.1,3.6,6.3
		c1.6,4.3,3.1,8.7,4.5,13.1c0.3,1.3,0.6,2.6,1.1,3.8c4.7,15.8,7.8,31.9,9.4,48.4c1.1,11.6,1.4,23.2,0.8,34.8
		c-0.1,1.7-0.1,3.7-0.2,5.8c-0.9,6-1.8,12-2.5,18.1C276.8,550.1,273.6,554.7,267.8,555.9 M288.4,452.1c-0.6-0.5-1.3-1-2-1.5
		c-4-4.1-7.2-8.8-9.7-13.9c-0.6-1.3-1.2-2.6-1.7-4c-0.2-0.6-0.4-1.3-0.7-1.9c-0.6-1.7-1-3.3-1.4-5c-0.4-1.8-0.7-3.7-0.9-5.5
		c0.1-2,0.3-4,0.4-5.8c0.4-0.1,0.7-0.4,0.8-0.9c0.5-0.2,1.2-0.2,2.1,0.4c0,0,0,0,0.1,0C273.4,428.9,278.8,442.4,288.4,452.1
		 M293.4,557.6c0,0.9-0.1,1.9-0.1,2.8c-4.4-1.1-9.3-1.6-14.1-1.9c1-2,0.9-5.1,2-7.2c1.4-2.7,3.3-4.8,5.6-6.7
		c0.2-0.1,0.3-0.3,0.3-0.4c2.1,0,4.2,0,6.3,0c0.4,0,0.6-0.1,0.8-0.3C293.9,548.5,293.6,553.1,293.4,557.6 M294.7,539.5
		c-0.4,0-0.8,0-1.1,0c0-0.1,0.1-0.1,0.1-0.2c0.6-1.5,1.2-3.1,1.6-4.7C295.1,536.2,294.9,537.9,294.7,539.5 M297.1,523.4
		c0.2-1.9,0.3-3.8,0.4-5.5c0-0.9-1.5-1.2-1.6-0.2c-1.1,7-3.1,14.3-3.5,21.3c0,0.2,0.1,0.4,0.3,0.5c-1,0-1.9,0-2.8,0
		c2-5.1,2.7-10.4,1.6-15.9c-0.2-0.9-1.7-0.7-1.6,0.2c0.6,5.4,0.1,10.6-1.7,15.7c-0.9,0-1.8,0-2.6,0c0.4-2.3,0.9-4.7,1.2-7
		c0.1-0.9-1.2-1.3-1.4-0.4c-0.5,2.4-0.9,4.8-1.3,7.2c0,0.1,0,0.2,0,0.3c-0.4,0-0.9,0-1.3,0.1c0.1-0.4,0.1-0.7,0.2-1.1
		c0-0.1,0-0.2,0-0.3c5.5-20.6,5.6-45.3,1.2-67.2c-0.1-5.4-1.4-11.5-3.2-17.1c8.9,10.1,23.8,13.8,36.9,17.2c-0.2,0.9-0.3,1.8-0.3,2.8
		c0,0,0,0,0,0c0.1,1.1,1.7,1.1,1.7,0c-0.1-0.9-0.2-1.7-0.3-2.5c1.2,0.3,2.4,0.6,3.5,0.9C308.4,485.6,301,504.2,297.1,523.4
		 M330.8,463.8c-0.1,0-0.2,0-0.4,0c-14.4,2-29.3-2.6-39.6-12.9c-10.2-10.1-13.9-23.6-13.4-37.5c4.2,0.1,8.4,0.2,12.5,0.2
		c0.7,0.8,2,0.7,2.7,0c1.4,0,2.7,0,4.1,0c2,0,3.8-0.1,5.3-1c0.2,0.7,0.4,1.3,0.6,1.9c0.2,0.5,0.5,0.7,0.9,0.8
		c7.7,18.9,19.4,37.1,39.8,43C339.2,460.1,334.9,461.8,330.8,463.8 M348.9,456.1c-0.4,0.2-0.8,0.3-1.2,0.5c-0.1,0-0.1-0.1-0.2-0.1
		c-23.3-4.8-36-26.2-43.5-46.9c-0.1-0.2-0.2-0.4-0.3-0.5c-5.2-15.7-22.2-56.9-36.5-64.5c2.9-0.9,5.8-1.9,8.7-2.9
		c2.9-1,7.3-3.6,10.3-3.5c0.3,0,0.6,0.1,0.9,0.1c-0.1,0.2-0.2,0.4,0,0.5c0.1,0.1,0.2,0.2,0.3,0.2c0.1,0.1,0.2,0.1,0.3,0
		c0.1-0.1,0.1-0.1,0.2-0.2c0.1-0.1,0-0.2-0.1-0.2c0.5,0,1,0.1,1.6,0.2c5.2,2.1,9.7,8.4,13,12.1c5.4,6,10.3,12.4,14.9,19.1
		c1.4,2.1,2.9,4.3,4.2,6.5c1.3,2.1,2.7,4.3,3.9,6.5C338.3,405.5,346.3,430.4,348.9,456.1 M522.8,380.7c-0.4,0-0.7,0.1-1,0.3
		c-0.8-0.1-1.4-0.1-1.4-0.1c-2.1,0.1-4.3,0.6-6.4,0.9c-3.8,0.6-7.7,1.1-11.5,1.7c-7.2,1.1-14.5,2.2-21.7,3.4
		c-15.3,2.4-30.6,4.9-45.9,7.5c-29.9,5.1-59.8,10.3-89.5,16.5c-4.7-11.9-12.1-22.4-19.1-33c-3-4.5-6-9-9.1-13.5
		c15.2-0.2,30.8-4.5,45.7-7c17.3-2.9,34.7-5.6,52.1-8.2c35-5.1,70-9.4,105.2-12.9c0.3,2.6,0.7,5.3,1,7.9c0.3,4.4,0.6,8.8,1,13.2
		c0.1,1.7,0.5,18.1,1,22.3C522.8,380.1,522.8,380.4,522.8,380.7 M566.1,380.3c-7.4,1.1-14.9,2.2-22.4,2.4c-3.6,0.1-7.8,0.5-11.4-0.2
		c-2.5-0.5-4.2-1-5.2-3.1c-0.1-0.3-0.2-0.6-0.2-0.9c0-0.4-0.1-0.9-0.1-1.3c0-1,0-2,0-2.7c-0.9-12.2-2.1-24.6-4.2-36.7
		c-0.1-0.7-0.1-1.4-0.2-2.2c1.4,0,2.7,0,4.1,0.1c0.8,13.1,2.6,26.3,4.9,39.3c0.1,0.8,1.5,0.6,1.4-0.2c-1.7-13-3.2-26.1-4.8-39.1
		c3.4,0,6.8,0,10.3,0c0,0.1-0.1,0.2-0.1,0.3c-0.3,4-0.1,8.2,1.1,12.1c0.1,0.3,0.3,0.5,0.5,0.5c-3.8,9.1-1.1,23.8,8.2,24.6
		c14.2,1.2,14.4-28,3.2-30.7c0.2-0.1,0.3-0.3,0.3-0.6c0-1-0.2-2-0.5-3c2.1,0,3.9,1.1,5.3,2.8c0.5,0.7,1.6-0.2,1.2-0.9
		c-1.5-2.3-4.2-3.6-7-3.4c-0.5-0.4-1.5,0-1.4,0.9c0.2,1.1,0.3,2.4,0.6,3.5c-4.1-0.4-7.1,1.7-9,5c-0.5-3.6-1.1-7-1.1-10.7
		c0-0.1,0-0.2-0.1-0.3c34.2-0.5,68.5-4.6,102-11.4c-2.1,6.1,0,19.3,0.1,21.9c0.3,5.4-0.4,16.7,3.7,22.1
		C618.9,371.5,592.5,376.4,566.1,380.3 M546.6,344.1c0.2,0.3,0.6,0.6,1.1,0.5c8.4-1.2,8.8,8.7,8.6,13.8c-0.1,2.9-0.4,5.3-1.8,7.9
		c-0.6,2.4-2.3,3.4-5,2.8c-3.2,1.7-5.5,0.8-6.9-2.7C539.1,360.1,539.6,347.7,546.6,344.1 M470.2,465.8c-9.6-8.7-21.8-20.1-35.4-21.1
		c1.8-1,3.5-2,5.3-3.3c0.1,0.2,0.3,0.4,0.6,0.3c3.4-0.3,8.6,5.2,11,7.2c2.8,2.3,5.7,4.5,8.5,6.8c5.4,4.4,10.8,8.9,16,13.6
		c0.8,0.7,1.6,1.5,2.3,2.2c0,0.1,0,0.2,0.1,0.3c0.4,0.3,0.7,0.6,1.1,0.8c1.1,1.1,2.2,2.1,3.2,3.2c-0.4,0.3-0.5,0.8,0,1.1
		c2.1,1.7,4,3.5,5.8,5.3c0.6,0.8,1.2,1.5,1.9,2.3c1.3,2.1,2.6,4.3,3.7,6.6C487.1,481.9,478.7,473.4,470.2,465.8 M666.7,371.9
		c-5.5,1.9-10.7-0.4-12.2-6.2c-1.2-4.6-2.7-12.6,3.3-14.8c1.7-0.7,1-3.4-0.8-2.7c-6.7,2.7-7.5-13.7-8-16.8c-0.4-2.3-1.4-5.5-1.3-7.7
		c0.2-6.7,4.1-7.1,9-8.6c6.7-2.2,38.5-11.7,35.8,3.5c-0.4-0.1-0.8-0.1-1.2-0.2c0.5-4.5-6.2-6.4-10.3-5.9c-8.4,1.2-18.2,4.4-25.5,9.4
		c-0.5-0.8-2-0.7-2,0.5c0,0.3,0,0.6,0,1c-0.2,0.2-0.4,0.3-0.7,0.5c-0.7,0.6,0,1.5,0.7,1.4c0.2,5.1,1.2,10.3,4.7,14.1
		c1.8,2,3.6,2.4,5.7,3.7c1.7-0.3,2.3,0.3,1.8,1.9c0.6,1.4,0.1,2.2-1.4,2.5c-1.6,2.1-1.2,0.2-2.8,2.6c-2.1,3.3-1.8,9.1,0,12.5
		c1,1.9,1.2,2.2,3.2,2.7c1.7,0.4,4.1-0.3,5.9-0.2c1.4,0.2,2.8,0.3,4.3,0.5c1.7-0.1,2.9,0.6,3.7,2C674.3,368.2,671,370.4,666.7,371.9
		 M688.3,317.8c-4.1-0.6-8.3-1.2-12.4-1.6C681.9,314.6,687,314.4,688.3,317.8 M849.9,410.8c-17.1-9-35.1-16.2-53.4-22.3
		c-18.6-6.2-37.6-11.5-56.6-16.5c-18.5-4.9-38.5-9.9-57.6-5.3c-0.2-0.7-0.5-1.3-1.1-1.9c-1.7-1.9-5.6-2.2-7.9-2.5
		c-1.6-0.2-3.5,0.1-5.1-0.3c-2.2,0.8-3.8-0.1-4.6-2.5c-0.5-1.4-0.6-2.8-0.4-4.3c0.4-5.3,4.6-5.1,6.5-9c0.5-1.1,0.8-2.7,0.2-3.8
		c-1.1-2.1-3.4-1.4-5.3-2.1c-7.2-2.5-8.1-9.8-8.8-16.3c3.2-1.6,9-4.3,14.9-6.3c0.1,0.1,0.3,0.2,0.4,0.2c20.9,4.1,41.7,7.5,62.3,12.8
		c20.6,5.2,41,11.3,61.2,17.9c19.9,6.5,39.6,13.4,59.2,20.4c17.4,6.2,36.6,11.7,48.4,26.9c0,0,0,0,0,0c-0.5,16.9-3.3,33-14,45
		C880,426.9,863.8,418.1,849.9,410.8 M755.2,498.1c5-1.5,10-3.1,14.9-4.7c-14.2,5.6-28.5,11.1-43,16.2
		c-36.5,12.7-73.6,22.7-111.6,29.8c0.1-1.7-0.1-3.5-0.9-5.5c0,0,0,0,0,0C662.1,525.7,709.2,512.4,755.2,498.1 M616.1,567.8
		c-2-1-4.1-1.4-6.3-1.5c-0.1,0-0.1,0-0.2,0c0.1-0.4,0.2-0.7,0.3-1.1c0.7-2,1.7-3.9,2.9-5.4c0,0,0,0,0,0c3.5,0.5,7.2,0.9,10.7,0.9
		c0.9,0,1.1-1.4,0.2-1.6c-3.1-0.5-6.4-0.8-9.6-0.8c0.8-0.7,1.6-1.4,2.6-1.9c0.6,1.1,2.5,0.5,2.2-0.8c0.6-0.2,1.3-0.3,2-0.3
		c2.4-0.2,4.7,0.5,7.1,0.8c0.3,0.1,0.5,0.2,0.8,0.3c-2.4,1.8-4.4,4.6-6.1,7.9c-0.1-0.1-0.2-0.2-0.4-0.3c-2.5-0.8-5.3-1.3-7.9-1.7
		c-1.2-0.2-2.6-0.2-2.9,1.2c-0.1,0.2,0,0.5,0.2,0.7c0.1,0.1,0.1,0.1,0.2,0.2c0.6,0.5,1.5-0.1,1-0.8c0.6,0.9,4,1.1,4.9,1.3
		c1.4,0.3,2.7,0.6,4.2,0.7c-3.6,7.7-4.9,17.4-2.1,22.9c-10.2-0.9-12.9-12-10.8-20.9c0.1,0.1,0.3,0.2,0.5,0.2c1.9,0,3.8,0.5,5.5,1.3
		C616.2,569.4,617,568.2,616.1,567.8 M610.9,555.1c-0.3-1.1-0.7-2.1-1-3.2c0.8-0.6,1.5-1.2,2.1-1.8c0.4,1.8,0.9,3.6,1.5,5.4
		c-0.6,0.5-1.2,1.1-1.7,1.7C611.5,556.4,611.1,555.7,610.9,555.1 M614.6,551c0.1,0.1,0.2,0.2,0.3,0.3c0.2,0.2,0.4,0.2,0.6,0.2
		c0.2,0.7,0.4,1.5,0.6,2.2c-0.4,0.2-0.8,0.4-1.2,0.6C614.9,553.3,614.7,552.2,614.6,551 M620,600.9c0.9-1,2.1-1.9,3.7-2.7
		c1.8-0.9,3.7-1.6,5.6-2.3c-0.8,1.2-1.4,2.6-2,4c-0.5-0.3-1.2-0.3-1.6,0.4c-6.1,10.2-13.7,19.2-22.7,26.9
		c-4.6,3.9-9.6,7.3-14.8,10.3c-0.4,0.2-0.8,0.4-1.1,0.6c9.3-6,17.8-13.6,24.4-22.5c3-2.7,4.8-6.2,6.4-10.1
		C618.6,603.9,619.4,602.4,620,600.9 M621.8,586.2c-3.7-6.8,1.4-24.4,9.2-29c0,0,0.1,0,0.1,0.1c0.3,0.1,0.7,0.2,1,0.1
		c0.2,0.2,0.5,0.3,0.9,0.2c2.9-0.9,4.5,0.1,5.5,2c0.3,2.1,0.7,4.1,1.1,6.2c0,4.2-0.9,8.5-1.2,9.9c-0.7,2.7-1.5,5.7-2.8,8.2
		C632.9,588.9,626.1,593.9,621.8,586.2 M635.2,554.9c-0.1-0.4-0.4-0.8-0.9-0.7c-0.5,0-0.9,0.1-1.4,0.3c-1.5-1.7-3.1-2.3-5.4-2.8
		c-1.3-0.3-2.6-0.6-3.7-1.1c-0.2-0.7-0.4-1.5-0.6-2.2c0.2-1.6,0.1-3.3-0.2-5c0.4-0.1,0.9-0.2,1.3-0.3c0.6-0.1,0.9-0.4,1-0.8
		c0.2,2.3,0.4,4.5,0.8,6.7c0.2,0.9,1.6,0.7,1.6-0.2c-0.1-2.3-0.3-4.5-0.7-6.8c1.1-0.2,2.2-0.4,3.4-0.7c0.5,3.7,1,7.3,1.6,11
		c0.2,0.8,1.6,0.6,1.5-0.2c-0.4-3.7-1-7.5-1.6-11.2c1.2-0.3,2.5-0.7,3.7-1.2c0.8,5.3,1.6,10.6,2.4,15.8
		C637.1,555.1,636.2,554.8,635.2,554.9 M481,407c11.4-1.3,23-0.9,34.3,0.6c12.2,1.5,24.3,4.3,36.2,7.3c10.8,2.8,21.7,5.8,31.7,11
		c17.8,9.4,33.7,24.7,46.4,40.3c13.2,16.2,23.2,35.2,25.2,56.2c-3,0.7-6,1.4-8.9,2.1c-2.4-27.9-24.3-51.8-44.4-69.5
		c-21-18.5-45.7-32.9-72.5-41c-0.9-0.3-1.2,1-0.4,1.3c25.4,9.1,49.2,22.2,69.5,40.1c8.6,7.5,17.7,16.3,25.5,26.1
		c5.4,10,10.2,20,14.4,30.5c1.1,4.4,2.1,8.8,2.9,13.3c0,0.1,0.1,0.2,0.1,0.3c-3.5,0.8-7,1.6-10.5,2.4c1.2-1.4,1.1-3.4-0.7-5
		c-0.4-0.3-0.9-0.4-1.3-0.3c-0.2-0.3-0.5-0.5-0.8-0.5c-3.2-7.4-7.1-14.3-12.1-20.8c-0.1-0.1-0.1-0.1-0.2-0.2
		c-9.7-14.9-21.1-28.8-34.2-40.6c-0.1-0.1-0.2,0-0.1,0.1c15.9,17.9,29.6,36.5,40.9,57.3c1.7,3.5,3.3,7.1,4.9,10.7c0,0,0,0,0.1,0.1
		c-1.7,0.4-3.4,0.8-5.1,1.2c-3.8-13.3-10.4-25.8-17.6-37.5c-0.1-0.2-0.5,0-0.3,0.2c7,12,12,24.6,16.7,37.6c-2.1,0.5-4.2,1-6.3,1.5
		c-1-9.7-5.7-19.4-10.9-27.5c-0.5-0.9-0.9-1.7-1.4-2.6c-11-19-26.7-35.3-44-48.7c-17-13.3-36.4-23.9-57.4-29.5
		c-15.5-4.1-33-6.1-49.6-3.8C456.1,410,471.1,408.1,481,407 M448.7,434.9c-2.6-0.9-7.1-1-9.8-2.5c0,0,0.1-0.1,0.1-0.1
		c0.5-0.6,0.2-1.6-0.7-1.6c-0.3,0-0.7,0.1-1.1,0.2c-0.2-0.5-0.4-1.1-0.5-1.7c6.3,2.4,12.2,5.1,17.9,8.2
		C452.8,436.5,450.8,435.6,448.7,434.9 M539.3,576.3c-2.7,0.6-7,1.1-9.4-0.7c-3.6-2.7-4.2-7.1-4.4-11.2c-0.5-8.6-1-17.1-2.5-25.6
		c-6.3-34.4-24.3-68.6-51.7-90.8c-0.7-0.6-1.4-1.1-2.1-1.6c21.9,15.5,38.3,36.9,49.1,63.9c2.5,6.3,4.7,12.7,6.6,19.1
		c3.5,13.9,5.6,28.2,6.7,42.5c0,0.5,0.4,0.8,0.8,0.9c0,0.2,0.1,0.5,0.4,0.6c1.8,0.6,3.5,1,5.3,1.1c1.2,0.6,2.5,1,3.9,1.1
		C541.2,575.9,540.2,576.1,539.3,576.3 M533.3,568.8c0.7,1.6,1.5,2.9,2.5,3.9c-0.8-0.1-1.5-0.2-2.3-0.4c0-0.1,0.1-0.2,0-0.3
		C533.4,570.8,533.3,569.8,533.3,568.8 M554.7,569.9c-0.3-0.2-0.6-0.2-1-0.1c-6,1.7-12.6,5.3-17.1-2.6c-1.9-3.4-1.6-10.3-2.3-14.2
		c-1.6-8.7-3.6-17.4-6.1-25.9c-5-16.7-12-32.7-21.7-47.2c0,0,0,0,0-0.1c-1.4-2.2-2.8-4.4-4.3-6.5c-15-21.3-39.6-42.9-66.3-47.7
		c-0.1-0.3-0.4-0.6-0.9-0.6c-0.3,0-0.5,0-0.8,0c4.9-1,9.7-1.8,14.5-2.4c0.3,0.2,0.8,0.2,1.1-0.1c15.6-1.9,30.8-1.6,46.8,2.3
		c19.8,4.8,38.3,14.1,54.7,26c5.9,4.3,11.6,8.9,17,13.8c20.1,22.9,43,46.3,42.3,78.3c-2.1,3.2-5.3,6-9.1,8.4
		c-9.5,3.1-19,7.7-28.2,11.1C567.7,564.6,561.3,567.6,554.7,569.9 M594.2,571.7c-0.8-0.1-1.6-0.1-2.5,0.1c0-0.2-0.1-0.4-0.2-0.6
		c-0.4-3-1.2-6-2.5-8.7c0.7-0.3,1.4-0.6,2.1-0.9C592.1,564.9,593,568.4,594.2,571.7 M591.5,561.4c0.8-0.3,1.6-0.7,2.4-1
		c0.9,3.9,1.6,8,2.6,12c-0.6-0.3-1.2-0.6-1.9-0.7C593.8,568.2,592.6,564.8,591.5,561.4 M591.3,575.1c0.1,0.3,0.5,0.2,0.5-0.1
		c0-0.5,0-0.9,0-1.4c4.7-1.3,7.4,4.8,7.5,9.5c0,2.2,0.1,4.5-0.1,6.7c-0.2,3.6-0.6,7.3-1.7,10.7c-1.3,3.8-5.5,9.2-9.7,8.7
		c-0.1-0.9-0.7-1.7-1.7-1.6c-0.4,0.1-0.8,0.1-1.2,0.2c-0.7-0.6-1.4-1.5-2-2.6c-5.2-9.3,0.6-21.6,6.1-30.1c0,0,0,0,0,0
		c0.7-0.5,1.4-0.9,2-1.2C591.1,574.3,591.3,574.7,591.3,575.1 M598.1,573.4c-1-4.4-2.6-8.9-3.8-13.2c0.9-0.4,1.7-0.7,2.5-1.1
		c1.2,5.8,2.2,11.8,3.7,17.7C600,575.5,599.1,574.3,598.1,573.4 M566.8,576.4c0-1.4,0-2.8-0.1-4.2c5.6-2.5,10.9-5.1,15.8-7.2
		c1.8-0.7,3.7-1.5,5.5-2.2c0.8,2.6,1.5,5.2,2.2,7.9c-5,0.7-9.5-0.3-14.3,0.1c-1.3,0.1-2.3,0.5-3.2,1.1
		C570.4,572.9,568.4,574.5,566.8,576.4 M568.3,600.3c1.8-0.2,3.4,0.2,5,1.1c0.8,0.4,1.7-0.7,1-1.3c-1.8-1.5-4.2-2-6.4-1.4
		c-0.2-0.8-0.3-1.6-0.3-2.5c3,0.1,5.7,0.8,8.6,1.9c0.9,0.3,1.3-1,0.6-1.5c-2.7-1.8-6.1-2.4-9.3-2.2c0-1,0-1.9,0.1-2.8
		c3.1,0.7,6.1,1.8,9.2,2.7c0.8,0.2,1.4-1,0.6-1.4c-2.9-1.7-6.4-2.5-9.7-2.9c0.1-0.7,0.1-1.3,0.2-1.9c0.1-0.8,0.2-1.5,0.3-2.3
		c1.7,0.3,3.5,0.4,5.2,0.6c2.1,0.2,4.2,0.7,6.3,0.9c0.9,0.1,1-1.3,0.2-1.6c-3.3-1.1-7.9-1.7-11.4-1.3c0.2-1.1,0.5-2.2,0.9-3.2
		c0.2-0.4,0.3-0.8,0.5-1.1c0,0.3,0.2,0.5,0.5,0.5c3.5,0.7,7.1,1,10.6,1.4c0.9,0.1,1.1-1.3,0.2-1.6c-3.3-0.9-7.2-1.5-10.7-1.3
		c-0.1,0-0.2,0.1-0.3,0.1c0.3-0.5,0.5-1,0.8-1.5c0.3-0.5,0.7-1,1.2-1.4c0.1,0,0.2,0.1,0.3,0.1c3.5,0.4,7,0.8,10.5,0.8
		c0.8,0,1.1-1.4,0.2-1.5c-3.1-0.5-6.2-0.6-9.3-0.7c1.4-0.9,3-1.4,5.1-1.6c3.6-0.2,6.9,0,10.5-0.5c0,0-0.1,0.1-0.1,0.1
		c-0.4,0.3-0.8,0.7-1.2,1.2c-0.1,0.1-0.1,0.3-0.2,0.4c-5.9,7.1-9,17.3-7.9,26.3c0.3,2.6,1.3,5.2,2.8,7.2c-4.2-0.1-8.8-0.1-11.9-3.1
		C569.7,603.6,568.9,602,568.3,600.3 M505.3,641.2c6.1-14.3,11.2-29.1,13.7-44.3c-0.1,0.8-0.1,1.6-0.2,2.4c-1.8,16.2-7.1,30.3-14,45
		c-0.3,0.6-0.2,1.2,0,1.7c-1.9,2.2-3.6,4.6-5.1,7.2c-0.8,1.3-1.5,2.7-2.2,4.1c-0.1-0.1-0.1-0.2-0.2-0.4
		C500.4,651.8,503.1,646.4,505.3,641.2 M455,689.3c3.8-0.6,7.7-1.3,11.5-2c0.3,0,0.4-0.2,0.6-0.3c2.7,1.2,5.9,1.7,9,2
		C469.4,691.6,462.1,692.1,455,689.3 M471.4,683.1c2.7-0.8,5.4-2.1,7.9-3.7c-1,0.9-2,1.8-3,2.5C474.9,682.5,473.3,682.9,471.4,683.1
		 M477.3,686.3c8.6-3.7,13.9-11.5,18-19.8c6.3-12.4,11.9-23,24.6-29.8c11.6-6.3,24.9-9.7,37.3-14c14.5-4.9,29-9.7,43.4-14.7
		c1.3-0.5,0.8-2.5-0.6-2.1c-1.3,0.4-2.7,0.9-4,1.3c5.9-7.1,6.1-20.8,4.8-28.8c0.5,1.8,1,3.6,1.6,5.3c0.1,0.3,0.5,0.2,0.5-0.1
		c-0.9-8.3-3.5-16.7-5.4-24.9c0.9-0.4,1.9-0.8,2.8-1.3c1.3,7.1,2,14.4,3.9,21.2c0.1,0.5,0.8,0.4,0.8-0.1c-0.2-7.2-2-14.7-3.5-21.8
		c0.6-0.3,1.1-0.6,1.7-0.9c0.9,4.2,1.1,8.4,1.8,12.7c0.1,0.6,0.9,0.4,1-0.1c0.5-4.2-0.6-9-1.8-13.1c0.5-0.3,0.9-0.5,1.3-0.8
		c0.1,1,0.3,2,0.4,3c0.3,1.8,0.2,3.8,1.3,5.4c0.1,0.2,0.5,0.2,0.6-0.1c0.4-1.7-0.2-3.5-0.6-5.2c-0.3-1.2-0.5-2.4-0.8-3.6
		c0.6-0.4,1.3-0.7,1.9-1.2c0.1-0.1,0.2-0.1,0.3-0.2c0.2,0.6,0.3,1.2,0.5,1.8c0.1,0.5,0.8,2.7,1.3,4.2c-1,1.4-1.8,3-2.5,4.7
		c-0.2,0.1-0.3,0.2-0.4,0.4c-2,5.4-3.6,11.9-1.9,17.5c0.4,2.5,1,4.8,2.3,7.1c1.9,3.3,5.9,6.1,7.1,9.8c0,0.1,0.1,0.3,0.1,0.4
		c0.1,0.5,0.2,1,0.3,1.5c0,0.2,0.1,0.3,0.1,0.4c-7.5,15.3-20.1,25.9-33.7,36.3c7.7-8.1,14.5-17.1,20.2-27.2c0.4-0.6-0.2-1.6-1-1.3
		c-15.6,5.5-31.2,11.1-46.8,16.6c-8.1,2.9-16.2,5.6-24.2,8.6c-5.1,1.9-9.8,4.2-13.7,8.1c-9.1,9.4-13.8,22.5-22,32.8
		c-3.8,4.8-8.5,9-13.7,12C479.7,686.5,478.5,686.4,477.3,686.3 M484.3,687.3c-0.1-0.1-0.1-0.2-0.2-0.3c11.1-7.2,17.8-19.4,24.4-30.5
		c4.2-7,8.4-14.3,15.8-18.4c7.9-4.3,17.3-6.7,25.8-9.7c16.5-5.9,33-11.7,49.5-17.6C574.5,652.9,530.8,676.3,484.3,687.3
		 M570.9,647.4c0.5-0.4,1.1-0.9,1.6-1.3c0.1,0.2,0.4,0.4,0.7,0.3c11-2,22.1-10.1,30.5-17c7.9-6.4,14.6-14,20.3-22.4
		c-2.3,4.3-5,8.3-7.5,12.5c-0.2,0.4,0.3,0.8,0.6,0.5c3.4-3.7,6.2-8.2,8.5-12.7c1.8-3.5,4.3-7.8,4.6-11.8c0.9-0.4,1.8-0.8,2.6-1.4
		c0.2-0.1,0.4-0.3,0.6-0.5c-1.8,4.1-3.6,8.1-5.7,12c-2.8,5-6.2,9.7-9.1,14.6c-0.3,0.4,0.3,0.9,0.7,0.5c7.3-7.7,13.3-18.7,16.2-29.1
		c0,0,0,0,0.1-0.1c0,0,0,0.1,0,0.1c0,0.2,0.4,0.2,0.5,0c0.1-0.3,0.1-0.7,0.2-1c0.8-1.1,1.4-2.2,1.8-3.4
		C632.7,617.7,600.2,642.3,570.9,647.4 M901.5,487.8c-0.4,0.2-0.6,0.5-0.6,0.9c-7.5,4.7-14.9,9.6-22.4,14.3c0.2-13.4,0-26.9,0-40.3
		c0-1-1.6-1-1.6,0c0,13.8-0.2,27.5,0,41.3c-10.8,6.9-21.7,13.6-33.1,19.7c-10.7,5.7-21.7,10.6-32.9,15.1c0.1-0.1,0.2-0.3,0.2-0.5
		c-0.9-14-1.4-28-0.8-42c0-0.9-1.4-0.9-1.5,0c-0.7,14-0.7,28.1,0.8,42c0,0.5,0.4,0.7,0.8,0.7c-10.5,4.2-21.2,8-32,11.7
		c-44.4,15.1-89,29.6-133.2,45.1c-0.5-5-1.6-10-2-15.1c-0.2-2.4-0.4-4.8-0.4-7.2c-0.2-5.7,0.4,1.3,0.3,2.9c0,0.1,0.2,0.1,0.2,0
		c0.2-2.5,0-4.6-0.6-7.1c-0.1-0.2-0.3-0.1-0.4,0c-0.7,8.6-0.3,18.3,2.5,26.5c-2.3,0.8-4.6,1.6-6.9,2.4c2.7-6.7,4.1-13.9,3.6-21.4
		c0-0.4-0.2-0.7-0.5-0.9c0.3-1.6,0.6-3.2,0.7-4.6c0.4-3.3,0.4-9.8-1.7-13.6c-1-6.3-2.1-12.5-3.2-18.7c1.5-0.6,2.9-1.3,4.4-2.1
		c0.2-0.1,0.4-0.3,0.4-0.6c5.6-1.2,11.2-2.4,16.7-3.7c0.4,13.1,1.7,26.2,3.8,39.1c0.1,0.9,1.7,0.7,1.6-0.2
		c-1.4-13.1-2.6-26.2-3.7-39.3c2.3-0.6,4.6-1.2,7-1.8c0.4,11.7,1.2,23.5,2.4,35.2c0.1,1.1,1.7,1.1,1.7,0
		c-0.5-11.8-1.4-23.7-2.7-35.5c0,0,0-0.1,0-0.1c20.5-5.4,40.7-11.8,60.6-18.7c31.7-11,63.2-22.9,94-36.2c0.4-0.1,0.7-0.3,1.1-0.4
		c11.4-4.2,22.7-8.4,34-12.8c8.8-3.5,17.7-7.1,25.5-12.6c1.7-1.2,3.2-2.5,4.6-3.8c0.8,0,1.6-0.7,1.7-1.6
		c11.2-11.5,14.5-27.1,14.9-43.2c4.4,12.6,2.1,28.2,2,41c0,7.5-0.1,15.1-0.1,22.6C906.5,471.1,908.8,484.4,901.5,487.8"/>
</g>
</svg>
