<?xml version="1.0" encoding="utf-8"?>
<!-- Generator: Adobe Illustrator 20.1.0, SVG Export Plug-In . SVG Version: 6.00 Build 0)  -->
<svg version="1.1" id="Layer_1" xmlns="http://www.w3.org/2000/svg" xmlns:xlink="http://www.w3.org/1999/xlink" x="0px" y="0px"
	 viewBox="0 0 1000 1000" style="enable-background:new 0 0 1000 1000;" xml:space="preserve">
<style type="text/css">
	.st0{fill:none;stroke:#5B5B5B;stroke-width:2;stroke-miterlimit:10;}
	.st1{fill:none;stroke:#231F20;stroke-miterlimit:10;}
	.st2{fill:none;stroke:#231F20;stroke-width:2;stroke-miterlimit:10;}
	.st3{fill:#231F20;}
</style>
<g>
	<path class="st3" d="M231,363.8c-5.6,0-10.1-4.5-10.1-10.1c0-5.6,4.5-10.1,10.1-10.1c5.6,0,10.1,4.5,10.1,10.1
		C241.1,359.3,236.6,363.8,231,363.8 M231,345.6c-4.5,0-8.1,3.6-8.1,8.1c0,4.5,3.6,8.1,8.1,8.1c4.5,0,8.1-3.6,8.1-8.1
		C239.2,349.3,235.5,345.6,231,345.6"/>
	<path class="st3" d="M231,368c-7.9,0-14.3-6.4-14.3-14.3c0-7.9,6.4-14.3,14.3-14.3c7.9,0,14.3,6.4,14.3,14.3
		C245.4,361.6,238.9,368,231,368 M231,341.4c-6.8,0-12.3,5.5-12.3,12.3c0,6.8,5.5,12.3,12.3,12.3c6.8,0,12.3-5.5,12.3-12.3
		C243.4,346.9,237.8,341.4,231,341.4"/>
	<path class="st3" d="M257.7,400.6c-5.6,0-10.1-4.5-10.1-10.1c0-5.6,4.5-10.1,10.1-10.1c5.6,0,10.1,4.5,10.1,10.1
		C267.8,396.1,263.3,400.6,257.7,400.6 M257.7,382.4c-4.5,0-8.1,3.6-8.1,8.1c0,4.5,3.6,8.1,8.1,8.1c4.5,0,8.1-3.6,8.1-8.1
		C265.8,386,262.2,382.4,257.7,382.4"/>
	<path class="st3" d="M257.7,404.8c-7.9,0-14.3-6.4-14.3-14.3c0-7.9,6.4-14.3,14.3-14.3c7.9,0,14.3,6.4,14.3,14.3
		C272,398.4,265.6,404.8,257.7,404.8 M257.7,378.2c-6.8,0-12.3,5.5-12.3,12.3c0,6.8,5.5,12.3,12.3,12.3c6.8,0,12.3-5.5,12.3-12.3
		C270,383.7,264.5,378.2,257.7,378.2"/>
	<path class="st3" d="M299.7,420c-5.6,0-10.1-4.5-10.1-10.1c0-5.6,4.5-10.1,10.1-10.1c5.6,0,10.1,4.5,10.1,10.1
		C309.8,415.4,305.2,420,299.7,420 M299.7,401.8c-4.5,0-8.1,3.6-8.1,8.1c0,4.5,3.6,8.1,8.1,8.1c4.5,0,8.1-3.6,8.1-8.1
		C307.8,405.4,304.1,401.8,299.7,401.8"/>
	<path class="st3" d="M299.7,424.2c-7.9,0-14.3-6.4-14.3-14.3c0-7.9,6.4-14.3,14.3-14.3c7.9,0,14.3,6.4,14.3,14.3
		C314,417.8,307.6,424.2,299.7,424.2 M299.7,397.5c-6.8,0-12.3,5.5-12.3,12.3s5.5,12.3,12.3,12.3c6.8,0,12.3-5.5,12.3-12.3
		S306.5,397.5,299.7,397.5"/>
	<path class="st3" d="M347.9,433.3c-5.6,0-10.1-4.5-10.1-10.1c0-5.6,4.5-10.1,10.1-10.1c5.6,0,10.1,4.5,10.1,10.1
		C358,428.8,353.4,433.3,347.9,433.3 M347.9,415.1c-4.5,0-8.1,3.6-8.1,8.1c0,4.5,3.6,8.1,8.1,8.1c4.5,0,8.1-3.6,8.1-8.1
		C356,418.7,352.3,415.1,347.9,415.1"/>
	<path class="st3" d="M347.9,437.5c-7.9,0-14.3-6.4-14.3-14.3c0-7.9,6.4-14.3,14.3-14.3c7.9,0,14.3,6.4,14.3,14.3
		C362.2,431.1,355.8,437.5,347.9,437.5 M347.9,410.9c-6.8,0-12.3,5.5-12.3,12.3c0,6.8,5.5,12.3,12.3,12.3c6.8,0,12.3-5.5,12.3-12.3
		C360.2,416.4,354.7,410.9,347.9,410.9"/>
	<path class="st3" d="M392.3,442.4c-5.6,0-10.1-4.5-10.1-10.1c0-5.6,4.5-10.1,10.1-10.1s10.1,4.5,10.1,10.1
		C402.4,437.9,397.9,442.4,392.3,442.4 M392.3,424.2c-4.5,0-8.1,3.6-8.1,8.1c0,4.5,3.6,8.1,8.1,8.1c4.5,0,8.1-3.6,8.1-8.1
		C400.4,427.8,396.8,424.2,392.3,424.2"/>
	<path class="st3" d="M392.3,446.6c-7.9,0-14.3-6.4-14.3-14.3c0-7.9,6.4-14.3,14.3-14.3c7.9,0,14.3,6.4,14.3,14.3
		C406.6,440.2,400.2,446.6,392.3,446.6 M392.3,420c-6.8,0-12.3,5.5-12.3,12.3c0,6.8,5.5,12.3,12.3,12.3c6.8,0,12.3-5.5,12.3-12.3
		C404.6,425.5,399.1,420,392.3,420"/>
	<path class="st3" d="M435.7,464.8c-5.6,0-10.1-4.5-10.1-10.1c0-5.6,4.5-10.1,10.1-10.1s10.1,4.5,10.1,10.1
		C445.8,460.3,441.2,464.8,435.7,464.8 M435.7,446.6c-4.5,0-8.1,3.6-8.1,8.1c0,4.5,3.6,8.1,8.1,8.1c4.5,0,8.1-3.6,8.1-8.1
		C443.8,450.3,440.1,446.6,435.7,446.6"/>
	<path class="st3" d="M435.7,469c-7.9,0-14.3-6.4-14.3-14.3c0-7.9,6.4-14.3,14.3-14.3c7.9,0,14.3,6.4,14.3,14.3
		C450,462.6,443.6,469,435.7,469 M435.7,442.4c-6.8,0-12.3,5.5-12.3,12.3c0,6.8,5.5,12.3,12.3,12.3c6.8,0,12.3-5.5,12.3-12.3
		C448,447.9,442.5,442.4,435.7,442.4"/>
	<path class="st3" d="M483.4,449.4c-11.2,0-20.4-9.1-20.4-20.4s9.1-20.4,20.4-20.4c11.2,0,20.4,9.1,20.4,20.4
		S494.6,449.4,483.4,449.4 M483.4,410.7c-10.1,0-18.4,8.2-18.4,18.4c0,10.1,8.2,18.4,18.4,18.4c10.1,0,18.4-8.2,18.4-18.4
		C501.8,419,493.5,410.7,483.4,410.7"/>
	<path class="st3" d="M483.4,458.4c-16.2,0-29.3-13.2-29.3-29.3c0-16.2,13.1-29.3,29.3-29.3c16.2,0,29.3,13.1,29.3,29.3
		C512.7,445.3,499.6,458.4,483.4,458.4 M483.4,401.8c-15.1,0-27.3,12.3-27.3,27.3c0,15.1,12.3,27.3,27.3,27.3
		c15.1,0,27.3-12.3,27.3-27.3C510.7,414,498.5,401.8,483.4,401.8"/>
	<path class="st3" d="M531.7,466c-6.2,0-11.2-5-11.2-11.2c0-6.2,5-11.2,11.2-11.2s11.2,5,11.2,11.2C543,460.9,537.9,466,531.7,466
		 M531.7,445.5c-5.1,0-9.3,4.2-9.3,9.3c0,5.1,4.2,9.3,9.3,9.3c5.1,0,9.3-4.2,9.3-9.3C541,449.6,536.8,445.5,531.7,445.5"/>
	<path class="st3" d="M531.7,470.7c-8.8,0-16-7.2-16-16c0-8.8,7.2-16,16-16c8.8,0,16,7.2,16,16C547.7,463.5,540.5,470.7,531.7,470.7
		 M531.7,440.7c-7.7,0-14,6.3-14,14c0,7.7,6.3,14,14,14c7.7,0,14-6.3,14-14C545.7,447,539.4,440.7,531.7,440.7"/>
	<path class="st3" d="M575.6,447.8c-6.2,0-11.2-5-11.2-11.2c0-6.2,5-11.2,11.2-11.2c6.2,0,11.2,5,11.2,11.2
		C586.8,442.7,581.8,447.8,575.6,447.8 M575.6,427.2c-5.1,0-9.3,4.2-9.3,9.3c0,5.1,4.2,9.3,9.3,9.3c5.1,0,9.3-4.2,9.3-9.3
		C584.8,431.4,580.7,427.2,575.6,427.2"/>
	<path class="st3" d="M575.6,452.5c-8.8,0-16-7.2-16-16c0-8.8,7.2-16,16-16c8.8,0,16,7.2,16,16C591.6,445.3,584.4,452.5,575.6,452.5
		 M575.6,422.5c-7.7,0-14,6.3-14,14c0,7.7,6.3,14,14,14c7.7,0,14-6.3,14-14C589.6,428.8,583.3,422.5,575.6,422.5"/>
	<path class="st3" d="M618.1,437.5c-6.2,0-11.2-5-11.2-11.2c0-6.2,5-11.2,11.2-11.2c6.2,0,11.3,5,11.3,11.2
		C629.3,432.5,624.3,437.5,618.1,437.5 M618.1,417c-5.1,0-9.3,4.2-9.3,9.3c0,5.1,4.2,9.3,9.3,9.3c5.1,0,9.3-4.2,9.3-9.3
		C627.3,421.1,623.2,417,618.1,417"/>
	<path class="st3" d="M618.1,442.3c-8.8,0-16-7.2-16-16c0-8.8,7.2-16,16-16c8.8,0,16,7.2,16,16C634.1,435.1,626.9,442.3,618.1,442.3
		 M618.1,412.2c-7.7,0-14,6.3-14,14c0,7.7,6.3,14,14,14c7.7,0,14-6.3,14-14C632.1,418.5,625.8,412.2,618.1,412.2"/>
	<path class="st3" d="M665.8,425.3c-6.2,0-11.2-5-11.2-11.2c0-6.2,5-11.2,11.2-11.2c6.2,0,11.2,5,11.2,11.2
		C677,420.3,672,425.3,665.8,425.3 M665.8,404.8c-5.1,0-9.3,4.2-9.3,9.3c0,5.1,4.2,9.3,9.3,9.3c5.1,0,9.3-4.2,9.3-9.3
		C675,409,670.9,404.8,665.8,404.8"/>
	<path class="st3" d="M665.8,430.1c-8.8,0-16-7.2-16-16c0-8.8,7.2-16,16-16c8.8,0,16,7.2,16,16C681.8,422.9,674.6,430.1,665.8,430.1
		 M665.8,400.1c-7.7,0-14,6.3-14,14c0,7.7,6.3,14,14,14c7.7,0,14-6.3,14-14C679.8,406.4,673.5,400.1,665.8,400.1"/>
	<path class="st3" d="M708.8,401.8c-6.2,0-11.2-5-11.2-11.2c0-6.2,5-11.2,11.2-11.2c6.2,0,11.2,5,11.2,11.2
		C720,396.7,715,401.8,708.8,401.8 M708.8,381.3c-5.1,0-9.3,4.2-9.3,9.3c0,5.1,4.2,9.3,9.3,9.3c5.1,0,9.3-4.2,9.3-9.3
		C718,385.4,713.9,381.3,708.8,381.3"/>
	<path class="st3" d="M708.8,406.5c-8.8,0-16-7.2-16-16c0-8.8,7.2-16,16-16c8.8,0,16,7.2,16,16C724.8,399.3,717.6,406.5,708.8,406.5
		 M708.8,376.5c-7.7,0-14,6.3-14,14c0,7.7,6.3,14,14,14c7.7,0,14-6.3,14-14C722.8,382.8,716.5,376.5,708.8,376.5"/>
	<path class="st3" d="M738.8,365c-6.2,0-11.2-5-11.2-11.2c0-6.2,5-11.2,11.2-11.2c6.2,0,11.2,5,11.2,11.2
		C750,359.9,745,365,738.8,365 M738.8,344.5c-5.1,0-9.3,4.2-9.3,9.3s4.2,9.3,9.3,9.3s9.3-4.2,9.3-9.3S743.9,344.5,738.8,344.5"/>
	<path class="st3" d="M738.8,369.7c-8.8,0-16-7.2-16-16s7.2-16,16-16c8.8,0,16,7.2,16,16S747.6,369.7,738.8,369.7 M738.8,339.7
		c-7.7,0-14,6.3-14,14c0,7.7,6.3,14,14,14c7.7,0,14-6.3,14-14C752.8,346,746.5,339.7,738.8,339.7"/>
	<path class="st3" d="M444.9,331.9c-5.4-1.3-9.5,2.2-11.7,7c-3.8,8.3,1.5,29.9-8.8,32.9c-0.5,0.1-0.7,0.5-0.7,0.8
		c-18.2,2.2-35.1-0.7-53.2-4c-7.2-1.3-14.4-2.7-21.7-3.7c-8.8-1.2-19.5-0.2-27.4-4.7c5.7-3.8,9.8-10.8,13.5-16.4
		c5.7-8.6,10-17.9,14.9-27c11.5-21.2,36.1-32.2,59.3-35.8c0.2,0,0.2-0.4,0-0.4c-9.6-0.1-18.5,3.4-27.1,7.4
		c-9.1,4.2-18.6,8.5-25.4,16.1c-14.6,16.6-18.7,41.4-36.9,55.4c-0.7,0.6-0.1,1.8,0.7,1.3c0.2-0.1,0.3-0.2,0.5-0.3
		c4.6,3.5,9.7,3.8,15.4,4.4c12,1.3,23.8,3.5,35.6,5.7c16.6,3.2,36.4,8.5,53.1,3.1c0.1,0,0.1,0,0.2,0c0.3-0.1,0.5-0.2,0.8-0.3
		c0.2-0.1,0.5-0.1,0.7-0.2c0,0,0-0.1,0.1-0.1c15.5-7.1-3.9-37.1,18.3-40.9C445.1,332.4,445.1,332,444.9,331.9"/>
	<path class="st3" d="M585.8,282.6c-0.4,0-0.5,0.7-0.1,0.8c25,4.8,52,22.1,54.6,49.3c-0.1,0-0.1,0-0.2,0
		c-16.1,1.6-28.5,12.1-42.5,19.1c-18.9,9.5-38.5,14.6-59.7,12.9c-0.3,0-0.3,0.4-0.1,0.5c16.3,4.8,34.7-0.4,50-6.5
		c17.5-7,33.1-21.8,52.2-23.9c0.7-0.1,1-0.6,1-1.2c0.5,0.1,1-0.2,1.1-0.9C645.5,306.1,608.7,283.2,585.8,282.6"/>
	<path class="st3" d="M553,323.2c-0.1-0.1-0.1-0.1-0.2-0.1c-2.7-4.5-8.5-6.8-13.6-6.8c-0.5,0-0.5,0.8,0,0.8
		c5.6,0.4,9.1,3.6,12.4,7.8c0.5,0.6,1.7,0.7,1.8-0.2C553.5,324,553.5,323.8,553,323.2"/>
	<path class="st3" d="M415.1,280.8c-3.6,4.3-6.1,11-6.3,16.6c0,0.5,0.6,0.5,0.8,0.1c1-2.6,1.6-5.2,2.6-7.8c1.1-2.9,2.6-5.5,3.8-8.2
		C416.1,281,415.5,280.3,415.1,280.8"/>
	<path class="st3" d="M429.1,337.5c-3.4-4.7-8.1-8.2-11.3-13.2c-3.6-5.5-5.5-11.4-7.3-17.7c-0.1-0.4-0.7-0.3-0.7,0.1
		c0.1,11.2,7.4,27.7,18.7,31.8C428.9,338.6,429.4,337.9,429.1,337.5"/>
	<path class="st3" d="M409.4,361.7c-10,0-18.1-5.4-18.1-12.1c0-6.7,8.1-12.1,18.1-12.1s18.1,5.4,18.1,12.1
		C427.6,356.3,419.4,361.7,409.4,361.7 M409.4,339.4c-8.9,0-16.1,4.6-16.1,10.2c0,5.6,7.2,10.2,16.1,10.2c8.9,0,16.1-4.6,16.1-10.2
		C425.6,344,418.3,339.4,409.4,339.4"/>
	<path class="st3" d="M607.2,340.1c-6.5,0-11.9-2.8-13.4-7.4c-2-6.4,4.2-14,13.7-16.9c9.5-2.9,18.9-0.1,20.9,6.3
		c2,6.4-4.2,14-13.7,16.9C612.2,339.7,609.6,340.1,607.2,340.1 M615.3,316.5c-2.2,0-4.6,0.4-7.1,1.1c-8.5,2.6-14.1,9.1-12.4,14.5
		c1.6,5.4,9.9,7.6,18.4,5c8.5-2.6,14.1-9.1,12.4-14.5C625.4,318.7,620.9,316.5,615.3,316.5"/>
	<path class="st3" d="M564.3,362.7c-7.2,0-13.6-3.8-15.5-10c-1.2-3.9-0.5-8.1,2-11.8c2.4-3.7,6.3-6.5,10.9-7.9
		c4.6-1.4,9.4-1.3,13.5,0.4c4.2,1.7,7.1,4.8,8.3,8.6c2.4,7.9-3.3,16.8-12.9,19.7C568.5,362.4,566.4,362.7,564.3,362.7 M568.1,334
		c-1.9,0-3.8,0.3-5.7,0.9c-4.2,1.3-7.6,3.8-9.8,7.1c-2.1,3.2-2.8,6.8-1.7,10.1c2.1,6.9,10.8,10.4,19.3,7.7
		c8.5-2.6,13.7-10.4,11.6-17.2c-1-3.3-3.6-5.9-7.2-7.4C572.5,334.5,570.3,334,568.1,334"/>
	<path class="st3" d="M584.1,314.7c-6.6,0-12.4-3.4-14.1-8.8c-2.2-7.1,3.3-15.1,12.3-17.9c8.9-2.8,18,0.8,20.2,7.9
		c2.2,7.1-3.3,15.1-12.2,17.9C588.2,314.4,586.1,314.7,584.1,314.7 M588.5,289c-1.8,0-3.7,0.3-5.6,0.9c-7.9,2.4-12.8,9.3-10.9,15.4
		c1.9,6.1,9.8,9,17.7,6.6c7.9-2.4,12.8-9.3,10.9-15.4C599.2,291.8,594.2,289,588.5,289"/>
	<path class="st3" d="M358.7,354.8c-8.9,0-16.2-5.7-16.2-12.7s7.2-12.7,16.2-12.7c8.9,0,16.2,5.7,16.2,12.7S367.6,354.8,358.7,354.8
		 M358.7,331.3c-7.8,0-14.2,4.8-14.2,10.7c0,5.9,6.4,10.7,14.2,10.7c7.8,0,14.2-4.8,14.2-10.7C372.8,336.1,366.5,331.3,358.7,331.3"
		/>
	<path class="st3" d="M380.7,325.8c-2.1,0-4.2-0.3-6.1-1c-4.1-1.4-7.1-4.2-8.3-7.8c-2.5-7.4,3.1-15.9,12.4-19.1
		c4.5-1.5,9.2-1.6,13.2-0.2c4.1,1.4,7.1,4.2,8.3,7.8c2.5,7.3-3.1,15.9-12.4,19.1C385.5,325.4,383.1,325.8,380.7,325.8 M385.9,298.7
		c-2.1,0-4.3,0.4-6.5,1.1c-8.3,2.8-13.3,10.3-11.2,16.6c1,3,3.5,5.3,7.1,6.5c3.6,1.2,7.8,1.2,11.9-0.2c8.3-2.8,13.3-10.3,11.2-16.6
		c-1-3-3.5-5.3-7.1-6.5C389.6,299,387.8,298.7,385.9,298.7"/>
	<path class="st3" d="M311.2,252.8c0-0.5-0.7-0.5-0.7,0c-0.9,8.2-1.3,17.4-0.2,25.6c0.1,0.5,1,0.5,1.1,0
		C312.5,270.2,312,261,311.2,252.8"/>
	<path class="st3" d="M269.4,298.4c-1.5-4.1,1.6-8.2,3-12c3.5-9.8,4.8-20.4,2.8-30.7c0-0.1-0.1,0-0.1,0c0,14.5-1.9,27.5-9.1,40.3
		c-0.2,0.4-0.1,0.8,0.1,1.1c3.8,4.7,6.7,9.9,10.1,14.7c0.3,0.4,1,0.2,0.8-0.3C275.4,306.7,271.1,303,269.4,298.4"/>
	<path class="st3" d="M301.9,289.6c0-0.2,0-0.3,0.1-0.5c0.1-1-1-1.3-1.7-0.9c-6.1-4.3-17.2-5.9-23.1-1.3c-0.3,0.2,0,0.6,0.3,0.6
		c0.4-0.1,0.9-0.2,1.3-0.2c-4.9,2.5-10.3,7.4-7.5,12.2c1.7,2.9,5.6,4.1,9.9,4.3c1.4,0.3,2.7,0.4,3.9,0.3c2.9-0.1,6.1-0.7,8.9-1.9
		c1-0.3,2-0.6,2.7-0.9C301.5,299.4,306.3,294,301.9,289.6 M275.2,291.5c2-2.4,4.3-3.8,7.1-4.9c3.2-0.5,6.3-0.8,9.8,0.1
		c1.9,0.5,5.5,1.4,6.9,2.9c0.2,0.2,0.3,0.4,0.5,0.6c-0.6,2.8-2.6,5.1-5.4,6.8c-3.5,1.4-7.5,2.1-9.1,2.1c-2.4,0-7.1-0.1-9.9-1.2
		c-0.5-1-1-2.1-1.6-3.1c0-0.3-0.1-0.5-0.1-0.8C274,293.1,274.5,292.3,275.2,291.5"/>
	<path class="st3" d="M437,541.1c-7.8,8.1-12.7,18.1-14.2,29.1l2,0.3c1.4-10.4,6.1-20,13.5-27.8C437.8,542.2,437.3,541.7,437,541.1"
		/>
	<path class="st3" d="M494.2,522.3c-13.1-1.8-26.1,0-37.6,5.1c0.3,0.6,0.5,1.2,0.6,1.9c11.2-5,23.9-6.8,36.7-5.1
		c7,0.9,13.9,3.3,20.5,6.7c0-0.7,0.1-1.4,0.2-2.1C508.1,525.5,501.2,523.2,494.2,522.3"/>
	<path class="st3" d="M540.9,551.1c-2.3-3.1-4.8-6-7.5-8.7c-0.3,0.6-0.7,1.1-1.3,1.5c2.6,2.6,5,5.4,7.2,8.4
		c9.8,13.2,14.3,28.4,12.1,41.7l2,0.3C555.6,580.5,551,564.7,540.9,551.1"/>
	<path class="st3" d="M672.1,278.1c-0.1,0.1-0.1,0.1-0.1,0.2c-5.8,3.4-11,9.5-8.4,15.6c4,9.5,20.2,10.6,28.4,7.3
		C713.5,292.5,684.6,265.9,672.1,278.1 M668.7,283.3c0.9-1,1.8-1.9,2.9-2.6c1.1-0.9,2.3-1.6,3.5-2.3c5.3-1.9,10.4-0.4,15.3,2.8
		c2.6,1.7,6,4.6,6.7,8c-1.7,7.8-10.6,9.6-17.4,9.2c-2.7-0.2-7.2-1-9.5-2.5c-1.1-0.7-1.9-1.5-2.4-2.3c-0.1-0.6-0.1-1.3,0-2
		c-0.5-0.7-0.8-1.4-1.1-2c0-0.8,0-1.6,0.1-2.4c0-0.2-0.3-0.3-0.4-0.1C666.6,285.6,667.3,284.4,668.7,283.3"/>
	<path class="st3" d="M707.2,236.9c-3.2,12.9-4.8,28-2.8,41.1c0.1,0.6,0.9,0.4,0.9-0.1c1.3-13.5,1.5-27.4,2.4-41
		C707.7,236.7,707.2,236.6,707.2,236.9"/>
	<path class="st3" d="M665.4,247.5c0-0.2-0.4-0.3-0.5-0.1c-1.9,10.1-3,22-1.5,32.2c0.1,0.5,1,0.5,1.1,0
		C666.2,269.5,665.9,257.9,665.4,247.5"/>
	<path class="st3" d="M304.5,581.6c-0.3-0.8-0.6-1.7-1-2.4c-3.6-6.5-14.5-8.3-21.2-5.1c-7.2,2.5-12.7,11-11.3,18.5
		c0.6,3.3,2.3,5.6,4.5,7.2c5.3,6.2,14.4,8.4,22,4.7C305.8,600.5,310,589.5,304.5,581.6 M280.7,576.6c5.8-1.1,12.5-2.9,17.6,1.2
		c7,5.6,4.1,17.8-3.4,20.7c-5.9,2.3-16.8,2.7-20.5-3.5C270.7,588.9,274.8,580.5,280.7,576.6 M296,602c-4.3,2.1-8.7,2-12.8,0.6
		c4,0.5,8.3,0,11.8-1c3.5-1.1,6.3-3.6,8.1-6.8C301.8,597.7,299.5,600.3,296,602"/>
	<path class="st3" d="M678,592.9c-0.7,0.2-0.9,0.8-0.7,1.4c-4,1.7-8.3,4.5-9.2,5.7c-7.1,9.1,1.7,19.7,11.3,21
		c10,1.4,21.3-5.1,20.7-16.2C699.4,593.6,687.2,590.7,678,592.9 M673.4,598.5c1-0.7,3.9-2.6,6.5-3.3c1.1,0,2.1,0,3.2,0
		c0.3,0.2,0.6,0.4,0.7,0.7c0.1,0.2,0.5,0.2,0.5-0.1c0-0.3,0-0.4,0-0.7c4,0,7.9,0.5,10.8,4c0.3,0.4,0.6,0.8,0.9,1.2
		c-0.2,6.7-2.7,12-9.9,14.5c-5.6,2-11.5,0.9-16.2-2.5c-0.6-0.9-1.1-1.9-1.4-3.1C667.4,605.1,669.9,601,673.4,598.5 M686.9,617.7
		c-0.9,0.2-1.9,0.4-2.8,0.5c1.6-0.3,3.2-0.8,4.8-1.5c2.4-1.1,5-3.2,6.9-5.8C693.9,614.2,690.5,616.8,686.9,617.7"/>
	<path class="st3" d="M699.2,555.4c-3-7.3-12.6-11.1-19.7-7.2c-0.8,0.4-0.3,1.8,0.6,1.5c5-1.9,10.9-1.3,14.5,2.4
		c2.8,7.1,1.9,14.3-4.4,19.4c-2.5,2-5.3,3.2-8.4,3.4c-1.1-0.1-2.3-0.3-3.4-0.6c-5.1-1.6-7.6-5.5-8.1-10.7
		c-0.7-8.6,3.8-15.9,12.6-17.5c0.4-0.1,0.3-0.7-0.1-0.7c-10.7-0.7-15.3,11.1-14.3,20c0.4,3.2,1.7,5.8,3.7,7.8
		c1.3,2.2,2.9,3.6,6.6,4.2c1.2,0.2,2.3,0.2,3.5,0.1c2,0.1,4.1-0.1,6.1-0.7C697.3,574.2,702.8,564.1,699.2,555.4"/>
	<path class="st3" d="M303.2,539.6c-0.4-1.2-1-2.4-1.9-3.5c-3.2-4.1-14-11.3-19.3-7.6c-7.6,1.3-12.7,9.2-9.8,17
		c0.4,1,0.9,1.9,1.4,2.8c2.9,7,11.7,12.2,18.8,11.5C302.1,558.8,307.2,548.1,303.2,539.6 M291.9,557.1c-3.2,0.3-6.4-0.6-9.3-2.1
		c1.2,0.4,2.5,0.7,3.7,1c1.8,1.1,4.6,1,6.5,0.7c1.5-0.2,3.4-0.8,4.9-1.7C296.3,556,294.4,556.8,291.9,557.1 M291.6,553.6
		c-5.7,0.9-12.3-1.5-15.9-6.2c-5.1-6.7-1.7-14.3,4.7-17.4c-0.2,0.3-0.4,0.5-0.5,0.9c-0.2,0.5,0.3,1,0.8,0.6
		c5.4-4.4,13.8,0.3,17.9,4.7C305,543.1,300.2,552.3,291.6,553.6"/>
	<path class="st3" d="M465,631.8c-18.9-1-29.8-20.4-31.6-37.4c-0.7-6.4-0.3-13,1.3-19.3c1.8-7.4,6.8-20.9,15.2-22.7
		c0.3-0.1,0.2-0.5-0.1-0.5c-6.7,0.5-11.1,9.4-13.6,14.8c-4.1,9.1-5.5,19.2-4.2,29.1c2.1,16.1,13.6,38.9,32.9,36.6
		C465.3,632.3,465.3,631.9,465,631.8"/>
	<path class="st3" d="M521.3,564.9c-13.5-17.5-36-23.7-56.9-17.3c-0.1,0-0.1,0.2,0,0.1c19.6-4.8,40.3,0.6,53.5,16.2
		c12.6,14.9,16.6,36.9,4,53c-0.4,0.5,0.2,1.1,0.7,0.7C538.3,604.4,532.3,579.3,521.3,564.9"/>
	<path class="st3" d="M487.2,552.1c-0.5,0.1-0.7,0.6-0.6,1c-4.4,1.2-7.9,5.2-7.2,10c0.6,4.6,4.6,8.3,9.4,8
		C499.1,570.6,497,550.3,487.2,552.1 M487.6,569c-3.4-0.1-6-3.1-6.5-6.3c-0.7-4.1,1.8-7.9,5.7-9.2c0.1,0.2,0.4,0.4,0.7,0.4
		c4.8,0,5.6,4.8,5.6,8.6C493,566.1,491.8,569.2,487.6,569"/>
	<path class="st3" d="M522.5,583.1c-1.3-3.5-7.3-7-10.2-3.3c0,0-0.1,0.1-0.1,0.2c-3.2-0.7-6,2.5-6.3,6c-0.2,2.4,0.2,5,2.2,6.6
		c2,1.6,4.8,2.1,7.3,1.7C520.5,593.5,524.3,588.2,522.5,583.1 M517.5,590.9c-2.6,1.5-7.1,1.3-8.7-1.4c-2.1-3.3,0.4-11,5.4-8.5
		c0.1,0.1,0.2-0.1,0.1-0.2c-0.2-0.2-0.4-0.3-0.6-0.4c2.3-0.2,4.6-0.2,6.2,2.1C521.7,585.4,520.2,589.4,517.5,590.9"/>
	<path class="st3" d="M524.5,606.3c-0.2-0.4-0.8-0.2-0.8,0.2c-0.2,5.4-3.6,9.9-9.6,8.5c-2.9-0.7-6.1-3-6.2-6.3
		c-0.1-3.9,3.6-6.2,7.2-5.7c0.2,0,0.3-0.3,0.1-0.4c-3.3-1.2-6.9-0.1-8.5,3.2c-1.9,3.9,0.3,8,3.8,10.1c3.4,1.9,8,2.1,11.2-0.2
		C524.6,613.6,526.4,609.4,524.5,606.3"/>
	<path class="st3" d="M494.7,638.4c-0.5-4.7-5-8.4-9.6-9.5c0.4-0.1,0.7-0.2,1.1-0.3c0.4-0.1,0.3-0.7-0.1-0.6c-1.1,0-2.2,0.2-3.3,0.6
		c-0.2,0-0.5,0-0.7,0c-0.4,0-0.7,0.3-0.8,0.6c-3.3,1.5-5.8,4.4-6.2,8.3c-0.6,5.7,4,11.5,9.9,11.5
		C490.4,648.9,495.3,643.9,494.7,638.4 M484.6,646.3c-4.5-0.3-8.1-5.2-7.2-9.6c0.5-2.7,2.3-4.9,4.6-6.4c3.5,1.1,7.3,2.1,9.3,5.5
		C494.1,640.5,490.1,646.7,484.6,646.3"/>
	<path class="st3" d="M749.8,353.5c-0.9-3.2-2.7-5.6-5.4-7.5l0,0c0,0,0,0,0,0c-0.1,0-0.1-0.1-0.2-0.2c-0.2-0.1-0.3-0.1-0.4-0.1
		c-0.8-0.5-1.6-1-2.5-1.4c-0.1-0.1-0.2-0.1-0.3-0.1c-0.2-0.4-0.5-0.7-1-0.7c-3.6,0.2-6.5,1.9-8.2,4.5c-0.2-0.2-0.6-0.2-0.8,0
		c-3.3,3.5-2.4,8.3,0.3,11.9c0.5,1,1.2,1.8,2.1,2.3c1,0.8,2,1.5,3.1,2c0,0,0,0,0,0c0,0,0,0,0,0c0.1,0,0.2,0.1,0.3,0.1
		c1.2,0.5,1.8-1.3,0.8-2c-6.9-4.8-3.6-14.9,4.7-15.2c0,0,0.1,0,0.1,0c0.8,0.5,1.5,1.1,2.2,1.8c0.2,0.2,0.4,0.2,0.6,0.3
		c1.4,1.4,2.4,3,3.1,4.9C748.5,355,750.1,354.6,749.8,353.5"/>
	<path class="st3" d="M704.5,381.5c-6.1,3.6-8.2,12.5-1.4,16.5c0.3,0.2,0.6,0.1,0.9,0c1.1,1.3,2.5,2,4.4,1.7
		c0.1,0.1,0.2,0.1,0.3,0.2c0.1,0,0.2,0,0.2,0c0,0,0,0,0,0c0,0,0.1,0,0.1,0c0.6,0.1,1.2,0.1,1.7,0c3.1-0.1,7.9-0.9,7-4.3
		c-0.1-0.3-0.4-0.4-0.7-0.3c-1,0.5-1.5,1.5-2.5,2.1c-0.5,0.3-1.1,0.5-1.7,0.6c-0.1-0.2-0.3-0.4-0.5-0.4c-2.3-0.5-4.6-1.3-6.5-2.8
		c-2.4-4.3,1.1-11.8,6.7-11.4c2.6,1.4,4.7,4,5.7,6.9c0.2,0.5,1,0.6,1.1,0C720.8,383.1,710,378.2,704.5,381.5"/>
	<path class="st3" d="M676,410.5C676,410.5,676,410.5,676,410.5c0.3-0.4,0.3-1-0.2-1.3c-0.3-0.2-0.6-0.4-0.9-0.6
		c-1.9-2.6-4.9-4.1-8.1-4c-0.1,0-0.1,0-0.2,0c-2,0-3.8,0.4-5.5,1.3c-0.3-0.2-0.6-0.4-1-0.2c-4,1.4-4.9,5.4-4.2,9.2
		c-0.1,2.2,0.5,4.4,1.4,5.5c0.4,0.4,1,0.8,1.5,0.9c0.5,0.6,1.1,1.2,1.7,1.7c0,0,0,0,0.1,0.1c0,0,0,0,0,0c0.1,0.1,0.1,0.1,0.2,0.2
		c0.3,0.2,0.6,0.2,0.9,0.1c1.2,0.6,2.6,0.8,4.2,0.6c1.3-0.2,1.7-1.9,0.3-2.4c-3.2-1.1-3.5-7.9-2.3-10.5c1.1-2.1,3.2-2.8,5.4-2.6
		c0.3,0.1,0.6,0.1,0.9,0.2c0.2,0.1,0.5,0.1,0.7,0.2c1.3,0.5,2.5,1.4,3.2,2.5c0.2,0.5,0.4,1.1,0.6,1.7c0.3,1.3,2.1,0.7,2-0.5
		C676.6,411.8,676.3,411.1,676,410.5"/>
	<path class="st3" d="M625,418.9c-3.1-3.7-9-4.4-12.8-1.3c-4.1,3.4-6.6,10.6-2.4,14.7c0.2,0.2,0.6,0.3,0.9,0.2
		c1.4,2.6,4.2,5,7.3,4.2c0.6-0.2,0.5-1,0-1.2c-3.2-1.1-5.6-2.4-6.4-6.1c0-0.2-0.1-0.4-0.1-0.6c0.2-1.9,0.8-3.8,1.9-5.4
		c0.9-1.2,2-2.3,3.3-3.1c1.1-0.7,2.4-1.1,3.7-1.2c0.6,0.3,1.1,0.3,1.6,0.2c0.4,0.2,0.7,0.5,1.1,0.8c0.4,0.3,1.2,0.4,1.5-0.2
		c0,0,0-0.1,0-0.1C625,419.8,625.3,419.3,625,418.9"/>
	<path class="st3" d="M583.9,430.6c-0.1-0.1-0.1-0.1-0.2-0.1c0,0,0,0,0,0c-0.1-0.1-0.2-0.1-0.3-0.2c-0.5-0.4-1-0.7-1.5-1
		c-3.5-2.1-7.1-2.9-11.2-0.9c-3.2,1.5-7.1,4.9-5.1,8.7c0.1,0.1,0.2,0.2,0.4,0.2c0.2,2,1,4,2.1,6c0.1,0.2,0.5,0.1,0.4-0.2
		c-1.3-4.4-2.6-8.8,2.4-11.6c2.7-1.5,6-2.2,8.9-1.2c1,0.5,2,1.1,3,1.8C583.6,432.7,584.7,431.3,583.9,430.6"/>
	<path class="st3" d="M534.4,445.4c-0.1,0-0.1,0-0.2,0c-1-0.1-2-0.1-3,0.1c-1.1,0.2-2.1,0.6-3,1.1c-0.2-0.4-0.7-0.7-1.2-0.3
		c-0.1,0.1-0.1,0.1-0.2,0.2c0,0,0,0,0,0c0,0,0,0,0,0.1c-4.5,3.5-5.8,9.9-2.7,14.8c0.7,1.1,2.3,0.1,1.7-1c-2.1-4.1,0.2-8.6,3.4-11.5
		c0.7-0.6,1.5-1.1,2.2-1.4c4.5-0.8,9.4,2.1,9.3,8.2c0,0.3,0.5,0.5,0.7,0.2C543.7,450.9,539.4,446.1,534.4,445.4"/>
	<path class="st3" d="M579.4,336.8c-0.7-0.2-1.1,0.5-0.9,1.1c2.7,5.7-3.3,13.9-7.7,16.8c-6.3,4-18.9,6.3-21.8-3.3
		c0-0.1-0.2-0.1-0.2,0c0.7,11.4,16.2,9.8,23.2,5.4c4.4-2.8,7.8-7.3,8.7-12.5C581.2,342.2,582.1,337.6,579.4,336.8"/>
	<path class="st3" d="M626.2,319c-0.3-0.3-0.9-0.1-0.8,0.3c1.1,8.9-3.2,14.7-12.3,16.3c-7.1,1.2-15,0.8-18.2-6.7
		c-0.1-0.3-0.6-0.1-0.6,0.1c0.9,10.1,13.5,10.5,21.2,8.7C622.7,336,633.2,326.6,626.2,319"/>
	<path class="st3" d="M597.1,289.5c-0.6-0.1-1.1,0.5-0.8,1c8.5,14.1-17.4,29.4-24.8,13c-0.1-0.2-0.4,0-0.3,0.1
		c1.6,10.6,14.4,11.7,21.8,6.3c3.9-2.8,6.9-7.1,7.7-11.9C601.2,294.8,601,290.2,597.1,289.5"/>
	<path class="st3" d="M425.9,352.8c-0.1-0.6-1-1.3-1.5-0.6c-6.6,8.4-27,5.3-30.6-4.4c0-0.1-0.2-0.1-0.2,0
		C389.7,362.1,427.1,363.6,425.9,352.8"/>
	<path class="st3" d="M372,335.5c-0.3-1-2-0.9-1.9,0.3c0.6,8-1.5,14.7-10.6,15.2c-7,0.4-15.8-2-15.4-10.7c0-0.2-0.3-0.2-0.3,0
		c-3,9.5,8.3,13.5,15.7,13.2c3.5-0.1,6.1-1.1,8.2-2.7C375.3,350,373.5,340.5,372,335.5"/>
	<path class="st3" d="M396.3,300.6c-0.2-0.2-0.5-0.1-0.5,0.2c0.1,3.3,1.3,6.3,0.8,9.7c-0.7,4.9-3.9,9.1-8.8,10.6
		c-7.5,2.3-15.6,0.7-20.5-5.4c-0.1-0.1-0.3,0-0.2,0.1c2.7,9.3,15.5,10.4,23.3,7.1C397.9,319.6,403,307,396.3,300.6"/>
	<path class="st3" d="M265.2,386.6c-0.1,0-0.2-0.1-0.3-0.1c0.2-0.3,0.2-0.8-0.3-1c0,0,0,0,0,0c0-0.2,0-0.3-0.1-0.5
		c-3.3-3-8.6-3.3-12.3-0.8c-4.7,3.1-3,8.6-0.9,12.8c0.3,0.6,1,0.6,1.4,0.3c0.1,0.1,0.1,0.2,0.2,0.4c0.5,0.9,1.8,0.3,1.6-0.7
		c-1.5-6,4.2-11.2,10.1-8.7C265.6,388.6,266.3,387,265.2,386.6"/>
	<path class="st3" d="M306.7,403.5c-0.8-0.6-1.7-0.9-2.5-1.1c-2.7-2.5-7.2-1.3-9.7,1.1c-1.5,1.5-2.4,3.6-2.9,5.7
		c-0.4,1.6-0.5,3.3-0.3,5.2c0,0.5,0.3,0.8,0.6,1c0.3,1.2,0.8,2.4,1.5,3.3c0.5,0.6,1.7,0.1,1.7-0.7c-0.1-3-1.2-7.7,1-10.1
		c1.8-2,4.8-2.6,7.5-2.6c0.7,0.2,1.3,0.4,2,0.7c0.6,0.2,1.1-0.2,1.2-0.8C307.3,404.8,307.4,404,306.7,403.5"/>
	<path class="st3" d="M352.9,416.2c-2-3.3-7.6-1.2-9.7,0.9c-0.2,0.2-0.3,0.4-0.5,0.6c-0.2-0.3-0.8-0.4-1.1,0
		c-2.7,4.2-2.2,8.7,0.2,12.9c0.6,1.1,2.6,0.3,2.1-0.9c-1.4-3.4-2.1-7.9,0.6-11c1-1.1,2.3-1.9,3.8-2.2c1.6-0.4,2.8,0.2,4.4,0.3
		C352.9,416.8,353.1,416.5,352.9,416.2"/>
	<path class="st3" d="M396.9,424.5c-3.2-2.6-8.7-0.1-11,2.7c-3.1,3.9-2.5,9.3,0.5,13c0.9,1,2.3-0.4,1.5-1.5
		c-2.6-3.2-2.8-8.1,0.3-11.1c2.6-2.5,5.3-2.1,8.5-2.6C397,425,397.1,424.6,396.9,424.5"/>
	<path class="st3" d="M441.7,447.8c-4-2.5-9.2-1-12,2.7c-2.4,3.2-3.4,8.4-0.2,11.4c0.4,0.4,1.2,0.5,1.6,0c0.1-0.1,0.1-0.1,0.2-0.2
		c0.2-0.5,0.2-1-0.2-1.4c-2.4-2.6-1.2-6.9,1-9.2c2.4-2.6,6-2.9,9.4-2.6C441.9,448.5,442,448,441.7,447.8"/>
	<path class="st3" d="M497,415.1c-2.3-3.9-6.4-5-10.6-4.5c-0.2-0.3-0.5-0.5-0.9-0.5c-0.2,0-0.5,0-0.7,0.1c0,0,0,0-0.1,0
		c-2.2,0.2-4.4,0.6-6.3,1.3c-3,0.5-5.5,2.1-7.2,4.8c-0.3,0.3-0.6,0.7-0.9,1c-0.2,0-0.5,0.1-0.7,0.4c-0.1,0.1-0.1,0.2-0.2,0.3
		c0,0,0,0,0,0c0,0,0,0,0,0c-2.2,2.8-3.3,5.8-3.7,9c0,0.2-0.1,0.4-0.1,0.6c-0.6,0-1.1,0.4-1.1,1.1c0.1,2.6,0.4,4.9,1.2,7.4
		c0,0,0,0.1,0,0.1c0.1,0.3,0.1,0.6,0.2,0.9c0.3,0.9,1.2,0.9,1.7,0.4c0.5,2.3,1.4,4.5,2.9,6.4c0.3,0.4,0.8,0.5,1.3,0.4
		c2,2.3,5.1,4.7,8.2,3.9c0.3-0.1,0.4-0.5,0.2-0.7c-2.1-1.9-4.9-2.5-6.9-4.6c-0.1-0.1-0.1-0.1-0.2-0.2c0-0.2-0.1-0.5-0.2-0.7
		c-4.4-6.4-2.8-15.6,1.7-21.6c5.5-7.3,13.8-8.6,21.6-4.4C496.7,416.2,497.3,415.6,497,415.1"/>
	<path class="st3" d="M317.2,490.6c-1.2,2.3-2.1,5.9-1.1,8.5c0.1,0.3,0.6,0.4,0.7,0c0.3-1.2,0.2-2.4,0.3-3.7c0.1-1.5,0.5-3,0.7-4.6
		C317.8,490.5,317.4,490.3,317.2,490.6"/>
	<path class="st3" d="M316.2,502.2c-0.7,2.5-1.2,5.9-0.4,8.4c0.1,0.3,0.5,0.3,0.6,0c0.3-1.3,0.2-2.6,0.3-3.9c0-1.5,0.1-2.9,0.1-4.4
		C316.8,502,316.2,501.9,316.2,502.2"/>
	<path class="st3" d="M316,512.8c0-0.2-0.2-0.2-0.3,0c-0.9,2.7-1.7,6.5-0.5,9.1c0.1,0.2,0.5,0.2,0.6-0.1c0.3-1.4,0.1-2.8,0.1-4.2
		C315.9,516,316,514.4,316,512.8"/>
	<path class="st3" d="M315.8,525.4c0-0.3-0.4-0.4-0.6-0.2c-0.8,1.9-1.4,5.4-0.1,7.2c0.1,0.2,0.5,0.2,0.5-0.1c0.2-1.1,0-2.2-0.1-3.3
		C315.5,527.9,315.7,526.7,315.8,525.4"/>
	<path class="st3" d="M316.2,538.8c-0.1-1.2-0.2-2.4-0.6-3.5c-0.1-0.3-0.5-0.3-0.6,0c-0.3,1.3-0.2,2.5-0.2,3.8c0,1.2,0,2.3,0.5,3.4
		c0.2,0.3,0.6,0.2,0.7-0.1C316.6,541.2,316.3,540,316.2,538.8"/>
	<path class="st3" d="M317.3,550.3c-0.2-1.4-0.3-2.8-0.9-4.2c-0.2-0.4-0.9-0.4-0.8,0.1c0,1.5,0.3,2.9,0.4,4.4c0.1,1.1,0,2.3,0.5,3.4
		c0.1,0.2,0.5,0.2,0.6,0C317.6,552.8,317.4,551.5,317.3,550.3"/>
	<path class="st3" d="M316.7,558.4c-0.6,1.2-1.1,2.4-1.4,3.6c-0.3,1.1-0.9,2.3-0.5,3.4c0.1,0.2,0.3,0.3,0.5,0.1
		c0.9-0.8,1-2.1,1.2-3.2c0.3-1.3,0.5-2.6,0.6-3.9C317,558.3,316.7,558.2,316.7,558.4"/>
	<path class="st3" d="M315.8,572.5c-0.3-1.2-0.4-2.6-0.2-3.8c0-0.2-0.3-0.3-0.4-0.1c-0.6,1.3-1,2.5-0.8,4c0.2,1.1,0.5,2.6,1.6,3
		c0.2,0.1,0.4-0.1,0.4-0.2C316.6,574.3,316,573.4,315.8,572.5"/>
	<path class="st3" d="M319.3,581.2c-0.8-1.5-1.7-2.8-2.9-4c-0.1-0.1-0.4,0-0.3,0.2c0.8,1.4,1.5,2.9,2.2,4.3c0.6,1.3,0.9,2.9,1.9,3.9
		c0.2,0.2,0.5,0,0.5-0.2C320.9,584.1,319.9,582.4,319.3,581.2"/>
	<path class="st3" d="M261.6,488.4c-0.7,2.6-1.8,5.3-1.9,8c0,0.2,0.4,0.4,0.5,0.1c1.1-2.5,1.5-5.4,2-8
		C262.3,488.1,261.8,488,261.6,488.4"/>
	<path class="st3" d="M258.7,507.5c-1.3,2.5-2.1,6.2-1.8,9c0,0.2,0.3,0.3,0.4,0.1c0.3-1.5,0.4-3,0.6-4.5c0.3-1.5,0.7-3,1-4.5
		C258.9,507.5,258.8,507.4,258.7,507.5"/>
	<path class="st3" d="M258.3,526.7c0-0.3-0.5-0.4-0.6-0.1c-0.5,2.2-0.8,5.1-0.4,7.4c0,0.3,0.4,0.2,0.5,0
		C258.5,531.9,258.6,529,258.3,526.7"/>
	<path class="st3" d="M258.5,543c-0.1-1.4-0.1-2.7-0.2-4.1c0-0.3-0.6-0.5-0.6-0.1c-0.4,2.3-0.7,5.6,0.5,7.8c0.1,0.2,0.4,0.1,0.4-0.1
		C258.8,545.4,258.6,544.2,258.5,543"/>
	<path class="st3" d="M260,554.3c-0.2-1.5-0.2-3-0.4-4.5c0-0.3-0.5-0.2-0.5,0c-0.5,2.6-0.6,6.7,0.8,9.1c0.1,0.2,0.5,0.2,0.5-0.1
		C260.5,557.3,260.1,555.8,260,554.3"/>
	<path class="st3" d="M261.4,563c-0.1-0.5-0.8-0.5-0.7,0c0.1,2.4-0.3,5.5,0.7,7.7c0.1,0.2,0.5,0.2,0.5-0.1
		C262.6,568.4,261.7,565.4,261.4,563"/>
	<path class="st3" d="M368.6,526.3c0.7-8.2,1.6-16.4,2.9-24.5c-1.4,8.1-2.5,16.2-3.1,24.5C368.4,526.5,368.6,526.5,368.6,526.3"/>
	<path class="st3" d="M372.6,495.4c-0.4,2.1-0.8,4.2-1.1,6.4C371.9,499.7,372.2,497.6,372.6,495.4"/>
	<path class="st3" d="M851.8,682.1c0.2-24.8-7.8-50.7-15.2-73.5c-10.2-31.4-22.2-62.1-28.5-94.7c-13.2-68.3-5.4-136.5-2-205.3
		c0.1-1.6-1.7-1.9-2.6-1c-0.1-1.5-0.5-2.9-1-4.2c0,0,0,0,0-0.1c0-0.8-0.4-1.3-0.9-1.6c0,0,0,0,0-0.1c0,0-0.1-0.1-0.1-0.1
		c-0.1-0.2-0.2-0.4-0.3-0.6c-0.4-0.9-1.7-0.5-1.9,0.3l-0.1,0.4c0,0.1,0,0.2,0,0.2c-0.4-0.3-1-0.3-1.4,0.2
		c-5.6,6.9-16.2,9.9-26.5,9.2c1.3-7.5,5.9-13.6,11.7-18.4c5.5-4.5,11.6-9.3,18.7-10.3c0.3,0,0.3-0.4,0.1-0.5
		c-0.1-0.1-0.3-0.2-0.4-0.3c1,0.5,2-0.8,1.2-1.6c-5.6-5.6-14.6-6.6-22.1-7.8c-7.6-1.2-15.4-1.9-23.1-1c3.2-4.9,1.7-11.7-3-16
		c-6.8-6.2-18.6-7.6-28-6.9c0-0.1,0.1-0.2,0.1-0.3c0-2.8-0.3-4.6-1.4-6.5c-0.1-0.6-0.2-1.2-0.4-1.8c-0.1-0.3-0.3-0.4-0.5-0.5
		c0-0.2,0-0.5,0-0.7c0-0.2-0.3-0.3-0.4-0.1c-0.1-0.3-0.2-0.5-0.5-0.7c-7.4-4.4-19.5-4.6-27.8-4.8c-8.9-0.2-18.8,0.3-27.3,3.4
		c-4-0.5-8.2-0.3-11.5,0.3c0-0.1-0.1-0.2-0.2-0.2c-1.3-0.3-2.4,0.3-3.2,1.6c-1.7,1.5-2.5,3.9-2.9,6.7c-7.9-0.4-18,7.2-15.5,15.7
		c-1.6-0.2-3.1-0.3-4.4-0.6c-8.1-1.3-16.3-2.2-24.5-2.7c-19.1-1.4-39-2-58.1-0.1c-0.1,0-0.2,0.1-0.3,0.1c-5.2-6.7-12-11.9-19.9-14.2
		c0.1-0.1,0.2-0.1,0.3-0.2c0.6-0.4,0.2-1.4-0.5-1.2c-0.1,0-0.2,0.1-0.3,0.1c-0.1-0.1-0.2-0.2-0.3-0.3c-16.7-9.2-40.1-10.8-58.1-4.4
		c-1.2,0-2.4,0-3.5,0.1c0,0-0.1-0.1-0.1-0.1c-6.6-1.3-9.8,2.9-10.5,8.5c-6.8,1.7-13.7,5.4-19.7,10.2c-10.5,1.8-21.1,3.3-31.7,4.3
		c-3.7,0.3-7.4,0.6-11.1,0.8c-4,0.1-7.9,0.2-11.9,0.3c-1.3-0.5-2.3-0.5-2.9,0.1c-0.1,0-0.3,0-0.4,0c-0.2-0.2-0.4-0.3-0.6-0.3
		c-1.5-0.1-3,0-4.4,0.1c-0.4-0.1-0.8-0.1-1.2-0.1c-0.1-0.1-0.2-0.2-0.3-0.2l-3.7-1.5c0.4-5.6-2.9-11.3-9-10.3
		c-0.8-1.1-2.3-1.1-3.7-1.5c-0.2,0-0.4,0-0.6,0c0-0.2-0.1-0.5-0.1-0.7c0.5-0.3,0.8-0.9,0.4-1.5c-5.8-11.9-24.4-6.4-34.8-5.9
		c-6.9,0.3-16.9-1.4-23.4,0.7c-3.2,1.1-4.6,1.9-4.5,5.1c-5.4,0.3-10.8,1.5-14.7,3.1c-3-0.7-6.4-0.4-8.9,0.7
		c-0.2,0.1-0.2,0.2-0.3,0.3c-2.6,0.5-4.3,3.4-5.5,7.3c-0.2,0-0.3-0.1-0.5-0.1c0-0.1-0.1-0.1-0.2-0.1c-0.2,0-0.3,0.1-0.5,0.1
		c-0.8,0.1-1.6,0.3-2.4,0.7c-4.2,1.5-7.7,4.3-7.8,9.2c0,0.8,0.1,1.5,0.2,2.2c-3.4,0.1-6.8,0.4-10.2,0.8c-5.5,0.3-11.4,1.6-16.4,2.3
		c-0.5,0.1-0.9,0.7-0.8,1.1c0.1,1.3,0.8,2.4,1.9,3.3c0.3,0.3,0.6,0.6,1,0.9c3.3,11.7-2.6,22.8-10.6,31.2c-0.3,0.3,0.1,0.9,0.5,0.7
		c8.1-5.7,15.7-20.8,11.4-31.1c0.4,0.2,0.8,0.4,1.2,0.6c0.4,0.2,0.9,0.5,1.3,0.7c0.1,5-0.1,9.7-2.1,14.7c-2,5-6.5,8.4-8,13.5
		c-0.1,0.2,0,0.3,0.1,0.4c-1.3,0.6-2.5,1.1-3.8,1.6c-1.9,0.7-3.8,1.2-5.8,1.6c12.3-6.8,19.8-24.6,12.7-36.9
		c-0.1-0.2-0.4-0.1-0.4,0.1c0.7,8.4,1.7,16.1-2.7,23.8c-4,7-9.9,10.4-16.9,14c0,0,0,0,0,0c-10.1,0.7-20.4-1.4-30.1-4.5
		c-0.1,0-0.1,0-0.1,0c-0.9-0.8-2.7-0.8-3.1,0.8c-8.6,29.7,3.4,63.1,12.6,91.3c3.8,11.5,7.6,23.1,15.2,32.6
		c-5.6,35.1-14.8,68.8-24.1,103.2c-9.6,35.7-17,72-21.8,108.7c-4.1,31.1-9.4,63.6,15.7,87.3c23.4,22,56.8,24.6,87.3,24.7
		c1.1,0,1.6-0.7,1.8-1.5c15,5.3,31.6,3.8,47.1,1.6c18-2.6,35.9-5.3,53.9-7.7c43.6-0.9,86.2,13.3,129.6,17
		c45.6,3.9,91.5,1.6,136.5-6.4c0.8-0.1,1.2-0.6,1.3-1.2c9.3,2.8,20,2.6,29.7,3.4c11.4,1,22.8,1.9,34.2,2.8
		c14.9,1.1,30.6,1.8,45.1-2.6c18-0.6,36.6-4.2,54.2-6.2c6.6-0.7,15-1.2,21.2-4.5c0.7,0.2,1.6,0,1.9-0.9c0-0.1,0.1-0.3,0.2-0.4
		c2.5-1.9,4.5-4.4,5.5-7.9c0.1-0.4-0.1-0.8-0.4-1.1c7.4-9.2,19-15,26.1-24.6C849,706.5,853.4,693.7,851.8,682.1 M791.5,283.1
		c1.1-0.8,2.2-1.6,3.3-2.5c0.4,0.1,0.7,0.2,1.1,0.3C794.4,281.4,792.9,282.2,791.5,283.1 M786.3,276C786.3,276,786.3,276,786.3,276
		c4.2,0.9,8.2,2.2,12.1,4C794.7,278.5,790.6,277.1,786.3,276C786.3,276,786.3,276,786.3,276 M765.1,275.5c-2.8,1.9-4.9,6.6-6.6,9.4
		c-2.4,4.1-4.5,8.4-6.1,12.9c-0.1,0.2,0.2,0.3,0.3,0.1c1.8-3.8,3.6-7.6,5.7-11.3c0.9-1.6,5.4-10.9,7.5-10.8c0.1,0,0.2-0.1,0.1-0.2
		c0-0.1-0.1-0.1-0.1-0.2c0.6,0,1.1,0,1.7,0c0.3,0,0.7,0.1,1,0.1c-6.9,7.7-12.7,17.3-14.4,27.5c-0.1,0.3,0.4,0.4,0.5,0.1
		c3.9-10.2,8-19.2,15-27.6c1.2,0.1,2.5,0.3,3.8,0.4c-8,7.2-13.3,18.7-16,28.7c-0.1,0.3,0.3,0.5,0.5,0.2c2.4-5,4.3-10.3,7-15.2
		c2.7-5,6-9.2,9.4-13.6c1.3,0.2,2.6,0.4,3.9,0.6c-8.1,7.2-15,16.9-17.8,27.3c-0.1,0.3,0.4,0.6,0.6,0.3c5-10.4,10.6-19.2,18.6-27.3
		c1.2,0.2,2.4,0.5,3.6,0.8c-8.5,6.9-15.6,17.6-17.7,28c-0.1,0.4,0.5,0.7,0.7,0.3c2.4-5.3,4.5-10.7,7.6-15.6c3-4.7,6.6-8.5,10.4-12.4
		c1.7,0.4,3.4,0.8,5.1,1.2c-9.2,6.4-17.2,15.8-21.3,26.2c-0.1,0.3,0.4,0.5,0.5,0.2c5.9-10.3,12.5-18.8,21.6-26.2
		c1.2,0.3,2.4,0.6,3.5,0.8c0,0,0.1,0,0.1,0c-2.9,1.6-5.7,3.9-7.8,6.2c-0.1,0.1-0.1,0.3,0,0.4c-1.6,1.3-3,2.5-3.9,3.2
		c-6.8,5.4-11.9,12.2-13.5,20.7c-1-0.2-2.1-0.4-3-0.7c-5-1.4-9.2-4.2-13.4-7.2c-2-1.5-4-3.1-5.9-4.6c-1.1-1.8-1.9-3.7-2.4-5.8
		c-0.1-0.6-0.2-1.1-0.3-1.7c0.8-2.2,1.6-4.5,2.6-6.6c1-2.1,2.6-6.2,5-6.9c0.2,0,0.2-0.2,0.2-0.3c0.3-0.1,0.6-0.2,0.9-0.3
		c-1.3,1.6-2.3,4.1-3,5.3c-1.9,3.5-3.6,7.3-4.4,11.2c-0.1,0.3,0.4,0.5,0.5,0.2c2.7-6,5.4-11.5,8.9-17.2c-0.1,0.2,0.1,0.3,0.2,0.2
		c0.2-0.2,0.2-0.2,0.3-0.3c0.7-0.1,1.4-0.2,2.2-0.2c-3.7,4.9-6.8,10.2-8.6,16.1c-0.1,0.3,0.4,0.5,0.5,0.2c2.6-5.8,5.5-11.3,9.3-16.3
		c0,0,0,0,0-0.1c0.8-0.1,1.6-0.1,2.4-0.1c-5.1,6.5-8.4,14.1-11.1,21.9c-0.1,0.2,0.3,0.4,0.4,0.2c3.5-7.6,6.6-15.2,11.6-22
		c0,0,0-0.1,0-0.1C762.7,275.6,763.9,275.5,765.1,275.5 M743.4,288.8c-0.2-4.8,1.6-8,4.8-10.1c-0.8,1-1.4,2.2-2,3.2
		C745.1,284.1,744.1,286.4,743.4,288.8 M761.7,273.1c-2.2,0-4.4,0.2-6.5,0.5c0.4-0.3,0.8-0.6,1.1-1
		C758.1,272.8,759.9,272.9,761.7,273.1 M724.4,249.7c0.2,0,0.4,0,0.7,0.1c0.4,1.3,0.3,1,0.2,0c6.2,0.5,12.4,0.9,18.4,2.7
		c7.9,2.3,19,11.4,9.5,19.6c-2.2-2.4-4.6-4.3-7.4-5.6c-1.2-0.8-2.5-1.3-3.9-1.4c-0.1,0-0.2,0-0.3,0.1c-0.6-0.1-1.2-0.2-1.8-0.3
		c-3.9-0.3-7.9,0.1-11.7,0.5c-1.3,0.1-3.1-0.1-4.3,0.5C723.8,260.5,724.2,255.1,724.4,249.7 M743.9,269.8c-1.1,0.1-2.2,0.3-3.3,0.4
		c-1.9,0.1-3.9,0.2-5.8,0.3c-1.9,0.1-3.8,0.3-5.7,0.4c-0.6,0-1.2,0-1.7,0c-1.2,0-2.4-0.1-3.6-0.3c0-0.8,0-1.7-0.1-2.5
		c4.4,0,8.8-0.5,13.1-0.4C739.3,268,741.7,268.6,743.9,269.8 M651.6,287.3c0.5,1.3,1,2.6,1.5,3.9c-0.2-0.4-0.5-0.8-0.7-1.3
		c-0.2-0.4-0.7-0.1-0.6,0.3c1,4.2,3.4,7.7,6,11c2.2,3.9,4.8,7.5,8,10.1c0.4,0.4,0.8,0.8,1.3,1.2c0,0-0.1,0-0.1,0
		c-0.3,0-0.4,0.5-0.2,0.6c1.5,0.8,3.5,1.4,5.5,1.8c2.1,0.7,4.3,1,6.8,0.8c8.3-0.5,16.2-5.4,22.7-10.3c0.6-0.5,1.3-1,2.1-1.5
		c5.1-3.1,9.9-6.4,14.5-10.1c0,0,0.1,0,0.1-0.1c0,0,0,0,0.1,0c0.6,0.2,1.5-0.3,1.3-1.1v0c0.1,0,0.1-0.1,0.2-0.1
		c0.2-0.2,0-0.5-0.2-0.5c-2.3-17.1-1.2-33.6,0.4-50.7c0-0.2-0.4-0.3-0.4-0.1c-4.3,16.4-4.1,33.5-1.9,50.2
		c-11.1,4.9-18.6,15.4-30.1,20c-20.4,8.3-27.8-10.8-35.8-25.3c0.2-2.2,0.4-4.6,0.4-7.1c0.1-4.1-1-20.3,0.2-31.4c0.7-4.2,2.1-8,5-9.5
		c3.2,1,7,0.3,10.3,0.6c5.1,0.6,8.9,3.5,13.7,4.8c0.5,0.1,1-0.4,0.7-0.9c-2.1-2.9-5.5-4.6-9.4-5.6c6.5-0.8,12.9-1.8,19.5-1.9
		c4.1,0,8.1,0.2,12.2,0.6c2.7,0.3,16.4,1.1,18,4.6c0.1,0.3,0.4,0.4,0.7,0.3c-1.6,4.4-2,9.5-2.1,14.5c-1.2,13.5,0,28.2,2.1,40.2
		c-11.1,9.7-25.2,15.4-36.3,25c-3.3-0.8-6.8-0.7-10.2-1.4c-2.5-0.5-4.9-1.3-7.3-1.9c-0.1-0.1-0.2-0.3-0.3-0.4
		c-2.4-2.1-4.6-4.4-6.8-6.7c-2.4-2.8-4.8-5.6-6.9-8.6C651.6,296.6,651.3,292.2,651.6,287.3 M640.4,250.3c2.9-2.6,6.2-3.2,9.8-3.8
		c-0.2,1.9-0.2,3.8-0.2,5.5c-0.6,3.8-0.9,7.8-1.2,11.6c-3.1-1.7-7.4-2.5-11.5-3C636.7,256.7,637.3,253.1,640.4,250.3 M527.8,247.1
		c0.7-0.5,1.4-1,2.2-1.4c13.8,9.6,23.3,20.6,26,38.1c-5.2-1-10.3-0.8-13.8,1.9c-0.6,0.4-1.1,0.8-1.5,1.3c0,0,0-0.1,0-0.1
		c0-0.1,0-0.3,0-0.4c-1.4-4.6-3.3-8.6-6.2-12.4c-4.4-5.9-13.6-17.1-8.8-24.7C526.4,248.6,527.1,247.9,527.8,247.1 M572,290.1
		c-0.2-0.3-0.5-0.5-0.7-0.7c3.5-3.1,6.5-7.4,10.2-9.9c8.4-5.7,16-3.1,23.7,1.4c7.1,4.2,13.6,9.8,20.2,14.6
		c7.9,5.8,14.8,11.5,19.4,20.2c4.3,8.1,6.2,17.1,8.3,25.9c-17.4,11.5-35.2,24.6-54.5,32.8c-4.6,2-9.2,3.4-13.9,4.4
		c-5.1,0.8-10.3,1.2-15.6,1.2c-11.3,0-21.8-3-32.9-4.5c0.5-12,0-28.3-6.9-38.5c-2.6-3.9-8-6.8-12.1-5c3.3-4.4,5.7-9.1,10.1-12.7
		c4.2-3.5,10.9-5.6,13.4-10.7c0.2-0.5-0.2-0.9-0.7-0.7c-1.6,0.9-3.4,1.9-5.3,3c0.4-2.3,0.9-4.5,1.6-6.7c1.9-3.1,4.9-5.1,8.3-6.1
		c2.1-0.1,4.4-0.4,6.1-0.3c4.9,0.4,8.6,2.8,13,3.9c1.4,0.4,2.1-1.5,1-2.3c-2-1.4-4.2-2.4-6.5-3.1c-3.9-1.2-7.9-1.5-11.7-0.7
		c0,0-0.1,0-0.2,0c-2.1,0.4-3-0.8-2.6-3.7c-2.3-3.2-1.5-4.8,2.3-5c0.5-0.2,1-0.4,1.5-0.5c3.1-0.3,6.3-0.2,9,0
		c0.4,0.4,1.1,0.5,1.6,0.3c4,1.1,7.8,2.8,11.4,5.1c0.7,0.4,1.3,0.1,1.7-0.4c0.1,0,0.1,0,0.1,0C572.2,291.3,572.4,290.6,572,290.1
		 M445.5,339.9c0.2-0.2,0.4-0.4,0.6-0.6c1-0.6,2-1,3.2-1.2c-1.3,0.6-2.4,1.3-3.4,2.3c-0.1,0-0.2,0.1-0.4,0.2
		C445.6,340.3,445.6,340.1,445.5,339.9 M436.5,375.7c-0.1,0.1-0.2,0.1-0.3,0.2c-16.6,15-43,8.2-62.5,4.2c-9.7-2-19.3-3.9-29-5.8
		c-10.3-2-21.9-2.8-30.1-10c-0.2-0.2-0.5-0.2-0.8-0.2c13.7-19.1,22.3-42.3,38.2-59.9c14.8-16.4,42.9-27.6,64.7-26
		c0,0.3,0.2,0.5,0.4,0.7c1.1,1.8,3.1,3,5.1,3.8c1.4,0.6,3.3,1.3,5.2,1.6c0.2,0.2,0.3,0.5,0.5,0.7c0,0.2,0.1,0.4,0.1,0.6
		c0.4,1.7,0.3,3.5-0.3,5c-0.3,0.8-0.8,1.3-1.3,1.7c-0.2,0-0.4,0.1-0.5,0.1c-3.9,0.5-7.2,3.1-8.7,6.9c0,0,0,0,0,0c0,0,0,0,0,0
		c0,0.1-0.1,0.1-0.1,0.2c-0.4,1.1,1.1,1.5,1.7,0.7c1.7-2.3,3.9-4.3,6.5-5.5c0.1,0,0.2-0.1,0.2-0.1c0.8-0.2,1.7-0.2,2.5-0.2
		c-0.1,4.3,1,8.3,2.8,12c0,0,0,0.1,0,0.1c-0.1,0.2-0.1,0.3-0.1,0.5c0.3,2.2,0,4.3-0.7,6.4c-2.8,1.7-5.8,3.5-7.9,5.8
		c-0.5,0.4-1,0.8-1.4,1.3c-0.5,0.5,0.1,1.1,0.7,0.9c0.6-0.3,1.1-0.5,1.7-0.8c0.5-0.2,1.1-0.5,1.6-0.8c3.9-2,7.7-4.1,11.7-5.9
		c0.9,4.3,2.7,8.9,5.5,12.3c2.6,3.2,6.6,5.4,9.4,8.5c-4.4-1.6-9.4,2.2-11.8,6.7C434.8,351,433.9,365.2,436.5,375.7 M531.2,313.2
		c-7.4,4.8-14.7,11.3-15.8,19.3c0,0.3,0.1,0.5,0.3,0.7c-0.2,0.2-0.4,0.4-0.6,0.6c-10,3.6-19.1,7.2-29.9,7.6
		c-10.3,0.4-19.4-2.6-29.2-4.7c0.1-0.3,0-0.6-0.1-0.9c-2.1-3.8-6-6-9.1-8.9c-3.8-3.7-5.1-8.2-7.2-12.6c0.1-0.2,0.1-0.3-0.1-0.5
		c-0.1-0.2-0.3-0.3-0.4-0.5c-0.2-0.4-0.4-0.9-0.7-1.3c-0.1-0.2-0.2-0.3-0.3-0.3c-0.1-0.1-0.1-0.2-0.2-0.3c-1.1-1.1-2.3-2.7-3.3-4.6
		c-1.8-3.7-2.2-7.5-0.9-12.8c1.1-4.2,2.9-8.3,5.4-11.9c4.8-7.1,11.2-11.4,18.6-14.8c1.3-0.5,2.7-0.9,3.9-1.1c0.2,0,0.3-0.2,0.4-0.4
		c0.6,0.4,1.1,0.8,1.7,1.1c0.4,0.2,0.8-0.1,0.9-0.4c1.7,0.8,3.6,0.4,5.6,0.3c1.6-0.1,4.6,0,6.1-1c13.4,1.5,28.8,0.2,42-1.4
		c0.2,0,0.3-0.1,0.4-0.2c0.6,0.6,1.6,0.3,1.7-0.5c3.8,1.6,7.2,5.6,9.9,9c1.7,2.6,3.4,5.1,4.9,7.4c1.5,2.7,2.8,5.5,3.8,8.5
		c0,0.1,0.1,0.2,0.1,0.2c-1.8,4.2-2.6,8.9-4.2,13.2C533.6,305.3,530.6,309.7,531.2,313.2 M448.3,346.3c1.2-3.3,3.6-5.7,6.2-7.9
		c0.1,0,0.1,0,0.2,0c0.1,0,0.2-0.1,0.3-0.1c16.3,10.2,44,7.9,59.8-2.3c0.1,0,0.2,0,0.3-0.1c1.2-0.8,2.3-1.4,3.4-1.7
		c0.2,0.1,0.4,0.2,0.7,0.2c3.4,1.5,5.8,5.2,5.9,8.9c0,0.2,0,0.4,0,0.6c-0.2,2.2-1.1,3.4-2.4,4.5c-9,4.4-17.5,8.2-26.6,10.6
		c-2.8,0.6-5.5,1.1-8,1.5c-2.8,0.5-5.9,0.9-9.2,1.1c-1,0-2.1,0.1-3.1,0c-6.7-0.1-16.6-0.1-23.4-3.5c0-0.2-0.1-0.3-0.2-0.4
		c-2.4-1.8-4.2-2.4-4.6-6C447.3,350,447.7,348,448.3,346.3 M463.3,238.2c7.5,0.8,14,1.1,20.6,5.7c1,0.7,2.1-0.9,1.3-1.6
		c-3.1-2.7-7.2-4.3-11.4-5c18-2.4,33.1-0.5,50.7,5.4c-6.7,3.7-10.4,13.1-7,20c-12.8-0.5-27.5-0.5-40.3,1.7c0.6-1.6,0.5-3.8,0.7-5.2
		c0.4-3.6,1.3-6.2,2.9-9.4c0.2-0.4-0.2-0.7-0.5-0.5c-3.6,1.8-4.5,6.4-5,10c-0.2,1,0,3.8-0.9,4.7c-0.7,0.8-3.9,0.5-5,0.7
		c-2,0.2-3.9-0.1-5.4,1.1c-2.4-3.7-5.2-6.7-6.4-11.2C455.8,247.9,456.5,240.6,463.3,238.2 M434.3,259.3c0.6-0.5,1.1-0.9,1.7-1.3
		c0.3,0,0.6-0.1,0.9-0.1c0.7-0.1,1-0.7,0.9-1.2c5.2-3.8,10.9-6.5,16.6-9.5c-0.2,5.2,1.5,11.3,4.3,15.5c-2.8,0.1-5.4,1.2-7.9,2.6
		c-2.7,1.2-5.2,2.9-7.6,4.9c-4.1,3.5-6.3,7.6-11.5,8.6c-0.8-0.1-1.7-0.2-2.5-0.4c-3.7,0.1-5.8-2.1-6.3-6.5
		C426.3,267.4,429.8,263.1,434.3,259.3 M372.6,263.7c18.7,2.2,39-0.1,57.2-3.8c-5,4.9-9.3,10.4-12.2,16.1c-0.2,0-0.3,0-0.5,0
		c0,0-0.1,0-0.1,0c-21.6-1.8-47.6,8.7-63.4,23.4c-8.6,7.9-14.5,18.9-20.7,28.6c-7.2,11.5-15.3,23.3-20.3,36c-0.1,0.3,0,0.5,0.3,0.6
		c0,0.1-0.1,0.2,0,0.4c0.1,0.1,0.1,0.1,0.2,0.2c0,0.1,0,0.1,0.1,0.2c1.7,2.5,3.9,4.2,6.3,5.6c4.4,2.9,9.5,4.6,14.5,6.1
		c13.6,3.8,27.9,5.8,41.7,8.5c20.1,3.9,42.5,8.7,60.8-2c0.4,0.2,0.8,0.2,1.2-0.1c2.4-0.9,4.8-1.8,7.2-2.8c0.9-0.1,1.8-0.9,1.5-1.9
		c-2.6-8.1-5.8-13.8-4.6-22c0.1-0.1,0.1-0.3,0.2-0.4c10.8,10.1,28.3,9.3,42.1,8.8c17.2-0.7,32.3-7.1,47.2-15.3
		c2.5,10.5,2.9,23,2.7,26.4c0,0.5,0.2,0.8,0.5,1c0.1,0.2,0.2,0.4,0.5,0.5c11.9,5.4,23.7,7.1,35.2,6.2c10-0.3,20-2.1,28.7-4.6
		c21.8-6.4,39.1-20.8,56-35.4c0,0,0.1-0.1,0.1-0.1c0.1,0,0.1-0.1,0.1-0.1c0.7-0.2,1.3-0.8,1.1-1.6c-2.2-11.4-4.9-23.6-11.4-33.4
		c-5.7-8.5-14.8-14-23-19.9c-9.7-6.9-19.5-15.1-32.1-15.9c-8.1-0.5-14.5,9.7-19.1,15.7c-3.1-2.7-7.4-4-11.7-4.5
		c-1-8.8-4.6-18.1-10.3-25.8c16,1.1,32.1,0.2,48.1,1c7.5,0.4,14.9,0.9,22.4,1.8c4.8,0.6,9.6,1.3,14.4,2.1c2.2,0.4,6.4,1.9,10,2.4
		c1.6,1.5,3.1,3.1,5,4.2c-0.1,1.1-0.1,2.2-0.2,3.3c-0.4,5-1.5,11-1.3,16.5c0,1.3,0.1,2.6,0.4,3.7c0.2,1.2,0.5,2.4,1,3.5
		c2.5,6.2,8,11.8,13.3,16.8c1.2,1.5,2.4,3.1,3.7,4.6c0.4,0.6,1,0.6,1.5,0.3c3.3,2.4,8,3.4,11.9,4.2c2.3,0.5,5,1.1,7.1,0.2
		c0,0.1,0,0.1,0.1,0.1c5.8-0.2,11.5-4.6,16.3-7.6c5.7-3.7,11-8,16.9-11.4c1.2,5.3,3.4,9.8,6.4,13.6c10.5,15,35.7,22.6,51.9,18.1
		c-10.9,21.9-11,48.1-29.1,66.2c-18.7,18.8-47,30.1-71.3,39.2c-24.9,9.3-50.6,14.3-76.3,20.7c-20.5,5-41.9,12.2-57.5,27
		c-0.1,0-0.1,0-0.2,0.1c-5.4,3.8-9.7,9.4-13,15.1c-0.2,0.4,0.4,0.8,0.6,0.4c2.7-4,5.9-7.5,9.1-10.9c0.2,0.2,0.5,0.2,0.8,0
		c21.2-19.6,47.6-26.1,75.1-31.9c26-5.4,51.3-12.5,75.8-23c21.6-9.2,46.3-19.9,62-38.1c16.1-18.7,16.2-44.3,27-65.6
		c0.5-1-0.5-1.9-1.3-1.7c-0.1,0-0.2,0-0.3,0c-13.9,0.6-28.4-0.6-40.6-8.2c-1-0.6-2.1-1.4-3.1-2.1c-6.7-6-9.9-13.6-13.2-22.5
		c1.2-1.1,2.3-2.4,3.1-3.8c0.2-0.4,0.2-0.8-0.1-1.1c0-0.4,0-0.9,0-1.3c0.1-0.2,0.1-0.4,0-0.6c0-0.1,0-0.3-0.1-0.4
		c-0.2-6.9-0.7-13.8-0.9-20.6c3.1,1.5,7.1,0.9,10.5,0.8c1.7-0.1,3.6-0.3,5.4-0.6c2.3-0.1,4.5-0.2,6.8-0.3c0.3,0,0.5-0.1,0.6-0.2
		c0,0,0,0,0.1,0c0.2,0.2,0.4,0.3,0.7,0.3c0.9,0.8,1.9,1.6,2.8,2.3c-4.1,1.4-7.3,3.6-9,7.2c-1.7,2.3-2.7,5.1-2.5,8.3
		c0.2,3.4,1.8,6.3,4.1,8.9c7.3,13.3,27.8,18.1,43,13.3c4.6-0.9,9.2-2.5,12.1-5.9c-0.1,2.1-0.1,4.1-0.2,6.2
		c-13.3,6.6-27.6,11.2-42.4,5.6c-18.3-6.9-26.7-27.2-15.7-44c0-0.1-0.1-0.2-0.1-0.1c-11.4,12.9-6.1,32.5,7.3,41.8
		c15.4,10.6,35.5,7.8,50.8-1.6c-1,20.1-3.9,40.1-8.5,59.7c-2.6,11.3-5.7,22.3-12.2,32.1c-5.3,8-12.3,14.5-18.5,21.7
		c-0.3,0.1-0.7,0.2-1,0.5c-32.7,30.3-76.5,38.4-118.4,49.3c-19.7,5.1-40.5,8.9-59.4,16.7c-2.7,1.1-5.3,2.4-7.8,3.8
		c-1.7,0.8-3.4,1.7-5,2.7c-12,7.2-19.2,19-29.3,28.3c-2.5-14-9.2-27.5-19.5-35.4c-8.3-6.4-20.2-12.7-30.9-13.2
		c-10.1-0.5-22.1,3.3-31.5,8c0,0,0,0,0,0c-0.2,0.1-0.4,0.2-0.6,0.2c-2.6,0.4-5.1,1.2-7.3,2.4c-15.8-15.3-38.3-22.8-59.3-27.8
		c-21.8-5.2-44.8-7.7-67.3-7.7c-0.1-0.2-0.2-0.3-0.4-0.3c-15.2,1.4-31.2-7.8-45-13.1c-13.1-5-26.2-10.8-39.6-14.8
		c0-0.1-0.1-0.3-0.3-0.4c-13.9-10.3-25-23.2-32.3-38.9c-8-17.2-10.5-35.7-15.2-53.8c1.1,0,2.1,0,3.2,0c21.4,4.1,56.8-4.8,65.5-26.3
		c0.2,0.4,0.4,0.8,0.7,1.2c0.8,1.6,1.7,3.2,2.5,4.8c0.8,1.5,2,3.2,3.3,5.1c0.7,1.6,1.5,3.1,2.2,4.7c0.5,1.9,1,3.8,1.5,5.7
		c0,0.1,0.1,0.1,0.1,0.2c0,0,0,0,0,0c0,0.4,0.3,0.6,0.6,0.7c0.4,0.6,1.2,0.6,1.8,0.3c4.4,0.7,9.7,2.1,13.8,1.1
		c5.1-1.2,11.7-6.6,16.6-9c5.2-2.5,11.2-5.5,15.4-9.8c0.4,0.2,0.9,0,1.1-0.5c0.1-0.3,0.2-0.6,0.4-1c0,0,0.1,0,0.1,0
		c7-4.7,7.9-14.8,9.4-22.4c0.2-1.2,0.4-2.4,0.6-3.6c0,0,0,0,0.1-0.1c2.7-5.1,7-8.7,12.5-10.4c0,0,0,0,0,0c1.6-0.3,3.2-0.7,4.8-1.1
		c6.9-0.7,13.6-2.8,17.8-7.2c0.2-0.1,0.4-0.3,0.6-0.4c0.1,0,0.2,0,0.4-0.1C367,265.2,369.6,264.4,372.6,263.7 M776.3,550
		c1.1,2.3,1.2,4.8,2.1,7.2c0.1,0.2,0.5,0.3,0.5,0c0.1-0.5,0.1-1,0.1-1.6c1.5,6.6,3.1,13.2,4.9,19.8c7.3,26.2,18.1,51.6,22.1,78.6
		c2.1,14.3,2.3,29.6-1.8,43.6c-5.2,17.4-17.9,24.8-34.3,30.7c-51.3,18.2-106.8,14.6-160.2,11.2c-26.2-1.7-52.4-3.4-78.6-2.8
		c-28.8,0.6-57.5,4-86.3,1.8c-16.3-1.2-32.6-3.7-49-3.9c-15.1-0.2-30.1,1.8-45.1,3.3c-34,3.4-66.6-0.9-100.3-4.5
		c-0.2,0-0.3,0-0.4,0.1c-24.9-10.8-55.7,2.3-74-24.1c-17.6-25.4-9.8-61.3-5.7-89.7c8.5-59.5,24.7-116.2,42.5-173.4
		c8.5,6.2,17.8,11.5,26.5,16.5c6.3,3.6,12.8,7,19.6,9.8c-7.2,32.4-7,67.4-2.7,100.4c-13.1,2-10.9,38.1-9.8,46
		c2.7,18.7,13.8,37.3,32.3,43.9c9.4,3.3,19,2.5,27.7-0.9c15.1-4.5,26.6-18.3,32.6-32.4c4-9.5,6-19.7,6.9-29.9
		c0.7-6.9,2.7-16.7-1.9-22.6c0-0.2,0-0.4,0-0.6c0-0.7-0.6-1.2-1.3-1.3c-4.4-0.3-8.8-0.7-13.2-1c-1.2-15.7-1.7-31.5-1.1-47.2
		c0.3-7.7,0.8-15.4,1.5-23c0.5-5,0.7-15.1,3.4-21.2c0.7-0.6,1.4-1.1,2.2-1.7c2.1,0.2,4.1,0.5,6.2,0.9c-2.9,4.9-4.5,11.1-5.4,16.5
		c-0.1,0.4,0.5,0.5,0.6,0.2c0.8-3.1,1.6-6.3,2.7-9.3c0.8-2.5,2-4.8,2.9-7.2c2.3,0.4,4.5,0.8,6.7,1.3c-4,12.2-6.3,24.9-6.7,37.7
		c0,0.2,0.3,0.2,0.3,0c1.1-12.9,3.5-25.3,7.1-37.6c2.3,0.5,4.5,1,6.8,1.6c-2.4,10-4.1,20.3-5.1,30.5c0,0.2,0.3,0.2,0.3,0
		c1.4-10.2,3.3-20.4,5.4-30.5c2.8,0.7,5.7,1.5,8.5,2.2c-1.1,5-2.2,10-3.2,15c0,0.1,0.1,0.1,0.1,0c1.1-5,2.1-10,3.1-15
		c2.7,0.7,5.3,1.5,8,2.2c-0.4,2-0.8,4-1.1,6c0.4-2,0.8-4,1.3-6c2.6,0.7,5.2,1.5,7.8,2.2c3.6,1,7.1,2,10.7,3.1
		c-3,3.6-3.2,9.1-3.9,13.5c-1.2,7.1-2,14.2-2.5,21.4c0,0.2,0.3,0.2,0.3,0c0.7-6.2,1.5-12.4,2.4-18.6c0.8-5.1,1.1-11.8,4.1-16.3
		c2.4,0.7,4.8,1.4,7.1,2c-2,3.2-2.1,7.9-2.6,11.5c-1.1,6.9-2.2,13.8-2.7,20.8c0,0.4,0.6,0.5,0.6,0.1c1-5.5,1.7-11.1,2.5-16.7
		c0.6-4.5,0.4-11.3,2.7-15.5c2.5,0.7,4.9,1.4,7.4,2.1c0.3,0.1,0.6,0.2,0.9,0.3c-2.9,7.3-4.8,14.8-5.4,22.6c0,0.3,0.4,0.3,0.5,0.1
		c1.1-7.8,2.9-15.2,5.5-22.6c3.1,0.8,7.4,1.7,11.6,3c3.8,2,7.6,4.2,11.1,6.5c0.9,1.2,1.6,2.6,1.8,4.2c0.1,0.6,0.3,1,0.5,1.4
		c-3.1,9.7-3.4,20.3,0.1,28.5c0.2,0.9,0.4,1.7,0.7,2.4c0.1,1.2,0.6,2.2,1.6,3c0.2,0.2,0.3,0.5,0.5,0.7
		c-10.5,10.5-16.3,23.8-16.3,37.9c0,30.4,27.4,64.4,64,64.4c11.2,0,22.1-2.7,31.7-7.2c4.7-1.9,9.3-4.8,13.6-8.4
		c10.2-7.9,17.8-18.3,21.3-29.7c0.2-0.2,0.3-0.4,0.4-0.7c5.2-18.9-0.8-41.1-13.5-55.7c-0.6-0.7-1.3-0.8-2.1-0.7
		c0.4-0.4,0.9-0.9,1.3-1.3c0.4,0.5,0.8,1,1.2,1.5c0.6-4.2,0.7-8.6,0.4-13c0.7,0.2,1.5,0,2.2-0.8c6.8-7.8,13.1-16.3,20.5-23.4
		c8.2-7.9,18.5-12.5,29.2-16c1.7-0.5,3.4-1,5.1-1.6c-1.5,9.4-2.1,18.9-1.2,28.4c0,0.2,0.4,0.2,0.4,0c-0.1-9.6,0.1-19.1,1.3-28.6
		c7.5-2.3,15.1-4.3,22.7-6.3c-2.1,10.5-3.4,21.4-3,32.1c0,0.3,0.4,0.3,0.4,0c0.5-10.8,1.2-21.3,2.9-32c0-0.1,0-0.1-0.1-0.2
		c2.6-0.7,5.2-1.3,7.8-1.9c-1.2,8.6-2.6,17.2-3.2,25.9c0,0.2,0.3,0.2,0.3,0c1.5-8.6,2.2-17.3,3.2-26c0,0,0,0,0,0
		c10-2.5,20-4.9,29.9-7.5c-6.1,19.8-5.4,42.9-7.1,63.2c-0.8,9.7-1.6,19.5-2.3,29.2c0,0-0.1,0-0.1,0c0,0,0-0.1,0-0.1
		c0-0.5-0.8-0.5-0.8,0c0,0,0,0.1,0,0.1c-4.2-0.3-8.3-0.4-12.5-0.3c-0.3,0-0.6,0.1-0.8,0.3c-14.4-7.5-10,40.8-9.2,47.1
		c2.3,18.9,14.6,39.9,36.3,38.1c0.3,0,0.6-0.1,0.8-0.3c0.9,2,1.6,3.5,2.7,4.7c-0.3,0.7-0.1,1.7,0.8,1.9c12.9,2.6,22.4,5,30.4-6.3
		c0.6-0.8,1.2-1.7,1.8-2.5c15.7,4.6,30.6-8.1,36.4-22c8.1-19.6,6.9-45.9,2.4-66.2c-0.1-0.5-0.6-0.9-1-1c-6.6-1.4-13.2-2.8-19.8-4.1
		c1.7-12.3,4.5-24.7,4.6-37.1c0.1-0.2,0.2-0.3,0.3-0.5c4.3-10.6,1.9-22.7,4.6-33.9c1.4-5.8,1.6-17.2,4.2-25.5
		c4-3.5,7.9-7.2,11.7-10.9c-2.4,9.9-3.9,20.4-4.4,30.5c0,0.3,0.6,0.4,0.6,0.1c1.6-10.3,3.1-20.7,4.3-31c2.9-2.9,5.9-5.8,8.8-8.7
		c0.6-0.5,1.1-0.9,1.6-1.4c-0.6,2.8-1.1,5.6-1.7,8.5c0,0-0.1,0-0.1,0.1c0,0.1,0,0.3,0,0.4c-0.3,1.9-0.6,3.7-0.9,5.6
		c0,0.3,0.4,0.3,0.5,0.1c0.1-0.3,0.1-0.7,0.2-1c-0.7,18.3-0.7,36.8,1.2,55c0,0.2,0.4,0.2,0.3,0c-0.8-18.8-1.7-37.5-1.3-56.4
		c0.8-4.2,1.4-8.4,2-12.6c1.2-1.1,2.4-2.1,3.5-3.3c7.3-5.6,13.8-12.1,19.2-19.7c-7.4,44.6-5.8,90.7,3.7,135
		c-0.4-1.3-1.1-2.6-1.8-3.7C776.6,549.5,776.2,549.7,776.3,550 M219.7,443.6c0.2,0.1,0.4,0.2,0.7,0.3c9.1,6.2,19.2,12,29.5,17.1
		c2.7,1.7,5.4,3.3,8.1,4.9c-10.2-4.5-19.8-10.2-29.1-16.2C225.8,447.6,222.7,445.6,219.7,443.6 M263.1,482c0.9-1.2,1.2-2.7,1.8-4
		c0.5-1,1-2,1.4-3c1.4,0.4,2.7,0.9,4.1,1.3c-12.1,18.8-13.2,46.8-9.2,67.5c1.8,9.2,6.6,18.4,4.7,27.8c-0.8,3.9-2,7.5-2.7,11.3
		c0-1.1-0.2-2.2-0.3-3.2c-0.2-1.5-0.4-3-0.7-4.6c-0.1-0.4-0.8-0.3-0.8,0.1c0,1.7,0,3.4,0.2,5.1c0.1,1.1,0.1,2.3,0.4,3.3
		c-0.2,0-0.5,0-0.7,0.2c0.7-0.5-2.5-16.5-2.6-16.8c-0.6-5-1.2-10.1-1.6-15.2c-0.7-8.9-1-17.7-0.9-26.6c0.2-17.6,2.4-34.8,4.8-52.1
		c1.4,0.5,2.8,1.1,4.3,1.5c-0.7,0.9-1.3,2-1.8,3.1c-0.6,1.2-1.2,2.5-1.2,3.9C262.5,482.2,262.9,482.2,263.1,482 M318,487.9
		c0.8-1.3,1.2-2.8,1.9-4.2c0.5-1.2,1.4-2.4,1.7-3.7c2.2,0,4.4,0.1,6.6,0.2c0.1,0,0.2,0,0.3,0c-3.4,16.4-5.2,33-5.6,49.8
		c-0.5,17.1-0.6,35.9,3.5,52.7c-1.6,2.6-3.3,5.1-5.1,7.4c-0.1-0.8-0.2-1.6-0.3-2.4c0-0.1-0.2-0.1-0.2,0c-0.2,1.1-0.3,2.3-0.3,3.5
		c-1.3,1.7-2.6,3.3-3.9,4.9c0.6-1.5,0.9-3.1,1-4.8c0.3-3.5-0.8-6.6-2.2-9.6c-2.1-4.5-4-7.5-3.5-12.6c0.4-4.1,1.9-7.5,2.5-11.5
		c1.8-12-1.9-25.5-1.9-37.7c-0.1-13.5,0.1-27.5,5.8-39.9c0.9,0,1.8,0,2.7,0c-1,1-1.6,2.5-2.1,3.7c-0.6,1.3-1.1,2.6-1.3,4.1
		C317.4,488.1,317.8,488.2,318,487.9 M331.7,579.9c2.1-0.6,4.3-0.8,6.4-0.3c1.5,0.4,2.7,1.2,3.9,1.8c0.1,0.5,0.1,1,0.1,1.6
		c-0.6-0.4-1.2-0.8-1.8-1.1c-1.9-1-3.8-1.3-5.9-1.1c-0.3,0-0.3,0.5,0,0.5c1.9,0.1,3.9,0.8,5.5,1.8c0.8,0.5,1.5,1.3,2.1,2
		c0,1.1-0.1,2.3-0.2,3.4c-0.2-0.2-0.4-0.4-0.6-0.5c-1.7-1.3-3.7-2.1-5.7-2.8c-0.4-0.1-0.6,0.5-0.3,0.7c1.6,0.8,3.3,1.7,4.8,2.7
		c0.6,0.5,1.2,1,1.7,1.6c-0.1,0.6-0.1,1.1-0.2,1.6c-0.1-0.1-0.3-0.2-0.4-0.3c-1.7-1.3-3.5-1.9-5.7-1.8c-0.1,0-0.1,0.2,0,0.2
		c1.9,0.5,3.8,1.4,5.3,2.7c0.2,0.2,0.4,0.5,0.6,0.7c0,0.1,0,0.3,0,0.4c0,1.1-0.1,2.2-0.2,3.3c0,0-0.1-0.1-0.1-0.1
		c-1.1-1.2-2.4-2.1-3.9-2.8c-0.3-0.1-0.5,0.2-0.2,0.4c1.2,0.9,2.4,1.9,3.4,3.1c0.2,0.3,0.5,0.6,0.7,0.9c-0.1,1-0.2,2-0.3,3
		c-0.9-1.1-2-2-3.2-2.8c-0.4-0.2-0.7,0.3-0.3,0.6c1.4,0.9,2.5,2.1,3.5,3.4c-0.1,0.9-0.2,1.8-0.3,2.7c-0.7-0.8-1.5-1.5-2.4-2.1
		c-0.4-0.2-0.7,0.3-0.3,0.6c1,0.7,1.9,1.6,2.6,2.6c-0.2,1.1-0.3,2.3-0.5,3.4c-0.7-0.7-1.6-1.4-2.5-1.9c-0.4-0.2-0.6,0.3-0.3,0.5
		c1,0.7,1.8,1.5,2.6,2.5c-0.2,1-0.4,1.9-0.6,2.9c-0.7-0.7-1.5-1.4-2.3-2c-0.4-0.2-0.7,0.3-0.3,0.6c0.9,0.7,1.8,1.6,2.4,2.6
		c-0.2,0.7-0.3,1.5-0.5,2.2c-0.8-1-1.8-1.7-2.9-2.3c-0.2-0.1-0.5,0.2-0.2,0.4c1.1,0.7,2,1.5,2.8,2.6c0.1,0.1,0.1,0.2,0.2,0.3
		c-0.1,0.3-0.2,0.6-0.2,0.9c0,0-0.1,0-0.1,0c-0.6,0.2-0.6,0.9-0.2,1.2c-0.1,0.2-0.1,0.4-0.2,0.6c-0.2,0.6-0.4,1.2-0.6,1.8
		c-0.2,0.4-0.3,0.8-0.5,1.2c-0.7,0.2-1.5,0.2-2.2,0c-0.4-0.1-0.7,0.5-0.3,0.7c0.5,0.3,1.2,0.5,1.9,0.6c-0.4,0.9-0.7,1.8-1.1,2.6
		c0,0-0.1,0-0.1,0c-1.1,0.1-2.1,0.2-3.2,0.2c-0.3,0-0.4,0.4-0.1,0.5c0.8,0.3,1.8,0.5,2.8,0.6c-0.5,1.2-1,2.3-1.5,3.5
		c-0.3,0.1-0.5,0.2-0.8,0.3c-1.2,0.3-2.4,0.3-3.7,0.1c-0.2,0-0.3,0.2-0.1,0.3c1.1,0.5,2.7,0.8,4.1,0.6c0,0,0,0.1,0,0.1
		c-0.5,1-1.1,2-1.7,3c-0.6,0.2-1.2,0.4-1.8,0.5c-1.4,0.2-2.8,0.1-4.1-0.5c-0.3-0.1-0.6,0.3-0.3,0.5c1.3,0.7,3.5,1.3,5.2,1
		c-0.5,0.8-1,1.5-1.5,2.3c-1,0.2-1.9,0.5-2.9,0.6c-1.3,0.1-2.6,0-3.8-0.3c-0.3-0.1-0.6,0.4-0.2,0.6c1.6,0.7,3.9,1.2,5.8,0.7
		c-0.7,1-1.5,1.9-2.2,2.8c-0.8,0.2-1.6,0.4-2.3,0.4c-1.5,0-3-0.5-4.3-1.3c-0.2-0.2-0.5,0.2-0.3,0.4c1.3,1.2,2.8,1.9,4.5,2.2
		c0.3,0,0.6,0.1,0.9,0.1c-0.8,0.8-1.5,1.7-2.3,2.5c-2.9,0.6-5.7,0.2-8.5-1.6c-0.1-0.1-0.2,0.1-0.1,0.1c1.8,1.9,4.6,2.9,7.2,2.7
		c-1.1,1-2.3,2-3.5,2.9c-2.5,0.3-4.7,0-6.8-1.9c-0.1-0.1-0.2,0-0.1,0.1c1.3,1.5,3.5,2.6,5.6,2.7c-0.9,0.6-1.7,1.2-2.6,1.7
		c-2.5-0.1-4.9-1-6.5-2.9c-0.1-0.1-0.3,0-0.2,0.2c1.4,2,3.5,3.3,5.8,3.2c-1.1,0.6-2.2,1.2-3.3,1.8c-2.5-0.6-4.5-1.9-6.6-3.5
		c-0.1-0.1-0.2,0-0.1,0.1c1.5,1.6,3.4,3.5,5.6,3.9c-1.3,0.6-2.7,1.1-4.1,1.5c-2.6-1.3-5-2.6-7-4.8c-0.1-0.1-0.3,0-0.2,0.2
		c1.4,2.2,3.7,4.2,6.3,4.9c-0.7,0.2-1.3,0.4-2,0.5c-0.6,0.1-1.2,0.2-1.8,0.3c-1.1-1.1-3-1.4-4.4-2c-1.9-0.8-4-2.6-3.7-5
		c0-0.1-0.1-0.1-0.1,0c-0.9,1.8-0.1,3.6,1.4,4.9c0.9,0.7,2,1.2,3,1.6c0.7,0.3,1.4,0.6,2.1,0.8c-2.1,0.3-4.3,0.4-6.4,0.2
		c-1.3-0.8-2.9-1.3-4.2-2.1c-2.2-1.4-4-3.6-4.3-6.2c0-0.2-0.3-0.2-0.3,0c-0.1,3.3,2.4,6.4,5.5,8c-1.7-0.3-3.4-0.6-5-1.1
		c-1.3-0.8-2.5-1.6-3.5-2.8c-1.4-1.6-2.3-3.7-2.8-5.7c0-0.1-0.1-0.1-0.1,0c0.2,2.5,1.4,5.4,3.3,7.4c-1.3-0.5-2.6-1.1-3.8-1.7
		c-1-0.9-1.9-1.9-2.6-3.2c-1-1.9-1.5-4-1.4-6.2c0-0.1-0.2-0.2-0.2,0c-0.3,2.5,0.2,5.5,1.6,7.9c-0.8-0.5-1.6-1-2.3-1.6
		c-0.7-1.1-1.3-2.2-1.7-3.5c-0.4-1.7-0.3-3.3-0.2-5c0-0.2-0.4-0.3-0.5-0.1c-0.9,2.1-0.7,4.8,0.3,7.1c-1.8-1.4-3.4-3-4.9-4.7
		c-0.2-0.4-0.3-0.9-0.4-1.4c-0.2-1.3,0.2-2.6,0.3-3.9c0-0.1-0.1-0.1-0.2-0.1c-0.8,0.8-1.2,2.3-1.1,3.8c-0.6-0.7-1.2-1.4-1.7-2.2
		c-0.2-0.5-0.4-0.9-0.5-1.4c-0.2-1,0-2,0.3-3c0-0.1-0.1-0.1-0.1,0c-0.4,0.7-0.8,1.9-0.8,3c-0.5-0.8-1-1.5-1.5-2.3c0-0.2,0-0.3,0-0.5
		c0-1.2,0.1-2.4,0.5-3.5c0-0.2-0.2-0.2-0.3-0.1c-0.4,0.8-0.8,1.8-1,2.8c-0.3-0.5-0.6-1-0.9-1.5c-4.9-9.2-6.8-19.6-6.9-30
		c-0.1-6.2-0.5-29.5,8.3-32.7c0.4,3,0.9,5.9,1.3,8.9c-0.9-0.4-1.8-0.4-2.8-0.1c-0.2,0.1-0.2,0.5,0.1,0.5c0.9,0,1.9,0.2,2.7,0.7
		c0.1,0,0.1,0.1,0.2,0.2c0.1,0.4,0.1,0.8,0.2,1.2c0.1,0.7,0.6,1.1,1.2,1.3c0.1,0.3,0.2,0.6,0.2,0.9c-1.7-1.7-4.4-2.9-6.5-2.7
		c-0.1,0-0.1,0.1,0,0.2c1.4,0.6,2.8,1,4.1,1.7c1.1,0.7,2,1.5,3,2.4c0.2,0.7,0.5,1.5,0.7,2.2c-1.9-1.6-4.5-2.5-6.7-2.4
		c-0.2,0-0.3,0.3-0.1,0.4c1.6,0.5,3.2,1.1,4.7,2c1.1,0.7,2,1.7,2.9,2.6c0.1,0.2,0.1,0.4,0.2,0.5c-0.1,0.5-0.2,1.1-0.2,1.6
		c-1.9-1.8-5-2.7-7.2-2.4c-0.2,0-0.2,0.4,0,0.4c1.7,0.4,3.4,0.8,4.8,1.7c0.9,0.5,1.5,1.2,2.2,1.9c-0.1,0.8-0.2,1.7-0.2,2.6
		c-2-1.6-4.9-2.5-7-3c-0.2-0.1-0.4,0.3-0.2,0.4c1.6,0.8,3.3,1.6,4.9,2.5c0.8,0.5,1.5,1.1,2.2,1.7c0,0.8-0.1,1.6-0.1,2.4
		c-1.9-1.7-4.7-2.8-6.7-3.1c-0.2,0-0.3,0.2-0.1,0.3c1.5,1,3.3,1.6,4.8,2.6c0.8,0.6,1.5,1.3,2,2c0,0.8,0,1.7,0.1,2.5
		c-0.2-0.2-0.4-0.3-0.5-0.4c-1.3-1-3-2.4-4.8-2.2c-0.2,0-0.4,0.3-0.2,0.5c1.2,1.2,2.9,1.7,4.2,2.8c0.5,0.4,0.9,1,1.4,1.5
		c0,0.4,0.1,0.8,0.1,1.2c-1.4-0.9-2.9-1.5-4.3-2c-0.4-0.1-0.6,0.5-0.3,0.7c1.4,0.8,2.9,1.6,4.2,2.5c0.2,0.1,0.3,0.3,0.5,0.4
		c0.1,1.2,0.3,2.3,0.5,3.4c-1.3-0.7-2.7-1.4-3.8-1.9c-0.3-0.1-0.6,0.3-0.3,0.5c1.5,0.7,2.9,1.5,4.3,2.4c0.2,1.1,0.5,2.3,0.7,3.4
		c-0.6-0.3-1.3-0.6-1.9-0.8c-0.7-0.2-1,0.8-0.3,1.1c1,0.4,1.9,0.9,2.7,1.5c0.3,1,0.6,1.9,0.9,2.8c-1.2-0.4-2.3-0.6-3.2-0.5
		c-0.2,0-0.4,0.4-0.1,0.5c1.3,0.6,2.7,0.9,3.9,1.5c0.4,1,0.8,1.9,1.2,2.8c-0.7-0.4-1.5-0.8-2.2-1.1c-0.4-0.2-0.8,0.4-0.4,0.6
		c1.1,0.7,2.2,1.3,3.3,1.9c4.3,8.1,11.3,13.7,21.8,13.7c5.8,1.1,11.9,0.7,17.5-1.3c14.4-5,24.1-18.1,27.6-32.6
		c1.2-5,4.1-21.2-2.7-23.6c0.7-2.8,0.5-5.8-1.1-9.2c0.2-0.3,0.3-0.7,0.5-1c0.4-0.9-0.8-1.8-1.4-0.9c0-0.1,0-0.3,0-0.4
		c0.4-0.1,0.8-0.5,0.8-1c3.8,0,8.7-0.6,11.2,2.2c-2.9-1.3-7-0.9-9.4,0.5C331.3,579.6,331.4,580,331.7,579.9 M329.9,592.3
		c4.6,2,1.8,17.2,1.5,18.4c-1.1,4.9-2.8,9.6-5.3,14c-5.2,9.1-13.6,16.2-23.8,18.8c-10.3,2.6-21.6,0-28.9-7.9
		c-3-3.2-4.8-6.9-5.9-10.8c0.1,0,0.2-0.2,0.2-0.4c-0.1-0.6-0.4-1.2-0.7-1.7c-0.5-2.1-0.8-4.2-0.9-6.4c-0.2-2.6-0.6-6.5-0.2-10
		c2.7,6.2,5.6,12.4,8,18.3c0.1,0.2,0.2,0.4,0.4,0.6c0.1,0.2,0.2,0.3,0.3,0.4c5.8,2.4,15.1,5.8,21.5,4.6c5.7-1.1,8.5-6.6,11.9-11
		c4.8-5.1,9.6-10.7,13.5-16.6C324.9,599.3,328.1,596,329.9,592.3 M321.1,598.4c-2.2,2.3-4.5,4.7-6.8,7c-6,6.3-13.1,17.5-22.1,18.3
		c-3.2,0.3-10.2,0.4-13.1-0.8c-1.3-0.5-2.3-1.3-3.1-2.3c5.7,0.6,12.7,1.6,17.8,0.4c5.2-1.2,6.7-5.3,10.5-9.3
		c8.4-8.7,16.2-15.7,22.2-25.5C325.3,590.4,323.4,594.5,321.1,598.4 M310.5,538.5c0.5,6.5,2.2,13.5,0.9,20
		c-0.8,4.1-3.2,7.9-3.1,12.2c0,3.6,1.8,6.6,3.3,9.8c4.5,9.5,3.6,17.6-5.1,24c-0.3-0.4-0.9-0.3-1.2,0.1c-2.3,3.1-4.5,6.2-6.5,9.5
		c-1.3,1.1-2.7,2-4.4,2.9c-6,2.9-12.7,2.2-19.3,2.5c-1.4-2.1-2.4-4.7-3.2-7.1c1.1,1.1,2.2,2.2,3.4,3.2c0.3,0.3,0.7,0.3,1,0.3
		c0.8,0.6,1.6,1.1,2.5,1.5c1.5,0.7,2.4-1.5,0.9-2.1c-1.1-0.4-2.2-1.1-3.1-1.9c-1.4-1.6-2.7-3.1-3.9-4.8c-1.9-3.1-3.2-6.7-4.3-9.5
		c-1-2.5-1.8-5.1-2.5-7.7c-0.5-4.5,0-9.3,1.3-14.4c3-11.2,0.4-17.9-2.4-28.9c-5.7-22.5-4.4-50.6,7.7-71.2c2.6,0.7,5.2,1.2,7.8,1.7
		c11.6,1.9,23.3,1.5,35,1.4C306.8,497,309,520.6,310.5,538.5 M438.6,515.2c0.5-0.4,0.7-1.1,0.6-2c-0.1-1-0.3-1.9-0.5-2.8
		c0.9-2.3,2-4.6,3.2-6.7c4,14.1,5.2,27.2-1.3,40.9c-0.2-0.4-0.3-0.8-0.6-1.3c-1.6-3.3-2.8-6.8-3.5-10.3c2.4-1.9,3.4-5.6,3.7-8.4
		C440.6,522,440.5,517.5,438.6,515.2 M536.5,532.9c0.5,4.3,0.6,8.6,0.2,12.8c-0.1,0-0.2,0-0.3,0c-0.2-0.1-0.5-0.1-0.8,0.1
		c-0.1-0.1-0.2-0.2-0.3-0.3c1.4-19.1-4.4-39.9-20.4-51.4c-2.1-1.5-4.2-2.8-6.5-3.9c-2.6-2-5.6-3.1-8.7-3.5
		c-11.3-3.5-23.8-3.4-35.4-0.3c6.5-2.3,13.4-4,19.7-4.3c10.6-0.5,22.4,5.6,30.9,11.6c11.3,8,18.7,22.4,21.1,37.2
		C535.5,531.6,535.9,532.5,536.5,532.9 M446.4,511.1c0.1,0,0.2,0,0.3-0.1c1.9-3.5,4.8-6.8,8.2-9.5c-2.9,5.3-1.5,14.1,1.6,20.2
		c-0.1,1-0.2,2-0.2,3c-0.3,2.1-0.4,4.2,0.1,6.3c0.2,1.3,0.6,3.3,1.6,4.5c-5.5,2.3-10.5,5.3-15.1,8.9
		C448.4,534.3,448.9,522.4,446.4,511.1 M461,497.7c3.2-1.5,6.6-2.5,9.9-2.7c0.3,0.1,0.5,0.2,0.8,0.3c0.3,0.1,0.6-0.1,0.7-0.4
		c4.3,0,8.5,1.4,12,4.7c-3.1,0-6,0.5-8.7,1.5c-8,2.6-15.1,8.2-18,15.7c-2.5-6.8-3.6-14.3,3-18.1C461.2,498.6,461.2,498.1,461,497.7
		 M515.2,502.1c6.9,2.4,11.9,8.8,9.1,16.5c-1.7,4.9-5.7,8-9.5,11.2c-0.1-0.4-0.1-0.7-0.2-1.1c0-0.3,0.1-0.7,0.1-1
		c0-0.2,0.1-0.3,0.1-0.5c-0.3-3.7-1.4-7.3-2.9-10.5C514.8,512.5,515.9,507.2,515.2,502.1 M513.1,495.3c3.1,2.2,5.7,4.7,8,7.5
		c-1.8-1.2-3.9-1.9-6.1-2.1C514.7,498.9,514,497,513.1,495.3 M527.5,513.2c0-0.1,0-0.1,0-0.2c3.5,7.5,5.3,15.9,5.5,24.4
		c-0.1,0.2-0.2,0.4-0.2,0.7c0,0.5,0,0.9,0,1.4c-0.3,1.3-0.6,2.6-0.8,3.9c-5.8-4.9-6.2-13.8-6.2-21.2c0-0.1-0.1-0.2-0.1-0.3
		C527.1,519.2,527.9,516.3,527.5,513.2 M531.8,546.5c0,0,0,0.1,0,0.1c-1.5-1-3-1.9-4.3-2.7c0,0-0.1-0.1-0.2-0.1
		c-3.6-2.5-7.5-4.7-11.6-6.4c0,0,0,0,0-0.1c0-1.6-0.2-3.3-0.4-4.9c3.2-2.1,6.4-4.8,8.8-8C523.2,531.5,525.1,543.4,531.8,546.5
		 M510.2,513.5c-0.6-0.9-1.2-1.9-1.9-2.7c0-0.4-0.1-0.8-0.3-1.2c-1.4-2.3-3.1-4-5-5.3c0,0,0,0-0.1-0.1c-0.2-0.2-0.4-0.2-0.6-0.3
		c-1.8-1-3.7-1.7-5.8-2c-2.2-0.9-4.6-1.6-7.1-2c-0.7-0.1-1.3-0.2-2-0.2c-1.7-2.5-4.2-4.2-7-5.3c6.2-3.7,13.6-7,20.5-5.3
		c1.3,0.5,2.7,1,4,1.6c0.7,0.4,1.4,0.8,2,1.4C514.8,498.3,513.3,506,510.2,513.5 M477.6,510.6c7-2.3,14.6-4.3,21.1-1.6
		c3.4,3.4,6.3,7.1,8.4,11.1c-0.1,0.2-0.2,0.3-0.2,0.5c-0.1,0.3,0.2,0.7,0.5,0.5c0.1,0,0.1-0.1,0.2-0.1c2,3.9,3.3,8.1,3.9,12.7
		c-0.1,0.6-0.3,1.2-0.3,1.8c-1.4-0.5-2.7-1-4.1-1.4c-7.2-2.6-14.6-4-21.9-4h0c-7.5,0-14.8,1.2-21.6,3.3c0-0.2,0-0.3,0-0.5
		C463.1,522.3,467,514.1,477.6,510.6 M444.3,545.7c15.3-9.8,32.7-14.8,51.2-11.7c17.4,3,29,12.2,41.4,23.1c0.2,0.2,0.3,0.3,0.5,0.5
		c7.9,12.5,11.1,25.1,10.6,39.7c-2,8.5-4.1,16.5-9.3,24.1c-6.9,10.1-15.9,16-26,22.2c-0.2,0.1-0.4,0.3-0.4,0.6
		c-8.5,3.5-17.8,5.5-27.3,5.5c-35.5,0-62-32.9-62-62.4c0-14.6,6.5-28.4,18.2-38.9C442,547.4,443.1,546.5,444.3,545.7 M492.9,487
		c-4.9,1-9.7,3.6-13.2,7.2c-2.7-0.9-5.6-1.2-8.4-1.1c-2-2.4-5.2-3.8-8.6-4.3C472.8,486.4,482.9,485.3,492.9,487 M467.2,493.4
		c-9.8,1.7-17.5,8-20.9,17.2c-0.7-3.1-1.7-6.2-2.8-9.2c2.4-3.5,5.4-6.6,9-9.5c1.1-0.4,2.3-0.8,3.7-1
		C460.5,490.3,463.8,491.7,467.2,493.4 M438.1,523.6c-0.2,2.3-1.1,4.1-2,6c-0.2-1.5-0.3-3-0.3-4.6c0.2-2.9,0.6-5.8,1.2-8.6
		c0.2,0.5,0.4,1,0.5,1.6C438,519.8,438.2,521.7,438.1,523.6 M720.6,470c1.2-3.3,1.6-6.8,1.3-10.3c1-0.4,1.9-0.8,2.9-1.3
		c-1.2,3.3-1.7,7.2-2,10.9c-0.9,4.8-1.7,9.7-2.4,14.6c-0.8,3.4-1.6,6.7-2.1,10.2c-0.8,5.1-0.8,10.1-0.9,15.1c-0.7,6.1-1.3,12.1-2,18
		c-1.7,14.2-3.3,28.4-4.7,42.7c-0.2,0-0.4,0-0.6,0c-0.5,0-0.6,0.7-0.1,0.8c0.2,0.1,0.4,0.1,0.6,0.2c-1.1,10.6-2.1,21.2-3,31.9
		c-0.8-0.3-1.9,0.6-1.3,1.4c0.7,1,1.3,2,1.8,3c0,1.6,0,3.1,0.1,4.7c0,5.7-1,9.8-3.7,14.3c1.4-9-1.7-19.1-1.2-27.9
		c0.6-8.8,2.6-17.5,3-26.3c0.3-7.7-0.4-15.4-1-23.1c-1.3-16.6,0.3-31.8,4.5-47.9c3.4-12.9,7.3-26,7.4-39.4c1.5-0.6,3-1.2,4.5-1.8
		c-0.1,3.4-0.6,6.7-1.4,10.1C720.2,470.1,720.5,470.2,720.6,470 M651.3,635.5c3,5.9,6.1,11.8,9.1,17.6
		c-17.7,0.7-28.9-14.3-32.1-30.4c-1.5-7.5-1.5-15.2-1.4-22.8c0-2.7-0.4-30,6.3-26.8C630.6,593.1,623.2,632.4,651.3,635.5 M645.7,592
		c0.1-0.2,0.2-0.3,0.2-0.5c-0.5,9.1-0.9,18.3-1.2,27.4c0,0.5,0.3,0.9,0.7,1.1c0.3,3,1.4,5.8,2.9,8.9c0.5,1.1,1,2.1,1.5,3.1
		c-15.5-3.1-16.1-20.1-15.6-34c0.2-5.6,0.5-11.2,1.1-16.7c0.8-8.8,5.1-8.2,12-8.2c-0.4,5.2-0.8,10.3-1,15.5c-0.3,0-0.5,0-0.8,0.1
		C645.4,589.8,645.5,590.9,645.7,592 M647.4,621c0.9,1.6,1.8,3.2,2.7,4.7c0.7,2.5,1.9,4.9,3.5,6.9c-0.7,0-1.4-0.1-2-0.2
		C649.6,628.6,648.1,624.7,647.4,621 M653.2,635.6c0.2,0,0.4,0,0.6,0c0.9,0,1.3-0.5,1.4-1.2c0.2,0.3,0.3,0.6,0.5,0.9
		c3.7,6.2,7,13.8,11.5,19.4c3.5,4.3,13,5.2,17.8,2.5c3.5-2,5.4-7.5,7.5-10.6c4.5-6.8,10.1-12.7,14.8-19.3c0.2-0.3,0.5-0.7,0.7-1.1
		c-1.2,3.2-2.8,6.3-4.6,9.3c-4.4,7.1-8.6,16.9-14.8,22.1c-2.1,1.8-4.3,2.7-6.7,3.1c-4.2,0.5-8.9-0.3-13.1-0.7
		c-1.4-0.5-2.6-1.2-3.8-2.5c-1.5-1.7-2.5-4.9-3.5-7C659.5,646.4,656.1,641.1,653.2,635.6 M713.6,625c16.6-9.1,13.2-35.7,12.5-51.4
		c0-0.6-0.4-1.2-1-1.3c-3.6-0.8-7.1-1.5-10.7-1.9c0-0.5,0.1-0.9,0.1-1.4c0.2-1.9,0.4-3.7,0.6-5.6c4,0.7,8.4,1.2,12.1,2.5
		c8,2.8,7.8,5.9,8.5,14.3c0.8,9.3,0.8,18.9,0.1,28.3c-1.6,21-12.4,45.5-36.6,43C704.9,643.5,711.5,634.2,713.6,625 M713.8,618.6
		c0.3-2.7-0.1-5.6-0.4-8.4c0-7.8,0-15.7,0.2-23.5c0.4-4.9,0.9-9.7,1.4-14.5c3.8,0.9,7.5,2.1,8.5,5.9c1,4,0.2,10,0.2,14.2
		c-0.1,11-2.2,20.5-9.4,27.8c0-0.2,0-0.4,0-0.6C714.2,619.1,714,618.8,713.8,618.6 M702.3,543.7c1,16.2,1.3,30.7-0.7,46.9
		c-0.8,6.4-1.3,12.7-0.8,19.1c0.6,8.1,2.6,14.7-0.5,22.7c-4,5.3-8.1,10.4-11.7,16c-3,4.7-6.5,8.2-12.8,7
		c-7.6-1.4-10.5-9.2-13.8-14.9c-0.2-0.3-0.3-0.6-0.5-0.9c-0.3-4-1.8-7.1-3.9-10.2c-0.3-1.4-0.4-2.7-0.1-4c-1.1-8,1.9-16.5,3.3-25.2
		c2-13.1,1.3-26.5,1.9-39.7c1.3-28.4,5.1-56.5,7.1-84.8c14.6-3.6,30.4-7.5,45.3-13.1C711.9,490,700.5,515.6,702.3,543.7 M659.6,574
		c-0.2,7.5-0.1,15.2-1,22.7c-0.9,7.5-3.6,14.6-4.4,22c-0.2,2-0.2,4-0.1,6c-1.8-2.5-3.1-4.7-4.1-7.1c0.1-1.2,0.2-2.4,0.5-3.6
		c0.1-0.3-0.3-0.4-0.4-0.1c-0.2,0.8-0.4,1.5-0.6,2.3c-0.7-2.1-1.1-4.4-1.3-7.2c0.1-2.1,0.2-4.1,0.3-6.2c2.5-18.2,2.7-37.2,4.2-55.2
		c1.9-23.2,3-46.5,6.9-69.5c2.6-0.7,5.3-1.3,8-2C663.1,508.4,660.4,541.4,659.6,574 M271,327.6c3.1,0.9,6.6,1.9,9.7,1.7
		c-3.8,1.1-7.4,1.3-9.6-0.4C271,328.4,271,328,271,327.6 M321.3,272.9c0-3.3,0-6.6,0.5-9.9c0-2.1,0.4-4.1,1.3-6
		c0.5-2.7,1.7-4.3,3.7-4.8c0.5,0.2,1,0.3,1.5,0.5c0.2,0.1,0.4,0.1,0.6,0c-0.1,0.1-0.2,0.2-0.3,0.3c-0.5,0.1-0.8,0.5-0.8,0.9
		c-1.3,1.6-2.4,3.6-2.7,5.5c-1.9,9.7-0.1,21.6-1.1,32.4c-0.7,3.6-1.6,7.2-3,10.6c-0.1,0-0.2,0.1-0.3,0.2c-0.2,0.4-0.4,0.7-0.6,1.1
		c1.2-5.6,1.6-11.4,1.5-17.4C321.5,281.9,321.3,277.4,321.3,272.9 M329.2,255.5c0.3,0,0.6,0.1,0.8,0.2c-1.8,3.7-2.6,8.1-3,12.7
		C327,266.6,327.4,259.7,329.2,255.5 M358.2,252C358.2,252,358.2,252,358.2,252c5.9,4,7.2,7.9,3.8,11.5c-0.5,0.8-1.1,1.5-1.8,2.1
		c-1.1,0.7-2.3,1.5-3.4,2.1c-2.7,1.3-5.8,2-8.7,2.6c-6.1,1.2-12.3,1.5-18.5,1.6c0.6-5.2,1-10.4,1.3-15.7c0.8,0.5,1.4,1.1,2.4,1.6
		c2.3,1,5.3,0.9,7.7,0.7C347.1,258.2,353.9,256.2,358.2,252 M351.2,245.5c0.1,0.1,0.1,0.2,0.2,0.4c0.1,1.7,0.2,3.3-0.1,4.9
		c-2-2.4-4.6-4.3-7.8-4.2c-0.3,0-0.6,0.1-0.9,0.2c0,0,0,0,0,0c-0.6-0.4-1.4,0-1.7,0.5c-0.2,0.1-0.3,0.1-0.5,0.2
		c0.3-1.3,1-2.4,2.5-3.1C346,243,348.6,244,351.2,245.5 M320.7,241.4c6.8-0.3,18.4-3.1,25.7,0c-1.3,0-2.7,0.2-3.8,0.6
		c-4,1.4-4.6,4.7-4.4,8.1c-0.1,0.5-0.2,1-0.1,1.5c0,0.1,0.1,0.2,0.2,0.2c0.1,0.7,0.2,1.5,0.3,2.2c-0.1,0-0.1,0.1-0.2,0.1
		c-0.2,0-0.4-0.1-0.6-0.1c-0.3-0.5-0.5-1-0.8-1.3c-1.4-4.4-6.2-4.9-10.1-2.8c-5.4-1.9-11.8-2.8-17.2-1.1c-4.6-3-11.1-4-17.5-3.8
		C295.2,239.5,315.4,241.7,320.7,241.4 M261.6,273.7c0.4-4.5,0-22,6.2-23.2c0.3-0.1,0.4-0.3,0.5-0.5c2-0.2,3.9-0.3,5.8,0
		c2.2,0.3,4.1,1.4,6.2,2.1c0.8,0.3,1.5-0.9,0.9-1.5c-0.8-0.7-1.8-1.3-2.9-1.7c11.2-0.9,22.5-2.6,32.8,3.4c0.9,0.5,1.8-0.7,1.1-1.4
		c-0.3-0.3-0.7-0.7-1.1-1c4.7,0.2,9.1,0.4,13.5,1.7c-0.6,0.6-1.2,1.2-1.6,1.9c-3.7,5.8-3.1,14.6-3.1,21.1c0,11.4,0.7,22.7-2.8,33.6
		c-0.4,0.4-0.7,0.9-1.1,1.3c0,0,0,0,0,0c-6.8,4.3-13.7,7.8-21.1,11.1c-3.5,1.5-7.2,4.1-10.8,5.2c-4.2,1.3-9,0.6-13.4,0.2
		c-0.5-1.4-1.3-2.8-2.2-4.1c-2.6-7.1-7.5-13.6-11.5-19.9c-0.3-1.1-0.3-2.1-0.2-3.1c1.2-3,2.1-6.5,2.5-9.8
		C260.4,283.9,261.1,278.8,261.6,273.7 M252.4,265.8c0.6-2.3,4.1-6.7,7.1-7.7c-1.3,1.7-1.4,4-0.3,5.9c0,0,0,0,0,0
		c0,0.2,0.1,0.3,0.2,0.4c0.1,0.1,0.1,0.2,0.2,0.3c0.1,0.1,0.1,0.1,0.2,0.2c-0.5,3.7-0.8,7.5-1,10.8c-0.6-0.2-1.1-0.4-1.6-0.6
		c-1.8-1.5-3.6-3.2-4.4-5.2c0.1-0.4,0-0.8-0.4-1.1C252.1,267.9,252.1,266.9,252.4,265.8 M231,280.3c0.6,0.4,1.1,0.8,1.6,1.3
		c0.3,3.6-0.1,7.1-1.3,10.6c-0.7,2-1.7,3.9-2.7,5.8c-0.6,1.2-3.4,4.5-3,5.9c-0.1-0.3-0.5-0.3-0.7-0.1c0,0.1-0.1,0.1-0.1,0.2
		c-0.1,0.1-0.1,0.3,0,0.5c0,0.1,0.1,0.1,0.1,0.2c0,0.1,0.1,0.1,0.2,0.2c-1.5,1-3.1,1.9-4.8,2.7C226.4,299.5,232.6,290.4,231,280.3
		 M233.4,282.4c0.6,0.6,1.1,1.3,1.6,2c0.2,5.6-1.6,9.8-4.1,14.8c-0.2,0.3,0,0.7,0.3,0.8c-1.3,1.3-2.7,2.5-4.3,3.6
		c2.2-2.6,3.7-6.7,4.8-9.5C233.3,290.3,234.1,286.3,233.4,282.4 M236.1,286.2c0.4,0.9,0.7,1.9,0.8,2.9c0,0.5-0.1,1-0.3,1.6
		c-0.2,0.9-0.8,1.7-1.3,2.5C236,291,236.2,288.6,236.1,286.2 M235.4,295.1c0.1,0,0.3-0.1,0.4-0.2c-0.8,1.1-1.6,2.1-2.4,3.1
		c0.6-1,1.2-2.1,1.6-3.2C234.9,295,235.1,295.2,235.4,295.1 M194.7,418.1c-0.5-0.8-1-1.6-1.5-2.3c-0.3-0.5-0.5-1.1-0.8-1.6
		c-7.2-16.2-12.1-33.6-16.4-50.8c-0.8-3.3-1.6-6.7-2.4-10c-0.3-1.9-0.5-3.8-0.7-5.6c-0.3-2.4-1.6-10.4-2.3-18.4
		c-0.1-6.3,0.5-12.6,2.1-18.9c19.8,6.1,42.9,7.4,59.3-7.3c4.8-4.3,11.1-11.5,9.7-18.6c-0.5-2.5-1.7-4.5-3.4-6.1
		c-2.2-2.5-5.3-4.2-8.6-5.2c4-1.1,9.4-1.2,13.5-1.2c2.9,0,5.1,0.6,7,1.6c1.1,1.3,2.9,2.5,4,3.7c3.2,3.6,3,7.8,2.1,12.2
		c-1.4,4.1-3,8.5-2.4,11.9c0.2,1.3,0.9,2.6,1.7,3.9c-13.7,22.1-44.4,26.3-68.1,27.1c-0.5,0-0.8,0.3-0.9,0.6c-0.5,0.1-1,0.6-0.9,1.3
		c4,18,7.7,37,14.4,54.3c2.8,7.3,7.2,13.8,12.4,19.6c6.2,8.4,13.8,15.4,23.1,20.2c0.3,0.1,0.5,0.1,0.7,0
		c13.6,7.1,28.5,12.2,42.8,17.7c12.5,4.8,27.9,13.9,41.6,10.5c10.2,1,20.4,1.9,30.6,3c-2.4,0-4.9,0.6-6.8,1.2
		c-0.5,0.2-0.4,0.9,0.1,0.9c1.9-0.1,3.8-0.2,5.7-0.3c1.7,0,3.4,0.2,5-0.3c0.3-0.1,0.4-0.6,0.1-0.7c-0.5-0.2-1-0.4-1.5-0.5
		c10.3,1.2,20.7,2.8,30.9,5.1c21.4,4.9,44.9,12.1,61.2,27.5c-0.8,0.6-1.5,1.2-2.2,1.8c-0.7-0.5-1.6-0.8-2.4-1.2
		c-1.5-0.7-3.1-1.5-4.6-2.2c-1.1-0.5-2,1.1-1,1.6l4.8,2.5c0.6,0.3,1.2,0.7,1.8,0.9c-0.3,0.5-0.7,1-0.9,1.6c-0.6-0.3-1.5,0.2-1.3,1
		c0.2,0.6,0.4,1.2,0.5,1.7c0,0.2-0.1,0.5-0.1,0.7c-1.2,1.7-2.3,3.5-3.3,5.4c-0.2-0.3-0.4-0.5-0.8-0.8c-0.3-0.2-0.6-0.4-0.9-0.6
		c-3.1-3.7-8.1-5.9-13.2-7.6c-11.6-6-23.8-10.4-36.7-13.5c-15.4-3.8-31.6-8.2-47.7-8.5c-0.1-0.2-0.3-0.3-0.5-0.3
		c-2.8-0.4-5.5-0.5-8.1-0.4c-2.3-0.2-4.6-0.3-7-0.4c-10.7-0.2-21.3,0.3-31.9-0.4c-8.4-1.7-16.7-4.4-25.2-8.3
		c-9.4-4.3-18.4-10-27.6-15c-10.7-7.1-21.4-14.3-32.7-20.5C201.4,426.6,197.8,422.7,194.7,418.1 M805.2,747.3
		c-10.6,4.7-24.6,4.2-35.1,5.5c-14.3,1.8-29.6,2.4-43.7,5.9c-14.3,1.7-28.3,2-43.2,0.9c-10.2-0.7-20.5-1.5-30.7-2.1
		c-9.1-0.6-18.7-2.2-27.8-0.9c-0.3-0.9-1.1-1.7-2.3-1.5c-46.6,7.9-94.1,9.9-141.2,5.4c-23.8-2.3-47.1-6.9-70.6-11.1
		c-18.2-3.2-37.1-6-55.6-4c-13.4-0.8-26.8,2.4-40,4.8c-20.6,3.7-39.6,5.1-60.4,1.8c-0.2,0-0.3,0-0.5,0c-32-0.4-68.2-3.7-90.3-30
		c-11.6-13.8-13.8-30.7-12.5-48.2c1.3-18.2,3.9-36.3,6.8-54.3c5.3-33.2,13-65.7,21.9-98.1c7.8-28.5,16.6-57.6,19.3-87.1
		c0.7,0.8,1.5,1.6,2.3,2.4c3,2.9,6.4,5.7,9.9,8.3c-24.2,61-37.9,127.8-45.9,192.7c-3.2,25.9-7,56.4,11.9,77.6
		c8,9,18.8,13.2,30.5,15.1c13.9,2.2,28.2,3.2,42.1,5c0.4,0,0.6-0.1,0.8-0.4c29.1,5.3,59,8.7,88.5,6.6c13.8-1,27.5-3,41.3-3.8
		c16.4-1,32.6,0.6,49,2.2c29,2.9,57.4,1.5,86.4,0.1c28.9-1.4,57.6,0,86.5,1.8c53.7,3.4,109.4,8.1,161.5-8.7
		c22.4-7.2,39.5-16.3,44.6-40.8c5.5-26.3-1.3-53.1-9.1-78.1c-9.9-31.7-19.9-62.6-23.8-95.8c-4-34.3-2.9-68.7,2.1-102.8
		c0.1-0.5-0.1-0.9-0.5-1.2c2.3-3.6,4.4-7.3,6.1-11.4c0.7-1.6,1.3-3.1,1.9-4.7c0.4-0.8,0.7-1.6,1.1-2.4c-2.4,18.3-3.5,36.9-3.6,54.5
		c-0.2,33.6,6.8,65.6,16.2,97.7c9.4,31.9,20.4,63.7,23.7,97c1.7,17.5,1,34.9-2.1,52.3C817.6,714.4,814.4,732.8,805.2,747.3
		 M829.7,722.4c-4.6,4-9.4,7.6-13.4,11.8c3.2-8.6,4.8-18.1,6.5-26.3c3.3-15.5,5.2-31.2,4.8-47c-0.8-33.1-10.4-65.2-19.8-96.7
		c-10.1-34.1-20-68-21.1-103.8c-0.6-18.5,0.6-37.1,2.7-55.5c1.1-9.3,2.6-18.5,4-27.8c1.9-6.9,3.4-14,4.6-21.1
		c-4.2,50.1-4.5,101.1,3.7,150.2c5.4,32.3,16.4,62.7,26.8,93.6c4.9,14.5,9.6,29.1,13,44.1c3.4,14.7,4.3,29,5,43.7
		C845.5,701,841.4,712.2,829.7,722.4"/>
	<path class="st3" d="M719.3,474.5c-0.7,3-1.7,6.3-1.7,9.4c0,0.3,0.4,0.3,0.5,0.1c1.1-2.9,1.3-6.3,1.6-9.4
		C719.8,474.3,719.4,474.2,719.3,474.5"/>
	<path class="st3" d="M716.9,489c-0.8,3.2-1.9,6.6-2,10c0,0.4,0.5,0.4,0.6,0.1c1.1-3.1,1.4-6.7,1.9-9.9
		C717.3,488.9,717,488.8,716.9,489"/>
	<path class="st3" d="M714.9,502.9c-0.4,1.7-0.7,3.5-1,5.3c-0.3,1.5-0.7,3.1-0.5,4.7c0,0.3,0.4,0.4,0.5,0.1c0.6-1.4,0.7-2.9,0.9-4.3
		c0.2-1.9,0.5-3.8,0.7-5.7C715.5,502.7,715,502.6,714.9,502.9"/>
	<path class="st3" d="M713.6,516c-1.4,3.1-2.7,7.3-2,10.8c0.1,0.3,0.5,0.3,0.6,0c0.3-1.8,0.2-3.6,0.5-5.4c0.3-1.8,0.8-3.5,1.3-5.2
		C714.1,516,713.7,515.8,713.6,516"/>
	<path class="st3" d="M711.2,532.6c0-0.3-0.4-0.4-0.5-0.1c-0.6,2.4-1.4,5.7-0.4,8.1c0.1,0.3,0.6,0.4,0.7,0c0.2-1.2,0-2.5,0-3.8
		C711,535.5,711,534.1,711.2,532.6"/>
	<path class="st3" d="M710.2,543.8c-1.1,3.6-1.9,7.6-1.1,11.4c0.1,0.3,0.4,0.2,0.5-0.1c0.3-3.8,0.4-7.4,1.3-11.2
		C710.9,543.6,710.3,543.4,710.2,543.8"/>
	<path class="st3" d="M708.9,561.1c0-0.4-0.7-0.4-0.7,0c-0.1,2.4-0.3,4.9,0.1,7.3c0,0.3,0.5,0.3,0.5,0
		C709.3,566,709,563.5,708.9,561.1"/>
	<path class="st3" d="M708.2,573.6c0-0.3-0.5-0.3-0.5,0c0,2.2-0.2,4.5,0.1,6.7c0,0.2,0.4,0.2,0.4,0
		C708.4,578.1,708.2,575.8,708.2,573.6"/>
	<path class="st3" d="M706.4,588.8c0,1.3,0,2.6,0.1,4c0,0.2,0.3,0.2,0.3,0c0-1.3,0-2.6,0.1-4C706.8,588.5,706.4,588.5,706.4,588.8"
		/>
	<path class="st3" d="M660.5,481.7c-0.7,2-1,4.2-0.3,6.1c0.1,0.2,0.4,0.2,0.4-0.1c0-2,0-3.9,0.6-5.9
		C661.4,481.4,660.7,481.2,660.5,481.7"/>
	<path class="st3" d="M659.9,493c0-0.2-0.4-0.2-0.4,0.1c0,1.4,0,2.9-0.2,4.3c-0.1,1.4-0.5,2.8-0.5,4.3c0,0.2,0.4,0.4,0.5,0.1
		C660.5,499.2,660.4,495.7,659.9,493"/>
	<path class="st3" d="M658.3,508.2c-0.2,1.1-0.4,2.2-0.5,3.4c-0.1,1.1-0.4,2.3-0.2,3.4c0.1,0.3,0.4,0.2,0.5,0
		c0.4-0.9,0.3-2.1,0.4-3.1c0.1-1.2,0.2-2.4,0.2-3.6C658.8,508,658.3,507.9,658.3,508.2"/>
	<path class="st3" d="M658.1,520.1c0-0.3-0.5-0.4-0.6-0.1c-0.5,2.9-1.4,6.5-0.8,9.4c0.1,0.3,0.5,0.2,0.6,0
		C658.4,526.7,658.1,523.1,658.1,520.1"/>
	<path class="st3" d="M656.3,533.3c-0.7,2.1-1.5,4.4-1.3,6.7c0,0.3,0.5,0.5,0.6,0.2c1-2.1,1.1-4.5,1.2-6.8
		C656.9,533.1,656.4,533,656.3,533.3"/>
	<path class="st3" d="M654.8,545.1c-0.4,2.3-1.3,5.1-0.8,7.4c0.1,0.2,0.4,0.3,0.6,0.1c1-2.1,0.7-5.1,0.9-7.4
		C655.5,544.9,654.9,544.8,654.8,545.1"/>
	<path class="st3" d="M653.6,556.4c-0.8,2.3-1.5,5-0.7,7.4c0.1,0.2,0.5,0.3,0.5,0c0.4-2.4,0.3-4.8,0.8-7.2
		C654.3,556.2,653.7,556,653.6,556.4"/>
	<path class="st3" d="M653.3,570.3c-0.1-0.3-0.6-0.2-0.5,0.1c0.1,2.7-0.5,5.3-0.4,7.9c0,0.2,0.3,0.3,0.5,0.1
		C654.2,576,653.9,572.9,653.3,570.3"/>
	<path class="st3" d="M652.9,583.5c0-0.5-0.8-0.5-0.8,0c-0.1,2.3-0.6,5.1,0.1,7.3c0.1,0.3,0.5,0.3,0.6,0
		C653.5,588.6,652.9,585.8,652.9,583.5"/>
	<path class="st3" d="M652.2,596.7c-0.1-0.6-1-0.6-0.9,0c0.2,1.8-0.2,3.5-0.4,5.2c0,0.2,0.3,0.4,0.4,0.2
		C652.3,600.5,652.4,598.5,652.2,596.7"/>
	<path class="st3" d="M650.9,604.6c-0.5,1.9-1.2,4.1-0.8,6.1c0,0.2,0.4,0.3,0.5,0.1c0.9-1.8,0.9-4.1,0.9-6.1
		C651.5,604.3,651,604.2,650.9,604.6"/>
	<path class="st3" d="M764.9,431.3c-1,0.8-0.9,3.1-1.2,4.2c-0.4,1.8-1,3.7-0.7,5.5c0.1,0.3,0.4,0.3,0.6,0.1c0.8-1.4,0.9-3,1.2-4.5
		c0.1-0.8,0.3-1.6,0.4-2.5c0.1-0.3,0.1-0.6,0.1-0.9c-0.1-1.2,0-1.6,0.4-1.2c-0.1,0.1,0,0.3,0.2,0.2
		C766.9,431.7,765.7,430.7,764.9,431.3"/>
	<path class="st3" d="M762.5,446.8c-0.4,3-1.2,6.3-0.9,9.3c0,0.3,0.5,0.4,0.6,0.1c0.9-2.9,0.7-6.3,0.8-9.3
		C763.1,446.5,762.5,446.4,762.5,446.8"/>
	<path class="st3" d="M762.2,463.4c0.1-0.4-0.4-0.5-0.6-0.2c-0.7,2.2-1.4,5.2-0.5,7.5c0.1,0.3,0.6,0.3,0.6-0.1c0.2-1.1,0-2.3,0-3.4
		C761.8,465.9,761.9,464.6,762.2,463.4"/>
	<path class="st3" d="M762.3,476.6c0-0.3-0.4-0.3-0.5,0c-0.3,2.4-0.6,4.9,0,7.3c0.1,0.2,0.4,0.2,0.5,0
		C762.9,481.5,762.6,479,762.3,476.6"/>
	<path class="st3" d="M763,491c-0.1-0.4-0.7-0.2-0.7,0.2c0.5,2.6,0.3,5.3,0.8,7.9c0,0.3,0.4,0.2,0.5,0
		C764.5,496.5,763.8,493.5,763,491"/>
	<path class="st3" d="M765.5,506.9c-0.1-0.3-0.6-0.2-0.5,0.1c0.3,2.5,0.5,5.1,1.6,7.3c0.1,0.3,0.5,0.1,0.5-0.1
		C767.1,511.7,766.3,509.2,765.5,506.9"/>
	<path class="st3" d="M768.9,520.6c-0.2-0.4-0.8,0-0.6,0.3c1,1.6,1.1,3.3,1.4,5.2c0,0.2,0.3,0.2,0.4,0
		C770.7,524.2,770,522.2,768.9,520.6"/>
	<path class="st3" d="M772.2,534.6c-0.1-0.3-0.6-0.2-0.5,0.1c0.6,2.2,1,4.6,2.1,6.6c0.1,0.2,0.4,0.1,0.4-0.1
		C774,539,773,536.7,772.2,534.6"/>
	<path class="st3" d="M783.5,585.8c-0.4-0.5-1.1,0.2-0.7,0.7c0.6,0.8,1,1.6,1.2,2.6c0.2,0.8-0.1,1.6,0.1,2.4
		c0.1,0.3,0.4,0.3,0.6,0.1C785.9,590,784.6,587.2,783.5,585.8"/>
	<path class="st3" d="M791.7,606.9c-0.5-2-1.4-3.2-2.9-4.6c-0.3-0.3-0.7,0.1-0.4,0.4c1,1.2,1.7,3,2,4.5c0.3,1.3-0.1,2.8,0.3,4.1
		c0.1,0.3,0.5,0.4,0.6,0.2C792.3,610.3,792,608.4,791.7,606.9"/>
	<path class="st3" d="M793.5,618.2c-0.2-0.2-0.5,0-0.3,0.3c1.3,2.5,1.4,5.2,1.5,8c0,0.3,0.4,0.4,0.6,0.2
		C796.9,623.7,795.8,620.3,793.5,618.2"/>
	<path class="st3" d="M797.5,635.6c-0.2-0.5-0.9-0.3-0.8,0.2c0.5,2,1,4.1,1.1,6.2c0.1,1.9-0.1,3.7,0.1,5.6c0,0.4,0.6,0.5,0.7,0.1
		C799.9,643.9,798.9,639.1,797.5,635.6"/>
	<path class="st3" d="M800.8,655.5c0-0.6-0.9-0.6-0.9,0c-0.1,2.8-0.5,6,0.1,8.7c0.1,0.3,0.6,0.3,0.6,0
		C801.3,661.5,800.9,658.2,800.8,655.5"/>
	<path class="st3" d="M800,671.2c-0.5,1.6-0.9,3.3-1.4,4.9c-0.4,1.4-1,2.9-0.8,4.4c0,0.4,0.5,0.6,0.8,0.2c0.9-1.2,1.1-2.8,1.4-4.3
		c0.4-1.7,0.7-3.3,1.1-5C801.3,670.8,800.2,670.5,800,671.2"/>
	<path class="st3" d="M796.2,688.5c-0.8,2.3-2,4.9-2.2,7.3c0,0.3,0.4,0.4,0.5,0.1c1.3-2.1,1.7-4.9,2.3-7.2
		C797,688.2,796.4,688,796.2,688.5"/>
	<path class="st3" d="M791.4,700.8l-1.1,2.3c-0.3,0.6-0.6,1.2-0.7,1.8c0,0.2,0.3,0.3,0.4,0.2c0.5-0.5,0.8-1.2,1.1-1.8
		c0.4-0.7,0.7-1.4,1.1-2.1C792.4,700.8,791.7,700.4,791.4,700.8"/>
	<path class="st3" d="M785,710.1c-2.4,1.8-4.9,3.5-7.2,5.4c-0.2,0.2,0.1,0.5,0.3,0.3c2.5-1.7,4.9-3.5,7.3-5.3
		C785.7,710.4,785.4,709.8,785,710.1"/>
	<path class="st3" d="M214.7,450.8c-1.8,2.3-3.5,4.6-4.8,7.2c-0.1,0.2,0.2,0.4,0.3,0.2c1.9-2.2,3.4-4.7,4.8-7.2
		C215.1,450.8,214.9,450.6,214.7,450.8"/>
	<path class="st3" d="M208.6,465.8c-1.8,2.1-3.5,5.2-3.3,8.1c0,0.3,0.4,0.3,0.5,0.1c0.5-1.3,0.6-2.6,1.1-3.9
		c0.5-1.4,1.2-2.8,1.9-4.1C208.8,465.9,208.6,465.7,208.6,465.8"/>
	<path class="st3" d="M204,482.5c-0.5,1.9-0.9,3.8-1.5,5.7c-0.6,1.9-1.6,3.6-2.1,5.5c-0.1,0.3,0.3,0.6,0.5,0.3
		c2.4-2.9,3.5-7.7,3.4-11.4C204.5,482.3,204.1,482.2,204,482.5"/>
	<path class="st3" d="M198.7,504.9c-0.7,1.2-1.3,2.4-1.8,3.6c-0.6,1.4-1.4,2.8-1.6,4.3c0,0.3,0.3,0.4,0.5,0.2
		c0.8-1.1,1.2-2.4,1.7-3.7c0.6-1.4,1.1-2.8,1.4-4.3C199,504.8,198.8,504.7,198.7,504.9"/>
	<path class="st3" d="M194.9,519.4c-0.7,1.2-1.3,2.5-1.7,3.9c-0.5,1.3-1.1,2.7-1.2,4.1c0,0.4,0.5,0.4,0.7,0.2c0.8-1.2,1.2-2.6,1.6-4
		c0.4-1.4,0.8-2.7,1-4.1C195.3,519.3,195,519.3,194.9,519.4"/>
	<path class="st3" d="M190.7,534.6c-0.8,2.5-2.2,5.3-2.1,8c0,0.4,0.5,0.5,0.7,0.2c1.5-2.3,1.7-5.4,2.2-7.9
		C191.7,534.3,190.9,534.1,190.7,534.6"/>
	<path class="st3" d="M187.4,552.4c-0.8,2.7-1.6,5.8-1.4,8.6c0,0.2,0.3,0.3,0.4,0.1c1.2-2.6,1.5-5.8,1.7-8.7
		C188.1,552.1,187.5,552,187.4,552.4"/>
	<path class="st3" d="M184.6,570.3c0-0.3-0.4-0.3-0.5-0.1c-0.6,2.3-1.3,5.1-0.9,7.4c0.1,0.4,0.5,0.3,0.7,0
		C184.8,575.5,184.7,572.7,184.6,570.3"/>
	<path class="st3" d="M182.1,584.8c0-0.5-0.7-0.5-0.7,0c-0.4,3.7-0.8,7.7,0,11.3c0.1,0.3,0.6,0.3,0.6,0
		C182.8,592.5,182.4,588.5,182.1,584.8"/>
	<path class="st3" d="M179.9,602.5c-0.7,2.3-1.7,5-1.2,7.5c0.1,0.3,0.5,0.3,0.7,0.1c1.2-2.1,1.2-5,1.4-7.4
		C180.7,602.2,180,602.1,179.9,602.5"/>
	<path class="st3" d="M176.6,617.1c-0.6,2.9-1.7,6.4-1.2,9.5c0,0.3,0.5,0.4,0.7,0.1c1.3-2.8,1.3-6.4,1.5-9.4
		C177.5,616.6,176.7,616.5,176.6,617.1"/>
	<path class="st3" d="M174.4,635c-0.6,4.4-1.6,8.8-1.1,13.2c0,0.3,0.5,0.4,0.6,0.1c1.3-4.3,1-8.9,1.2-13.3
		C175.2,634.5,174.5,634.6,174.4,635"/>
	<path class="st3" d="M173.9,654.2c0-0.1-0.2-0.2-0.2,0c-0.6,2.7-1.1,6.3,0.6,8.7c0.1,0.2,0.5,0.2,0.5-0.1
		C175.3,660,174.2,656.9,173.9,654.2"/>
	<path class="st3" d="M175.3,668.7c0-0.3-0.4-0.3-0.4,0c-0.4,3.5-0.3,7.3,2.1,10.1c0.2,0.3,0.6,0,0.5-0.3
		C176.9,675.2,175.6,672.1,175.3,668.7"/>
	<path class="st3" d="M181,686.8c-0.7-0.9-1.4-1.8-2.1-2.7c-0.4-0.5-1.1,0.1-0.8,0.6c0.7,1,1.3,2.1,2,3.1c0.6,0.8,1.2,1.8,2.1,2.3
		c0.3,0.2,0.6-0.1,0.6-0.5C182.5,688.7,181.6,687.7,181,686.8"/>
	<path class="st3" d="M188,699.7c-0.4-0.9-1.1-1.6-1.7-2.3c-0.7-0.9-1.5-1.7-2.2-2.6c-0.5-0.6-1.3,0.3-0.8,0.8
		c0.7,0.8,1.4,1.6,2.1,2.5c0.6,0.7,1.3,1.6,2.1,2.1C187.7,700.2,188.1,700,188,699.7"/>
	<path class="st3" d="M202.4,709.4c-1-1.1-2.6-1.8-3.9-2.5c-1.5-0.8-3.1-1.6-4.6-2.3c-0.6-0.3-1.2,0.6-0.5,0.9
		c1.6,0.9,3.2,1.8,4.8,2.7c1.3,0.7,2.6,1.6,4.1,1.8C202.5,710,202.6,709.6,202.4,709.4"/>
	<path class="st3" d="M216.2,715.5c-1.5-0.9-3.3-1.3-4.9-1.9c-2.1-0.7-4.1-1.5-6.2-2.4c-0.5-0.2-0.9,0.5-0.4,0.7
		c3.3,1.7,7.5,4.1,11.3,4.2C216.3,716.1,216.4,715.6,216.2,715.5"/>
	<path class="st3" d="M231.9,718.6c-1.3,0-2.6-0.1-3.8-0.7c-0.4-0.2-0.7,0.4-0.3,0.6c1.3,0.6,2.8,1,4.2,0.5
		C232.2,719,232.1,718.6,231.9,718.6"/>
	<path class="st3" d="M250,725.9c-2.6-2.2-6.2-2.3-9.5-2.1c-0.4,0-0.4,0.6,0,0.6c3.2,0.2,6,1.5,9.1,2.1
		C249.9,726.6,250.3,726.2,250,725.9"/>
	<path class="st3" d="M272.2,731.3c-2.7-1.1-5.7-1.7-8.5-2.1c-0.3,0-0.4,0.3-0.1,0.4c2.7,1.1,5.7,2,8.6,2.4
		C272.6,732.1,272.6,731.4,272.2,731.3"/>
	<path class="st3" d="M296.6,732.4c-3.9-0.4-8-0.2-11.9-0.4c-0.3,0-0.3,0.4-0.1,0.5c3.9,1,8.1,1.6,12.1,0.5
		C297,732.9,296.9,732.4,296.6,732.4"/>
	<path class="st3" d="M313,732.3c-2.9,0.1-5.6,0.6-8.6,0.4c-0.3,0-0.3,0.4-0.1,0.5c2.8,0.8,6.1,1,8.7-0.4
		C313.4,732.6,313.3,732.3,313,732.3"/>
	<path class="st3" d="M330.3,732.3c-3.4-0.5-7.2,0.3-10.6,0.8c-0.4,0.1-0.4,0.7,0,0.7c3.4-0.1,7.3,0.1,10.6-0.9
		C330.5,732.8,330.6,732.4,330.3,732.3"/>
	<path class="st3" d="M351.4,730.2c-3.6-0.3-7.7,0.9-11.3,1.6c-0.4,0.1-0.3,0.7,0.1,0.7c3.6-0.4,7.9-0.5,11.2-1.8
		C351.7,730.7,351.7,730.3,351.4,730.2"/>
	<path class="st3" d="M371.9,728.5c-2.1-0.5-4.7,0.2-6.7,0.8c-0.4,0.1-0.2,0.7,0.2,0.6c1.2-0.3,2.4-0.4,3.6-0.6c1-0.1,2,0,2.9-0.3
		C372.2,728.9,372.2,728.5,371.9,728.5"/>
	<path class="st3" d="M392.5,729.7c-3.2-1.6-7.2-1.9-10.7-1.9c-0.6,0-0.6,0.8,0,0.9c3.7,0.1,7,1.1,10.6,1.5
		C392.6,730.2,392.7,729.8,392.5,729.7"/>
	<path class="st3" d="M410.2,730.5c-3.3-0.9-7.3-0.2-10.6-0.1c-0.4,0-0.4,0.7,0,0.7c3.3,0.1,7.4,0.8,10.6-0.1
		C410.5,731,410.5,730.5,410.2,730.5"/>
	<path class="st3" d="M430.7,731.2c-3.7-0.9-8.2-0.2-11.9-0.1c-0.4,0-0.4,0.6,0,0.6c3.8,0.1,8.3,0.8,11.9-0.1
		C430.9,731.6,430.9,731.3,430.7,731.2"/>
	<path class="st3" d="M452.5,729.9c-3.9-0.7-8.2,0-12,0.7c-0.4,0.1-0.2,0.7,0.2,0.6c3.9-0.6,7.9-0.4,11.8-0.9
		C452.6,730.3,452.7,729.9,452.5,729.9"/>
	<path class="st3" d="M478.7,732.4c-3.9,0.8-7.7,1.3-11.7,0.7c-0.7-0.1-1,1-0.3,1.1c4.1,0.6,8.3,0.5,12.2-1.2
		C479.3,732.8,479,732.3,478.7,732.4"/>
	<path class="st3" d="M494.1,733c-2.8-0.9-6.4-0.4-9.4-0.1c-0.7,0.1-0.7,1,0,1.1c2.9,0.2,6.5,0.8,9.4-0.1
		C494.5,733.7,494.5,733.1,494.1,733"/>
	<path class="st3" d="M507.3,732.5c-2.8-0.7-5.9-0.6-8.7,0c-0.3,0.1-0.3,0.6,0,0.6c2.8,0.5,6,0.6,8.7,0
		C507.6,733,507.6,732.5,507.3,732.5"/>
	<path class="st3" d="M525.1,732.5c-3-0.8-6.3-0.3-9.3,0c-0.4,0-0.4,0.6,0,0.6c3,0.3,6.3,0.8,9.3,0
		C525.4,732.9,525.4,732.5,525.1,732.5"/>
	<path class="st3" d="M542.2,732.4c-1.8,0-3.6,0.5-5.4,0.7c-0.5,0.1-0.3,0.7,0.2,0.7c1.7-0.2,3.6-0.3,5.3-0.8
		C542.6,732.9,542.6,732.4,542.2,732.4"/>
	<path class="st3" d="M562.7,732.6c-1.3-0.1-2.6-0.1-4-0.1c-0.3,0-0.3,0.4,0,0.4c1.3,0,2.6,0,4-0.1
		C562.8,732.8,562.8,732.6,562.7,732.6"/>
	<path class="st3" d="M176.6,321.4c0-1.3,0-2.7,0-4c0-0.4-0.7-0.7-0.9-0.2c-0.3,0.7-0.7,1.1-0.8,1.9c-0.2,0.7-0.2,1.4-0.3,2.2
		c0,1.1-0.2,2.7,0.8,3.4c0.2,0.1,0.5,0.1,0.7-0.1C177,323.6,176.6,322.5,176.6,321.4"/>
	<path class="st3" d="M177.4,333.6c-0.1-1.4-0.2-2.9-0.2-4.3c0-0.8-1.3-1.1-1.5-0.2c-0.3,1.6-0.4,3.1-0.2,4.8
		c0.1,1.3,0.2,2.8,1.3,3.7c0.3,0.2,0.7,0.1,0.8-0.2C178,336.2,177.6,334.8,177.4,333.6"/>
	<path class="st3" d="M179.4,345.4c0-1.3-0.1-2.5-0.3-3.8c-0.1-0.7-1.4-0.7-1.5,0c-0.2,1.3-0.3,2.5-0.3,3.8c0,1.1-0.1,2.4,0.5,3.3
		c0.2,0.3,0.6,0.3,0.9,0C179.5,347.8,179.4,346.5,179.4,345.4"/>
	<path class="st3" d="M181.4,355.8c-0.4-1.2-0.6-2.4-0.8-3.6c-0.2-1.1-1.7-0.7-1.8,0.2c-0.2,2.3,0.2,6.1,2.7,7.1
		c0.3,0.1,0.6-0.2,0.7-0.5C182.3,357.9,181.7,356.9,181.4,355.8"/>
	<path class="st3" d="M184.9,369.5c-0.4-1.2-0.8-2.4-1.3-3.5c-0.2-0.5-1-0.2-1,0.3c0,2.3,0.9,5.7,2.9,7c0.2,0.2,0.6,0,0.6-0.3
		C185.9,371.7,185.3,370.7,184.9,369.5"/>
	<path class="st3" d="M187.6,377.6c-0.5-0.6-1.4,0.1-1.2,0.7c0.5,1.9,1.2,4.5,3.1,5.5c0.2,0.1,0.7,0,0.7-0.3
		C190.5,381.4,188.8,379.3,187.6,377.6"/>
	<path class="st3" d="M195.3,394.4c-0.8-1.4-1.6-2.7-2.5-4c-0.3-0.5-1.3-0.2-1,0.4c0.6,1.4,1.2,2.8,1.9,4.2c0.6,1.2,1.1,2.7,2.3,3.4
		c0.3,0.2,0.7-0.1,0.7-0.4C196.8,396.7,195.9,395.5,195.3,394.4"/>
	<path class="st3" d="M202.7,406.1c-1.1-1.1-2.5-1.9-3.6-3c-0.4-0.4-0.9,0.2-0.5,0.6c1,1.2,1.6,2.7,2.7,3.9c0.8,0.9,1.7,2.1,2.9,2.1
		c0.2,0,0.4-0.2,0.4-0.4C204.7,407.9,203.5,406.9,202.7,406.1"/>
	<path class="st3" d="M213.1,419c-0.2-0.5-0.4-1-0.7-1.5c-0.4-0.5-1-1-1.5-1.4c-0.9-0.8-1.9-1.5-3-2.2c-0.7-0.5-1.3,0.5-0.9,1.1
		c0.8,1,1.7,2,2.6,2.9c0.4,0.4,0.8,0.8,1.3,1.1c0.5,0.3,1.1,0.5,1.6,0.7C213,419.8,213.2,419.3,213.1,419"/>
	<path class="st3" d="M219.8,423.5c-1.3-0.9-2.7-1.2-4.2-1.6c-0.6-0.2-0.9,0.7-0.4,0.9c1.2,0.7,2.3,1.7,3.5,2.5
		c1.1,0.7,1.9,1.6,3.2,1.7c0.3,0,0.5-0.3,0.5-0.6C222.1,424.9,220.9,424.2,219.8,423.5"/>
	<path class="st3" d="M232.9,432.1c-1.9-2-5.8-1.8-8.3-2c-0.4,0-0.5,0.6-0.2,0.7c2.4,1.1,5.6,3.1,8.3,2.2
		C233.1,433,233.2,432.5,232.9,432.1"/>
	<path class="st3" d="M245.3,437.3c-1.2-0.7-2.7-0.7-4.1-0.7c-0.7,0-1.5-0.1-2.2,0.1c-0.5,0.1-0.7,0.5-1.2,0.6
		c-0.4,0.1-0.4,0.7,0,0.7c0.5,0.1,0.7,0.4,1.1,0.5c0.7,0.2,1.6,0.1,2.4,0.1c1.4,0,2.9,0,4.1-0.7
		C245.5,437.8,245.5,437.4,245.3,437.3"/>
	<path class="st3" d="M259.9,442.2c-2.7-2.3-7.4-2.7-10.8-2.7c-0.7,0-0.8,1-0.2,1.2c1.9,0.7,3.9,1.1,5.9,1.6
		c1.7,0.4,3.1,0.9,4.8,0.6C260,442.9,260.1,442.4,259.9,442.2"/>
	<path class="st3" d="M273.1,447.8c-2.5-2.7-7.3-3.2-10.7-4.1c-0.6-0.2-1,0.8-0.4,1c3.2,1.5,7.3,4.2,10.9,3.7
		C273.2,448.4,273.4,448.1,273.1,447.8"/>
	<path class="st3" d="M283.7,453.2c-1.6-3.1-5.8-4-8.9-4.5c-0.1,0-0.2,0.2-0.1,0.2c1.5,0.8,2.9,1.9,4.4,2.7c1.4,0.8,2.6,1.8,4.2,2.1
		C283.6,453.9,283.9,453.6,283.7,453.2"/>
	<path class="st3" d="M298.1,457c-1.4-0.9-3.1-0.9-4.7-1.3c-1.8-0.4-3.6-0.8-5.3-1.4c-0.4-0.1-0.7,0.5-0.3,0.7
		c1.7,0.9,3.3,1.8,5.2,2.3c1.6,0.4,3.4,1,5,0.4C298.4,457.7,298.5,457.2,298.1,457"/>
	<path class="st3" d="M306,460c-0.6-0.8-1.7-0.9-2.6-1.1c-1.1-0.3-2.3-0.5-3.4-0.8c-0.5-0.1-0.8,0.7-0.2,0.8
		c1.1,0.4,2.2,0.8,3.3,1.2c0.9,0.3,1.9,0.8,2.8,0.5C306.2,460.6,306.2,460.3,306,460"/>
	<path class="st3" d="M323.1,458.3c-3.5-0.6-7.2,0.4-10.6,0.7c-0.5,0-0.7,0.9-0.1,1c3.5,0.5,7.7,0.9,10.9-0.9
		C323.4,458.8,323.4,458.3,323.1,458.3"/>
	<path class="st3" d="M337.8,458.9c-1.4-0.8-3.3-0.6-4.9-0.5c-1.8,0.1-3.6,0.5-5.4,0.9c-0.2,0-0.2,0.3,0,0.3
		c1.8,0.4,3.6,0.8,5.4,0.9c1.6,0.1,3.4,0.3,4.9-0.5C338.2,459.7,338.2,459.1,337.8,458.9"/>
	<path class="st3" d="M372.2,463.7c-1.1-1.1-2.6-1.2-4.1-1.4c-2-0.3-4-0.3-6.1-0.3c-0.9,0-0.9,1.3,0,1.3c2,0.1,3.9,0.3,5.8,0.6
		c1.4,0.3,2.8,0.8,4.2,0.4C372.3,464.3,372.4,463.9,372.2,463.7"/>
	<path class="st3" d="M387.3,467.8c-1.3-1.2-3.3-1.4-5-1.7c-2-0.4-3.9-0.5-5.9-0.7c-0.2,0-0.2,0.3,0,0.3c2,0.8,3.8,1.6,5.9,2.2
		c1.6,0.4,3.2,1.1,4.8,0.6C387.4,468.5,387.5,468.1,387.3,467.8"/>
	<path class="st3" d="M403.3,474.4c-2.4-3.7-8.4-3.8-12.3-3.9c-0.5,0-0.6,0.8-0.1,0.8c2.2,0.4,4.3,1.2,6.4,2
		c1.8,0.6,3.7,1.8,5.6,1.8C403.2,475,403.4,474.7,403.3,474.4"/>
	<path class="st3" d="M418.4,481.1c-2.4-3.7-7.6-4.4-11.6-4.8c-0.4,0-0.5,0.6-0.1,0.7c3.7,1.4,7.2,4.2,11.1,4.9
		C418.2,482,418.7,481.5,418.4,481.1"/>
	<path class="st3" d="M433.2,488.1c-0.8-1.7-3.2-2.5-4.8-3.3c-2-1-4-1.6-6.1-2.3c-0.6-0.2-0.8,0.6-0.4,0.9c1.9,1.5,3.7,2.8,5.9,4
		c1.5,0.8,3.2,2.1,5,1.7C433.2,489,433.3,488.4,433.2,488.1"/>
	<path class="st3" d="M537.1,502.4c-1.1-0.7-2.1,1.3-2.5,2c-0.8,1.4-1.5,2.9-2.2,4.4c-0.2,0.6,0.7,1.1,1.1,0.6c1.1-1.2,2.1-2.6,3-4
		C536.9,504.8,538.2,503.1,537.1,502.4"/>
	<path class="st3" d="M545.3,495.1c-1.3,0.1-2.2,1.3-3,2.1c-1.1,1-2.1,2-2.9,3.2c-0.3,0.4,0.2,0.8,0.6,0.6c1.2-0.7,2.3-1.6,3.3-2.5
		c0.9-0.8,2.3-1.6,2.5-2.8C545.8,495.4,545.7,495.1,545.3,495.1"/>
	<path class="st3" d="M554.9,487.8c-1-0.6-2.5,0.6-3.3,1.2c-1.1,0.9-2,1.9-2.6,3.1c-0.3,0.6,0.5,1.3,1,0.8c0.8-1,1.7-1.9,2.7-2.7
		c0.8-0.6,2.2-0.9,2.5-1.8C555.2,488.2,555.1,487.9,554.9,487.8"/>
	<path class="st3" d="M564.9,484.7c-1-0.6-2.4,0.2-3.3,0.7c-1.2,0.7-2,1.6-2.7,2.7c-0.3,0.6,0.4,1.2,0.9,0.7c0.9-0.7,1.8-1.5,2.8-2
		c0.8-0.5,2-0.7,2.4-1.5C565.2,485.1,565.1,484.9,564.9,484.7"/>
	<path class="st3" d="M579.4,479.4c-1.6-0.8-3.9,0-5.4,0.7c-2.2,1-3.4,2.5-4.8,4.3c-0.2,0.2,0.1,0.5,0.3,0.3c1.4-1.3,3.4-2.3,5.2-3
		c1.5-0.6,3.4-0.6,4.8-1.5C579.7,480,579.8,479.5,579.4,479.4"/>
	<path class="st3" d="M593.9,476.2c-1.2-0.7-2.8-0.5-4.2-0.3c-1.7,0.2-3.3,0.8-4.9,1.5c-0.5,0.3-0.2,1.1,0.4,0.9
		c1.6-0.4,3.2-0.7,4.8-0.9c1.3-0.2,2.7,0,3.8-0.6C594.2,476.8,594.2,476.3,593.9,476.2"/>
	<path class="st3" d="M609,473c-1.6-0.6-3.6,0.1-5.2,0.4c-1.9,0.4-3.9,0.8-5.6,1.6c-0.3,0.2-0.1,0.6,0.2,0.6c2,0.2,4-0.2,5.9-0.5
		c1.7-0.3,3.7-0.3,5-1.4C609.5,473.5,609.3,473.1,609,473"/>
	<path class="st3" d="M620.8,470.8c-1.1-0.5-2.3,0-3.4,0.2c-1.5,0.3-3,0.6-4.6,0.7c-0.3,0-0.5,0.6-0.1,0.6c1.5,0.2,3.1,0.5,4.6,0.4
		c1.3-0.1,2.8-0.2,3.6-1.2C621.2,471.2,621.1,470.9,620.8,470.8"/>
	<path class="st3" d="M636.5,464.1c-1.7-0.2-3.4,0.9-4.9,1.6c-1.9,0.8-3.9,1.8-5.7,2.9c-0.4,0.2-0.1,0.8,0.3,0.7
		c2.1-0.5,4.1-1.2,6.1-2c1.5-0.6,3.5-1,4.6-2.4C637.1,464.5,637,464.1,636.5,464.1"/>
	<path class="st3" d="M650.2,460.5c-2.7,0.4-5.3,1.5-7.8,2.5c-0.4,0.2-0.2,0.7,0.2,0.6c2.6-0.4,5.5-0.8,8-1.9
		C651.4,461.4,651.1,460.4,650.2,460.5"/>
	<path class="st3" d="M666.4,455.4c-3.1,0.4-6.1,2.2-8.9,3.4c-0.5,0.2-0.1,1,0.4,0.9c2.9-0.8,6.4-1.2,9-2.8
		C667.4,456.5,667.2,455.3,666.4,455.4"/>
	<path class="st3" d="M681.9,449.9c-3,0.7-5.9,2.2-8.6,3.7c-0.4,0.2-0.1,0.9,0.3,0.8c3-0.7,6.2-1.4,8.9-2.9
		C683.4,451,682.8,449.7,681.9,449.9"/>
	<path class="st3" d="M694.6,444.9c-2.2,0.7-4.3,2.1-6.1,3.4c-0.4,0.3-0.2,1,0.3,0.8c2.2-0.6,4.6-1.3,6.4-2.6
		C696,445.9,695.6,444.6,694.6,444.9"/>
	<path class="st3" d="M705.7,439.5c-1,0.4-1.8,1.4-2.8,2c-1,0.7-2,1.3-3.1,1.8c-0.6,0.3-0.1,1,0.4,0.9c1.3-0.2,2.6-0.6,3.8-1.3
		c1-0.6,2.2-1.4,2.6-2.5C706.7,439.9,706.2,439.3,705.7,439.5"/>
	<path class="st3" d="M717.3,433.3c-1.2,0-2,1.1-2.8,1.8c-1.1,0.9-2.3,1.9-3.5,2.7c-0.4,0.3-0.2,1,0.3,0.8c1.4-0.5,2.8-1.1,4.1-2
		c1-0.7,2.4-1.6,2.3-2.9C717.7,433.5,717.5,433.3,717.3,433.3"/>
	<path class="st3" d="M728.7,426.4c-1,0.7-1.8,1.6-2.8,2.3c-1,0.7-2,1.3-3.1,1.8c-0.4,0.2-0.2,0.9,0.2,0.8c2.5-0.3,5.6-1.4,6.8-3.8
		C730.3,426.9,729.5,425.9,728.7,426.4"/>
	<path class="st3" d="M741.5,416.2c-1.4,0.4-2.3,1.8-3.3,2.8c-1.2,1.3-2.3,2.6-3.4,3.9c-0.3,0.4,0.2,0.9,0.6,0.6
		c1.3-1.2,2.6-2.3,3.8-3.6c1-1,2.3-2,2.7-3.4C742,416.3,741.7,416.1,741.5,416.2"/>
	<path class="st3" d="M753.2,404.8c-3.5,1.7-5.4,6-7.8,8.9c-0.3,0.3,0.1,0.7,0.4,0.4c2.7-2.7,6.8-5,8.2-8.7
		C754.2,405,753.6,404.7,753.2,404.8"/>
	<path class="st3" d="M763.8,393.3c-0.1-0.3-0.4-0.4-0.6-0.3c-1.3,0.6-1.9,2.3-2.8,3.4c-1,1.3-2.1,2.7-3.3,3.9
		c-0.4,0.4,0.1,1,0.6,0.7c1.7-0.9,3.1-2,4.2-3.5C762.8,396.4,764.1,394.8,763.8,393.3"/>
	<path class="st3" d="M772.4,379.4c-0.1-0.4-0.6-0.5-0.9-0.2c-1.2,1.2-1.7,3-2.4,4.6c-0.8,1.7-1.7,3.4-2.8,4.9
		c-0.2,0.3,0.3,0.7,0.5,0.4C769.4,386.8,773,383,772.4,379.4"/>
	<path class="st3" d="M778.3,366c-0.2-0.4-0.7-0.3-0.9,0c-0.7,1-0.8,2.2-1.1,3.3c-0.4,1.3-1.1,2.9-2,3.9c-0.3,0.4,0.2,0.9,0.6,0.6
		C776.7,372.1,779.9,368.8,778.3,366"/>
	<path class="st3" d="M783.1,350.4c-0.1-0.4-0.6-0.4-0.8-0.1c-1,1.5-1.2,3.6-1.7,5.3c-0.5,2-1.1,4-1.8,6c-0.1,0.4,0.4,0.6,0.6,0.2
		C781.2,358.8,784,354.1,783.1,350.4"/>
	<path class="st3" d="M784.9,337c-0.1-0.3-0.7-0.3-0.8,0c-0.5,1.1-0.4,2.4-0.5,3.6c-0.2,1.7-0.4,3.4-0.8,5.1
		c-0.1,0.4,0.5,0.6,0.6,0.3C784.6,343.5,786.1,339.7,784.9,337"/>
	<path class="st3" d="M786.2,331.7c-0.2-0.2-0.4-0.3-0.7-0.2c-1,0.5-0.7,2-0.9,2.9c-0.1,0.6,0.7,0.8,0.9,0.2
		C785.9,333.8,786.8,332.7,786.2,331.7"/>
	<path class="st3" d="M729.4,303.5c-0.3-1-1-1.9-1.5-2.8c-0.5-1.1-0.7-2.4-0.6-3.6c0.1-0.9-1.3-1-1.5-0.2c-0.7,2.5,0,7,3.3,7.2
		C729.3,304,729.5,303.7,729.4,303.5"/>
	<path class="st3" d="M737,314.1c-1.8-2.2-3.9-4.1-5.9-6c-0.4-0.3-0.9,0.1-0.7,0.5c1.5,2.7,3.2,4.9,5.7,6.7
		C736.8,315.8,737.5,314.7,737,314.1"/>
	<path class="st3" d="M747.6,319c-1.2-0.5-2.5-0.3-3.7-0.7c-1.4-0.4-2.7-1-3.9-2c-0.6-0.6-1.5,0.3-0.9,0.9c1.9,1.9,5.9,4.4,8.6,2.6
		C748.1,319.6,748,319.1,747.6,319"/>
	<path class="st3" d="M759,321.7c-0.8-0.6-1.8-0.4-2.7-0.3c-1.2,0-2.3,0.2-3.4,0.3c-0.5,0.1-0.5,0.8,0,0.8c1.1,0.1,2.3,0.3,3.4,0.3
		c0.9,0,2,0.2,2.7-0.3C759.3,322.3,759.3,321.9,759,321.7"/>
	<path class="st3" d="M772.2,325.1c-2.6-1.3-6-0.7-8.8-0.8c-0.3,0-0.4,0.5-0.1,0.6c2.7,0.5,6,1.8,8.8,1
		C772.4,325.8,772.5,325.3,772.2,325.1"/>
	<path class="st3" d="M783.6,327.1c-0.5-0.7-1.2-0.7-2-0.9c-0.9-0.3-1.9-0.5-2.8-0.8c-0.8-0.2-1.1,0.9-0.3,1.2l2.6,0.8
		c0.7,0.2,1.5,0.7,2.2,0.4C783.6,327.6,783.8,327.3,783.6,327.1"/>
	<path class="st3" d="M787.7,330.8l-0.4-2.3c-0.2-0.9-1.6-0.5-1.4,0.4c0.1,0.7,0.2,1.4,0.4,2.2c0.1,0.7,0.1,1.3,0.5,1.9
		c0.3,0.4,0.9,0.3,1-0.1C788,332.1,787.8,331.5,787.7,330.8"/>
	<path class="st3" d="M493.4,577.5c-1-0.9-2.8,0.3-2,1.5c7.7,11.2,6.7,32.5-10.6,34c-22.8,1.9-19.9-31.9-2.3-37.4
		c1.7-0.5,1-3.2-0.7-2.7c-19.9,5.4-24.4,38.9-1.8,44C497.5,621.7,507.5,590.9,493.4,577.5"/>
	<path class="st3" d="M472.4,566.8c-2.8,3-7,5-9.6,0.4c-2.6-4.5,0.7-9.2,4.8-11.3c1.3-0.7,0.4-3-1-2.4c-6.6,2.7-11,10.5-6.1,16.9
		c3.6,4.7,14.1,4.8,14.4-2.6C474.9,566.6,473.2,565.9,472.4,566.8"/>
	<path class="st3" d="M458.7,584.1c-4,0.7-8.1,1.6-11.3-1.7c-2.8-2.9-2.2-8.1,2-9.3c1.3-0.4,0.8-2.3-0.6-2.1
		c-5.4,0.9-7.8,7-5.3,11.7c3,5.7,10.9,7.2,16.2,3.8C461,585.7,460.2,583.9,458.7,584.1"/>
	<path class="st3" d="M456.4,603.2c-3.5-0.3-7.5,0.6-10.6-1.3c-2.4-1.5-4.1-5.3-1.7-7.6c1.1-1.1-0.5-2.7-1.7-1.7
		c-3.1,2.6-2.7,7.5-0.2,10.4c3.4,4,9.9,4.2,14.6,2.8C458.3,605.3,457.9,603.3,456.4,603.2"/>
	<path class="st3" d="M459.6,618.5c-1.4,0-2.7,0-3.5-1.2c-0.9-1.4-2.9-0.2-2.2,1.3c1.1,2.2,4.1,3.7,6.4,2.4
		C461.4,620.3,461,618.5,459.6,618.5"/>
	<path class="st3" d="M223,466.9c-6.7,18.4-12,37.3-14.9,56.7c0,0.1,0.2,0.2,0.2,0.1C212,504.3,216.6,485.4,223,466.9
		C223.1,466.8,223.1,466.8,223,466.9"/>
	<path class="st3" d="M231.3,467.1c-8,28-14.3,56.5-19.3,85.2c0,0.1,0.1,0.2,0.2,0c5.2-28.7,11.9-57,19.6-85.1
		C231.8,466.9,231.4,466.8,231.3,467.1"/>
	<path class="st3" d="M239.5,470.1c-8.3,24.9-14.4,50.6-17.4,76.7c0,0.2,0.3,0.2,0.3,0c4.1-26,9.7-51.4,17.4-76.6
		C239.8,470,239.5,469.9,239.5,470.1"/>
	<path class="st3" d="M243.5,481.6c-2.4,10.1-4.8,20.2-6.9,30.4c0,0.2,0.2,0.2,0.2,0.1c2.4-10.1,4.6-20.3,6.8-30.4
		C243.6,481.6,243.5,481.5,243.5,481.6"/>
	<path class="st3" d="M250.8,482.2c-1.8,6.9-3.5,13.9-4.6,20.9c-0.1,0.3,0.4,0.5,0.5,0.1c1.9-6.9,3.1-13.9,4.4-21
		C251.1,482.1,250.9,482,250.8,482.2"/>
	<path class="st3" d="M193.2,601.3c0-0.1-0.1-0.1-0.1,0c-2.8,21.6-2.4,43.5,2.8,64.6c0.1,0.3,0.5,0.2,0.4-0.1
		C192.4,644.2,190.9,623.1,193.2,601.3"/>
	<path class="st3" d="M202.7,612.9c0-0.1-0.2-0.1-0.2,0c-2.5,26.1-0.4,52.8,8,77.8c0.1,0.2,0.4,0.1,0.3-0.1
		C204.1,664.9,200.8,639.4,202.7,612.9"/>
	<path class="st3" d="M212.6,619.5c0-0.1-0.2-0.1-0.2,0c-0.2,24.2,3,48.1,10.1,71.2c0.1,0.2,0.4,0.1,0.4-0.1
		C216.6,667.3,213,643.7,212.6,619.5"/>
	<path class="st3" d="M226.5,622.8c0-0.1-0.1-0.1-0.1,0c-0.6,26.2,3,52.6,12.3,77.3c0.1,0.2,0.3,0.1,0.3-0.1
		C231.2,674.7,226.5,649.3,226.5,622.8"/>
	<path class="st3" d="M242.2,705.5c-2.8,0-2.8,4.4,0,4.4C245,709.9,245,705.5,242.2,705.5"/>
	<path class="st3" d="M238.3,646.5c0-0.1-0.1-0.1-0.1,0c1.9,16.9,5.6,33.4,12,49.1c0.1,0.3,0.6,0.2,0.5-0.1
		C245.1,679.5,240.7,663.3,238.3,646.5"/>
	<path class="st3" d="M254.6,664.2C254.6,664.1,254.5,664.1,254.6,664.2c0.7,10.9,3,21.7,7.8,31.5c0.1,0.2,0.5,0.1,0.4-0.2
		C259.1,685.2,256,675.1,254.6,664.2"/>
	<path class="st3" d="M272.5,679.6c-0.1-0.2-0.4-0.1-0.3,0.1c2,7.2,4,14.5,6.6,21.5c0.1,0.3,0.6,0.2,0.5-0.1
		C277.3,693.8,274.9,686.7,272.5,679.6"/>
	<path class="st3" d="M383,492.1c-4,17.9-6.4,36.2-5.7,54.6c0,0.4,0.5,0.4,0.5,0c0.6-18.4,1.9-36.5,5.3-54.6
		C383.2,492,383,492,383,492.1"/>
	<path class="st3" d="M417.4,501.5c-1.5,3.6-2.6,7.3-3.8,11.1c0,0.2,0.2,0.2,0.2,0.1C415.1,508.9,416.4,505.3,417.4,501.5
		C417.4,501.5,417.4,501.5,417.4,501.5"/>
	<path class="st3" d="M294.3,696.1c-0.1-0.3-0.5-0.2-0.4,0.1c1.3,5.8,2.9,11.7,5.5,17.1c0.1,0.2,0.5,0.1,0.4-0.2
		C297.7,707.5,295.7,701.9,294.3,696.1"/>
	<path class="st3" d="M301.9,688.9c-0.1-0.2-0.3-0.1-0.3,0.1c2.8,8.9,5.4,17.8,8.7,26.5c0.1,0.2,0.4,0.1,0.3-0.1
		C308.1,706.5,304.9,697.7,301.9,688.9"/>
	<path class="st3" d="M312.1,685.1c0-0.1-0.2,0-0.1,0c2.6,11.1,5.9,22.3,11,32.6c0.1,0.2,0.4,0.1,0.3-0.1
		C319.3,706.8,315.2,696.2,312.1,685.1"/>
	<path class="st3" d="M335.6,715c-6.2-13.2-10.5-26.3-11.7-41c0-0.2-0.2-0.2-0.2,0c0.8,14.4,4.3,28.7,11.7,41.1
		C335.4,715.4,335.7,715.2,335.6,715"/>
	<path class="st3" d="M337.3,656.5c0-0.2-0.3-0.2-0.3,0c1.5,21.6,6,43.5,15.5,63c0.1,0.1,0.3,0,0.3-0.1
		C345.3,698.6,339.5,678.5,337.3,656.5"/>
	<path class="st3" d="M355.6,635.5c0-0.2-0.2-0.2-0.2,0c0.2,27.2,4,56.5,15.8,81.3c0.1,0.3,0.6,0.1,0.5-0.2
		C363.6,689.6,356.6,663.9,355.6,635.5"/>
	<path class="st3" d="M373.7,596.9c0-0.3-0.4-0.3-0.4,0c-0.6,38,4.7,76.8,17.9,112.6c0,0.1,0.2,0.1,0.2-0.1
		C380.3,672.6,373.5,635.5,373.7,596.9"/>
	<path class="st3" d="M395.2,590.8c0-0.2-0.2-0.2-0.2,0c1.5,42,9.4,86.1,27.3,124.5c0.1,0.2,0.4,0.1,0.3-0.1
		C408.4,674.2,397.7,634.4,395.2,590.8"/>
	<path class="st3" d="M410.1,617.3c0-0.1-0.2-0.1-0.2,0c1.9,30.6,8.1,60.9,19.5,89.4c0.1,0.2,0.4,0.1,0.3-0.1
		C419.6,677.5,412.6,648,410.1,617.3"/>
	<path class="st3" d="M427.1,644.2c-0.1-0.3-0.4-0.2-0.4,0.1c4.3,22.2,9.6,44.6,18.2,65.6c0.1,0.3,0.6,0.2,0.5-0.1
		C438.9,688,431.9,666.5,427.1,644.2"/>
	<path class="st3" d="M441.9,651.4c-0.1-0.3-0.5-0.2-0.5,0.1c5.1,22.5,11.4,45,20.7,66.1c0.1,0.2,0.4,0.1,0.3-0.1
		C454.9,695.6,447.4,673.9,441.9,651.4"/>
	<path class="st3" d="M455.7,661.4c0-0.2-0.3-0.1-0.3,0.1c4,18.8,9.1,37.5,16.6,55.1c0.1,0.2,0.5,0.1,0.4-0.2
		C466.2,698.2,460.2,680.1,455.7,661.4"/>
	<path class="st3" d="M469.1,665.3c0-0.1-0.1-0.1-0.1,0c2,13.5,5.7,26.7,11.4,39.1c0.1,0.2,0.4,0.1,0.3-0.1
		C475.6,691.6,471.6,678.7,469.1,665.3"/>
	<path class="st3" d="M491.7,704.2c-5.2-12.1-9.3-24.2-11-37.3c0-0.1-0.2-0.1-0.2,0c1.3,13,4.5,25.9,10.8,37.5
		C491.4,704.7,491.8,704.5,491.7,704.2"/>
	<path class="st3" d="M495.1,671.2c0-0.2-0.3-0.1-0.3,0.1c2.9,12.7,5.7,25.5,9,38.1c0,0.2,0.3,0.1,0.3-0.1
		C501.4,696.6,498.2,683.9,495.1,671.2"/>
	<path class="st3" d="M510.4,667.4c0-0.2-0.3-0.1-0.3,0.1c2.6,11.8,5.1,23.6,8,35.4c0,0.2,0.3,0.1,0.3-0.1
		C516,690.9,513.1,679.1,510.4,667.4"/>
	<path class="st3" d="M528.6,655.3c0-0.2-0.3-0.1-0.3,0c2.4,19.6,6.5,38.7,13.1,57.3c0.1,0.2,0.3,0.1,0.3-0.1
		C536,693.8,531.4,674.8,528.6,655.3"/>
	<path class="st3" d="M545,660.8c0-0.1-0.2-0.1-0.2,0c2.1,15.8,5.4,31.2,10.2,46.4c0,0.1,0.2,0,0.1,0
		C550.6,692,547.1,676.6,545,660.8"/>
	<path class="st3" d="M556.8,630c0-0.3-0.4-0.3-0.4,0c2.2,27.5,6.3,55.3,14.2,81.7c0.1,0.3,0.5,0.2,0.4-0.1
		C565.1,684.5,559.6,657.7,556.8,630"/>
	<path class="st3" d="M574,599.1C574,599.1,573.9,599.1,574,599.1c-0.7,37.3,3.1,74.8,12.9,110.9c0.1,0.2,0.4,0.1,0.4-0.1
		C579.3,673.3,574.3,636.6,574,599.1"/>
	<path class="st3" d="M592,614.6c0-0.1-0.2-0.1-0.2,0c1.5,32.2,6.2,64.9,16.6,95.5c0.1,0.2,0.4,0.1,0.3-0.1
		C600.6,678.4,594.2,647.2,592,614.6"/>
	<path class="st3" d="M612.8,632.2c0-0.1-0.2-0.1-0.2,0c1.7,28.8,6.4,57.3,14.5,85c0.1,0.2,0.3,0.1,0.3-0.1
		C620,689.2,615,661,612.8,632.2"/>
	<path class="st3" d="M624.2,653.1c0-0.1-0.2-0.1-0.2,0c0.8,18.2,3.2,36.4,7.6,54.1c0.1,0.2,0.4,0.1,0.3-0.1
		C628.3,689.2,625.6,671.4,624.2,653.1"/>
	<path class="st3" d="M634.5,664.1c0-0.3-0.5-0.2-0.4,0.1c2.3,15.4,4.2,31,7,46.3c0,0.2,0.4,0.1,0.3,0
		C639.6,695,636.8,679.5,634.5,664.1"/>
	<path class="st3" d="M566.3,509.4c-3.4-0.4-1.7,25.2-1.4,28.5c0.1,0.5,0.7,0.5,0.8,0c0.2-2.4-0.6-27.6,0.6-27.7
		C566.8,510.2,566.8,509.5,566.3,509.4"/>
	<path class="st3" d="M575.5,506.5c-0.8,9-1.2,18-0.5,27c0,0.3,0.4,0.3,0.4,0c0.2-9,0.1-18,0.5-27
		C575.9,506.2,575.5,506.2,575.5,506.5"/>
	<path class="st3" d="M588.2,498.7c-1,9.1-1.6,18.5-0.5,27.6c0,0.3,0.5,0.4,0.6,0c0.1-9.2-0.1-18.4,0.4-27.6
		C588.6,498.4,588.2,498.4,588.2,498.7"/>
	<path class="st3" d="M608.6,493.2c-1.3,11-2.2,22-1.7,33.1c0,0.2,0.3,0.2,0.3,0C607.5,515.3,607.7,504.3,608.6,493.2
		C608.7,493.2,608.7,493.2,608.6,493.2"/>
	<path class="st3" d="M641,485.5c-0.8,2.9-1.7,5.8-2.3,8.8c-0.1,0.3,0.4,0.4,0.5,0.1c0.9-2.9,1.5-5.9,2.2-8.8
		C641.5,485.3,641.1,485.2,641,485.5"/>
	<path class="st3" d="M654.9,675.7c0-0.3-0.5-0.3-0.5,0c-0.3,11.6,0.8,23.2,4.5,34.2c0.1,0.2,0.4,0.1,0.4-0.1
		C656.9,698.5,655,687.3,654.9,675.7"/>
	<path class="st3" d="M665,681.8c0-0.2-0.3-0.2-0.3,0c0.6,8.2,0.9,16.7,2.5,24.8c0,0.2,0.4,0.2,0.4,0C667.5,698.3,666,690,665,681.8
		"/>
	<path class="st3" d="M673.9,690.1c0-0.2-0.4-0.2-0.4,0c0.4,4.6,0.6,9.3,1.3,13.8c0,0.2,0.3,0.1,0.3,0
		C675,699.2,674.3,694.6,673.9,690.1"/>
	<path class="st3" d="M684.8,685.7c0-0.2-0.3-0.2-0.3,0c0.4,5.5,0.8,11,1.4,16.5c0,0.1,0.2,0.1,0.2,0
		C685.9,696.7,685.3,691.2,684.8,685.7"/>
	<path class="st3" d="M698,679.6c0-0.1-0.2-0.1-0.2,0c0.3,7.5,0.6,15.1,1,22.6c0,0.1,0.1,0.1,0.1,0
		C698.8,694.7,698.4,687.1,698,679.6"/>
	<path class="st3" d="M713.7,671.3c0-0.1-0.2-0.1-0.2,0c0.5,11.4,0.2,22.8,0.4,34.2c0,0.1,0.2,0.1,0.2,0
		C714.9,694.1,714.4,682.7,713.7,671.3"/>
	<path class="st3" d="M726.3,666.4c0-0.2-0.3-0.2-0.3,0c0.2,12-0.2,23.9-0.4,35.8c0,0.2,0.3,0.2,0.3,0
		C726.8,690.3,726.6,678.3,726.3,666.4"/>
	<path class="st3" d="M746.6,593c0-0.2-0.3-0.2-0.3,0c2.5,36.6-0.2,72.3-4.8,108.6c0,0.2,0.4,0.3,0.4,0.1
		C749.3,666.2,749.7,629,746.6,593"/>
	<path class="st3" d="M761.6,598c0-0.1-0.2-0.1-0.2,0c1.6,28.1,0.5,55.8-2.5,83.8c0,0.2,0.3,0.2,0.3,0
		C763.5,654.1,764,625.9,761.6,598"/>
	<path class="st3" d="M775.9,638.3c-0.6,8.3-1.3,16.5-1.7,24.8c0,0.2,0.2,0.2,0.2,0c0.7-8.3,1.1-16.5,1.6-24.8
		C776.1,638.1,775.9,638.1,775.9,638.3"/>
	<path class="st3" d="M786.6,549.3c0-0.1-0.2,0-0.1,0.1c15.6,33.8,24.6,68.7,30.2,105.4c0,0.2,0.3,0.1,0.3,0
		C814.2,618.2,802.8,582.1,786.6,549.3"/>
	<path class="st3" d="M822.1,598c0-0.1-0.2-0.1-0.2,0.1c10.9,39.3,20.6,77.1,9,117.5c-0.1,0.3,0.3,0.4,0.4,0.1
		C846,677.6,834.2,634.9,822.1,598"/>
	<path class="st3" d="M642.4,509.2c-1,10.8-1.9,21.7-2.3,32.5c0,0.2,0.4,0.2,0.4,0c1.1-10.8,1.6-21.7,2-32.5
		C642.5,509.2,642.4,509.2,642.4,509.2"/>
	<path class="st3" d="M554.4,526.9c0-0.2-0.3-0.2-0.3,0c-0.3,6.6-0.2,13.2,0.6,19.8c0,0.1,0.2,0.2,0.2,0
		C554.5,540.1,554.2,533.5,554.4,526.9"/>
	<path class="st3" d="M547.9,530.7c0-0.1-0.2-0.1-0.2,0c-0.6,5.8-1,11.8-0.4,17.7c0,0.3,0.5,0.3,0.5,0
		C548.2,542.5,547.9,536.6,547.9,530.7"/>
</g>
</svg>
