<?xml version="1.0" encoding="utf-8"?>
<!-- Generator: Adobe Illustrator 20.1.0, SVG Export Plug-In . SVG Version: 6.00 Build 0)  -->
<svg version="1.1" id="Layer_1" xmlns="http://www.w3.org/2000/svg" xmlns:xlink="http://www.w3.org/1999/xlink" x="0px" y="0px"
	 viewBox="0 0 1000 1000" style="enable-background:new 0 0 1000 1000;" xml:space="preserve">
<style type="text/css">
	.st0{fill:#767676;}
	.st1{fill:#0C0C0C;}
	.st2{fill:#0E0C0D;}
	.st3{fill:#0E0C0C;}
	.st4{fill:#0F0C0D;}
	.st5{fill:#FCFCFC;}
	.st6{fill:#0F0D0F;}
	.st7{fill:#161111;}
	.st8{fill:#0D0D0D;}
	.st9{fill:#120E10;}
	.st10{fill:#111010;}
	.st11{fill:#121111;}
	.st12{fill:#111011;}
	.st13{fill:#100E10;}
	.st14{fill:#131011;}
	.st15{fill:#151212;}
	.st16{fill:#110D0F;}
	.st17{fill:#141112;}
	.st18{fill:#F8F8F8;}
	.st19{fill:#141111;}
	.st20{fill:#FAFAFA;}
	.st21{fill:#151213;}
	.st22{fill:#141213;}
	.st23{fill:#111112;}
	.st24{fill:#141011;}
	.st25{fill:#161414;}
	.st26{fill:#F9F9F9;}
	.st27{fill:#151314;}
	.st28{fill:#191617;}
	.st29{fill:#181414;}
	.st30{fill:#1A1717;}
	.st31{fill:#1B1919;}
	.st32{fill:#191414;}
	.st33{fill:#F5F5F5;}
	.st34{fill:#171213;}
	.st35{fill:#1B1416;}
	.st36{fill:#F6F6F6;}
	.st37{fill:#F0F0F0;}
	.st38{fill:#F3F3F3;}
	.st39{fill:#1D1A1A;}
	.st40{fill:#161314;}
	.st41{fill:#151313;}
	.st42{fill:#121112;}
	.st43{fill:#202020;}
	.st44{fill:#F4F4F4;}
	.st45{fill:#292929;}
	.st46{fill:#1C1416;}
	.st47{fill:#1C1A1A;}
	.st48{fill:#1B1818;}
	.st49{fill:#222222;}
	.st50{fill:#191416;}
	.st51{fill:#181416;}
	.st52{fill:#1F1F1F;}
	.st53{fill:#1E1818;}
	.st54{fill:#1F1A1A;}
	.st55{fill:#1D1616;}
	.st56{fill:#F2F2F2;}
	.st57{fill:#ECECEC;}
	.st58{fill:#232323;}
	.st59{fill:#EDEDED;}
	.st60{fill:#1E1E1E;}
	.st61{fill:#EFEFEF;}
	.st62{fill:#EBEBEB;}
	.st63{fill:#333333;}
	.st64{fill:#323232;}
	.st65{fill:#201717;}
	.st66{fill:#262626;}
	.st67{fill:#303030;}
	.st68{fill:#282828;}
	.st69{fill:#212121;}
	.st70{fill:#F1F1F1;}
	.st71{fill:#EEEEEE;}
	.st72{fill:#E8E8E8;}
	.st73{fill:#211819;}
	.st74{fill:#E7E7E7;}
	.st75{fill:#272727;}
	.st76{fill:#E5E5E5;}
	.st77{fill:#211919;}
	.st78{fill:#DADADA;}
	.st79{fill:#373737;}
	.st80{fill:#363636;}
	.st81{fill:#242424;}
	.st82{fill:#E1E1E1;}
	.st83{fill:#201818;}
	.st84{fill:#DCDCDC;}
	.st85{fill:#E9E9E9;}
	.st86{fill:#FBFBFB;}
	.st87{fill:#DEDEDE;}
	.st88{fill:#E4E4E4;}
	.st89{fill:#E2E2E2;}
	.st90{fill:#C7C7C7;}
	.st91{fill:#E3E3E3;}
	.st92{fill:#383838;}
	.st93{fill:#DDDDDD;}
	.st94{fill:#2C2C2C;}
	.st95{fill:#2D2D2D;}
	.st96{fill:#2E2E2E;}
	.st97{fill:#EAEAEA;}
	.st98{fill:#3F3F3F;}
	.st99{fill:#313131;}
	.st100{fill:#2A2A2A;}
	.st101{fill:#FFFFFF;}
	.st102{fill:#DBDBDB;}
	.st103{fill:#DFDFDF;}
	.st104{fill:#343434;}
	.st105{fill:#3C3C3C;}
	.st106{fill:#353535;}
	.st107{fill:#D7D7D7;}
	.st108{fill:#B8B8B8;}
	.st109{fill:#C5C5C5;}
	.st110{fill:#524A4A;}
	.st111{fill:#F7F7F7;}
	.st112{fill:#D4D4D4;}
	.st113{fill:#3B3B3B;}
	.st114{fill:#707070;}
	.st115{fill:#E0E0E0;}
	.st116{fill:#393939;}
	.st117{fill:#D8D8D8;}
	.st118{fill:#D6D6D6;}
	.st119{fill:#D9D9D9;}
	.st120{fill:#444444;}
	.st121{fill:#D5D5D5;}
	.st122{fill:#1D1717;}
	.st123{fill:#CFCFCF;}
	.st124{fill:#747474;}
	.st125{fill:#3E3E3E;}
	.st126{fill:#CCCCCC;}
	.st127{fill:#C9C9C9;}
	.st128{fill:#818181;}
	.st129{fill:#494949;}
	.st130{fill:#E6E6E6;}
	.st131{fill:#5B5B5B;}
	.st132{fill:#BABABA;}
	.st133{fill:#4F4F4F;}
	.st134{fill:#4A4A4A;}
	.st135{fill:#C6C6C6;}
	.st136{fill:#BDBDBD;}
	.st137{fill:#D3D3D3;}
	.st138{fill:#191111;}
	.st139{fill:#909090;}
	.st140{fill:#D0D0D0;}
	.st141{fill:#CDCDCD;}
	.st142{fill:#B7B7B7;}
	.st143{fill:#CBCBCB;}
	.st144{fill:#A4A4A4;}
	.st145{fill:#5C5C5C;}
	.st146{fill:#C8C8C8;}
	.st147{fill:#434343;}
	.st148{fill:#808080;}
	.st149{fill:#8E8E8E;}
	.st150{fill:#595959;}
	.st151{fill:#C4C4C4;}
	.st152{fill:#A2A2A2;}
	.st153{fill:#454545;}
	.st154{fill:#ABABAB;}
	.st155{fill:#5E5E5E;}
	.st156{fill:#626262;}
	.st157{fill:#423736;}
	.st158{fill:#C3C3C3;}
	.st159{fill:#686868;}
	.st160{fill:#B4B4B4;}
	.st161{fill:#A7A7A7;}
	.st162{fill:#787878;}
	.st163{fill:#5F5F5F;}
	.st164{fill:#414141;}
	.st165{fill:#B5B5B5;}
	.st166{fill:#565656;}
	.st167{fill:#BEBEBE;}
	.st168{fill:#B6B6B6;}
	.st169{fill:#AAAAAA;}
	.st170{fill:#7D7D7D;}
	.st171{fill:#4B4B4B;}
	.st172{fill:#C2C2C2;}
	.st173{fill:#2B2B2B;}
	.st174{fill:#8F8F8F;}
	.st175{fill:#525252;}
	.st176{fill:#D1D1D1;}
	.st177{fill:#535353;}
	.st178{fill:#ACACAC;}
	.st179{fill:#979797;}
	.st180{fill:#959595;}
	.st181{fill:#D2D2D2;}
	.st182{fill:#A6A6A6;}
	.st183{fill:#9B9B9B;}
	.st184{fill:#C0C0C0;}
	.st185{fill:#9F9F9F;}
	.st186{fill:#CACACA;}
	.st187{fill:#9E9E9E;}
	.st188{fill:#7B7B7B;}
	.st189{fill:#0B0A0A;}
	.st190{fill:#7A7A7A;}
	.st191{fill:#949494;}
	.st192{fill:#BFBFBF;}
	.st193{fill:#636363;}
	.st194{fill:#575757;}
	.st195{fill:#B3B3B3;}
	.st196{fill:#B9B9B9;}
	.st197{fill:#8A8A8A;}
	.st198{fill:#6D6D6D;}
	.st199{fill:#6B6B6B;}
	.st200{fill:#828282;}
	.st201{fill:#ADADAD;}
	.st202{fill:#9A9A9A;}
	.st203{fill:#606060;}
	.st204{fill:#AFAFAF;}
	.st205{fill:#A1A1A1;}
	.st206{fill:#BCBCBC;}
	.st207{fill:#5A5A5A;}
	.st208{fill:#898989;}
	.st209{fill:#B2B2B2;}
	.st210{fill:#8D8D8D;}
	.st211{fill:#676767;}
	.st212{fill:#4C4C4C;}
	.st213{fill:#404040;}
	.st214{fill:#555555;}
	.st215{fill:#A0A0A0;}
	.st216{fill:#AEAEAE;}
	.st217{fill:#848484;}
	.st218{fill:#A8A8A8;}
	.st219{fill:#838383;}
	.st220{fill:#6C6262;}
	.st221{fill:#B0B0B0;}
	.st222{fill:#6C6C6C;}
	.st223{fill:#757575;}
	.st224{fill:#A9A9A9;}
	.st225{fill:#9C9C9C;}
	.st226{fill:#C1C1C1;}
	.st227{fill:#8C8C8C;}
	.st228{fill:#8B8B8B;}
	.st229{fill:#878787;}
	.st230{fill:#727272;}
	.st231{fill:#999999;}
	.st232{fill:#7E7E7E;}
	.st233{fill:#6E6E6E;}
	.st234{fill:#CECECE;}
	.st235{fill:#888888;}
	.st236{fill:#474747;}
	.st237{fill:#BBBBBB;}
	.st238{fill:#797979;}
	.st239{fill:#868686;}
	.st240{fill:#939393;}
	.st241{fill:#989898;}
	.st242{fill:#9D9D9D;}
	.st243{fill:#645050;}
	.st244{fill:#505050;}
	.st245{fill:#251414;}
	.st246{fill:#6A6A6A;}
	.st247{fill:#5A4242;}
	.st248{fill:#656565;}
	.st249{fill:#969696;}
	.st250{fill:#7F7F7F;}
	.st251{fill:#666666;}
	.st252{fill:#7C7C7C;}
	.st253{fill:#464646;}
	.st254{fill:#5B4343;}
	.st255{fill:#141616;}
	.st256{fill:#4F3434;}
	.st257{fill:#858585;}
	.st258{fill:#646464;}
	.st259{fill:#929292;}
	.st260{fill:#4E4E4E;}
	.st261{fill:#FAFFFF;}
	.st262{fill:#919191;}
	.st263{fill:#593D3D;}
	.st264{fill:#777777;}
	.st265{fill:#211715;}
	.st266{fill:#737373;}
	.st267{fill:#5D5D5D;}
	.st268{fill:#696969;}
	.st269{fill:#180C0C;}
	.st270{fill:#717171;}
	.st271{fill:#666464;}
	.st272{fill:#545454;}
	.st273{fill:#6E6969;}
	.st274{fill:#5E4C4C;}
	.st275{fill:#4C3F3F;}
	.st276{fill:#FDFDFD;}
	.st277{fill:#625A58;}
	.st278{fill:#110B0A;}
	.st279{fill:#655E5E;}
	.st280{fill:#767373;}
	.st281{fill:#424242;}
	.st282{fill:#616161;}
	.st283{fill:#5C5A5A;}
	.st284{fill:#535151;}
	.st285{fill:#635454;}
	.st286{fill:#665F5F;}
	.st287{fill:#524C4C;}
	.st288{fill:#231F1F;}
	.st289{fill:#555252;}
	.st290{fill:#635353;}
	.st291{fill:#4D4040;}
	.st292{fill:#585252;}
	.st293{fill:#584444;}
	.st294{fill:#656161;}
	.st295{fill:#5B4B4B;}
	.st296{fill:#676363;}
	.st297{fill:#5A5959;}
	.st298{fill:#635656;}
	.st299{fill:#4D4D4D;}
	.st300{fill:#615050;}
	.st301{fill:#645554;}
	.st302{fill:#6A6464;}
	.st303{fill:#3D3D3D;}
	.st304{fill:#484545;}
	.st305{fill:#635756;}
	.st306{fill:#573E3E;}
	.st307{fill:#5D4646;}
	.st308{fill:#625555;}
	.st309{fill:#6B6060;}
	.st310{fill:#645959;}
	.st311{fill:#655B5A;}
	.st312{fill:#6C6767;}
	.st313{fill:#605353;}
	.st314{fill:#696767;}
	.st315{fill:#686161;}
	.st316{fill:#655D5D;}
	.st317{fill:#757474;}
	.st318{fill:#504C4C;}
	.st319{fill:#1C1A19;}
	.st320{fill:#1B1B1B;}
	.st321{fill:#685B5A;}
	.st322{fill:#614D4D;}
	.st323{fill:#423E3E;}
	.st324{fill:#665C5C;}
	.st325{fill:#6F6A6A;}
	.st326{fill:#6C6666;}
	.st327{fill:#706A6A;}
	.st328{fill:#574747;}
	.st329{fill:#6F6969;}
	.st330{fill:#645555;}
	.st331{fill:#604A4A;}
	.st332{fill:#624F4F;}
	.st333{fill:#474242;}
	.st334{fill:#645A5A;}
	.st335{fill:#675D5C;}
	.st336{fill:#515151;}
	.st337{fill:#5F5555;}
	.st338{fill:#646060;}
	.st339{fill:#645D5D;}
	.st340{fill:#1F1413;}
	.st341{fill:#625251;}
	.st342{fill:#695F5F;}
	.st343{fill:#514B4B;}
	.st344{fill:#666262;}
	.st345{fill:#625656;}
	.st346{fill:#645D5C;}
	.st347{fill:#635757;}
	.st348{fill:#625353;}
	.st349{fill:#635B5B;}
	.st350{fill:#545252;}
	.st351{fill:#6A6868;}
	.st352{fill:#655F5F;}
	.st353{fill:#645E5D;}
	.st354{fill:#615151;}
	.st355{fill:#635C5C;}
	.st356{fill:#6B6262;}
	.st357{fill:#665756;}
	.st358{fill:#696060;}
	.st359{fill:#635050;}
	.st360{fill:#6A6767;}
	.st361{fill:#585656;}
	.st362{fill:#747373;}
	.st363{fill:#696363;}
	.st364{fill:#6B6868;}
	.st365{fill:#605454;}
	.st366{fill:#5D5151;}
	.st367{fill:#6A6363;}
	.st368{fill:#615453;}
	.st369{fill:#615554;}
	.st370{fill:#383232;}
	.st371{fill:#635957;}
	.st372{fill:#6E6C6C;}
	.st373{fill:#6B6666;}
	.st374{fill:#614E4E;}
	.st375{fill:#6B6565;}
	.st376{fill:#6F6C6C;}
	.st377{fill:#686262;}
	.st378{fill:#544D4D;}
	.st379{fill:#665E5D;}
	.st380{fill:#635655;}
	.st381{fill:#211717;}
	.st382{fill:#1A0C0C;}
	.st383{fill:#655A58;}
	.st384{fill:#615655;}
	.st385{fill:#281414;}
	.st386{fill:#645757;}
	.st387{fill:#0D0B0C;}
	.st388{fill:#615D5C;}
	.st389{fill:#5D5555;}
	.st390{fill:#4C4646;}
	.st391{fill:#666060;}
	.st392{fill:#433737;}
	.st393{fill:#534F4F;}
	.st394{fill:#747070;}
	.st395{fill:#5E4E4E;}
	.st396{fill:#5E4747;}
	.st397{fill:#5D5050;}
	.st398{fill:#5D4F4F;}
	.st399{fill:#645C5C;}
	.st400{fill:#6B6969;}
	.st401{fill:#5E5959;}
	.st402{fill:#514545;}
	.st403{fill:#595353;}
	.st404{fill:#5C4545;}
	.st405{fill:#5F4B4B;}
	.st406{fill:#646363;}
	.st407{fill:#5D4B4B;}
	.st408{fill:#655B5B;}
	.st409{fill:#4C4443;}
	.st410{fill:#5E5050;}
	.st411{fill:#3A3838;}
	.st412{fill:#0A0909;}
	.st413{fill:#595656;}
	.st414{fill:#6D6868;}
	.st415{fill:#6C6969;}
	.st416{fill:#4A4040;}
	.st417{fill:#5F4D4D;}
	.st418{fill:#615A5A;}
	.st419{fill:#5C4A4A;}
	.st420{fill:#544141;}
	.st421{fill:#696666;}
	.st422{fill:#605D5D;}
	.st423{fill:#605050;}
	.st424{fill:#5A4E4E;}
	.st425{fill:#6E6868;}
	.st426{fill:#4F4747;}
	.st427{fill:#120909;}
	.st428{fill:#624E4E;}
	.st429{fill:#635252;}
	.st430{fill:#6D6B6B;}
	.st431{fill:#706E6E;}
	.st432{fill:#4B4141;}
	.st433{fill:#676565;}
	.st434{fill:#6D6767;}
	.st435{fill:#1D1A19;}
	.st436{fill:#5E5B5B;}
	.st437{fill:#625352;}
	.st438{fill:#0D0D0F;}
	.st439{fill:#100E0E;}
	.st440{fill:#111111;}
	.st441{fill:#0E0E0E;}
	.st442{fill:#0C1C1B;}
	.st443{fill:#0A1010;}
	.st444{fill:#FDFFFF;}
	.st445{fill:#636262;}
	.st446{fill:#231111;}
	.st447{fill:#594242;}
	.st448{fill:#0C0909;}
	.st449{fill:#1C191A;}
	.st450{fill:#3F3939;}
	.st451{fill:#0A0A0A;}
	.st452{fill:#0A0C0C;}
	.st453{fill:#171717;}
	.st454{fill:#1B1414;}
	.st455{fill:#191A1A;}
	.st456{fill:#383535;}
	.st457{fill:#5D5353;}
	.st458{fill:#181C1C;}
	.st459{fill:#423E3D;}
	.st460{fill:#514A4A;}
	.st461{fill:#4E4545;}
	.st462{fill:#5F5C5B;}
	.st463{fill:#645E5E;}
	.st464{fill:#1D1718;}
	.st465{fill:#4D3B3B;}
	.st466{fill:#604F4F;}
	.st467{fill:#3C3333;}
	.st468{fill:#523E3E;}
	.st469{fill:#1B1717;}
	.st470{fill:#1C0E0D;}
	.st471{fill:#574545;}
	.st472{fill:#5E4D4D;}
	.st473{fill:#140C0C;}
	.st474{fill:#1D1818;}
	.st475{fill:#090B0B;}
	.st476{fill:#453535;}
	.st477{fill:#190909;}
	.st478{fill:#5E4949;}
	.st479{fill:#1E1919;}
	.st480{fill:#161919;}
	.st481{fill:#1A1A1A;}
	.st482{fill:#563F3F;}
	.st483{fill:#0D0D0C;}
	.st484{fill:#FBFFFF;}
	.st485{fill:#574A4A;}
	.st486{fill:#131010;}
	.st487{fill:#22191A;}
	.st488{fill:#1A1B1B;}
	.st489{fill:#564D4D;}
	.st490{fill:#676060;}
	.st491{fill:#544646;}
	.st492{fill:#101010;}
	.st493{fill:#160A0A;}
	.st494{fill:#1C0D0D;}
	.st495{fill:#1B1211;}
	.st496{fill:#171212;}
	.st497{fill:#4B3535;}
	.st498{fill:#141212;}
	.st499{fill:#191413;}
	.st500{fill:#3B3838;}
	.st501{fill:#1D0C0C;}
	.st502{fill:#241818;}
	.st503{fill:#6D6A6A;}
	.st504{fill:#504F4F;}
	.st505{fill:#5F4A4A;}
	.st506{fill:#514646;}
	.st507{fill:#140D0D;}
	.st508{fill:#0F1413;}
	.st509{fill:#525050;}
	.st510{fill:#1C1C1C;}
	.st511{fill:#716B6B;}
	.st512{fill:#655656;}
	.st513{fill:#5F4E4E;}
	.st514{fill:#635959;}
	.st515{fill:#5A4646;}
	.st516{fill:#0B1818;}
	.st517{fill:#090909;}
	.st518{fill:#1E0B0B;}
	.st519{fill:#5C4E4E;}
	.st520{fill:#6E6161;}
	.st521{fill:#130A0A;}
	.st522{fill:#0D0E0E;}
	.st523{fill:#0F0A0B;}
	.st524{fill:#484242;}
	.st525{fill:#383636;}
	.st526{fill:#5C5656;}
	.st527{fill:#543C3C;}
	.st528{fill:#18090A;}
	.st529{fill:#5D5454;}
	.st530{fill:#5C5050;}
	.st531{fill:#3D3333;}
	.st532{fill:#5C4444;}
	.st533{fill:#615252;}
	.st534{fill:#646161;}
	.st535{fill:#110C0C;}
	.st536{fill:#5D4747;}
	.st537{fill:#4F4C4C;}
	.st538{fill:#543D3D;}
	.st539{fill:#5B4444;}
	.st540{fill:#5C4C4C;}
	.st541{fill:#4A3131;}
	.st542{fill:#120D0D;}
	.st543{fill:#6F6666;}
	.st544{fill:#1B1817;}
	.st545{fill:#5E4A49;}
	.st546{fill:#191313;}
	.st547{fill:#575454;}
	.st548{fill:#4F4343;}
	.st549{fill:#553D3D;}
	.st550{fill:#403333;}
	.st551{fill:#797878;}
	.st552{fill:#6C6161;}
	.st553{fill:#342828;}
	.st554{fill:#686464;}
	.st555{fill:#4D4545;}
	.st556{fill:#5F5656;}
	.st557{fill:#0D0B0B;}
	.st558{fill:#200C0C;}
	.st559{fill:#0A1717;}
	.st560{fill:#0C1A1A;}
	.st561{fill:#5F5353;}
	.st562{fill:#383131;}
	.st563{fill:#585151;}
	.st564{fill:#3E3636;}
	.st565{fill:#524E4E;}
	.st566{fill:#615E5E;}
	.st567{fill:#504949;}
	.st568{fill:#1D1819;}
	.st569{fill:#6E6B6B;}
	.st570{fill:#6A6060;}
	.st571{fill:#261414;}
	.st572{fill:#625150;}
	.st573{fill:#161C1C;}
	.st574{fill:#151717;}
	.st575{fill:#1C1111;}
	.st576{fill:#545151;}
	.st577{fill:#5C4242;}
	.st578{fill:#5D4D4D;}
	.st579{fill:#645151;}
	.st580{fill:#1F1414;}
	.st581{fill:#161011;}
	.st582{fill:#4E4D4D;}
	.st583{fill:#676161;}
	.st584{fill:#5A4444;}
	.st585{fill:#211918;}
	.st586{fill:#575050;}
	.st587{fill:#181212;}
	.st588{fill:#645C5B;}
	.st589{fill:#615959;}
	.st590{fill:#0F1111;}
	.st591{fill:#181011;}
	.st592{fill:#130E0E;}
	.st593{fill:#110D0D;}
	.st594{fill:#121A19;}
	.st595{fill:#231819;}
	.st596{fill:#141010;}
	.st597{fill:#160E10;}
	.st598{fill:#160E0E;}
	.st599{fill:#1E1313;}
	.st600{fill:#1B1212;}
	.st601{fill:#0B0B0C;}
	.st602{fill:#0F0A0A;}
	.st603{fill:#1A1011;}
	.st604{fill:#170D0D;}
	.st605{fill:#1E1918;}
	.st606{fill:#121717;}
	.st607{fill:#150A0A;}
	.st608{fill:#121A1B;}
	.st609{fill:#1E1414;}
	.st610{fill:#F9FFFF;}
	.st611{fill:#483635;}
	.st612{fill:#5D4949;}
	.st613{fill:#625151;}
	.st614{fill:#120A0A;}
	.st615{fill:#0C0707;}
	.st616{fill:#575151;}
	.st617{fill:#161313;}
	.st618{fill:#161614;}
	.st619{fill:#121616;}
	.st620{fill:#141414;}
	.st621{fill:#6F6565;}
	.st622{fill:#3D3030;}
	.st623{fill:#583C3C;}
	.st624{fill:#201C1C;}
	.st625{fill:#090707;}
	.st626{fill:#524B4B;}
	.st627{fill:#685959;}
	.st628{fill:#1B0C0C;}
	.st629{fill:#241313;}
	.st630{fill:#655454;}
	.st631{fill:#433030;}
	.st632{fill:#1B1718;}
	.st633{fill:#120C0C;}
	.st634{fill:#0F0D0D;}
	.st635{fill:#1A1212;}
	.st636{fill:#121212;}
	.st637{fill:#0B0B0B;}
	.st638{fill:#090B0A;}
	.st639{fill:#0B0B0A;}
	.st640{fill:#181717;}
	.st641{fill:#271717;}
	.st642{fill:#1C0D0C;}
	.st643{fill:#160B0B;}
	.st644{fill:#221616;}
	.st645{fill:#191818;}
	.st646{fill:#14100E;}
	.st647{fill:#0B0707;}
	.st648{fill:#626161;}
	.st649{fill:#554E4E;}
	.st650{fill:#220E0E;}
	.st651{fill:#0E0E0D;}
	.st652{fill:#0F0C0C;}
	.st653{fill:#130B0B;}
	.st654{fill:#0C0D0D;}
	.st655{fill:#170C0C;}
	.st656{fill:#131414;}
	.st657{fill:#131314;}
	.st658{fill:#0D0E0D;}
	.st659{fill:#504A4A;}
	.st660{fill:#271314;}
	.st661{fill:#726D6D;}
	.st662{fill:#604C4C;}
	.st663{fill:#584141;}
	.st664{fill:#443D3D;}
	.st665{fill:#161B1B;}
	.st666{fill:#4F3B39;}
	.st667{fill:#605B5B;}
	.st668{fill:#1D1010;}
	.st669{fill:#201819;}
	.st670{fill:#746C6C;}
	.st671{fill:#3A3131;}
	.st672{fill:#494646;}
	.st673{fill:#161413;}
	.st674{fill:#120C0B;}
	.st675{fill:#584545;}
	.st676{fill:#191815;}
	.st677{fill:#150D0C;}
	.st678{fill:#2A1717;}
	.st679{fill:#130E10;}
	.st680{fill:#161112;}
	.st681{fill:#2D2727;}
	.st682{fill:#231212;}
	.st683{fill:#432E2E;}
	.st684{fill:#4C4242;}
	.st685{fill:#3E3131;}
	.st686{fill:#191616;}
	.st687{fill:#1A1614;}
	.st688{fill:#0D0909;}
	.st689{fill:#453B3B;}
	.st690{fill:#423535;}
	.st691{fill:#1A1616;}
	.st692{fill:#423636;}
	.st693{fill:#180E0E;}
	.st694{fill:#130E0D;}
	.st695{fill:#777373;}
	.st696{fill:#1F0E0E;}
	.st697{fill:#1C1A1B;}
	.st698{fill:#343131;}
	.st699{fill:#503636;}
	.st700{fill:#120C0D;}
	.st701{fill:#140B0B;}
	.st702{fill:#5C4646;}
	.st703{fill:#080B0C;}
	.st704{fill:#150A0B;}
	.st705{fill:#1F0D0D;}
	.st706{fill:#121C1C;}
	.st707{fill:#5E4545;}
	.st708{fill:#665655;}
	.st709{fill:#0E0709;}
	.st710{fill:#110D0C;}
	.st711{fill:#463131;}
	.st712{fill:#121715;}
	.st713{fill:#5A4040;}
	.st714{fill:#463B3B;}
	.st715{fill:#5A4343;}
	.st716{fill:#241212;}
	.st717{fill:#0A100E;}
	.st718{fill:#211718;}
	.st719{fill:#696565;}
	.st720{fill:#121C1E;}
	.st721{fill:#563838;}
	.st722{fill:#5C4B4B;}
	.st723{fill:#5F4F4F;}
	.st724{fill:#423939;}
	.st725{fill:#1A1718;}
	.st726{fill:#5A5555;}
	.st727{fill:#4D4949;}
	.st728{fill:#1B1313;}
	.st729{fill:#2F2C2C;}
	.st730{fill:#514E4E;}
	.st731{fill:#757070;}
	.st732{fill:#777676;}
	.st733{fill:#312B2B;}
	.st734{fill:#150D0D;}
	.st735{fill:#101313;}
	.st736{fill:#161416;}
	.st737{fill:#5A3F3F;}
	.st738{fill:#4F4646;}
	.st739{fill:#101616;}
	.st740{fill:#453F3F;}
	.st741{fill:#312E2E;}
	.st742{fill:#594545;}
	.st743{fill:#563D3C;}
	.st744{fill:#111413;}
	.st745{fill:#170D0C;}
	.st746{fill:#220E0D;}
	.st747{fill:#342E2E;}
	.st748{fill:#261413;}
	.st749{fill:#6B6464;}
	.st750{fill:#574343;}
	.st751{fill:#555353;}
	.st752{fill:#211414;}
	.st753{fill:#564645;}
	.st754{fill:#514D4D;}
	.st755{fill:#302D2D;}
	.st756{fill:#302E2E;}
	.st757{fill:#6D6464;}
	.st758{fill:#242222;}
	.st759{fill:#221313;}
	.st760{fill:#4D4141;}
	.st761{fill:#181314;}
	.st762{fill:#5F5E5E;}
	.st763{fill:#494040;}
	.st764{fill:#6E6767;}
	.st765{fill:#4A4141;}
	.st766{fill:#1F1E1E;}
	.st767{fill:#524242;}
	.st768{fill:#5B4040;}
	.st769{fill:#756D6D;}
	.st770{fill:#1E0E0E;}
	.st771{fill:#5B403F;}
	.st772{fill:#563939;}
	.st773{fill:#655555;}
	.st774{fill:#564444;}
	.st775{fill:#585353;}
	.st776{fill:#4E4141;}
	.st777{fill:#0E1313;}
	.st778{fill:#575252;}
	.st779{fill:#443333;}
	.st780{fill:#676464;}
	.st781{fill:#5C5B5B;}
	.st782{fill:#0A1111;}
	.st783{fill:#181313;}
	.st784{fill:#6B5D5D;}
	.st785{fill:#403F3F;}
	.st786{fill:#605151;}
	.st787{fill:#4A3D3D;}
	.st788{fill:#1B0D0C;}
	.st789{fill:#16100E;}
	.st790{fill:#4E4A4A;}
	.st791{fill:#271616;}
	.st792{fill:#474040;}
	.st793{fill:#100B0B;}
	.st794{fill:#0F1414;}
	.st795{fill:#170C0B;}
	.st796{fill:#554040;}
	.st797{fill:#11100E;}
	.st798{fill:#665656;}
	.st799{fill:#6F6D6D;}
	.st800{fill:#767575;}
	.st801{fill:#554A4A;}
	.st802{fill:#161918;}
	.st803{fill:#231011;}
	.st804{fill:#493B3B;}
	.st805{fill:#181817;}
	.st806{fill:#171111;}
	.st807{fill:#111110;}
	.st808{fill:#362E2E;}
	.st809{fill:#0F1112;}
	.st810{fill:#140B0C;}
	.st811{fill:#1D1A1B;}
	.st812{fill:#543F3F;}
	.st813{fill:#0D0A0A;}
	.st814{fill:#0F0C0B;}
	.st815{fill:#2B2424;}
	.st816{fill:#413E3E;}
	.st817{fill:#0F0D0C;}
	.st818{fill:#5E4444;}
	.st819{fill:#593D3C;}
	.st820{fill:#433636;}
	.st821{fill:#483434;}
	.st822{fill:#322A2A;}
	.st823{fill:#0F1616;}
	.st824{fill:#0F1919;}
	.st825{fill:#FFFDFD;}
	.st826{fill:#110B0C;}
	.st827{fill:#614C4C;}
	.st828{fill:#231818;}
	.st829{fill:#514949;}
	.st830{fill:#483637;}
	.st831{fill:#655251;}
	.st832{fill:#231413;}
	.st833{fill:#0B1211;}
	.st834{fill:#131313;}
	.st835{fill:#4C3C3C;}
	.st836{fill:#191819;}
	.st837{fill:#1F1110;}
	.st838{fill:#4B3334;}
	.st839{fill:#211818;}
	.st840{fill:#121919;}
	.st841{fill:#514040;}
	.st842{fill:#533939;}
	.st843{fill:#0F1211;}
	.st844{fill:#1C1919;}
	.st845{fill:#212020;}
	.st846{fill:#1D1817;}
	.st847{fill:#403D3D;}
	.st848{fill:#534242;}
	.st849{fill:#170B0C;}
	.st850{fill:#0F0707;}
	.st851{fill:#6E6565;}
	.st852{fill:#1E1819;}
	.st853{fill:#110709;}
	.st854{fill:#665E5E;}
	.st855{fill:#453434;}
	.st856{fill:#171616;}
	.st857{fill:#0F1212;}
	.st858{fill:#181213;}
	.st859{fill:#232121;}
	.st860{fill:#5F4646;}
	.st861{fill:#513737;}
	.st862{fill:#454141;}
	.st863{fill:#695B5B;}
	.st864{fill:#363232;}
	.st865{fill:#583D3D;}
	.st866{fill:#261718;}
	.st867{fill:#524646;}
	.st868{fill:#5F5757;}
	.st869{fill:#150C0C;}
	.st870{fill:#241110;}
	.st871{fill:#181B1B;}
	.st872{fill:#665B5B;}
	.st873{fill:#5F5252;}
	.st874{fill:#1C1616;}
	.st875{fill:#1B0E0E;}
	.st876{fill:#4D3232;}
	.st877{fill:#0D0B0A;}
	.st878{fill:#777474;}
	.st879{fill:#5F5C5C;}
	.st880{fill:#161110;}
	.st881{fill:#1C1314;}
	.st882{fill:#150909;}
	.st883{fill:#4B3B3B;}
	.st884{fill:#373434;}
	.st885{fill:#523838;}
	.st886{fill:#0A1919;}
	.st887{fill:#5D4C4C;}
	.st888{fill:#5F5A58;}
	.st889{fill:#1A1715;}
	.st890{fill:#080A0A;}
	.st891{fill:#1E0D0D;}
	.st892{fill:#685B5C;}
	.st893{fill:#464040;}
	.st894{fill:#533838;}
	.st895{fill:#2A1715;}
	.st896{fill:#524F4F;}
	.st897{fill:#261616;}
	.st898{fill:#5F4949;}
	.st899{fill:#190A0B;}
	.st900{fill:#070707;}
	.st901{fill:#090709;}
	.st902{fill:#503C3C;}
	.st903{fill:#181413;}
	.st904{fill:#1B1715;}
	.st905{fill:#1D0A0A;}
	.st906{fill:#191010;}
	.st907{fill:#111414;}
	.st908{fill:#10100E;}
	.st909{fill:#5B4949;}
	.st910{fill:#553737;}
	.st911{fill:#1A1617;}
	.st912{fill:#594343;}
	.st913{fill:#282727;}
	.st914{fill:#190A0A;}
	.st915{fill:#0C1010;}
	.st916{fill:#4A3434;}
	.st917{fill:#4D3737;}
	.st918{fill:#504141;}
	.st919{fill:#665353;}
	.st920{fill:#1F1010;}
	.st921{fill:#170707;}
	.st922{fill:#564C4C;}
	.st923{fill:#523738;}
	.st924{fill:#675454;}
	.st925{fill:#091010;}
	.st926{fill:#151A1A;}
	.st927{fill:#1F1919;}
	.st928{fill:#0B0E0D;}
	.st929{fill:#190E10;}
	.st930{fill:#0B0E0E;}
	.st931{fill:#493F3F;}
	.st932{fill:#544949;}
	.st933{fill:#1C1617;}
	.st934{fill:#534444;}
	.st935{fill:#573939;}
	.st936{fill:#392828;}
	.st937{fill:#473837;}
	.st938{fill:#090C0B;}
	.st939{fill:#0A0D0C;}
	.st940{fill:#281416;}
	.st941{fill:#20100E;}
	.st942{fill:#3F2C2C;}
	.st943{fill:#5B4141;}
	.st944{fill:#413838;}
	.st945{fill:#472E2E;}
	.st946{fill:#413535;}
	.st947{fill:#423B3B;}
	.st948{fill:#402E2E;}
	.st949{fill:#4F4242;}
	.st950{fill:#6A5F5F;}
	.st951{fill:#706666;}
	.st952{fill:#211E1E;}
	.st953{fill:#635F5F;}
	.st954{fill:#150E10;}
	.st955{fill:#130B0C;}
	.st956{fill:#3A3737;}
	.st957{fill:#181010;}
	.st958{fill:#4B3D3C;}
	.st959{fill:#1F1616;}
	.st960{fill:#5E5A5A;}
	.st961{fill:#513C3C;}
	.st962{fill:#251313;}
	.st963{fill:#503535;}
	.st964{fill:#757171;}
	.st965{fill:#120E0E;}
	.st966{fill:#271312;}
	.st967{fill:#4E4242;}
	.st968{fill:#574444;}
	.st969{fill:#593F3F;}
	.st970{fill:#1D1614;}
	.st971{fill:#6D6363;}
	.st972{fill:#463C3A;}
	.st973{fill:#1A0A0B;}
	.st974{fill:#151B1B;}
	.st975{fill:#3A3434;}
	.st976{fill:#1A1A19;}
	.st977{fill:#0C1717;}
	.st978{fill:#584A4A;}
	.st979{fill:#4F4B4B;}
	.st980{fill:#503737;}
	.st981{fill:#534040;}
	.st982{fill:#1F1A1B;}
	.st983{fill:#0C1414;}
	.st984{fill:#180A0A;}
	.st985{fill:#474545;}
	.st986{fill:#1E1717;}
	.st987{fill:#131B1C;}
	.st988{fill:#161819;}
	.st989{fill:#3C3232;}
	.st990{fill:#4C3535;}
	.st991{fill:#442D2D;}
	.st992{fill:#4C4747;}
	.st993{fill:#0D0A0B;}
	.st994{fill:#4E3838;}
	.st995{fill:#6C5F5F;}
	.st996{fill:#5A5151;}
	.st997{fill:#101212;}
	.st998{fill:#695757;}
	.st999{fill:#0F0909;}
	.st1000{fill:#483B3B;}
	.st1001{fill:#534C4C;}
	.st1002{fill:#131A1A;}
	.st1003{fill:#180E0D;}
	.st1004{fill:#5A4949;}
	.st1005{fill:#150C0D;}
	.st1006{fill:#100909;}
	.st1007{fill:#787575;}
	.st1008{fill:#1C1010;}
	.st1009{fill:#666363;}
	.st1010{fill:#363030;}
	.st1011{fill:#493B39;}
	.st1012{fill:#564F4F;}
	.st1013{fill:#433C3C;}
	.st1014{fill:#463232;}
	.st1015{fill:#524747;}
	.st1016{fill:#5F5A5A;}
	.st1017{fill:#0D1616;}
	.st1018{fill:#4C3939;}
	.st1019{fill:#312C2C;}
	.st1020{fill:#544444;}
	.st1021{fill:#231616;}
	.st1022{fill:#513333;}
	.st1023{fill:#0D1111;}
	.st1024{fill:#181718;}
	.st1025{fill:#3F3B3B;}
	.st1026{fill:#423534;}
	.st1027{fill:#5C4747;}
	.st1028{fill:#432D2D;}
	.st1029{fill:#543636;}
	.st1030{fill:#393232;}
	.st1031{fill:#655957;}
	.st1032{fill:#584D4D;}
	.st1033{fill:#4A3C3C;}
	.st1034{fill:#19100E;}
	.st1035{fill:#1F1112;}
	.st1036{fill:#433838;}
	.st1037{fill:#0C090A;}
	.st1038{fill:#464444;}
	.st1039{fill:#1A0D0D;}
	.st1040{fill:#444040;}
	.st1041{fill:#5E4A4A;}
	.st1042{fill:#595252;}
	.st1043{fill:#2D2A2A;}
	.st1044{fill:#737171;}
	.st1045{fill:#625757;}
	.st1046{fill:#0C0C0D;}
	.st1047{fill:#574040;}
	.st1048{fill:#3D3C3C;}
	.st1049{fill:#6C6565;}
	.st1050{fill:#1C0D0F;}
	.st1051{fill:#5C4746;}
	.st1052{fill:#675C5B;}
	.st1053{fill:#593E3E;}
	.st1054{fill:#473938;}
	.st1055{fill:#493636;}
	.st1056{fill:#332E2E;}
	.st1057{fill:#210D0F;}
	.st1058{fill:#503F3F;}
	.st1059{fill:#271818;}
	.st1060{fill:#0F1818;}
	.st1061{fill:#190A08;}
	.st1062{fill:#625A5A;}
	.st1063{fill:#3B3030;}
	.st1064{fill:#573B3B;}
	.st1065{fill:#1B0D0D;}
	.st1066{fill:#706969;}
	.st1067{fill:#101614;}
	.st1068{fill:#1F191A;}
	.st1069{fill:#1C1414;}
	.st1070{fill:#271614;}
	.st1071{fill:#4B3838;}
	.st1072{fill:#4B3939;}
	.st1073{fill:#100B0C;}
	.st1074{fill:#210D0D;}
	.st1075{fill:#4C4B4B;}
	.st1076{fill:#6C6A6A;}
	.st1077{fill:#454343;}
	.st1078{fill:#332A2A;}
	.st1079{fill:#272626;}
	.st1080{fill:#180D0D;}
	.st1081{fill:#716868;}
	.st1082{fill:#231414;}
	.st1083{fill:#3E3838;}
	.st1084{fill:#4D3838;}
	.st1085{fill:#101718;}
	.st1086{fill:#231717;}
	.st1087{fill:#4E3737;}
	.st1088{fill:#1A1211;}
	.st1089{fill:#0F1B1B;}
	.st1090{fill:#675757;}
	.st1091{fill:#423C3C;}
	.st1092{fill:#2A2929;}
	.st1093{fill:#463D3C;}
	.st1094{fill:#101011;}
	.st1095{fill:#4B3434;}
	.st1096{fill:#706D6D;}
	.st1097{fill:#5B4E4E;}
	.st1098{fill:#2E2828;}
	.st1099{fill:#0A0D0D;}
	.st1100{fill:#442E2E;}
	.st1101{fill:#7A7777;}
	.st1102{fill:#6B5E5E;}
	.st1103{fill:#1C1112;}
	.st1104{fill:#211111;}
	.st1105{fill:#423131;}
	.st1106{fill:#1D100E;}
	.st1107{fill:#4A4949;}
	.st1108{fill:#403D3C;}
	.st1109{fill:#1F1614;}
	.st1110{fill:#2E2727;}
	.st1111{fill:#573F3F;}
	.st1112{fill:#3F3E3E;}
	.st1113{fill:#665757;}
	.st1114{fill:#161010;}
	.st1115{fill:#FFFDFF;}
	.st1116{fill:#1A1A1B;}
	.st1117{fill:#473333;}
	.st1118{fill:#787474;}
	.st1119{fill:#4E4544;}
	.st1120{fill:#3A2E2E;}
	.st1121{fill:#463737;}
	.st1122{fill:#382D2D;}
	.st1123{fill:#483939;}
	.st1124{fill:#0B0A0B;}
	.st1125{fill:#1A0D0F;}
	.st1126{fill:#090C0C;}
	.st1127{fill:#1B090A;}
	.st1128{fill:#494343;}
	.st1129{fill:#1C0B0B;}
	.st1130{fill:#4B4242;}
	.st1131{fill:#685957;}
	.st1132{fill:#0C1C1C;}
	.st1133{fill:#5B4F4F;}
	.st1134{fill:#21191A;}
	.st1135{fill:#604B4B;}
	.st1136{fill:#1B1819;}
	.st1137{fill:#0F1110;}
	.st1138{fill:#332D2D;}
	.st1139{fill:#4A3232;}
	.st1140{fill:#201B1B;}
	.st1141{fill:#170B0B;}
	.st1142{fill:#484141;}
	.st1143{fill:#292626;}
	.st1144{fill:#120D0C;}
	.st1145{fill:#453636;}
	.st1146{fill:#695E5E;}
	.st1147{fill:#535050;}
	.st1148{fill:#513B3C;}
	.st1149{fill:#0E0B0C;}
	.st1150{fill:#443939;}
	.st1151{fill:#4F3535;}
	.st1152{fill:#171918;}
	.st1153{fill:#6A5C5C;}
	.st1154{fill:#211416;}
	.st1155{fill:#171617;}
	.st1156{fill:#554646;}
	.st1157{fill:#543939;}
	.st1158{fill:#443C3C;}
	.st1159{fill:#553636;}
	.st1160{fill:#553C3C;}
	.st1161{fill:#504747;}
	.st1162{fill:#534B4B;}
	.st1163{fill:#584040;}
	.st1164{fill:#563E3D;}
	.st1165{fill:#583B3B;}
	.st1166{fill:#5B4D4D;}
	.st1167{fill:#5A5050;}
	.st1168{fill:#312828;}
	.st1169{fill:#1E1718;}
	.st1170{fill:#2B2828;}
	.st1171{fill:#343333;}
	.st1172{fill:#0C1110;}
	.st1173{fill:#0E1C1B;}
	.st1174{fill:#413434;}
	.st1175{fill:#573C3C;}
	.st1176{fill:#6E6464;}
	.st1177{fill:#0C1313;}
	.st1178{fill:#3D2B2B;}
	.st1179{fill:#180909;}
	.st1180{fill:#685656;}
	.st1181{fill:#553838;}
	.st1182{fill:#5A5454;}
	.st1183{fill:#696262;}
	.st1184{fill:#3F3232;}
	.st1185{fill:#4E3939;}
	.st1186{fill:#444141;}
	.st1187{fill:#565050;}
	.st1188{fill:#0B0709;}
	.st1189{fill:#0D1818;}
	.st1190{fill:#1D1212;}
	.st1191{fill:#1A0B0A;}
	.st1192{fill:#313030;}
	.st1193{fill:#675455;}
	.st1194{fill:#5B5555;}
	.st1195{fill:#0A1414;}
	.st1196{fill:#473535;}
	.st1197{fill:#393737;}
	.st1198{fill:#121314;}
	.st1199{fill:#220E10;}
	.st1200{fill:#736B6B;}
	.st1201{fill:#3C2D2D;}
	.st1202{fill:#5B5252;}
	.st1203{fill:#6A5D5D;}
	.st1204{fill:#120707;}
	.st1205{fill:#151A1B;}
	.st1206{fill:#101918;}
	.st1207{fill:#2E2B2B;}
	.st1208{fill:#523939;}
	.st1209{fill:#2C2323;}
	.st1210{fill:#13100E;}
	.st1211{fill:#221010;}
	.st1212{fill:#594F4F;}
	.st1213{fill:#665554;}
	.st1214{fill:#201212;}
	.st1215{fill:#543B3B;}
	.st1216{fill:#573B3C;}
	.st1217{fill:#121211;}
	.st1218{fill:#473434;}
	.st1219{fill:#1B0709;}
	.st1220{fill:#1A1010;}
	.st1221{fill:#655151;}
	.st1222{fill:#251212;}
	.st1223{fill:#464343;}
	.st1224{fill:#191919;}
	.st1225{fill:#716767;}
	.st1226{fill:#797676;}
	.st1227{fill:#101C1A;}
	.st1228{fill:#483F3F;}
	.st1229{fill:#0E0C0B;}
	.st1230{fill:#746E6E;}
	.st1231{fill:#161616;}
	.st1232{fill:#634F4F;}
	.st1233{fill:#231718;}
	.st1234{fill:#615656;}
	.st1235{fill:#121312;}
	.st1236{fill:#221918;}
	.st1237{fill:#302A2A;}
	.st1238{fill:#151211;}
	.st1239{fill:#5C4645;}
	.st1240{fill:#131818;}
	.st1241{fill:#1F1111;}
	.st1242{fill:#0F1617;}
	.st1243{fill:#0C1112;}
	.st1244{fill:#392A2A;}
	.st1245{fill:#131E1C;}
	.st1246{fill:#6E6363;}
	.st1247{fill:#150E0E;}
	.st1248{fill:#1E1211;}
	.st1249{fill:#171A19;}
	.st1250{fill:#110B0B;}
	.st1251{fill:#1E1C1C;}
	.st1252{fill:#5E5656;}
	.st1253{fill:#5A4747;}
	.st1254{fill:#0D1E1E;}
	.st1255{fill:#151312;}
	.st1256{fill:#747272;}
	.st1257{fill:#262424;}
	.st1258{fill:#4D3F3F;}
	.st1259{fill:#4F3E3E;}
	.st1260{fill:#191314;}
	.st1261{fill:#605756;}
	.st1262{fill:#463334;}
	.st1263{fill:#413131;}
	.st1264{fill:#422C2C;}
	.st1265{fill:#373535;}
	.st1266{fill:#271313;}
	.st1267{fill:#533E3E;}
	.st1268{fill:#333030;}
	.st1269{fill:#221E1F;}
	.st1270{fill:#4D4747;}
	.st1271{fill:#190B0C;}
	.st1272{fill:#4A3737;}
	.st1273{fill:#645352;}
	.st1274{fill:#251211;}
	.st1275{fill:#504545;}
	.st1276{fill:#0A1313;}
	.st1277{fill:#322D2D;}
	.st1278{fill:#161818;}
	.st1279{fill:#544040;}
	.st1280{fill:#423F3F;}
	.st1281{fill:#4B3E3D;}
	.st1282{fill:#251818;}
	.st1283{fill:#1C1614;}
	.st1284{fill:#241717;}
	.st1285{fill:#190E0E;}
	.st1286{fill:#1D0B0B;}
	.st1287{fill:#272121;}
	.st1288{fill:#3C2A2A;}
	.st1289{fill:#141110;}
	.st1290{fill:#483131;}
	.st1291{fill:#473736;}
	.st1292{fill:#3F3535;}
	.st1293{fill:#291616;}
	.st1294{fill:#271819;}
	.st1295{fill:#201614;}
	.st1296{fill:#423232;}
	.st1297{fill:#1A0A0A;}
	.st1298{fill:#444242;}
	.st1299{fill:#190B0B;}
	.st1300{fill:#101C1C;}
	.st1301{fill:#241919;}
	.st1302{fill:#624D4D;}
	.st1303{fill:#726C6C;}
	.st1304{fill:#211C1C;}
	.st1305{fill:#241817;}
	.st1306{fill:#453030;}
	.st1307{fill:#291717;}
	.st1308{fill:#565151;}
	.st1309{fill:#1D1111;}
	.st1310{fill:#6D6060;}
	.st1311{fill:#221919;}
	.st1312{fill:#523F3F;}
	.st1313{fill:#5D4343;}
	.st1314{fill:#413D3D;}
	.st1315{fill:#534D4D;}
	.st1316{fill:#625B5B;}
	.st1317{fill:#393030;}
	.st1318{fill:#533F3F;}
	.st1319{fill:#090E0E;}
	.st1320{fill:#0F1918;}
	.st1321{fill:#342B2B;}
	.st1322{fill:#181211;}
	.st1323{fill:#513D3D;}
	.st1324{fill:#4A3738;}
	.st1325{fill:#372A2A;}
	.st1326{fill:#2B2727;}
	.st1327{fill:#503738;}
	.st1328{fill:#1F0E0D;}
	.st1329{fill:#414040;}
	.st1330{fill:#1B0D0F;}
	.st1331{fill:#564949;}
	.st1332{fill:#382C2C;}
	.st1333{fill:#1A0C0B;}
	.st1334{fill:#3C3737;}
	.st1335{fill:#413636;}
	.st1336{fill:#695A5A;}
	.st1337{fill:#544A4A;}
	.st1338{fill:#4E4646;}
	.st1339{fill:#0C1718;}
	.st1340{fill:#533B3B;}
	.st1341{fill:#473C3C;}
	.st1342{fill:#1F1617;}
	.st1343{fill:#1D1011;}
	.st1344{fill:#271817;}
	.st1345{fill:#584242;}
	.st1346{fill:#605C5C;}
	.st1347{fill:#493939;}
	.st1348{fill:#3E3535;}
	.st1349{fill:#373131;}
	.st1350{fill:#101312;}
	.st1351{fill:#4D3F40;}
	.st1352{fill:#737272;}
	.st1353{fill:#1A0B0B;}
	.st1354{fill:#292424;}
	.st1355{fill:#3E3232;}
	.st1356{fill:#201F1F;}
	.st1357{fill:#0F1E1E;}
	.st1358{fill:#717070;}
	.st1359{fill:#565353;}
	.st1360{fill:#403C3C;}
	.st1361{fill:#211110;}
	.st1362{fill:#140D0F;}
	.st1363{fill:#5B4140;}
	.st1364{fill:#594141;}
	.st1365{fill:#443131;}
	.st1366{fill:#443838;}
	.st1367{fill:#121313;}
	.st1368{fill:#503736;}
	.st1369{fill:#5E5151;}
	.st1370{fill:#5A4C4C;}
	.st1371{fill:#5E5555;}
	.st1372{fill:#4B4646;}
	.st1373{fill:#1B1314;}
	.st1374{fill:#4A3E3E;}
	.st1375{fill:#6C6363;}
	.st1376{fill:#4C4343;}
	.st1377{fill:#625E5E;}
	.st1378{fill:#5E5252;}
	.st1379{fill:#5E5454;}
	.st1380{fill:#2E2C2C;}
	.st1381{fill:#554B4B;}
	.st1382{fill:#0B1614;}
	.st1383{fill:#211313;}
	.st1384{fill:#6A6161;}
	.st1385{fill:#433F3F;}
	.st1386{fill:#554141;}
	.st1387{fill:#514242;}
	.st1388{fill:#100A0A;}
	.st1389{fill:#070909;}
	.st1390{fill:#180A0B;}
	.st1391{fill:#1C1011;}
	.st1392{fill:#1D1B1B;}
	.st1393{fill:#201616;}
	.st1394{fill:#6C5F5E;}
	.st1395{fill:#463231;}
	.st1396{fill:#413132;}
	.st1397{fill:#442D2E;}
	.st1398{fill:#4B3E3E;}
	.st1399{fill:#6C5E5E;}
	.st1400{fill:#201718;}
	.st1401{fill:#3C3939;}
	.st1402{fill:#3F3C3C;}
	.st1403{fill:#372B2B;}
	.st1404{fill:#200E0E;}
	.st1405{fill:#63504F;}
	.st1406{fill:#150709;}
	.st1407{fill:#1C0A0A;}
	.st1408{fill:#302929;}
	.st1409{fill:#767171;}
	.st1410{fill:#1C0E0E;}
	.st1411{fill:#160909;}
	.st1412{fill:#0E1718;}
	.st1413{fill:#443E3E;}
	.st1414{fill:#534949;}
	.st1415{fill:#4B4A4A;}
	.st1416{fill:#130909;}
	.st1417{fill:#0D1919;}
	.st1418{fill:#634E4E;}
	.st1419{fill:#5B4A4A;}
	.st1420{fill:#4A4444;}
	.st1421{fill:#605757;}
	.st1422{fill:#221414;}
	.st1423{fill:#6D6262;}
	.st1424{fill:#716C6C;}
	.st1425{fill:#2F2D2D;}
	.st1426{fill:#412C2C;}
	.st1427{fill:#625354;}
	.st1428{fill:#5F4545;}
	.st1429{fill:#3E393B;}
	.st1430{fill:#3F3636;}
	.st1431{fill:#6A5D5C;}
	.st1432{fill:#12090A;}
	.st1433{fill:#564747;}
	.st1434{fill:#0C1111;}
	.st1435{fill:#2F2828;}
	.st1436{fill:#4F3D3D;}
	.st1437{fill:#332727;}
	.st1438{fill:#605959;}
	.st1439{fill:#282222;}
	.st1440{fill:#252323;}
	.st1441{fill:#151817;}
	.st1442{fill:#403737;}
	.st1443{fill:#0E1010;}
	.st1444{fill:#3C2828;}
	.st1445{fill:#0E0B0B;}
	.st1446{fill:#1E1817;}
	.st1447{fill:#484343;}
	.st1448{fill:#695C5C;}
	.st1449{fill:#523D3D;}
	.st1450{fill:#2C2828;}
	.st1451{fill:#111818;}
	.st1452{fill:#513E3E;}
	.st1453{fill:#402A2A;}
	.st1454{fill:#3C3636;}
	.st1455{fill:#695E5D;}
	.st1456{fill:#191A19;}
	.st1457{fill:#0F1817;}
	.st1458{fill:#101717;}
	.st1459{fill:#180D0F;}
	.st1460{fill:#231110;}
	.st1461{fill:#634E4D;}
	.st1462{fill:#211314;}
	.st1463{fill:#282323;}
	.st1464{fill:#362D2D;}
	.st1465{fill:#2A2626;}
	.st1466{fill:#615C5C;}
	.st1467{fill:#413939;}
	.st1468{fill:#5C5757;}
	.st1469{fill:#0A0D0E;}
	.st1470{fill:#322626;}
	.st1471{fill:#1D1110;}
	.st1472{fill:#201111;}
	.st1473{fill:#1C1312;}
	.st1474{fill:#1D1617;}
	.st1475{fill:#594B4B;}
	.st1476{fill:#101211;}
	.st1477{fill:#0B1213;}
	.st1478{fill:#111E1C;}
	.st1479{fill:#0D090A;}
	.st1480{fill:#433333;}
	.st1481{fill:#3D3838;}
	.st1482{fill:#200E10;}
	.st1483{fill:#483636;}
	.st1484{fill:#332B2B;}
	.st1485{fill:#4D3F3E;}
	.st1486{fill:#7A7979;}
	.st1487{fill:#1E1212;}
	.st1488{fill:#594747;}
	.st1489{fill:#171919;}
	.st1490{fill:#4C3636;}
	.st1491{fill:#131416;}
	.st1492{fill:#131817;}
	.st1493{fill:#463333;}
	.st1494{fill:#1C0B0A;}
	.st1495{fill:#191614;}
	.st1496{fill:#523535;}
	.st1497{fill:#1C1413;}
	.st1498{fill:#2D2B2B;}
	.st1499{fill:#1E0C0C;}
	.st1500{fill:#523333;}
	.st1501{fill:#131715;}
	.st1502{fill:#4D3D3D;}
	.st1503{fill:#271718;}
	.st1504{fill:#473939;}
	.st1505{fill:#473737;}
	.st1506{fill:#4D4343;}
	.st1507{fill:#746B6B;}
	.st1508{fill:#4F3B3B;}
	.st1509{fill:#322828;}
	.st1510{fill:#4C4342;}
	.st1511{fill:#161C1E;}
	.st1512{fill:#584949;}
	.st1513{fill:#3B3535;}
	.st1514{fill:#504343;}
	.st1515{fill:#3A2C2C;}
	.st1516{fill:#584E4E;}
	.st1517{fill:#100B0A;}
	.st1518{fill:#101314;}
	.st1519{fill:#131717;}
	.st1520{fill:#251616;}
	.st1521{fill:#4E4949;}
	.st1522{fill:#0C0709;}
	.st1523{fill:#4E3C3C;}
	.st1524{fill:#171614;}
	.st1525{fill:#342C2C;}
	.st1526{fill:#0E100E;}
	.st1527{fill:#373333;}
	.st1528{fill:#4C4241;}
	.st1529{fill:#686565;}
	.st1530{fill:#171715;}
	.st1531{fill:#625252;}
	.st1532{fill:#342A2A;}
	.st1533{fill:#272222;}
	.st1534{fill:#191312;}
	.st1535{fill:#2A2222;}
	.st1536{fill:#4E3D3E;}
	.st1537{fill:#3C2E2E;}
	.st1538{fill:#4C4040;}
	.st1539{fill:#574949;}
	.st1540{fill:#4A3839;}
	.st1541{fill:#211212;}
	.st1542{fill:#232020;}
	.st1543{fill:#4E3D3D;}
	.st1544{fill:#726A6A;}
	.st1545{fill:#2C2626;}
	.st1546{fill:#543C3A;}
	.st1547{fill:#1A1B1C;}
	.st1548{fill:#1F1313;}
	.st1549{fill:#0D1B1B;}
	.st1550{fill:#433233;}
	.st1551{fill:#634F4E;}
	.st1552{fill:#0D1416;}
	.st1553{fill:#593F3E;}
	.st1554{fill:#433232;}
	.st1555{fill:#140C0D;}
	.st1556{fill:#3A2B2B;}
	.st1557{fill:#403838;}
	.st1558{fill:#675959;}
	.st1559{fill:#252020;}
	.st1560{fill:#524141;}
	.st1561{fill:#4C3131;}
	.st1562{fill:#1E1413;}
	.st1563{fill:#090C0D;}
	.st1564{fill:#101617;}
	.st1565{fill:#181818;}
	.st1566{fill:#4B4343;}
	.st1567{fill:#252222;}
	.st1568{fill:#0D1213;}
	.st1569{fill:#0A0C0D;}
	.st1570{fill:#3C3B3B;}
	.st1571{fill:#635D5D;}
	.st1572{fill:#16090A;}
	.st1573{fill:#574C4C;}
	.st1574{fill:#171112;}
	.st1575{fill:#554747;}
	.st1576{fill:#2D2626;}
	.st1577{fill:#736E6E;}
	.st1578{fill:#1A1111;}
	.st1579{fill:#604B4A;}
	.st1580{fill:#533334;}
	.st1581{fill:#727070;}
	.st1582{fill:#483D3D;}
	.st1583{fill:#554F4F;}
	.st1584{fill:#584646;}
	.st1585{fill:#594C4C;}
	.st1586{fill:#373030;}
	.st1587{fill:#4F3838;}
	.st1588{fill:#170C0D;}
	.st1589{fill:#241715;}
	.st1590{fill:#0A090A;}
	.st1591{fill:#573C3A;}
	.st1592{fill:#5D5959;}
	.st1593{fill:#443737;}
	.st1594{fill:#4D3535;}
	.st1595{fill:#211413;}
	.st1596{fill:#0B1212;}
	.st1597{fill:#231010;}
	.st1598{fill:#1F100E;}
	.st1599{fill:#221F1F;}
	.st1600{fill:#5C4F4F;}
	.st1601{fill:#150E0D;}
	.st1602{fill:#443535;}
	.st1603{fill:#433D3D;}
	.st1604{fill:#323131;}
	.st1605{fill:#332929;}
	.st1606{fill:#3B3131;}
	.st1607{fill:#1C0E10;}
	.st1608{fill:#262121;}
	.st1609{fill:#090B0C;}
	.st1610{fill:#190E0D;}
	.st1611{fill:#261717;}
	.st1612{fill:#1D1B1A;}
	.st1613{fill:#0E0E10;}
	.st1614{fill:#504444;}
	.st1615{fill:#565454;}
	.st1616{fill:#563D3D;}
	.st1617{fill:#251413;}
	.st1618{fill:#634F50;}
	.st1619{fill:#141C1C;}
	.st1620{fill:#5E4947;}
	.st1621{fill:#4B3536;}
	.st1622{fill:#372626;}
	.st1623{fill:#463D3E;}
	.st1624{fill:#584B4B;}
	.st1625{fill:#0B0E10;}
	.st1626{fill:#1A0B0C;}
	.st1627{fill:#563B3B;}
	.st1628{fill:#493C3C;}
	.st1629{fill:#4E4B4B;}
	.st1630{fill:#4B3D3D;}
	.st1631{fill:#251819;}
	.st1632{fill:#101C1B;}
	.st1633{fill:#6D6666;}
	.st1634{fill:#544E4E;}
	.st1635{fill:#4B4545;}
	.st1636{fill:#615D5D;}
	.st1637{fill:#553E3E;}
	.st1638{fill:#4A4242;}
	.st1639{fill:#645353;}
	.st1640{fill:#261614;}
	.st1641{fill:#352929;}
	.st1642{fill:#0E1717;}
	.st1643{fill:#1F1918;}
	.st1644{fill:#3B3636;}
	.st1645{fill:#0D1110;}
	.st1646{fill:#6A5B5B;}
	.st1647{fill:#4E3E3E;}
	.st1648{fill:#3D3434;}
	.st1649{fill:#454242;}
	.st1650{fill:#615454;}
	.st1651{fill:#211211;}
	.st1652{fill:#241111;}
	.st1653{fill:#493132;}
	.st1654{fill:#201112;}
	.st1655{fill:#534747;}
	.st1656{fill:#5D4342;}
	.st1657{fill:#665555;}
	.st1658{fill:#291718;}
	.st1659{fill:#120A0B;}
	.st1660{fill:#554545;}
	.st1661{fill:#221E1E;}
	.st1662{fill:#0F1815;}
	.st1663{fill:#151818;}
	.st1664{fill:#292828;}
	.st1665{fill:#2D2929;}
	.st1666{fill:#3F3736;}
	.st1667{fill:#4A3837;}
	.st1668{fill:#656262;}
	.st1669{fill:#091212;}
	.st1670{fill:#080A08;}
	.st1671{fill:#5B4545;}
	.st1672{fill:#101A1A;}
	.st1673{fill:#494747;}
	.st1674{fill:#434141;}
	.st1675{fill:#1B0C0D;}
	.st1676{fill:#1B0E0D;}
	.st1677{fill:#201617;}
	.st1678{fill:#150A08;}
	.st1679{fill:#332424;}
	.st1680{fill:#0D1212;}
	.st1681{fill:#3B2B2B;}
	.st1682{fill:#14191A;}
	.st1683{fill:#5B4947;}
	.st1684{fill:#4A3838;}
	.st1685{fill:#241819;}
	.st1686{fill:#16191A;}
	.st1687{fill:#1A1110;}
	.st1688{fill:#080B0B;}
	.st1689{fill:#3E3030;}
	.st1690{fill:#1C1313;}
	.st1691{fill:#0F1416;}
	.st1692{fill:#3B2C2C;}
	.st1693{fill:#483E3E;}
	.st1694{fill:#121A1A;}
	.st1695{fill:#2F2A2A;}
	.st1696{fill:#423333;}
	.st1697{fill:#020000;stroke:#231F20;stroke-miterlimit:10;}
	.st1698{fill:none;stroke:#231F20;stroke-miterlimit:10;}
	.st1699{stroke:#231F20;stroke-miterlimit:10;}
	.st1700{fill:none;stroke:#231F20;stroke-width:0.4126;stroke-miterlimit:10;}
	.st1701{fill:none;stroke:#231F20;stroke-width:0.8252;stroke-miterlimit:10;}
	.st1702{fill:#231F20;}
</style>
<g>
	<g>
		<g>
			<path class="st1702" d="M372.4,638.7h28.5l2.2-32c1.9-0.1,3.9-0.2,5.8-0.4l7.7,31.1l28-4.9l-3.4-31.8c1.9-0.5,3.7-1,5.6-1.5
				l13,29.3l26.8-9.7l-8.9-30.8c1.8-0.8,3.5-1.6,5.2-2.4l17.8,26.6l24.7-14.2L511.1,569c1.6-1.1,3.1-2.2,4.7-3.3l22.3,23.2
				l21.8-18.3l-19-26c1.4-1.3,2.7-2.7,4.1-4.1l26,19l18.3-21.8l-23.2-22.3c1.1-1.6,2.3-3.1,3.3-4.7l28.8,14.1l14.2-24.7l-26.6-17.8
				c0.8-1.7,1.6-3.5,2.4-5.2l30.8,8.9l9.7-26.8l-29.3-13c0.5-1.9,1.1-3.7,1.6-5.6l31.8,3.4l4.9-28l-31.1-7.7
				c0.2-1.9,0.3-3.8,0.4-5.8l32-2.2V372l-32-2.2c-0.1-1.9-0.2-3.9-0.4-5.8l31.1-7.7l-5-28l-31.8,3.4c-0.5-1.9-1-3.7-1.6-5.6l29.3-13
				l-9.7-26.8l-30.8,8.9c-0.8-1.8-1.6-3.5-2.4-5.3l26.6-17.8l-14.2-24.7l-28.8,14.1c-1.1-1.6-2.2-3.1-3.3-4.7l23.2-22.3L570.9,213
				l-26,19c-1.3-1.4-2.7-2.7-4.1-4.1l19-26l-21.8-18.3l-22.3,23.2c-1.6-1.1-3.1-2.3-4.7-3.3l14.1-28.8l-24.7-14.2L482.7,187
				c-1.7-0.8-3.5-1.6-5.3-2.4l8.9-30.8l-26.8-9.7l-13,29.3c-1.9-0.5-3.7-1.1-5.6-1.5l3.4-31.8l-28-4.9l-7.7,31.1
				c-1.9-0.2-3.8-0.3-5.8-0.4l-2.2-32h-28.5l-2.2,32c-1.9,0.1-3.8,0.2-5.8,0.4l-7.7-31.1l-28,4.9l3.4,31.8c-1.9,0.5-3.7,1-5.6,1.5
				l-13-29.3l-26.8,9.7l8.9,30.8c-1.8,0.8-3.5,1.6-5.3,2.4l-17.9-26.6L248,174.6l14.2,28.8c-1.6,1.1-3.1,2.2-4.7,3.3l-22.3-23.2
				l-21.8,18.3l19,26c-1.4,1.3-2.7,2.7-4.1,4.1l-26-19L184,234.8l23.2,22.3c-1.1,1.6-2.3,3.1-3.3,4.7l-28.8-14.2l-14.2,24.7
				l26.6,17.8c-0.8,1.7-1.6,3.5-2.4,5.3l-30.8-8.9l-9.7,26.8l29.3,13c-0.5,1.9-1.1,3.7-1.6,5.6l-31.8-3.4l-4.9,28.1l31.1,7.7
				c-0.2,1.9-0.3,3.8-0.4,5.8l-32,2.2v28.5l32,2.2c0.1,1.9,0.2,3.9,0.4,5.8l-31.1,7.7l5,28l31.8-3.4c0.5,1.9,1,3.7,1.5,5.6l-29.3,13
				l9.7,26.8L185,477c0.8,1.8,1.6,3.5,2.4,5.2l-26.6,17.8l14.2,24.7l28.8-14.1c1.1,1.6,2.2,3.1,3.3,4.7L184,537.6l18.3,21.8l26-19
				c1.3,1.4,2.7,2.7,4.1,4.1l-19,26l21.8,18.3l22.3-23.2c1.6,1.1,3.1,2.3,4.7,3.3L248,597.8l24.7,14.2l17.8-26.6
				c1.7,0.8,3.5,1.6,5.2,2.4l-8.9,30.8l26.8,9.7l13-29.3c1.9,0.5,3.7,1.1,5.6,1.5l-3.4,31.8l28.1,4.9l7.7-31.1
				c1.9,0.2,3.8,0.3,5.8,0.4L372.4,638.7z M441,497c0,30-24.3,54.3-54.3,54.3c-30,0-54.3-24.3-54.3-54.3c0-30,24.3-86,54.3-86
				C416.6,411,441,467,441,497z M288.6,485.6c-7.4-7.4-7.4-19.4,0-26.9c7.4-7.4,19.4-7.4,26.8,0c7.4,7.4,7.4,19.4,0,26.8
				C308.1,493,296,493,288.6,485.6z M275.9,331.9c30,0,86,24.3,86,54.3c0,30-56,54.3-86,54.3c-30,0-54.3-24.3-54.3-54.3
				C221.5,356.2,245.9,331.9,275.9,331.9z M287.3,316.4c-7.4-7.4-7.4-19.4,0-26.9c7.4-7.4,19.4-7.4,26.9,0c7.4,7.4,7.4,19.4,0,26.9
				C306.7,323.8,294.7,323.8,287.3,316.4z M332.3,275.4c0-30,24.3-54.3,54.3-54.3c30,0,54.3,24.3,54.3,54.3c0,30-24.3,86-54.3,86
				C356.6,361.4,332.3,305.4,332.3,275.4z M483.3,288.2c7.4,7.4,7.4,19.4,0,26.9c-7.4,7.4-19.4,7.4-26.9,0c-7.4-7.4-7.4-19.4,0-26.9
				C463.9,280.8,475.9,280.8,483.3,288.2z M497.4,440.5c-30,0-86-24.3-86-54.3c0-30,56-54.3,86-54.3c30,0,54.3,24.3,54.3,54.3
				C551.7,416.2,527.4,440.5,497.4,440.5z M386.6,404.1c-9.9,0-17.9-8-17.9-17.9c0-9.9,8-17.9,17.9-17.9c9.9,0,17.9,8,17.9,17.9
				C404.5,396.1,396.5,404.1,386.6,404.1z M484.6,457.4c7.4,7.4,7.4,19.4,0,26.9c-7.4,7.4-19.4,7.4-26.9,0c-7.4-7.4-7.4-19.4,0-26.9
				C465.2,450,477.2,450,484.6,457.4z M575.9,393h14.7c-2.3,70.2-40.2,131.5-96.1,166.4l-7.3-12.6
				C538.8,514.4,573.6,457.9,575.9,393z M575.9,379.5c-2.3-64.9-37.2-121.4-88.8-153.8l7.3-12.6c56,35,93.8,96.3,96.1,166.4H575.9z
				 M475.4,218.9c-26.5-14.1-56.7-22.1-88.8-22.1c-32.1,0-62.3,8-88.8,22.1l-7.3-12.6c28.7-15.4,61.4-24.1,96.1-24.1
				c34.7,0,67.4,8.7,96.1,24.1L475.4,218.9z M286.1,225.6c-51.6,32.4-86.5,88.9-88.8,153.8h-14.6C185,309.3,222.9,248,278.8,213
				L286.1,225.6z M197.3,393c2.3,64.9,37.2,121.4,88.8,153.8l-7.3,12.6c-56-35-93.8-96.3-96.1-166.4H197.3z M297.8,553.6
				c26.5,14.1,56.7,22.1,88.8,22.1c32.1,0,62.3-8,88.8-22.1l7.3,12.6c-28.7,15.4-61.4,24.1-96.1,24.1c-34.7,0-67.5-8.7-96.1-24.1
				L297.8,553.6z"/>
		</g>
	</g>
	<g>
		<g>
			<path class="st1702" d="M698.4,819.9l36.8,6.5l6.8-22c1.9,0.1,3.9,0.1,5.8,0.1c2,0,3.9-0.1,5.9-0.1l6.8,22l36.8-6.5l-1.2-23
				c3.7-1.2,7.4-2.5,11-4l13.9,18.4l32.4-18.7l-9-21.3c3.1-2.4,6.1-4.9,9-7.5l19.4,12.5l24-28.6L881,730.8c2.1-3.3,4-6.7,5.9-10.1
				l22.5,5.1l12.8-35.1l-20.5-10.5c0.8-3.8,1.5-7.6,2-11.5l22.9-2.9l0-37.4l-22.9-2.9c-0.5-3.9-1.2-7.7-2-11.5l20.5-10.5l-12.8-35.1
				l-22.5,5.1c-1.8-3.4-3.8-6.8-5.9-10.1l15.7-16.9l-24-28.6l-19.4,12.5c-2.9-2.6-5.9-5.1-8.9-7.5l9-21.3L821,483.1l-13.9,18.4
				c-3.6-1.5-7.3-2.8-11-4l1.1-23l-36.8-6.5l-6.8,22c-1.9-0.1-3.9-0.1-5.8-0.1c-2,0-3.9,0.1-5.9,0.1l-6.8-22l-36.8,6.5l1.1,22.9
				c-3.7,1.2-7.4,2.5-11.1,4l-13.8-18.3l-32.3,18.7l9,21.2c-3.1,2.4-6.1,4.9-9,7.5L623,518.1l-24,28.6l15.6,16.8
				c-2.1,3.3-4.1,6.7-5.9,10.1l-22.4-5.1l-12.8,35.1l20.5,10.5c-0.8,3.8-1.5,7.7-2,11.6l-22.8,2.8l0,37.4l22.9,2.9
				c0.5,3.9,1.2,7.7,2,11.5l-20.5,10.5l12.8,35.1l22.5-5.1c1.8,3.4,3.8,6.8,5.9,10.1l-15.7,16.9l24,28.6l19.4-12.5
				c2.9,2.6,5.9,5.1,9,7.5l-9,21.3l32.4,18.7l13.9-18.4c3.6,1.5,7.3,2.8,11,4L698.4,819.9z M700.5,729.1c8.2,4.7,11,15.2,6.3,23.4
				c-4.7,8.2-15.2,11-23.4,6.3c-8.2-4.7-11-15.2-6.3-23.4C681.8,727.2,692.3,724.4,700.5,729.1z M818.5,735.4
				c4.7,8.2,1.9,18.7-6.3,23.4c-8.2,4.7-18.7,1.9-23.4-6.3c-4.7-8.2-1.9-18.7,6.3-23.4C803.3,724.4,813.8,727.2,818.5,735.4z
				 M730.7,759c0-9.5,7.7-17.1,17.1-17.1c9.5,0,17.1,7.7,17.1,17.1c0,9.5-7.7,17.1-17.1,17.1C738.4,776.1,730.7,768.4,730.7,759z
				 M678.9,647.2c0-38.1,30.9-68.9,68.9-68.9c38.1,0,68.9,30.9,68.9,68.9c0,38.1-30.9,68.9-68.9,68.9
				C709.8,716.1,678.9,685.3,678.9,647.2z M636.1,664.3c-9.5,0-17.1-7.7-17.1-17.1c0-9.5,7.7-17.1,17.1-17.1
				c9.5,0,17.1,7.7,17.1,17.1C653.2,656.7,645.6,664.4,636.1,664.3z M659.6,576.5c8.2,4.7,11,15.2,6.3,23.4
				c-4.7,8.2-15.2,11-23.4,6.3c-8.2-4.7-11-15.2-6.3-23.4C640.9,574.6,651.4,571.8,659.6,576.5z M859.4,582.8
				c4.7,8.2,1.9,18.7-6.3,23.4c-8.2,4.7-18.7,1.9-23.4-6.3c-4.7-8.2-1.9-18.7,6.3-23.4C844.2,571.8,854.7,574.6,859.4,582.8z
				 M859.6,630.1c9.5,0,17.1,7.7,17.1,17.1c0,9.5-7.7,17.1-17.1,17.1c-9.5,0-17.1-7.7-17.1-17.1
				C842.4,637.7,850.1,630.1,859.6,630.1z M665.9,694.5c4.7,8.2,1.9,18.7-6.3,23.4c-8.2,4.7-18.7,1.9-23.4-6.3
				c-4.7-8.2-1.9-18.7,6.3-23.4C650.7,683.5,661.2,686.3,665.9,694.5z M836,717.9c-8.2-4.7-11-15.2-6.3-23.4
				c4.7-8.2,15.2-11,23.4-6.3c8.2,4.7,11,15.2,6.3,23.4C854.7,719.9,844.2,722.7,836,717.9z M706.8,541.9c4.7,8.2,1.9,18.7-6.3,23.4
				c-8.2,4.7-18.7,1.9-23.4-6.3c-4.7-8.2-1.9-18.7,6.3-23.4C691.6,530.9,702.1,533.7,706.8,541.9z M747.8,518.3
				c9.5,0,17.1,7.7,17.1,17.1c0,9.5-7.7,17.1-17.1,17.1c-9.5,0-17.1-7.7-17.1-17.1C730.7,526,738.4,518.3,747.8,518.3z M795.1,565.3
				c-8.2-4.7-11-15.2-6.3-23.4c4.7-8.2,15.2-11,23.4-6.3c8.2,4.7,11,15.2,6.3,23.4C813.8,567.2,803.3,570,795.1,565.3z"/>
		</g>
		<g>
			<path class="st1702" d="M769.5,647.2c0-12-9.7-21.7-21.7-21.7c-12,0-21.7,9.7-21.7,21.7c0,12,9.7,21.7,21.7,21.7
				C759.8,668.9,769.5,659.2,769.5,647.2z"/>
		</g>
		<g>
			<path class="st1702" d="M804.2,647.2c0-15-5.9-29.2-16.5-39.8c-10.6-10.6-24.8-16.5-39.8-16.5c-15.1,0-29.2,5.9-39.8,16.5
				c-10.6,10.6-16.5,24.8-16.5,39.8c0,15.1,5.9,29.2,16.5,39.8c10.6,10.6,24.8,16.5,39.8,16.5C778.9,703.5,804.1,678.3,804.2,647.2z
				 M712.8,682.2c-9.3-9.3-14.5-21.8-14.5-35c0-13.2,5.1-25.6,14.5-35c9.3-9.3,21.8-14.5,35-14.5c13.2,0,25.6,5.1,35,14.5
				c9.3,9.3,14.5,21.8,14.5,35c0,27.3-22.2,49.5-49.5,49.5C734.6,696.7,722.2,691.5,712.8,682.2z"/>
		</g>
	</g>
	<g>
		
			<rect x="441.1" y="443.6" transform="matrix(0.4536 -0.8912 0.8912 0.4536 -369.8777 772.4301)" class="st1702" width="7.8" height="488.6"/>
	</g>
	<g>
		
			<rect x="702.6" y="171.6" transform="matrix(0.7215 -0.6924 0.6924 0.7215 -55.1998 590.593)" class="st1702" width="7.8" height="384.6"/>
	</g>
</g>
</svg>
