<?xml version="1.0" encoding="UTF-8"?>
<svg width="882px" height="582px" viewBox="0 0 882 582" version="1.1" xmlns="http://www.w3.org/2000/svg" xmlns:xlink="http://www.w3.org/1999/xlink">
    <!-- Generator: Sketch 51.2 (57519) - http://www.bohemiancoding.com/sketch -->
    <title>Slice 1</title>
    <desc>Created with Sketch.</desc>
    <defs></defs>
    <g id="Page-1" stroke="none" stroke-width="1" fill="none" fill-rule="evenodd">
        <g id="MAIN_SUPPORT_IAMGES-03" stroke="#231F20">
            <rect id="Rectangle-path" x="0.5" y="0.6" width="881" height="580.8"></rect>
            <g id="Group" transform="translate(3.000000, 3.000000)">
                <g id="Shape">
                    <g>
                        <g transform="translate(754.000000, 0.000000)">
                            <path d="M96.5,15.8 C100.9,18 104.3,16.1 105.8,14.8 C104.3,16.2 102.2,19.2 104.6,23.3 C107.7,28.4 119,27.2 118.1,20.9 C117.2,14.6 112,16.1 110.8,16.4 C109.6,16.7 111.7,18.6 110.1,20.6 C108.5,22.7 105.3,18.7 108,15.5 C109.6,13.7 110.6,10.2 110.6,10.2 C110.6,10.2 106.8,11.1 104.8,12.5 C101.3,15.1 97.1,12.1 99.3,10.6 C101.5,9.1 103.6,11.1 103.9,10 C104.2,8.9 105.9,4.1 99,3.3 C92.3,2.6 91,13 96.5,15.8 Z"></path>
                            <path d="M74.5,39.6 C75.7,38.6 75.8,36.8 74.7,35.8 C73.6,34.7 71.7,34.6 70.6,35.6 C69.4,36.6 69.3,38.3 70.4,39.4 C71.4,40.5 73.3,40.6 74.5,39.6 Z"></path>
                            <path d="M71.2,7.2 C73.3,14.8 83.1,11.2 85.9,11.2 C91.4,11.3 93.6,18.1 93.6,18.1 C93.6,18.1 94.2,10.9 88.1,9.3 C81.8,7.7 79.2,11.9 76.5,8.5 C73.8,5.1 79.7,5.3 79.7,5.3 C79.7,5.3 80.4,1.9 76,1.3 C73.4,1.1 70.1,3 71.2,7.2 Z"></path>
                            <path d="M55.9,11.9 C54.9,11.8 51.6,11.9 49,14.1 C46.4,16.3 46.4,17.8 45.3,19.2 C44.4,20.5 43.2,21.6 41.6,21.8 C40,22 37.8,20.8 37.5,18.9 C37.4,17.5 38.1,16.9 40.2,16.6 C41.6,16.4 41.8,16.3 42.1,16 C42.5,15.8 43,15 42.8,13.6 C42.6,11.7 40.9,11.1 39.6,11.3 C38.3,11.5 37.7,12.2 37.1,12.7 C36.5,13.3 35.1,15.4 35.7,19.2 C36,21.5 37.9,24.9 39.3,26.5 C42.6,30.4 47.5,34.6 54.1,33.8 C55.2,33.7 57.3,33.1 58.7,31.3 C48.1,31.3 46.2,17.2 55.9,11.9 Z"></path>
                            <path d="M45.5,6.7 C47.2,7.8 50.1,7.8 54.2,6.2 C57.3,5 61,5.1 63.1,6.9 C67.4,10.6 69.4,18.8 77,18.7 C84.2,18.6 86,14.2 86,14.2 C86,14.2 80.4,17.4 73.8,13.9 C67.2,10.4 66,2.6 57,1 C48,-0.6 42.3,4.4 45.5,6.7 Z"></path>
                            <path d="M47.9,9.5 C47.9,9.5 44.3,9.6 40.1,5.9 C36,2.4 29.6,-0.4 23.5,1 C17.5,2.5 4.6,6.7 0.9,4 C0.9,4 5,12.9 12,14.1 C19,15.4 28.3,6.7 32.6,7.7 C36.9,8.8 44.4,11.3 47.9,9.5 Z"></path>
                            <path d="M78.9,43.6 C77.8,44.7 77.9,46.4 79.1,47.4 C80.3,48.4 82.1,48.4 83.2,47.2 C84.3,46.1 84.3,44.4 83.1,43.4 C81.9,42.4 80,42.5 78.9,43.6 Z"></path>
                            <path d="M102.1,26.1 C102.1,26.1 109.5,28.2 109.6,33.2 C109.7,35.8 105.8,44.8 114,46.7 C118.6,47.8 120.6,44.7 120.2,42.4 C119.6,38.3 115.9,39 115.9,39 C115.9,39 116.1,44.3 112.4,41.9 C108.7,39.4 113.3,37 111.5,31.3 C109.9,25.4 102.1,26.1 102.1,26.1 Z"></path>
                            <path d="M99,52.9 C98,55.3 96,55.5 93.8,54.6 C92.8,54.3 90.6,55.5 89.9,57.4 C89.1,59.2 89.7,61.9 93.2,63.1 C97.5,64.6 102.2,61.4 103.6,57.8 C106.4,50.6 100.2,44.2 93.2,40.1 C94.5,39.4 95.5,38.5 96.1,37.6 C97.6,35.1 95.9,32.1 92.7,34.1 C89.5,36.2 88.2,31.9 88.2,31.9 C88.2,31.9 92,28.5 96.1,30 C100.2,31.6 102.2,31.2 100.6,28.1 C99.1,25.2 100.4,19.6 100.4,19.6 C100.4,19.6 94.2,20.7 91.2,19.4 C87.9,18 87.4,19.8 89.1,23.5 C90.8,27.2 87.1,30.8 87.1,30.8 C87.1,30.8 82.6,29.5 84.8,26.6 C87,23.6 83.8,22 81,23.4 C79.9,23.9 79,24.9 78.2,26.1 C73.8,19.7 66.8,13.9 59,16.6 C55.1,17.9 51.7,22.2 53.3,26.2 C54.7,29.5 57.6,30 59.6,29.3 C61.7,28.6 63,26.7 62.6,25.7 C61.7,23.6 61.9,21.8 64.5,20.9 C66,20.4 67.5,20.3 69.8,21.9 C72.2,23.5 77.1,29.8 77.9,33.3 C78.5,36.8 77.6,39.8 76.2,41.2 C74.6,42.8 70.4,45.3 69.3,42.1 C68.3,38.9 67.7,34.8 62.7,33.5 C57.7,32.2 55.2,38.2 60.3,39.3 C65.4,40.3 66.7,42.2 67.8,44.5 C68.7,46.2 66.6,50.7 66.6,50.7 C66.6,50.7 71.4,48.7 73.3,49.5 C75.9,50.6 77.9,51.8 79,56.5 C80.1,61.1 86.7,58.9 85.2,54.3 C83.8,49.7 79.4,49.2 76,48.3 C72.5,47.3 75.2,43.4 77,42 C78.5,40.7 81.8,39.8 85.6,40.5 C89.4,41.1 96.2,45.7 98,47.9 C99.6,50.1 99.5,51.5 99,52.9 Z"></path>
                            <path d="M107.1,72.8 C105.7,72.6 104.8,73.2 104.5,73.5 C104.2,73.7 104.1,73.9 103.9,75.2 C103.6,77.1 102.9,77.8 101.4,77.6 C99.3,77.3 98,75.4 98.2,73.8 C98.4,72.3 99.6,71.3 101,70.4 C102.6,69.4 104.2,69.3 106.6,67 C109,64.7 109.1,61.7 109,60.7 C103.2,69.6 87.9,67.8 87.8,58.2 C85.8,59.4 85.2,61.4 85,62.4 C84.2,68.5 88.7,73 93,76 C94.8,77.3 98.4,79 100.9,79.3 C105.1,79.8 107.3,78.5 108,78 C108.7,77.4 109.5,76.9 109.6,75.7 C109.7,74.6 109.1,73.1 107.1,72.8 Z"></path>
                            <path d="M106.7,44.2 C102.9,38.2 106.3,33 106.3,33 C106.3,33 101.6,34.7 101.4,41.3 C101.3,48.3 110.2,50.1 114.2,54.1 C116.2,56.1 116.3,59.4 115,62.3 C113.4,66 113.3,68.7 114.6,70.3 C117,73.3 122.4,68 120.6,59.7 C118.9,51.3 110.5,50.3 106.7,44.2 Z"></path>
                            <path d="M120.7,90.5 C122.2,84.9 119.3,79 115.4,75.3 C111.4,71.4 111.5,68.1 111.5,68.1 C109.5,71.3 112.3,78.2 113.3,82.1 C114.4,86 105,94.6 106.3,101.1 C107.7,107.6 117.4,111.3 117.4,111.3 C114.6,107.9 119.2,96.1 120.7,90.5 Z"></path>
                        </g>
                        <g>
                            <path d="M22.8,3.4 C16,4.2 17.6,9 18,10.1 C18.4,11.2 20.4,9.2 22.6,10.7 C24.8,12.2 20.5,15.2 17.1,12.6 C15.2,11.2 11.3,10.3 11.3,10.3 C11.3,10.3 12.3,13.8 13.9,15.6 C16.6,18.8 13.4,22.7 11.8,20.7 C10.2,18.7 12.3,16.8 11.1,16.5 C9.9,16.2 4.7,14.7 3.8,21 C3,27.3 14.2,28.5 17.4,23.4 C19.8,19.3 17.6,16.2 16.2,14.9 C17.7,16.2 21.1,18.2 25.5,15.9 C31,13 29.7,2.6 22.8,3.4 Z"></path>
                            <path d="M47.4,39.6 C46.2,38.6 46.1,36.8 47.3,35.8 C48.4,34.7 50.3,34.6 51.4,35.6 C52.6,36.6 52.7,38.3 51.6,39.4 C50.6,40.5 48.7,40.6 47.4,39.6 Z"></path>
                            <path d="M50.8,7.2 C48.7,14.8 38.9,11.2 36.1,11.2 C30.7,11.3 28.4,18.1 28.4,18.1 C28.4,18.1 27.8,10.9 33.9,9.3 C40.2,7.7 42.8,11.9 45.5,8.5 C48.2,5.1 42.3,5.3 42.3,5.3 C42.3,5.3 41.6,1.9 46,1.3 C48.6,1.1 51.9,3 50.8,7.2 Z"></path>
                            <path d="M66.1,11.9 C67.1,11.8 70.4,11.9 72.9,14.1 C75.4,16.3 75.5,17.8 76.6,19.2 C77.5,20.5 78.7,21.6 80.3,21.8 C81.9,22 84.1,20.8 84.3,18.9 C84.5,17.5 83.8,16.9 81.7,16.6 C80.3,16.4 80.1,16.3 79.8,16 C79.4,15.8 78.9,15 79,13.6 C79.3,11.7 80.9,11.1 82.3,11.3 C83.6,11.5 84.2,12.2 84.8,12.7 C85.4,13.3 86.8,15.4 86.2,19.2 C85.8,21.5 84,24.9 82.6,26.5 C79.4,30.4 74.4,34.6 67.8,33.8 C66.7,33.7 64.6,33.1 63.2,31.3 C73.8,31.3 75.8,17.2 66.1,11.9 Z"></path>
                            <path d="M76.5,6.7 C74.8,7.8 71.9,7.8 67.8,6.2 C64.6,5 61,5.1 58.9,6.9 C54.5,10.6 52.6,18.8 45,18.7 C37.8,18.6 36,14.2 36,14.2 C36,14.2 41.6,17.4 48.2,13.9 C54.7,10.4 56,2.6 65,1 C73.9,-0.6 79.7,4.4 76.5,6.7 Z"></path>
                            <path d="M74.1,9.5 C74.1,9.5 77.7,9.6 81.9,5.9 C86,2.4 92.4,-0.4 98.4,1 C104.5,2.5 117.4,6.7 121.1,4 C121.1,4 117.1,12.9 110,14.1 C102.9,15.4 93.7,6.7 89.4,7.7 C85.1,8.8 77.6,11.3 74.1,9.5 Z"></path>
                            <path d="M43.1,43.6 C44.2,44.7 44.1,46.4 42.9,47.4 C41.7,48.4 39.8,48.4 38.7,47.2 C37.6,46.1 37.7,44.4 38.9,43.4 C40.1,42.4 42,42.5 43.1,43.6 Z"></path>
                            <path d="M19.9,26.1 C19.9,26.1 12.5,28.2 12.3,33.2 C12.2,35.8 16.2,44.8 8,46.7 C3.4,47.8 1.4,44.7 1.7,42.4 C2.3,38.3 6.1,39 6.1,39 C6.1,39 5.9,44.3 9.6,41.9 C13.3,39.4 8.7,37 10.5,31.3 C12.1,25.4 19.9,26.1 19.9,26.1 Z"></path>
                            <path d="M23,52.9 C24,55.3 26.1,55.5 28.2,54.6 C29.3,54.3 31.4,55.5 32.1,57.4 C32.9,59.2 32.3,61.9 28.8,63.1 C24.6,64.6 19.9,61.4 18.4,57.8 C15.6,50.6 21.8,44.2 28.8,40.1 C27.5,39.4 26.4,38.5 25.9,37.6 C24.4,35.1 26.1,32.1 29.3,34.1 C32.5,36.2 33.8,31.9 33.8,31.9 C33.8,31.9 29.9,28.5 25.9,30 C21.8,31.6 19.8,31.2 21.4,28.1 C22.8,25.2 21.6,19.6 21.6,19.6 C21.6,19.6 27.8,20.7 30.8,19.4 C34.1,18 34.6,19.8 32.9,23.5 C31.2,27.2 34.9,30.8 34.9,30.8 C34.9,30.8 39.4,29.5 37.2,26.6 C35,23.6 38.3,22 41,23.4 C42.1,23.9 43,24.9 43.8,26.1 C48.2,19.7 55.2,13.9 63,16.6 C66.8,17.9 70.3,22.2 68.6,26.2 C67.3,29.5 64.4,30 62.4,29.3 C60.3,28.6 59,26.7 59.4,25.7 C60.3,23.6 60.1,21.8 57.5,20.9 C56,20.4 54.4,20.3 52.2,21.9 C49.8,23.5 44.9,29.8 44.1,33.3 C43.5,36.8 44.4,39.8 45.7,41.2 C47.3,42.8 51.5,45.3 52.6,42.1 C53.7,38.9 54.2,34.8 59.2,33.5 C64.2,32.2 66.6,38.2 61.6,39.3 C56.6,40.3 55.3,42.2 54.1,44.5 C53.2,46.2 55.3,50.7 55.3,50.7 C55.3,50.7 50.5,48.7 48.6,49.5 C46,50.6 44,51.8 42.9,56.5 C41.8,61.1 35.2,58.9 36.7,54.3 C38.1,49.7 42.5,49.2 46,48.3 C49.5,47.3 46.8,43.4 45,42 C43.5,40.7 40.2,39.8 36.4,40.5 C32.6,41.1 25.8,45.7 24,47.9 C22.4,50.1 22.5,51.5 23,52.9 Z"></path>
                            <path d="M14.9,72.8 C16.3,72.6 17.2,73.2 17.5,73.5 C17.8,73.7 17.9,73.9 18.1,75.2 C18.4,77.1 19.1,77.8 20.6,77.6 C22.7,77.3 24,75.4 23.8,73.8 C23.6,72.3 22.4,71.3 21,70.4 C19.3,69.4 17.8,69.3 15.4,67 C13,64.7 12.9,61.7 13,60.7 C18.8,69.6 34.1,67.8 34.2,58.2 C36.2,59.4 36.8,61.4 36.9,62.4 C37.8,68.5 33.2,73 29,76 C27.2,77.3 23.6,79 21.1,79.3 C17,79.8 14.7,78.5 14,78 C13.4,77.4 12.6,76.9 12.4,75.7 C12.2,74.6 12.9,73.1 14.9,72.8 Z"></path>
                            <path d="M15.3,44.2 C19.1,38.2 15.6,33 15.6,33 C15.6,33 20.3,34.7 20.5,41.3 C20.6,48.3 11.7,50.1 7.7,54.1 C5.7,56.1 5.6,59.4 6.9,62.3 C8.5,66 8.6,68.7 7.3,70.3 C4.9,73.3 -0.5,68 1.3,59.7 C3.1,51.3 11.5,50.3 15.3,44.2 Z"></path>
                            <path d="M1.3,90.5 C-0.3,84.9 2.7,79 6.6,75.3 C10.5,71.4 10.5,68.1 10.5,68.1 C12.4,71.3 9.7,78.2 8.7,82.1 C7.6,86 17,94.6 15.7,101.1 C14.2,107.6 4.6,111.3 4.6,111.3 C7.4,107.9 2.8,96.1 1.3,90.5 Z"></path>
                        </g>
                    </g>
                    <g transform="translate(0.000000, 464.000000)">
                        <g>
                            <path d="M25.5,96.2 C21.1,93.9 17.7,95.9 16.2,97.2 C17.6,95.8 19.8,92.8 17.4,88.7 C14.3,83.6 3,84.8 3.8,91.1 C4.7,97.4 9.9,95.9 11.1,95.6 C12.3,95.3 10.2,93.4 11.8,91.4 C13.4,89.3 16.6,93.3 13.9,96.5 C12.3,98.3 11.3,101.8 11.3,101.8 C11.3,101.8 15.1,100.9 17.1,99.5 C20.6,96.9 24.8,99.9 22.6,101.4 C20.4,102.9 18.3,100.9 18,102 C17.6,103.1 16,107.9 22.8,108.7 C29.7,109.4 31,99 25.5,96.2 Z"></path>
                            <path d="M47.4,72.4 C46.2,73.4 46.1,75.2 47.3,76.2 C48.4,77.3 50.3,77.4 51.4,76.4 C52.6,75.4 52.7,73.7 51.6,72.6 C50.6,71.5 48.7,71.4 47.4,72.4 Z"></path>
                            <path d="M50.8,104.8 C48.7,97.2 38.8,100.8 36.1,100.8 C30.6,100.7 28.4,93.9 28.4,93.9 C28.4,93.9 27.8,101.1 33.9,102.7 C40.2,104.3 42.8,100.1 45.5,103.5 C48.2,106.9 42.3,106.7 42.3,106.7 C42.3,106.7 41.6,110.1 46,110.7 C48.6,110.9 51.9,109 50.8,104.8 Z"></path>
                            <path d="M66.1,100.1 C67.1,100.2 70.4,100.1 73,97.9 C75.5,95.7 75.6,94.2 76.7,92.7 C77.6,91.4 78.8,90.3 80.4,90.1 C82,89.9 84.2,91.1 84.4,93 C84.6,94.4 83.9,95 81.8,95.3 C80.4,95.5 80.2,95.6 79.9,95.9 C79.5,96.1 78.9,96.9 79.1,98.3 C79.4,100.2 81,100.8 82.4,100.6 C83.7,100.4 84.3,99.7 84.9,99.2 C85.5,98.6 86.9,96.5 86.3,92.7 C85.9,90.4 84.1,87 82.7,85.4 C79.5,81.5 74.5,77.2 67.9,78.1 C66.8,78.2 64.7,78.8 63.3,80.6 C73.8,80.7 75.8,94.8 66.1,100.1 Z"></path>
                            <path d="M76.5,105.3 C74.8,104.2 71.9,104.2 67.8,105.8 C64.7,107 61,106.9 58.9,105.1 C54.5,101.4 52.6,93.2 45,93.3 C37.8,93.4 36,97.8 36,97.8 C36,97.8 41.6,94.6 48.2,98.1 C54.7,101.6 56,109.3 65,111 C73.9,112.6 79.7,107.6 76.5,105.3 Z"></path>
                            <path d="M74.1,102.5 C74.1,102.5 77.7,102.4 81.9,106.1 C86,109.6 92.4,112.4 98.4,111 C104.5,109.5 117.4,105.3 121.1,108 C121.1,108 117.1,99.1 110,97.9 C102.9,96.6 93.7,105.3 89.4,104.3 C85.1,103.2 77.6,100.7 74.1,102.5 Z"></path>
                            <path d="M43.1,68.4 C44.2,67.3 44.1,65.6 42.9,64.6 C41.7,63.6 39.9,63.6 38.7,64.8 C37.6,65.9 37.7,67.6 38.9,68.6 C40.2,69.6 42,69.5 43.1,68.4 Z"></path>
                            <path d="M19.9,85.9 C19.9,85.9 12.5,83.8 12.3,78.8 C12.2,76.2 16.2,67.2 8,65.3 C3.4,64.2 1.4,67.3 1.7,69.6 C2.3,73.7 6.1,73 6.1,73 C6.1,73 5.9,67.7 9.6,70.1 C13.3,72.6 8.7,75 10.5,80.7 C12.1,86.6 19.9,85.9 19.9,85.9 Z"></path>
                            <path d="M23,59.1 C24,56.7 26.1,56.5 28.2,57.4 C29.3,57.7 31.4,56.5 32.1,54.6 C32.9,52.8 32.3,50.1 28.8,48.9 C24.6,47.4 19.9,50.6 18.4,54.2 C15.6,61.4 21.8,67.8 28.8,71.9 C27.6,72.6 26.4,73.5 25.9,74.4 C24.4,76.9 26.1,79.9 29.3,77.9 C32.5,75.8 33.8,80.1 33.8,80.1 C33.8,80.1 29.9,83.5 25.9,82 C21.8,80.4 19.8,80.8 21.4,83.9 C22.8,86.8 21.6,92.4 21.6,92.4 C21.6,92.4 27.8,91.3 30.9,92.6 C34.2,94 34.7,92.2 33,88.5 C31.3,84.8 35,81.2 35,81.2 C35,81.2 39.5,82.4 37.3,85.4 C35.1,88.4 38.3,90 41.1,88.6 C42.1,88.1 43.1,87.1 43.8,85.9 C48.2,92.3 55.2,98.1 63,95.4 C66.8,94.1 70.3,89.8 68.6,85.8 C67.3,82.5 64.4,82 62.4,82.7 C60.3,83.4 59,85.3 59.3,86.3 C60.2,88.4 60,90.2 57.4,91.1 C55.9,91.6 54.3,91.7 52.1,90.1 C49.7,88.5 44.8,82.2 44,78.7 C43.4,75.2 44.3,72.2 45.6,70.8 C47.2,69.2 51.4,66.7 52.5,69.9 C53.6,73.1 54.1,77.2 59.1,78.5 C64.1,79.8 66.5,73.8 61.5,72.7 C56.5,71.7 55.2,69.8 54,67.5 C53.1,65.8 55.2,61.3 55.2,61.3 C55.2,61.3 50.4,63.3 48.5,62.5 C45.9,61.4 43.9,60.2 42.8,55.5 C41.7,50.9 35.1,53.1 36.6,57.7 C38,62.3 42.4,62.8 45.9,63.7 C49.4,64.7 46.7,68.6 44.9,70 C43.4,71.2 40.1,72.2 36.3,71.5 C32.5,70.9 25.7,66.3 23.9,64.2 C22.4,61.9 22.5,60.5 23,59.1 Z"></path>
                            <path d="M14.9,39.2 C16.3,39.4 17.2,38.8 17.5,38.5 C17.8,38.3 17.9,38.1 18.1,36.8 C18.4,34.9 19.1,34.2 20.6,34.4 C22.7,34.7 24,36.6 23.8,38.2 C23.6,39.7 22.4,40.7 21,41.6 C19.3,42.6 17.8,42.7 15.4,45 C13,47.3 12.9,50.3 13,51.3 C18.8,42.4 34.1,44.2 34.2,53.8 C36.2,52.6 36.8,50.6 36.9,49.6 C37.8,43.5 33.2,39 29,36 C27.2,34.7 23.6,33 21.1,32.7 C17,32.2 14.7,33.5 14,34 C13.4,34.6 12.6,35.1 12.4,36.3 C12.2,37.4 12.9,38.9 14.9,39.2 Z"></path>
                            <path d="M15.3,67.8 C19.1,73.8 15.6,79 15.6,79 C15.6,79 20.3,77.3 20.5,70.7 C20.6,63.7 11.7,61.9 7.7,57.9 C5.7,55.9 5.6,52.6 6.9,49.7 C8.5,46 8.6,43.3 7.3,41.7 C4.9,38.7 -0.5,44 1.3,52.3 C3.1,60.7 11.5,61.7 15.3,67.8 Z"></path>
                            <path d="M1.3,21.5 C-0.3,27.1 2.7,33 6.6,36.7 C10.5,40.6 10.5,43.9 10.5,43.9 C12.4,40.7 9.7,33.8 8.7,29.9 C7.6,26 17,17.4 15.7,10.9 C14.2,4.4 4.6,0.7 4.6,0.7 C7.4,4.1 2.9,15.9 1.3,21.5 Z"></path>
                        </g>
                        <g transform="translate(754.000000, 0.000000)">
                            <path d="M99.1,108.6 C106,107.8 104.3,103 104,101.9 C103.6,100.8 101.6,102.8 99.4,101.3 C97.2,99.8 101.5,96.8 104.9,99.4 C106.8,100.8 110.7,101.7 110.7,101.7 C110.7,101.7 109.7,98.2 108.1,96.4 C105.4,93.2 108.6,89.3 110.2,91.3 C111.8,93.3 109.6,95.2 110.9,95.5 C112.1,95.8 117.3,97.3 118.2,91 C119,84.7 107.8,83.5 104.6,88.6 C102.2,92.7 104.3,95.8 105.8,97.1 C104.2,95.8 100.9,93.8 96.5,96.1 C91,99 92.3,109.4 99.1,108.6 Z"></path>
                            <path d="M74.5,72.4 C75.7,73.4 75.8,75.2 74.7,76.2 C73.6,77.3 71.7,77.4 70.6,76.4 C69.4,75.4 69.3,73.7 70.4,72.6 C71.4,71.5 73.3,71.4 74.5,72.4 Z"></path>
                            <path d="M71.2,104.8 C73.3,97.2 83.1,100.8 85.9,100.8 C91.4,100.7 93.6,93.9 93.6,93.9 C93.6,93.9 94.2,101.1 88.1,102.7 C81.8,104.3 79.2,100.1 76.5,103.5 C73.8,106.9 79.7,106.7 79.7,106.7 C79.7,106.7 80.4,110.1 76,110.7 C73.4,110.9 70.1,109 71.2,104.8 Z"></path>
                            <path d="M55.9,100.1 C54.9,100.2 51.6,100.1 49,97.9 C46.4,95.7 46.4,94.2 45.3,92.7 C44.4,91.4 43.2,90.3 41.6,90.1 C40,89.9 37.8,91.1 37.5,93 C37.4,94.4 38.1,95 40.2,95.3 C41.6,95.5 41.8,95.6 42.1,95.9 C42.5,96.1 43,96.9 42.8,98.3 C42.6,100.2 40.9,100.8 39.6,100.6 C38.3,100.4 37.7,99.7 37.1,99.2 C36.5,98.6 35.1,96.5 35.7,92.7 C36,90.4 37.9,87 39.3,85.4 C42.6,81.5 47.5,77.2 54.1,78.1 C55.2,78.2 57.3,78.8 58.7,80.6 C48.1,80.7 46.2,94.8 55.9,100.1 Z"></path>
                            <path d="M45.5,105.3 C47.2,104.2 50.1,104.2 54.2,105.8 C57.3,107 61,106.9 63.1,105.1 C67.4,101.4 69.4,93.2 77,93.3 C84.2,93.4 86,97.8 86,97.8 C86,97.8 80.4,94.6 73.8,98.1 C67.2,101.6 66,109.3 57,111 C48,112.6 42.3,107.6 45.5,105.3 Z"></path>
                            <path d="M47.9,102.5 C47.9,102.5 44.3,102.4 40.1,106.1 C36,109.6 29.6,112.4 23.5,111 C17.5,109.5 4.6,105.3 0.9,108 C0.9,108 5,99.1 12,97.9 C19,96.6 28.3,105.3 32.6,104.3 C36.9,103.2 44.4,100.7 47.9,102.5 Z"></path>
                            <path d="M78.9,68.4 C77.8,67.3 77.9,65.6 79.1,64.6 C80.3,63.6 82.1,63.6 83.2,64.8 C84.3,65.9 84.3,67.6 83.1,68.6 C81.9,69.6 80,69.5 78.9,68.4 Z"></path>
                            <path d="M102.1,85.9 C102.1,85.9 109.5,83.8 109.6,78.8 C109.7,76.2 105.8,67.2 114,65.3 C118.6,64.2 120.6,67.3 120.2,69.6 C119.6,73.7 115.9,73 115.9,73 C115.9,73 116.1,67.7 112.4,70.1 C108.7,72.6 113.3,75 111.5,80.7 C109.9,86.6 102.1,85.9 102.1,85.9 Z"></path>
                            <path d="M99,59.1 C98,56.7 96,56.5 93.8,57.4 C92.8,57.7 90.6,56.5 89.9,54.6 C89.1,52.8 89.7,50.1 93.2,48.9 C97.5,47.4 102.2,50.6 103.6,54.2 C106.4,61.4 100.2,67.8 93.2,71.9 C94.5,72.6 95.5,73.5 96.1,74.4 C97.6,76.9 95.9,79.9 92.7,77.9 C89.5,75.8 88.2,80.1 88.2,80.1 C88.2,80.1 92,83.5 96.1,82 C100.2,80.4 102.2,80.8 100.6,83.9 C99.1,86.8 100.4,92.4 100.4,92.4 C100.4,92.4 94.2,91.3 91.2,92.6 C87.9,94 87.4,92.2 89.1,88.5 C90.8,84.8 87.1,81.2 87.1,81.2 C87.1,81.2 82.6,82.4 84.8,85.4 C87,88.4 83.8,90 81,88.6 C79.9,88.1 79,87.1 78.2,85.9 C73.8,92.3 66.8,98.1 59,95.4 C55.1,94.1 51.7,89.8 53.3,85.8 C54.7,82.5 57.6,82 59.6,82.7 C61.7,83.4 63,85.3 62.6,86.3 C61.7,88.4 61.9,90.2 64.5,91.1 C66,91.6 67.5,91.7 69.8,90.1 C72.2,88.5 77.1,82.2 77.9,78.7 C78.5,75.2 77.6,72.2 76.2,70.8 C74.6,69.2 70.4,66.7 69.3,69.9 C68.3,73.1 67.7,77.2 62.7,78.5 C57.7,79.8 55.2,73.8 60.3,72.7 C65.4,71.7 66.7,69.8 67.8,67.5 C68.7,65.8 66.6,61.3 66.6,61.3 C66.6,61.3 71.4,63.3 73.3,62.5 C75.9,61.4 77.9,60.2 79,55.5 C80.1,50.9 86.7,53.1 85.2,57.7 C83.8,62.3 79.4,62.8 76,63.7 C72.5,64.7 75.2,68.6 77,70 C78.5,71.2 81.8,72.2 85.6,71.5 C89.4,70.9 96.2,66.3 98,64.2 C99.6,61.9 99.5,60.5 99,59.1 Z"></path>
                            <path d="M107.1,39.2 C105.7,39.4 104.8,38.8 104.5,38.5 C104.2,38.3 104.1,38.1 103.9,36.8 C103.6,34.9 102.9,34.2 101.4,34.4 C99.3,34.7 98,36.6 98.2,38.2 C98.4,39.7 99.6,40.7 101,41.6 C102.6,42.6 104.2,42.7 106.6,45 C109,47.3 109.1,50.3 109,51.3 C103.2,42.4 87.9,44.2 87.8,53.8 C85.8,52.6 85.2,50.6 85,49.6 C84.2,43.5 88.7,39 93,36 C94.7,34.7 98.4,33 100.8,32.7 C105,32.2 107.2,33.5 107.9,34 C108.6,34.6 109.4,35.1 109.5,36.3 C109.7,37.4 109.1,38.9 107.1,39.2 Z"></path>
                            <path d="M106.7,67.8 C102.9,73.8 106.3,79 106.3,79 C106.3,79 101.6,77.3 101.4,70.7 C101.3,63.7 110.2,61.9 114.2,57.9 C116.2,55.9 116.3,52.6 115,49.7 C113.4,46 113.3,43.3 114.6,41.7 C117,38.7 122.4,44 120.6,52.3 C118.9,60.7 110.5,61.7 106.7,67.8 Z"></path>
                            <path d="M120.7,21.5 C122.2,27.1 119.3,33 115.4,36.7 C111.4,40.6 111.5,43.9 111.5,43.9 C109.5,40.7 112.3,33.8 113.3,29.9 C114.4,26 105,17.4 106.4,10.9 C107.8,4.4 117.5,0.7 117.5,0.7 C114.6,4.1 119.2,15.9 120.7,21.5 Z"></path>
                        </g>
                    </g>
                </g>
                <g transform="translate(85.000000, 6.000000)" id="Shape">
                    <g>
                        <path d="M699.4,4.4 C695.7,5.6 690.5,11.1 685.7,12.3 C679.6,13.8 672.3,13 666.9,9.9 C655.3,3.1 655.3,0.2 647.2,0.2 C639.2,0.2 369.5,0.2 369.5,0.2 L367.3,0.2 C363.7,0.2 356.9,1.5 354.4,9.3 C351.1,19 366.6,30.5 374,21.8 C381.5,13.2 373.1,9 371.3,8 C369.4,7 369.6,11.8 364.8,12.4 C362,12.8 360.8,10.1 362.2,7.7 C362.7,6.8 363.8,5.7 364.7,5 C365.5,4.3 367.9,2.7 370.6,2.7 C373.9,2.7 647.9,2.7 647.9,2.7 C647.9,2.7 654.2,2.8 661.1,9 C668,15.2 678.5,21.8 688.7,16.2 C692.4,14.2 694.9,12.3 696.5,10.3 C700.9,4.9 705.4,4.8 705.4,4.8 C705.4,4.8 702.4,3.4 699.4,4.4 Z"></path>
                        <path d="M6.5,4.4 C10.2,5.6 15.4,11.1 20.2,12.3 C26.3,13.8 33.6,13 39,9.9 C50.6,3.1 50.6,0.2 58.6,0.2 C66.6,0.2 336.3,0.2 336.3,0.2 L338.5,0.2 C342.1,0.2 348.9,1.5 351.4,9.3 C354.6,19 339.2,30.5 331.7,21.8 C324.3,13.2 332.7,9 334.5,8 C336.4,7 336.2,11.8 341,12.4 C343.8,12.8 345,10.1 343.6,7.7 C343.1,6.8 342,5.7 341.1,5 C340.3,4.3 337.9,2.7 335.2,2.7 C331.9,2.7 57.9,2.7 57.9,2.7 C57.9,2.7 51.6,2.8 44.8,9 C37.9,15.2 27.4,21.8 17.2,16.2 C13.4,14.2 11,12.3 9.4,10.3 C5,4.9 0.5,4.8 0.5,4.8 C0.5,4.8 3.6,3.4 6.5,4.4 Z"></path>
                    </g>
                    <g transform="translate(0.000000, 539.000000)">
                        <path d="M6.5,20.6 C10.2,19.4 15.4,13.9 20.2,12.7 C26.3,11.2 33.6,12 39,15.1 C50.6,21.9 50.6,24.8 58.6,24.8 C66.6,24.8 336.3,24.8 336.3,24.8 L338.5,24.8 C342.1,24.8 348.9,23.5 351.4,15.7 C354.6,6 339.2,-5.5 331.7,3.2 C324.3,11.8 332.7,16 334.5,17 C336.4,18 336.2,13.2 341,12.6 C343.8,12.2 345,14.9 343.6,17.3 C343.1,18.2 342,19.3 341.1,20 C340.3,20.7 337.9,22.3 335.2,22.3 C331.9,22.3 57.9,22.3 57.9,22.3 C57.9,22.3 51.6,22.2 44.8,16 C37.9,9.8 27.4,3.2 17.2,8.8 C13.4,10.8 11,12.7 9.4,14.7 C5,20.1 0.5,20.2 0.5,20.2 C0.5,20.2 3.6,21.6 6.5,20.6 Z"></path>
                        <path d="M699.4,20.6 C695.7,19.4 690.5,13.9 685.7,12.7 C679.6,11.2 672.3,12 666.9,15.1 C655.3,21.9 655.3,24.8 647.2,24.8 C639.2,24.8 369.5,24.8 369.5,24.8 L367.3,24.8 C363.7,24.8 356.9,23.5 354.4,15.7 C351.1,6 366.6,-5.5 374,3.2 C381.5,11.8 373.1,16 371.3,17 C369.4,18 369.6,13.2 364.8,12.6 C362,12.2 360.8,14.9 362.2,17.3 C362.7,18.2 363.8,19.3 364.7,20 C365.5,20.7 367.9,22.3 370.6,22.3 C373.9,22.3 647.9,22.3 647.9,22.3 C647.9,22.3 654.2,22.2 661.1,16 C668,9.8 678.5,3.2 688.7,8.8 C692.4,10.9 694.9,12.7 696.5,14.7 C700.9,20.1 705.4,20.2 705.4,20.2 C705.4,20.2 702.4,21.6 699.4,20.6 Z"></path>
                    </g>
                </g>
                <g transform="translate(7.000000, 80.000000)" id="Shape">
                    <g transform="translate(834.000000, 0.000000)">
                        <path d="M22.8,5.7 C21.5,9.1 15.5,13.9 14.3,18.3 C12.7,24 13.6,30.7 17,35.6 C24.4,46.3 27.6,46.3 27.6,53.7 C27.6,61.1 27.6,192.7 27.6,192.7 L27.6,194.7 C27.6,198 26.1,204.3 17.7,206.7 C7.1,209.6 -5.3,195.5 4.1,188.6 C13.5,181.7 18,189.4 19.1,191.2 C20.1,192.9 15,192.8 14.3,197.2 C13.9,199.7 16.8,200.9 19.4,199.6 C20.4,199.1 21.5,198.1 22.3,197.3 C23,196.5 24.8,194.4 24.8,191.9 C24.8,188.9 24.8,53.3 24.8,53.3 C24.8,53.3 24.7,47.5 17.9,41.2 C11.2,34.9 4.1,25.2 10.1,15.9 C12.3,12.4 14.3,10.2 16.5,8.7 C22.4,4.7 22.5,0.5 22.5,0.5 C22.5,0.5 24,3.1 22.8,5.7 Z"></path>
                        <path d="M22.8,410.3 C21.5,406.9 15.5,402.1 14.3,397.7 C12.7,392 13.6,385.3 17,380.4 C24.4,369.7 27.6,369.7 27.6,362.3 C27.6,354.9 27.6,223.3 27.6,223.3 L27.6,221.3 C27.6,218 26.1,211.7 17.7,209.3 C7.1,206.4 -5.3,220.5 4.1,227.4 C13.5,234.3 18,226.6 19.1,224.8 C20.1,223.1 15,223.2 14.3,218.8 C13.9,216.3 16.8,215.1 19.4,216.4 C20.4,216.9 21.5,217.9 22.3,218.7 C23,219.5 24.8,221.6 24.8,224.1 C24.8,227.1 24.8,362.7 24.8,362.7 C24.8,362.7 24.7,368.5 17.9,374.8 C11.2,381.1 4.1,390.8 10.1,400.1 C12.3,403.6 14.3,405.8 16.5,407.3 C22.4,411.3 22.5,415.5 22.5,415.5 C22.5,415.5 24,412.9 22.8,410.3 Z"></path>
                    </g>
                    <g>
                        <path d="M5.2,410.3 C6.5,406.9 12.4,402.2 13.7,397.7 C15.3,392 14.4,385.3 11,380.4 C3.6,369.7 0.5,369.7 0.5,362.3 C0.5,354.9 0.5,223.3 0.5,223.3 L0.5,221.3 C0.6,218 1.9,211.7 10.4,209.4 C21,206.5 33.3,220.6 24,227.5 C14.6,234.4 10.1,226.7 9,224.9 C8,223.2 13.1,223.3 13.8,218.9 C14.1,216.4 11.3,215.2 8.7,216.5 C7.7,217 6.6,218 5.8,218.8 C5.1,219.6 3.3,221.7 3.3,224.2 C3.3,227.2 3.3,362.8 3.3,362.8 C3.3,362.8 3.4,368.6 10.1,374.9 C16.8,381.2 23.9,390.9 17.9,400.2 C15.7,403.7 13.7,405.9 11.5,407.4 C5.6,411.4 5.5,415.6 5.5,415.6 C5.5,415.6 4,412.9 5.2,410.3 Z"></path>
                        <path d="M5.2,5.7 C6.5,9.1 12.4,13.9 13.7,18.3 C15.3,24 14.4,30.7 11,35.6 C3.6,46.3 0.5,46.3 0.5,53.7 C0.5,61.1 0.5,192.7 0.5,192.7 L0.5,194.7 C0.6,198 1.9,204.3 10.4,206.7 C21,209.6 33.3,195.5 24,188.6 C14.6,181.7 10.1,189.4 9,191.2 C8,192.9 13.1,192.8 13.8,197.2 C14.1,199.7 11.3,200.9 8.7,199.6 C7.7,199.1 6.6,198.1 5.8,197.3 C5.1,196.5 3.3,194.4 3.3,191.9 C3.3,188.9 3.3,53.3 3.3,53.3 C3.3,53.3 3.4,47.5 10.1,41.2 C16.8,34.9 23.9,25.2 17.9,15.9 C15.7,12.4 13.7,10.2 11.5,8.7 C5.6,4.7 5.5,0.5 5.5,0.5 C5.5,0.5 4,3.1 5.2,5.7 Z"></path>
                    </g>
                </g>
            </g>
            <path d="M735.6,562.6 L472.7,562.6 C473,561.9 473.2,561.2 473.4,560.5 C474.1,557.3 473.9,552.2 468.8,546.4 C465.5,542.5 460.7,540.4 455.5,540.4 C450.4,540.4 445.1,542.6 440.9,546.2 C436.8,542.5 431.5,540.4 426.4,540.4 C421.2,540.4 416.5,542.5 413.1,546.4 C408.1,552.2 407.8,557.3 408.5,560.5 C408.7,561.2 408.9,561.9 409.1,562.6 L146.3,562.6 C145.7,562.6 142.5,562 138.7,558.6 C130.3,550.9 121.8,547.1 113.4,547.1 C109,547.1 104.9,548.1 101,550.3 C99.1,551.3 97.5,552.3 96.1,553.4 C94.9,551.1 93.6,549 92.6,547.9 C87.3,541.6 81.3,538.1 74.7,537.6 C73.1,534.9 70.2,532.9 66.5,532.1 C66.3,532.1 66.1,532 66,532 C66.1,531.8 66.2,531.6 66.2,531.4 C67.6,528.5 66.9,525.1 64.4,522.8 C62.7,521.3 60.6,520.5 58.4,520.5 C57.3,520.5 56.1,520.7 55,521.1 C54.8,521.2 54.6,521.3 54.4,521.3 C54.3,521.1 54.3,520.9 54.2,520.7 C53.5,517.3 51.2,514.7 48.4,513.3 C47.9,508.4 45.1,502.5 37.2,496.9 C35.8,495.9 33.3,494.5 30.6,493.4 C32.1,491.8 33.6,489.8 35.1,487.5 C39.1,481.4 43.2,468.7 26,452.7 C22.3,449.3 21.7,446.3 21.6,445.7 L21.6,320.3 C23.5,320.9 25.3,321.1 26.8,321.1 C31,321.1 35.1,319.6 39.2,316.6 C45.1,312.3 47.1,305.4 44.6,298.7 C43.5,295.8 41.6,293.2 39.4,291 C41.6,288.8 43.5,286.2 44.6,283.3 C47.1,276.6 45.1,269.7 39.2,265.4 C35.1,262.4 31,260.9 26.8,260.9 C25.3,260.9 23.5,261.1 21.6,261.7 L21.6,136.4 C21.7,135.8 22.3,132.9 26,129.4 C43.1,113.4 39,100.8 35.1,94.6 C33.6,92.2 32.1,90.3 30.6,88.7 C33.3,87.6 35.8,86.3 37.1,85.3 C45.2,79.6 47.9,73.7 48.4,68.8 C51.3,67.4 53.5,64.7 54.2,61.4 C54.3,61.2 54.3,61 54.4,60.8 C54.6,60.9 54.8,61 55,61 C56.1,61.5 57.3,61.7 58.4,61.7 C60.6,61.7 62.7,60.9 64.4,59.4 C66.8,57.2 67.5,53.7 66.2,50.8 C66.1,50.6 66,50.4 65.9,50.2 C66.1,50.2 66.2,50.1 66.4,50.1 C70.1,49.3 73,47.3 74.5,44.6 C81.1,44 87.2,40.6 92.4,34.3 C93.4,33.1 94.8,31 95.9,28.7 C97.3,29.7 99,30.7 100.8,31.8 C104.7,33.9 108.8,35 113.2,35 C121.6,35 130.1,31.1 138.5,23.5 C142.3,20.1 145.5,19.5 146.1,19.4 L408.9,19.4 C408.7,20.1 408.5,20.8 408.3,21.5 C407.6,24.7 407.8,29.8 412.9,35.6 C416.2,39.5 421,41.6 426.2,41.6 C431.3,41.6 436.6,39.4 440.7,35.8 C444.9,39.5 450.2,41.6 455.3,41.6 C460.5,41.6 465.2,39.5 468.6,35.6 C473.6,29.8 473.9,24.7 473.2,21.5 C473,20.8 472.8,20.1 472.5,19.4 L735.4,19.4 C736,19.5 739.2,20 743.1,23.5 C751.5,31.2 760,35 768.4,35 C772.8,35 776.9,34 780.8,31.8 C782.7,30.8 784.3,29.8 785.7,28.7 C786.9,31 788.2,33.1 789.2,34.2 C794.5,40.5 800.5,44 807.1,44.6 C808.7,47.3 811.6,49.3 815.2,50.1 C815.4,50.1 815.6,50.2 815.7,50.2 C815.6,50.4 815.5,50.6 815.5,50.8 C814.1,53.7 814.8,57.2 817.2,59.4 C818.8,60.9 821,61.7 823.2,61.7 C824.3,61.7 825.5,61.5 826.6,61 C826.8,60.9 827,60.9 827.2,60.8 C827.2,61 827.3,61.2 827.4,61.4 C828.2,64.8 830.4,67.4 833.3,68.8 C833.8,73.7 836.5,79.6 844.5,85.2 C845.9,86.2 848.4,87.6 851.1,88.7 C849.6,90.3 848.1,92.3 846.6,94.6 C842.6,100.7 838.5,113.4 855.7,129.4 C859.3,132.8 860,135.8 860.1,136.4 L860.1,261.7 C858.2,261.1 856.4,260.9 854.9,260.9 C850.7,260.9 846.6,262.4 842.5,265.4 C836.6,269.7 834.6,276.6 837.1,283.3 C838.2,286.2 840,288.8 842.3,291 C840,293.2 838.2,295.8 837.1,298.7 C834.6,305.4 836.6,312.3 842.5,316.6 C846.6,319.6 850.7,321.1 854.9,321.1 C856.5,321.1 858.2,320.9 860.1,320.3 L860.1,445.6 C860,446.2 859.4,449.1 855.7,452.6 C838.6,468.6 842.7,481.2 846.6,487.4 C848.1,489.8 849.6,491.7 851.1,493.3 C848.4,494.4 845.9,495.7 844.6,496.7 C836.5,502.4 833.8,508.3 833.3,513.2 C830.4,514.6 828.2,517.2 827.4,520.6 C827.4,520.8 827.3,521 827.2,521.2 C827,521.1 826.8,521.1 826.6,521 C825.5,520.5 824.3,520.3 823.2,520.3 C821,520.3 818.8,521.1 817.2,522.6 C814.8,524.8 814,528.3 815.4,531.2 C815.5,531.4 815.6,531.6 815.7,531.8 C815.5,531.8 815.3,531.9 815.2,531.9 C811.5,532.7 808.6,534.7 807.1,537.4 C800.5,538 794.4,541.4 789.2,547.7 C788.2,548.9 786.8,551 785.6,553.3 C784.2,552.3 782.5,551.3 780.7,550.2 C776.8,548.1 772.7,547 768.3,547 C759.9,547 751.4,550.9 743,558.5 C739.5,561.9 736.3,562.5 735.6,562.6 Z" id="Shape" stroke-width="0.4126"></path>
            <path d="M147.2,556.4 C146.6,556.2 145.3,555.7 143.6,554.1 C133.8,545.3 123.7,540.8 113.5,540.8 C108.2,540.8 103.1,542 98.4,544.5 C98.2,544.3 98.1,544.1 98,544 C92.5,537.3 85.9,533.2 78.6,531.8 C77.2,530.3 75.6,529 73.7,528 C73.7,524.4 72.1,521 69.3,518.4 C66.5,515.8 62.7,514.3 58.8,514.3 C57.7,512.6 56.3,511.1 54.7,509.8 C53.1,503.1 48.7,497.1 41.4,492 C41.1,491.8 40.8,491.6 40.5,491.4 C40.7,491.1 40.8,490.9 41,490.7 C45.9,483 51.2,467.3 31,448.4 C29.3,446.8 28.7,445.6 28.5,445 L28.5,327.2 C33.7,326.9 38.7,324.9 43.5,321.4 C51.8,315.4 54.6,305.9 51.1,296.6 C50.4,294.6 49.3,292.8 48.1,291 C49.3,289.2 50.4,287.3 51.1,285.4 C54.6,276.1 51.7,266.6 43.5,260.6 C38.7,257.1 33.7,255.1 28.5,254.8 L28.5,137.1 C28.7,136.6 29.3,135.3 31,133.7 C51.2,114.8 46,99.1 41,91.4 C40.8,91.2 40.7,90.9 40.5,90.7 C40.8,90.5 41.1,90.3 41.3,90.2 C48.6,85.1 53,79.1 54.6,72.4 C56.2,71.2 57.6,69.6 58.7,67.9 C62.7,67.8 66.3,66.4 69.1,63.8 C71.9,61.2 73.4,57.7 73.5,54.1 C75.4,53.1 77,51.8 78.4,50.3 C85.7,48.9 92.2,44.8 97.8,38.1 C97.9,37.9 98,37.8 98.2,37.5 C103,39.9 108,41.2 113.3,41.2 C123.5,41.2 133.6,36.7 143.4,27.9 C145.1,26.3 146.5,25.8 147,25.6 L401.5,25.6 C401.8,29.4 403.3,34.3 407.8,39.5 C412.5,44.9 419.1,47.8 426.4,47.8 C431.3,47.8 436.4,46.3 440.9,43.7 C445.5,46.4 450.6,47.8 455.5,47.8 C462.8,47.8 469.4,44.9 474.1,39.5 C478.5,34.3 480.1,29.5 480.4,25.6 L734.9,25.6 C735.5,25.8 736.8,26.3 738.5,27.9 C748.3,36.7 758.4,41.2 768.6,41.2 C773.9,41.2 779,40 783.7,37.5 C783.9,37.7 783.9,37.9 784.1,38 C789.7,44.7 796.2,48.8 803.4,50.2 C804.8,51.7 806.5,53 808.3,54 C808.4,57.6 809.9,61.1 812.7,63.7 C815.5,66.3 819.2,67.7 823.2,67.8 C824.2,69.5 825.7,71 827.3,72.3 C828.9,79 833.3,85 840.6,90.1 C840.9,90.3 841.1,90.5 841.4,90.7 C841.2,91 841.1,91.2 840.9,91.4 C836,99.1 830.7,114.8 850.9,133.7 C852.6,135.3 853.2,136.6 853.4,137.1 L853.4,254.7 C848.2,255 843.2,257 838.3,260.5 C830.1,266.5 827.2,276 830.8,285.3 C831.5,287.3 832.5,289.1 833.8,290.9 C832.6,292.7 831.5,294.6 830.8,296.5 C827.3,305.8 830.1,315.3 838.3,321.3 C843.2,324.8 848.2,326.8 853.4,327.1 L853.4,444.7 C853.2,445.2 852.6,446.5 850.9,448.1 C830.7,467 835.9,482.7 840.9,490.4 C841.1,490.6 841.2,490.9 841.4,491.1 C841.1,491.3 840.8,491.5 840.6,491.6 C833.3,496.7 828.9,502.7 827.3,509.4 C825.7,510.6 824.2,512.2 823.2,513.9 C819.2,514 815.5,515.4 812.8,518 C810,520.6 808.5,524.1 808.4,527.7 C806.5,528.7 804.9,530 803.4,531.5 C796.1,532.9 789.7,537 784.1,543.7 C783.9,543.8 783.9,544 783.7,544.3 C778.9,541.9 773.9,540.6 768.6,540.6 C758.4,540.6 748.3,545.1 738.5,553.9 C736.8,555.4 735.4,556 734.9,556.2 L480.4,556.2 C480.1,552.4 478.6,547.5 474.1,542.3 C469.4,536.9 462.9,534 455.5,534 C450.6,534 445.5,535.5 440.9,538.1 C436.4,535.4 431.3,534 426.4,534 C419.1,534 412.5,536.9 407.8,542.3 C403.4,547.5 401.8,552.3 401.5,556.2 L147.2,556.2 L147.2,556.4 Z" id="Shape" stroke-width="0.8252"></path>
        </g>
    </g>
</svg>